<svg xmlns="http://www.w3.org/2000/svg" width="120" height="120" viewBox="0 0 120 120">
  <g id="Grupo_60436" data-name="Grupo 60436" transform="translate(0.439)">
    <g id="Grupo_60433" data-name="Grupo 60433" transform="translate(-0.44 0)">
      <rect id="Rectángulo_8743" data-name="Rectángulo 8743" width="120" height="120" fill="#344154" opacity="0"/>
      <path id="Trazado_112938" data-name="Trazado 112938" d="M1198.508,5568.863a49.407,49.407,0,1,1-49.408-49.407A49.407,49.407,0,0,1,1198.508,5568.863Z" transform="translate(-1088.604 -5507.985)" fill="#344154"/>
    </g>
    <g id="Grupo_60435" data-name="Grupo 60435" transform="translate(13.07 12.908)">
      <path id="Trazado_112939" data-name="Trazado 112939" d="M1195.55,5542.977a21.31,21.31,0,0,0-18.7-18.7l-19.956-2.32-52.99,52.991,40.982,40.982,52.99-52.991Z" transform="translate(-1103.9 -5521.953)" fill="#d9a171"/>
      <path id="Trazado_112940" data-name="Trazado 112940" d="M1200.287,5535.961h0l-62.292,65.335,19.62,20.578,50.735-53.213-2.223-20.042a21.918,21.918,0,0,0-5.839-12.658Z" transform="translate(-1114.377 -5527.901)" fill="#a37955"/>
      <g id="Grupo_60434" data-name="Grupo 60434" transform="translate(73.736 0.001)">
        <path id="Trazado_112941" data-name="Trazado 112941" d="M1225.1,5538.458l16.5-16.5,3.728,3.729-16.5,16.5Z" transform="translate(-1225.099 -5521.955)" fill="#4d628c"/>
      </g>
      <path id="Trazado_112942" data-name="Trazado 112942" d="M1228.338,5541.7l16.5-16.5,1.864,1.864-16.5,16.5Z" transform="translate(-1152.739 -5523.331)" fill="#283d66"/>
      <path id="Trazado_112943" data-name="Trazado 112943" d="M1221.511,5548.9a8,8,0,1,0,0,11.321,7.953,7.953,0,0,0,0-11.321Z" transform="translate(-1144.805 -5531.633)" fill="#fff"/>
      <path id="Trazado_112944" data-name="Trazado 112944" d="M1177.716,5583.607l.96-7.718-7.765.917-.594-3.574-13.022,4.053c-3.968,1.14-6.742,2.538-8.479,4.275a17.091,17.091,0,0,0,24.171,24.171c1.738-1.738,3.136-4.512,4.275-8.479l4.052-13.034Z" transform="translate(-1119.099 -5541.478)" fill="#ffd321"/>
      <path id="Trazado_112945" data-name="Trazado 112945" d="M1164.589,5612.7a16.979,16.979,0,0,0,12.085-5.006c1.738-1.738,3.136-4.512,4.275-8.479l4.052-13.035-3.6-.609.96-7.719-.021,0-29.839,29.84a16.981,16.981,0,0,0,12.085,5.006Z" transform="translate(-1122.592 -5543.354)" fill="#ffb454"/>
      <path id="Trazado_112946" data-name="Trazado 112946" d="M1163.468,5602.551c-2.3.112-10,.7-12.808,3.5a8.535,8.535,0,0,0,12.069,12.07c2.805-2.806,3.388-10.514,3.5-12.809l.141-2.9Z" transform="translate(-1121.274 -5553.536)" fill="#fff16b"/>
      <path id="Trazado_112947" data-name="Trazado 112947" d="M1152.5,5618.121a8.536,8.536,0,0,0,12.069,0c2.8-2.806,3.388-10.514,3.5-12.809l.142-2.9h0Z" transform="translate(-1123.032 -5553.536)" fill="#ffd321"/>
    </g>
  </g>
</svg>
