<svg xmlns="http://www.w3.org/2000/svg" width="267.36" height="71.261" viewBox="0 0 267.36 71.261">
  <g id="Grupo_60538" data-name="Grupo 60538" transform="translate(-667 -5396.991)">
    <path id="Trazado_108618" data-name="Trazado 108618" d="M895.248,2631.711a7.718,7.718,0,0,1-.778,2.624,4.3,4.3,0,0,1-1.494,1.736,3.526,3.526,0,0,1-2.008.536,2.8,2.8,0,0,1-2.4-1.222l-.334,1.037h-1.908l2.338-13.5h2.092l-.949,4.913a3.231,3.231,0,0,1,2.522-1.1,2.7,2.7,0,0,1,2.158,1.011,4.362,4.362,0,0,1,.822,2.671A12.458,12.458,0,0,1,895.248,2631.711Zm-2-1.177a2.5,2.5,0,0,0-.4-1.5,1.375,1.375,0,0,0-1.143-.558,2.451,2.451,0,0,0-2.127,1.213l-.685,3.937a1.66,1.66,0,0,0,1.661,1.24,2.072,2.072,0,0,0,1.736-.809,4.588,4.588,0,0,0,.874-2.355Q893.235,2630.956,893.244,2630.534Z" transform="translate(-219.327 2802.611)" fill="#344154"/>
    <path id="Trazado_108619" data-name="Trazado 108619" d="M904.319,2633.293h-7.357l.308-1.766h7.365Zm.65-3.726H897.6l.316-1.776h7.357Z" transform="translate(-219.327 2802.611)" fill="#344154"/>
    <path id="Trazado_108620" data-name="Trazado 108620" d="M935.738,2608.587a15.547,15.547,0,0,1,1.938-5.709,8.1,8.1,0,0,1,3.652-3.467l.316,1.265q-3.006,2.32-3.9,7.278a20.331,20.331,0,0,0-.334,3.489,9.643,9.643,0,0,0,.422,3.116,4.7,4.7,0,0,0,1.3,2.1l-.493,1.169a5.9,5.9,0,0,1-2.307-2.9,11.262,11.262,0,0,1-.734-4.588,13.552,13.552,0,0,1,.124-1.6Z" transform="translate(-219.327 2802.611)" fill="#344154"/>
    <path id="Trazado_108621" data-name="Trazado 108621" d="M971.29,2610.678l2.988-6.433h2.3l-5.634,11.153q-1.178,2.25-3.1,2.224a5.147,5.147,0,0,1-1.082-.176l.176-1.652.378.035a2.152,2.152,0,0,0,1.248-.286,2.385,2.385,0,0,0,.826-.971l.5-.984-1.59-9.343h2.162Z" transform="translate(-219.327 2802.611)" fill="#344154"/>
    <path id="Trazado_108622" data-name="Trazado 108622" d="M975.386,2617.842l-.326-1.213a9.655,9.655,0,0,0,2.918-3.907,17.816,17.816,0,0,0,1.284-5.823l.035-1.09q0-3.7-1.723-5.212l.5-1.177a5.394,5.394,0,0,1,1.727,1.727,8.2,8.2,0,0,1,1.064,2.641,12.8,12.8,0,0,1,.312,3.12,16.217,16.217,0,0,1-.866,4.75,12.728,12.728,0,0,1-2.061,3.885A7.771,7.771,0,0,1,975.386,2617.842Z" transform="translate(-219.327 2802.611)" fill="#344154"/>
    <path id="Trazado_108623" data-name="Trazado 108623" d="M983.375,2608.587a15.51,15.51,0,0,1,1.938-5.709,8.1,8.1,0,0,1,3.652-3.467l.316,1.265q-3.006,2.32-3.9,7.278a20.228,20.228,0,0,0-.334,3.489,9.646,9.646,0,0,0,.422,3.116,4.7,4.7,0,0,0,1.3,2.1l-.492,1.169a5.894,5.894,0,0,1-2.307-2.9,11.262,11.262,0,0,1-.734-4.588,13.756,13.756,0,0,1,.123-1.6Z" transform="translate(-219.327 2802.611)" fill="#344154"/>
    <path id="Trazado_108624" data-name="Trazado 108624" d="M1019.551,2607.356l2.241-3.111h2.434l-3.638,4.781,2.118,4.729h-2.18l-1.327-3.244-2.338,3.244h-2.426l3.753-4.922-2.048-4.588h2.18Z" transform="translate(-219.327 2802.611)" fill="#344154"/>
    <path id="Trazado_108625" data-name="Trazado 108625" d="M1029.913,2607.892h-5.23l.211-1.186,3.006-2.47a2.542,2.542,0,0,0,.958-1.318.637.637,0,0,0-.127-.567.733.733,0,0,0-.55-.216,1.052,1.052,0,0,0-.8.312,1.641,1.641,0,0,0-.4.77l-1.6.008a2.468,2.468,0,0,1,.857-1.731,2.746,2.746,0,0,1,1.911-.651,2.6,2.6,0,0,1,1.758.594,1.784,1.784,0,0,1,.6,1.489,3.026,3.026,0,0,1-1.363,2.154l-.694.527-1.38.967,3.085.018Z" transform="translate(-219.327 2802.611)" fill="#344154"/>
    <path id="Trazado_108626" data-name="Trazado 108626" d="M1029.851,2617.842l-.325-1.213a9.655,9.655,0,0,0,2.918-3.907,17.793,17.793,0,0,0,1.283-5.823l.036-1.09q0-3.7-1.723-5.212l.5-1.177a5.393,5.393,0,0,1,1.727,1.727,8.176,8.176,0,0,1,1.063,2.641,12.7,12.7,0,0,1,.312,3.12,16.182,16.182,0,0,1-.865,4.75,12.725,12.725,0,0,1-2.061,3.885A7.767,7.767,0,0,1,1029.851,2617.842Z" transform="translate(-219.327 2802.611)" fill="#344154"/>
    <path id="Trazado_108627" data-name="Trazado 108627" d="M1041.681,2609.175h-4.491l.308-1.722h4.491Z" transform="translate(-219.327 2802.611)" fill="#344154"/>
    <path id="Trazado_108628" data-name="Trazado 108628" d="M1048.1,2608.587a15.544,15.544,0,0,1,1.938-5.709,8.105,8.105,0,0,1,3.652-3.467l.317,1.265q-3.006,2.32-3.9,7.278a20.337,20.337,0,0,0-.334,3.489,9.673,9.673,0,0,0,.422,3.116,4.707,4.707,0,0,0,1.3,2.1l-.492,1.169a5.893,5.893,0,0,1-2.307-2.9,11.262,11.262,0,0,1-.734-4.588,13.558,13.558,0,0,1,.123-1.6Z" transform="translate(-219.327 2802.611)" fill="#344154"/>
    <path id="Trazado_108629" data-name="Trazado 108629" d="M1084.273,2607.356l2.241-3.111h2.435l-3.639,4.781,2.119,4.729h-2.18l-1.327-3.244-2.338,3.244h-2.426l3.753-4.922-2.048-4.588h2.18Z" transform="translate(-219.327 2802.611)" fill="#344154"/>
    <path id="Trazado_108630" data-name="Trazado 108630" d="M1088.026,2617.842l-.325-1.213a9.655,9.655,0,0,0,2.918-3.907,17.79,17.79,0,0,0,1.283-5.823l.035-1.09q0-3.7-1.722-5.212l.5-1.177a5.4,5.4,0,0,1,1.727,1.727,8.173,8.173,0,0,1,1.063,2.641,12.8,12.8,0,0,1,.312,3.12,16.183,16.183,0,0,1-.866,4.75,12.686,12.686,0,0,1-2.061,3.885A7.755,7.755,0,0,1,1088.026,2617.842Z" transform="translate(-219.327 2802.611)" fill="#344154"/>
    <path id="Trazado_108631" data-name="Trazado 108631" d="M1096.015,2608.587a15.548,15.548,0,0,1,1.938-5.709,8.106,8.106,0,0,1,3.652-3.467l.317,1.265q-3.006,2.32-3.9,7.278a20.324,20.324,0,0,0-.334,3.489,9.666,9.666,0,0,0,.422,3.116,4.706,4.706,0,0,0,1.3,2.1l-.492,1.169a5.893,5.893,0,0,1-2.307-2.9,11.262,11.262,0,0,1-.734-4.588,13.532,13.532,0,0,1,.123-1.6Z" transform="translate(-219.327 2802.611)" fill="#344154"/>
    <path id="Trazado_108632" data-name="Trazado 108632" d="M1132.191,2607.356l2.241-3.111h2.435l-3.639,4.781,2.118,4.729h-2.179l-1.327-3.244-2.338,3.244h-2.426l3.753-4.922-2.048-4.588h2.18Z" transform="translate(-219.327 2802.611)" fill="#344154"/>
    <path id="Trazado_108633" data-name="Trazado 108633" d="M1140.435,2610.678l2.989-6.433h2.3l-5.633,11.153q-1.179,2.25-3.1,2.224a5.136,5.136,0,0,1-1.081-.176l.176-1.652.378.035a2.154,2.154,0,0,0,1.248-.286,2.394,2.394,0,0,0,.826-.971l.5-.984-1.591-9.343h2.162Z" transform="translate(-219.327 2802.611)" fill="#344154"/>
    <path id="Trazado_108634" data-name="Trazado 108634" d="M1144.531,2617.842l-.325-1.213a9.655,9.655,0,0,0,2.918-3.907,17.79,17.79,0,0,0,1.283-5.823l.035-1.09q0-3.7-1.722-5.212l.5-1.177a5.4,5.4,0,0,1,1.727,1.727,8.2,8.2,0,0,1,1.063,2.641,12.806,12.806,0,0,1,.312,3.12,16.183,16.183,0,0,1-.866,4.75,12.686,12.686,0,0,1-2.061,3.885A7.764,7.764,0,0,1,1144.531,2617.842Z" transform="translate(-219.327 2802.611)" fill="#344154"/>
    <path id="Trazado_108635" data-name="Trazado 108635" d="M970.592,2652.036l-.211,1.116a3.626,3.626,0,0,1,2.821-1.283,2.3,2.3,0,0,1,1.978.953,3.814,3.814,0,0,1,.474,2.589l-1.028,6.143h-2.083l1.037-6.17a3.2,3.2,0,0,0,.009-.7,1.121,1.121,0,0,0-1.248-1.072,2.531,2.531,0,0,0-2.083,1.169l-1.187,6.776h-2.083l1.644-9.509Z" transform="translate(-219.327 2802.611)" fill="#344154"/>
    <path id="Trazado_108636" data-name="Trazado 108636" d="M1007.8,2655.156l2.241-3.111h2.435l-3.639,4.781,2.118,4.728h-2.18l-1.327-3.243-2.338,3.243h-2.425l3.752-4.921-2.047-4.588h2.179Z" transform="translate(-219.327 2802.611)" fill="#344154"/>
    <path id="Trazado_108637" data-name="Trazado 108637" d="M1018.158,2655.692h-5.229l.211-1.186,3.005-2.47a2.533,2.533,0,0,0,.958-1.319.636.636,0,0,0-.127-.566.732.732,0,0,0-.549-.216,1.055,1.055,0,0,0-.8.312,1.631,1.631,0,0,0-.4.769l-1.6.009a2.467,2.467,0,0,1,.857-1.731,2.742,2.742,0,0,1,1.911-.651,2.6,2.6,0,0,1,1.758.594,1.783,1.783,0,0,1,.6,1.489,3.022,3.022,0,0,1-1.362,2.154l-.7.527-1.38.967,3.085.017Z" transform="translate(-219.327 2802.611)" fill="#344154"/>
    <path id="Trazado_108638" data-name="Trazado 108638" d="M1023.686,2656.975H1019.2l.308-1.722h4.491Z" transform="translate(-219.327 2802.611)" fill="#344154"/>
    <path id="Trazado_108639" data-name="Trazado 108639" d="M1025.664,2656.386a15.512,15.512,0,0,1,1.938-5.708,8.1,8.1,0,0,1,3.652-3.467l.316,1.265q-3.006,2.32-3.9,7.278a20.341,20.341,0,0,0-.334,3.489,9.649,9.649,0,0,0,.422,3.116,4.7,4.7,0,0,0,1.3,2.1l-.493,1.169a5.893,5.893,0,0,1-2.307-2.9,11.255,11.255,0,0,1-.734-4.588,13.8,13.8,0,0,1,.123-1.6Z" transform="translate(-219.327 2802.611)" fill="#344154"/>
    <path id="Trazado_108640" data-name="Trazado 108640" d="M1057.4,2655.156l2.241-3.111h2.435l-3.639,4.781,2.119,4.728h-2.18l-1.327-3.243-2.338,3.243h-2.426l3.753-4.921-2.048-4.588h2.18Z" transform="translate(-219.327 2802.611)" fill="#344154"/>
    <path id="Trazado_108641" data-name="Trazado 108641" d="M1061.154,2665.641l-.325-1.213a9.654,9.654,0,0,0,2.918-3.906,17.79,17.79,0,0,0,1.283-5.823l.035-1.09q0-3.7-1.722-5.212l.5-1.178a5.421,5.421,0,0,1,1.727,1.727,8.194,8.194,0,0,1,1.063,2.642,12.81,12.81,0,0,1,.312,3.12,16.193,16.193,0,0,1-.866,4.75,12.708,12.708,0,0,1-2.061,3.885A7.746,7.746,0,0,1,1061.154,2665.641Z" transform="translate(-219.327 2802.611)" fill="#344154"/>
    <path id="Trazado_108642" data-name="Trazado 108642" d="M1074,2643.692h-5.23l.211-1.186,3.006-2.47a2.538,2.538,0,0,0,.958-1.319.636.636,0,0,0-.127-.566.734.734,0,0,0-.55-.216,1.051,1.051,0,0,0-.8.312,1.641,1.641,0,0,0-.4.769l-1.6.009a2.467,2.467,0,0,1,.857-1.731,2.74,2.74,0,0,1,1.911-.651,2.6,2.6,0,0,1,1.758.594,1.783,1.783,0,0,1,.6,1.489,3.027,3.027,0,0,1-1.363,2.154l-.694.527-1.38.967,3.085.017Z" transform="translate(-219.327 2802.611)" fill="#344154"/>
    <path id="Trazado_113199" data-name="Trazado 113199" d="M0,0H231.5" transform="translate(702.859 5433.033)" fill="none" stroke="#344154" stroke-width="2"/>
    <path id="Trazado_108643" data-name="Trazado 108643" d="M956.011,2606.223l-7.493,8.363h10.8l-.564,3.255H942.621l.451-2.611,8.765-9.329-5.543-9.249.4-2.272h15.566l-.58,3.287H951.209l4.818,8.234Z" transform="translate(-219.327 2802.611)" fill="#344154"/>
    <path id="Trazado_108644" data-name="Trazado 108644" d="M994.5,2654.023l-7.493,8.362h10.8l-.564,3.255H981.109l.451-2.61,8.765-9.33-5.543-9.249.4-2.272h15.566l-.58,3.288H989.7l4.818,8.233Z" transform="translate(-219.327 2802.611)" fill="#344154"/>
    <path id="Trazado_108645" data-name="Trazado 108645" d="M1046.8,2654.023l-7.493,8.362h10.8l-.564,3.255h-16.129l.451-2.61,8.765-9.33-5.543-9.249.4-2.272h15.566l-.58,3.288H1042l4.818,8.233Z" transform="translate(-219.327 2802.611)" fill="#344154"/>
    <path id="Trazado_108646" data-name="Trazado 108646" d="M999.482,2606.223l-7.492,8.363h10.8l-.564,3.255h-16.13l.452-2.611,8.765-9.329-5.543-9.249.4-2.272h15.565l-.58,3.287H994.681l4.818,8.234Z" transform="translate(-219.327 2802.611)" fill="#344154"/>
    <path id="Trazado_108647" data-name="Trazado 108647" d="M1071.074,2606.223l-7.493,8.363h10.8l-.564,3.255h-16.129l.451-2.611,8.766-9.329-5.543-9.249.4-2.272h15.566l-.58,3.287h-10.474l4.818,8.234Z" transform="translate(-219.327 2802.611)" fill="#344154"/>
    <path id="Trazado_108648" data-name="Trazado 108648" d="M1118.3,2606.223l-7.492,8.363h10.8l-.564,3.255h-16.13l.451-2.611,8.766-9.329-5.543-9.249.4-2.272h15.565l-.58,3.287H1113.5l4.817,8.234Z" transform="translate(-219.327 2802.611)" fill="#344154"/>
  </g>
</svg>
