<svg xmlns="http://www.w3.org/2000/svg" xmlns:xlink="http://www.w3.org/1999/xlink" width="221.701" height="168.944" viewBox="0 0 221.701 168.944">
  <defs>
    <clipPath id="clip-path">
      <path id="Trazado_111956" data-name="Trazado 111956" d="M213.83,139.439c1.315,4.434,5.027,3.761,9.461,2.405a8.379,8.379,0,0,0-4.747-16.036C214.1,127.123,212.523,135,213.83,139.439Z" transform="translate(-213.386 -125.597)" fill="#ffb685"/>
    </clipPath>
  </defs>
  <g id="Capa_2" data-name="Capa 2" transform="translate(0.643)">
    <g id="Grupo_60408" data-name="Grupo 60408" transform="translate(0 0)">
      <rect id="Rectángulo_8584" data-name="Rectángulo 8584" width="118.18" height="118.18" rx="12.73" transform="translate(21.36 33.797)" fill="#d0e0f0"/>
      <rect id="Rectángulo_8585" data-name="Rectángulo 8585" width="2.317" height="156.892" transform="translate(0 11.803)" fill="#d9a171"/>
      <rect id="Rectángulo_8586" data-name="Rectángulo 8586" width="197.031" height="2.317" transform="translate(0.233 166.626)" fill="#d9a171"/>
      <path id="Trazado_111949" data-name="Trazado 111949" d="M17.644,231.652l-.064-4.811c57.266-.818,100.284-51.461,117.924-138.859,2.405-11.835,3.9-20.214,3.921-20.3l4.731.858c0,.08-1.539,8.507-3.937,20.39-8.387,41.558-23.068,76.413-42.5,100.8C75.993,217.075,49.043,231.2,17.644,231.652Z" transform="translate(-16.866 -63.527)" fill="#d9a171"/>
      <path id="Trazado_111950" data-name="Trazado 111950" d="M182.165,91.654,165.287,68.931,140.27,84.59l-2.55-4.073L166.505,62.5,186.03,88.784Z" transform="translate(-40.676 -62.5)" fill="#d9a171"/>
      <g id="Grupo_60407" data-name="Grupo 60407" transform="translate(111.753 43.183)">
        <path id="Trazado_111951" data-name="Trazado 111951" d="M232.526,199.86H206.78l.69,55h4.915s3.72-27.671,5.124-42.962h3.408l1.026,42.962h4.915s5.805-43.138,5.613-51.453A31.174,31.174,0,0,0,232.526,199.86Z" transform="translate(-166.115 -132.905)" fill="#6595bf"/>
        <path id="Trazado_111952" data-name="Trazado 111952" d="M231.728,190.125H205.982l-3.207-34.2c-.289-2.79,2.405-5.188,5.837-5.188h20.5c3.424,0,6.126,2.405,5.837,5.188Z" transform="translate(-165.317 -123.17)" fill="#aed3f2"/>
        <path id="Trazado_111953" data-name="Trazado 111953" d="M220.551,155.482a1.074,1.074,0,0,0,1.964.08c1.147-2.349,3.664-5.861,3.664-6.6v-5.051c0-1.139-1.7-1.042-2.718-1.042H220.2c-1.01,0-2.718.922-2.718,2.069v4.009C217.48,149.693,219.645,153.133,220.551,155.482Z" transform="translate(-168.236 -121.61)" fill="#f9a369"/>
        <g id="Grupo_60406" data-name="Grupo 60406" transform="translate(45.962 7.409)">
          <path id="Trazado_111954" data-name="Trazado 111954" d="M213.83,139.439c1.315,4.434,5.027,3.761,9.461,2.405a8.379,8.379,0,0,0-4.747-16.036C214.1,127.123,212.523,135,213.83,139.439Z" transform="translate(-213.386 -125.597)" fill="#ffb685"/>
          <g id="Grupo_60405" data-name="Grupo 60405" clip-path="url(#clip-path)">
            <path id="Trazado_111955" data-name="Trazado 111955" d="M221.7,129.355s0,2.959.409,2.959a2.9,2.9,0,0,1,3.063.8c1.123,1.411-.1,2.854-1.427,3.167s-.409,3.769,2.75,3.159,4.29-8.018,2.654-10.913-6.84-6.022-8.676-5.821-13.944,6.727-13.944,6.727Z" transform="translate(-212.027 -125.022)" fill="#344154"/>
          </g>
        </g>
        <path id="Trazado_111957" data-name="Trazado 111957" d="M203.261,147.084l-18.787-5.725L167.3,125.78l-3.44,4.354s14.12,17.3,15.579,18.322,22.675,12.14,22.675,12.14Z" transform="translate(-157.609 -118.224)" fill="#aed3f2"/>
        <path id="Trazado_111958" data-name="Trazado 111958" d="M206.12,268.36h5V272.2H200.98c-.665,0-.9-1.507-.313-1.828Z" transform="translate(-164.837 -146.48)" fill="#344154"/>
        <path id="Trazado_111959" data-name="Trazado 111959" d="M224.44,268.36h5V272.2H219.3c-.666,0-.9-1.507-.313-1.828Z" transform="translate(-168.468 -146.48)" fill="#344154"/>
        <path id="Trazado_111960" data-name="Trazado 111960" d="M165.763,123.912s-.69-7.505-1.6-7.553c-2.117-.112-1.147,2.975-2.293,2.975s-2.285-1.828-4.121-.224-2.518,3.664-.232,5.268a58.133,58.133,0,0,1,4.811,3.889Z" transform="translate(-156.064 -116.356)" fill="#f9a369"/>
        <path id="Trazado_111961" data-name="Trazado 111961" d="M234.26,147.084l18.787-5.725,17.175-15.579,3.432,4.354s-14.112,17.3-15.571,18.322-22.675,12.14-22.675,12.14Z" transform="translate(-171.561 -118.224)" fill="#aed3f2"/>
        <path id="Trazado_111962" data-name="Trazado 111962" d="M279.11,123.912s.69-7.505,1.6-7.553c2.117-.112.762,3.32,1.908,3.32s4.354-4.009,6.182-2.405.842,5.5-1.451,7.1a59.728,59.728,0,0,0-4.811,3.889Z" transform="translate(-180.449 -116.356)" fill="#f9a369"/>
      </g>
    </g>
    <g id="Grupo_60409" data-name="Grupo 60409" transform="translate(0.713 33.797)">
      <path id="Trazado_111963" data-name="Trazado 111963" d="M17.58,265.936s.617-.337,1.74-.986" transform="translate(-17.58 -136.418)" fill="none" stroke="#a66d58" stroke-linecap="round" stroke-miterlimit="10" stroke-width="2"/>
      <path id="Trazado_111964" data-name="Trazado 111964" d="M24.12,232.064C37.294,224,71.8,200.793,87.5,170.212c10.792-21,17.087-50.1,19.107-60.6" transform="translate(-18.876 -105.633)" fill="none" stroke="#a66d58" stroke-linecap="round" stroke-miterlimit="10" stroke-width="2" stroke-dasharray="5.1 5.1"/>
      <path id="Trazado_111965" data-name="Trazado 111965" d="M127.49,106.614c.241-1.267.353-1.964.353-1.964" transform="translate(-39.362 -104.65)" fill="none" stroke="#a66d58" stroke-linecap="round" stroke-miterlimit="10" stroke-width="2"/>
    </g>
    <g id="Grupo_60410" data-name="Grupo 60410" transform="translate(7.024 71.089)">
      <path id="Trazado_111966" data-name="Trazado 111966" d="M25.45,271.449s.7-.128,1.964-.409" transform="translate(-25.45 -174.918)" fill="none" stroke="#e1b48d" stroke-linecap="round" stroke-miterlimit="10" stroke-width="2"/>
      <path id="Trazado_111967" data-name="Trazado 111967" d="M32.86,247.234c14.994-3.7,54.933-15.355,79.172-39.7C128.693,190.8,143.519,165,148.651,155.61" transform="translate(-26.919 -152.042)" fill="none" stroke="#e1b48d" stroke-linecap="round" stroke-miterlimit="10" stroke-width="2" stroke-dasharray="5.1 5.1"/>
      <path id="Trazado_111968" data-name="Trazado 111968" d="M178.49,152.932c.609-1.147.93-1.772.93-1.772" transform="translate(-55.78 -151.16)" fill="none" stroke="#e1b48d" stroke-linecap="round" stroke-miterlimit="10" stroke-width="2"/>
    </g>
  </g>
</svg>
