<svg xmlns="http://www.w3.org/2000/svg" width="704.81" height="426.98" viewBox="0 0 704.81 426.98">
  <g id="Capa_2" data-name="Capa 2" transform="translate(-79 -31.5)">
    <g id="Grupo_60307" data-name="Grupo 60307">
      <path id="Trazado_111397" data-name="Trazado 111397" d="M559.92,121.17c-.36-3.53-6.18-5.82-13-5.12-5.7.58-10.27,3.06-11.43,5.92l-.67-.11c-5.75-1-11.71-2.42-16.78-5.36h0c.45-.58.9-1.16,1.33-1.76a126.384,126.384,0,0,0,8.29-13.12c2.51,1.45,5.56,1.49,8.39,1.58a83.16,83.16,0,0,0,9.73-.28q3.75-.34,7.44-1a.743.743,0,0,0,.1.27c1.44,3.24,7.68,3.62,14,.85s10.2-7.65,8.77-10.89-7.68-3.62-13.95-.85c-4.92,2.18-8.39,5.64-9,8.6q-3.44.65-6.91,1a80.721,80.721,0,0,1-8.8.36c-2.88,0-6.21.11-8.78-1.37,3.07-5.62,5.92-11.37,8.89-17a1,1,0,0,0,.25.06,34.53,34.53,0,0,0,16.47-2.12c.88-.34,1.75-.72,2.61-1.1,2.48,1.79,7.59,1.63,12.72-.64,6.28-2.77,10.2-7.65,8.77-10.89s-7.68-3.61-14-.84-10,7.43-8.84,10.67a33.51,33.51,0,0,1-17,3c1.63-3.06,3.31-6.09,5.1-9.05a98.137,98.137,0,0,1,9.53-13.42c2.9,1.2,8-.86,12.15-5.16,4.78-4.92,6.59-10.9,4.05-13.37s-8.48-.49-13.25,4.43c-4.48,4.61-6.36,10.16-4.49,12.87A124.37,124.37,0,0,0,537.27,79a38.7,38.7,0,0,1-2-8c-.59-3.1-1.17-6.2-1.59-9.32-.28-2.06-.49-4.12-.6-6.19,2.39-1.81,4.06-6.35,4-11.66-.1-6.86-3-12.38-6.59-12.33s-6.34,5.65-6.24,12.51,3,12.38,6.59,12.33h.31q.2,3,.61,5.89c.43,3.13,1,6.24,1.59,9.34S534.48,78,536,81a1.1,1.1,0,0,0,.14.21q-1.4,2.66-2.77,5.31c-2.06,4-4.11,8-6.27,12a73.811,73.811,0,0,1-10.29-22.06c2.4-1.91,3.53-7,2.57-12.56-1.16-6.76-4.93-11.75-8.42-11.15S505.54,59.28,506.7,66s4.77,11.53,8.2,11.17a75.6,75.6,0,0,0,10.65,22.64,1,1,0,0,0,.54.4c-1.42,2.57-2.91,5.11-4.48,7.59q-2.6,4.09-5.56,7.89a1,1,0,0,0-.16-.21,61.492,61.492,0,0,1-10.31-14.28q-1.08-2.07-2.06-4.28c1.79-2.42,2.05-7.29.4-12.38-2.12-6.53-6.56-10.93-9.93-9.84s-4.39,7.3-2.28,13.83,6.56,10.93,9.93,9.84l.28-.11c.52,1.18,1.08,2.34,1.65,3.46A63.259,63.259,0,0,0,514.49,117a1.05,1.05,0,0,0,.37.25,109.507,109.507,0,0,1-9.53,10.35c-.64.61-1.3,1.22-2,1.82a1,1,0,0,0-.15-.2,56.719,56.719,0,0,1-6.28-7.9c1.43-2.57,1.52-7.08,0-11.76-2.12-6.53-6.57-10.93-9.94-9.84s-4.38,7.27-2.27,13.79,6.56,10.93,9.93,9.84a3.77,3.77,0,0,0,.92-.46,59.416,59.416,0,0,0,6.23,7.77.391.391,0,0,0,.1.08A228.862,228.862,0,0,1,482.6,145.9c-1,.75,0,2.49,1,1.74a230.405,230.405,0,0,0,20.14-15.92,56,56,0,0,0,7.64,4.2,2.118,2.118,0,0,0-.06.43c-.1,3.54,5.38,6.57,12.24,6.76s12.49-2.53,12.59-6.07-5.38-6.57-12.24-6.76c-5.29-.14-9.85,1.45-11.7,3.81a54.12,54.12,0,0,1-6.94-3.77A113.4,113.4,0,0,0,516.8,118a1,1,0,0,0,.27.22c5.44,3.16,11.91,4.72,18.08,5.68h.11c.61,3.37,6.31,5.53,13,4.85C555.05,128.11,560.28,124.69,559.92,121.17Z" fill="#aed3f2"/>
      <path id="Trazado_111398" data-name="Trazado 111398" d="M559.8,410.76a7,7,0,0,0,.67-7.27,10.66,10.66,0,0,0-5.59-5,22.841,22.841,0,0,0-7.51-1.52,28.9,28.9,0,0,0-12.55,1.59,120.881,120.881,0,0,1,8.93-16.43c.31-.47.62-.94.94-1.41l10.66,8c2.37,1.79,4.82,3.61,7.69,4.38s6.29.25,8.17-2.05a7,7,0,0,0,.68-7.27,10.66,10.66,0,0,0-5.59-5,22.831,22.831,0,0,0-7.51-1.51A28.38,28.38,0,0,0,545.87,379a124.157,124.157,0,0,1,13.2-16l11.11,7.72c2.44,1.69,5,3.42,7.85,4.08s6.3,0,8.1-2.36a7,7,0,0,0,.39-7.29,10.64,10.64,0,0,0-5.78-4.82,22.74,22.74,0,0,0-7.56-1.23,29.35,29.35,0,0,0-12.11,1.9,120.833,120.833,0,0,1,11.36-9.84c1.18-.9,2.38-1.77,3.6-2.63L587.72,356c2.49,1.61,5.06,3.25,8,3.82s6.29-.2,8-2.63a7,7,0,0,0,.15-7.3,10.61,10.61,0,0,0-5.93-4.63,22.9,22.9,0,0,0-7.6-1,31,31,0,0,0-10.83,1.79,116.287,116.287,0,0,1,13.15-7.41l13.53,1.05c3,.23,6,.45,8.84-.44s5.45-3.17,5.81-6.12a7,7,0,0,0-3.34-6.48,10.6,10.6,0,0,0-7.43-1.25,22.83,22.83,0,0,0-7.16,2.76c-4.14,2.28-8.1,5.24-10.53,9.28h0a118.61,118.61,0,0,0-14,7.92,30.339,30.339,0,0,0,4.68-10.5,22.9,22.9,0,0,0,.91-7.61,10.67,10.67,0,0,0-3.05-6.89,7,7,0,0,0-7.11-1.63c-2.77,1.08-4.34,4.17-4.5,7.13s.8,5.87,1.76,8.68q2.19,6.42,4.37,12.83A122.844,122.844,0,0,0,560.3,360a29.44,29.44,0,0,0,2.17-11.89,22.881,22.881,0,0,0-1-7.6,10.62,10.62,0,0,0-4.66-5.91,7,7,0,0,0-7.3.19c-2.42,1.73-3.17,5.11-2.59,8s2.24,5.48,3.86,8l7.42,11.35c-.15.14-.3.29-.44.44a126.236,126.236,0,0,0-12.85,15.68c1.3-4.31,1-9,.08-13.47a22.641,22.641,0,0,0-2.53-7.23,10.62,10.62,0,0,0-5.76-4.84,7,7,0,0,0-7.11,1.66c-2,2.18-2.07,5.64-.91,8.38s3.3,4.9,5.39,7l9.87,9.91-.15.24h-.14l.09.06a123.487,123.487,0,0,0-9.62,17.22A30.122,30.122,0,0,0,530,385.72a23.241,23.241,0,0,0-4.77-6.18,10.88,10.88,0,0,0-7.13-2.83,7.13,7.13,0,0,0-6.34,3.88c-1.25,2.76-.18,6.12,1.82,8.39s4.76,3.69,7.47,5l11.5,5.8.32.24a117.313,117.313,0,0,0-6.66,20.68c-.16.75,1,1.15,1.14.39a117.3,117.3,0,0,1,6.51-20.32l10.11,7.61c2.37,1.78,4.82,3.61,7.69,4.38S557.91,413.06,559.8,410.76Z" fill="#aed3f2"/>
      <path id="Trazado_111399" data-name="Trazado 111399" d="M263.26,254.78a7,7,0,0,1-6.4-3.51,10.62,10.62,0,0,1-1.06-7.45,22.73,22.73,0,0,1,2.95-7.07,28.65,28.65,0,0,1,8.33-9.52,120.891,120.891,0,0,0-18.61-1.78h-1.71q.36,6.67.7,13.33c.15,3,.3,6-.67,8.82s-3.31,5.36-6.27,5.64a7,7,0,0,1-6.4-3.51,10.62,10.62,0,0,1-1.06-7.45A23.1,23.1,0,0,1,236,235.2a28.54,28.54,0,0,1,8.67-9.74,124.639,124.639,0,0,0-20.67,2q.1,6.76.19,13.53c0,3,.07,6-1,8.79s-3.51,5.22-6.48,5.39a7,7,0,0,1-6.26-3.75,10.58,10.58,0,0,1-.77-7.49,22.76,22.76,0,0,1,3.21-7,29.17,29.17,0,0,1,8.35-9,121.378,121.378,0,0,0-14.51,3.92c-1.41.47-2.8,1-4.19,1.51l-.27,13.92c-.06,3-.13,6-1.29,8.75s-3.69,5.11-6.66,5.18a7,7,0,0,1-6.13-3.95,10.62,10.62,0,0,1-.53-7.51,23,23,0,0,1,3.44-6.85,30.82,30.82,0,0,1,7.54-8,117.231,117.231,0,0,0-13.5,6.75l-6.69,11.81c-1.47,2.59-3,5.24-5.31,7.09s-5.67,2.74-8.32,1.39a7,7,0,0,1-3.51-6.39,10.63,10.63,0,0,1,3.12-6.86,22.88,22.88,0,0,1,6.29-4.39c4.21-2.16,8.88-3.79,13.58-3.55h0a117.348,117.348,0,0,1,14.38-7.15,30.3,30.3,0,0,1-11.33-2,23,23,0,0,1-6.82-3.51,10.62,10.62,0,0,1-4-6.37,7,7,0,0,1,2.63-6.81c2.44-1.7,5.88-1.27,8.42.25s4.41,4,6.21,6.31l8.2,10.8a122.418,122.418,0,0,1,18.87-5.5A29.43,29.43,0,0,1,209.81,222a22.82,22.82,0,0,1-5.73-5.08,10.62,10.62,0,0,1-2.29-7.17,7,7,0,0,1,4.23-6c2.79-1,6,.23,8.1,2.34s3.29,4.92,4.44,7.65l5.26,12.49.61-.11a125.527,125.527,0,0,1,20.19-1.88c-4.3-1.34-8-4.24-11.22-7.47a22.85,22.85,0,0,1-4.58-6.14,10.63,10.63,0,0,1-.79-7.48,7,7,0,0,1,5.36-5c2.93-.45,5.83,1.44,7.45,3.93s2.22,5.48,2.8,8.39l2.7,13.72h.28l.08-.11v.11a123.4,123.4,0,0,1,19.66,1.64,30.23,30.23,0,0,1-7.18-9.84,23,23,0,0,1-2.45-7.41,10.85,10.85,0,0,1,1.63-7.49,7.16,7.16,0,0,1,6.77-3.09c3,.51,5.17,3.27,5.94,6.2s.39,6,0,9l-1.62,12.79v.39a117.422,117.422,0,0,1,20.86,6.05c.72.28.41,1.44-.31,1.16a118.079,118.079,0,0,0-20.49-6l.66,12.64c.15,3,.3,6-.67,8.83S266.22,254.5,263.26,254.78Z" fill="#aed3f2"/>
      <path id="Trazado_111400" data-name="Trazado 111400" d="M783.81,450.32c0,4.5-157.77,8.16-352.39,8.16S79,454.82,79,450.32s157.77-8.16,352.39-8.16S783.81,445.81,783.81,450.32Z" fill="#dedfff"/>
      <g id="Grupo_60252" data-name="Grupo 60252">
        <path id="Trazado_111401" data-name="Trazado 111401" d="M240.84,135.07A94.66,94.66,0,0,0,216,124.55l-.42-.12c-2.74-.73-5.46-1.34-8.13-1.83a11.75,11.75,0,0,1-2.48,10.85c.82-5.13-1.17-9.09-5.73-12a1.66,1.66,0,0,0-.66-.22,141.9,141.9,0,0,0-18.58-.92,3.567,3.567,0,0,1-.46,0,127.6,127.6,0,0,0-17.48,1.5h-.29a2.349,2.349,0,0,0,.08.29,137.421,137.421,0,0,0,13.89,29.6c.08.11.15.24.23.35a129.455,129.455,0,0,0,8.73,12.28,9.43,9.43,0,0,0,10.48,2.07c-1.56,2-3.44,3.31-6.07,3.08a95.1,95.1,0,0,0,20.2,16.91,7.508,7.508,0,0,0,.68.39l.45.27a87.131,87.131,0,0,0,12.67,6.19l.38.15c29.92,11.74,61.29,6.81,64.62,6.23l.3-.06a.848.848,0,0,0-.08-.29A132.361,132.361,0,0,0,278,176c-.06-.13-.12-.23-.19-.36a130.915,130.915,0,0,0-7.33-11.72l-.42-.61a113.46,113.46,0,0,0-13.26-15.65c-1.4,2.14-2.61,3.88-2.61,3.88l-2.34-8.39A88.907,88.907,0,0,0,240.84,135.07Zm-71.58-2.25a1.124,1.124,0,1,1,1.42.72,1.15,1.15,0,0,1-1.42-.72Zm2.3,3.06a1.77,1.77,0,1,1,.068,1.97A1.76,1.76,0,0,1,171.56,135.88Zm28.14,29.68a1.214,1.214,0,1,1,.4,1.67,1.214,1.214,0,0,1-.4-1.67Zm1.55,5.67a2.12,2.12,0,1,1,.7,2.9,2.12,2.12,0,0,1-.7-2.9Zm8.49-46a.55.55,0,0,1,.79-.19.583.583,0,1,1-.6,1,.56.56,0,0,1-.19-.78Zm-13.11.61a4.13,4.13,0,1,1,0,.03Zm3.3,4a.58.58,0,0,1,.79-.19.587.587,0,1,1-.79.25Z" fill="#d9a171"/>
        <path id="Trazado_111402" data-name="Trazado 111402" d="M218.88,140.59l6.55-6.82.27.28-6.74,7,3.21,17.67,17.89,11-3.41-20,.37-.07L240.51,170l31,19-1.44-25.78.42.61.92,16.36,6.41-4.64c.07.13.13.23.19.36l-6.58,4.77.48,8.57,16.57,10.17-.21.35L264.2,185l-11.8,3.33-.11-.39,11.46-3.22L247.1,174.54,232,179.73c-2,3.18-6.09,9.82-8.49,13.74l-.38-.15c2.55-4.15,6.93-11.24,8.27-13.37l-20.94,7.18-.45-.27,36.69-12.6-33.21-20.39-10.61,5.72-.17-.34,10.4-5.61L199,145l-23,7.14c-.08-.11-.15-.24-.23-.35l11.46-3.55c-4-2.07-9.71-5-10.08-5.12v-.18h-.18l.11-.14c.12,0,.24-.09,10.67,5.34l10.81-3.35-36.71-22.54a2.349,2.349,0,0,1-.08-.29h.29l28.81,17.68-11.33-19.18a3.569,3.569,0,0,0,.46,0L191.57,140l30.15,18.51-6.17-34,.42.12Z" fill="#fff"/>
      </g>
      <g id="Grupo_60253" data-name="Grupo 60253">
        <path id="Trazado_111403" data-name="Trazado 111403" d="M286.72,89.23A94.639,94.639,0,0,0,271.36,67c-.11-.11-.19-.21-.3-.33-1.91-2.08-3.88-4.05-5.88-5.9a11.78,11.78,0,0,1-7.91,7.84c3.44-3.89,3.88-8.3,1.58-13.19a1.74,1.74,0,0,0-.43-.54,143.439,143.439,0,0,0-15.21-10.73c-.14-.07-.26-.15-.39-.23a124.614,124.614,0,0,0-15.56-8.1l-.28-.11-.08.29a136.68,136.68,0,0,0-4.12,32.43c0,.13,0,.28,0,.41a129.33,129.33,0,0,0,.79,15,9.45,9.45,0,0,0,7.74,7.37c-2.4.86-4.68.94-6.77-.66a95.181,95.181,0,0,0,8,25.1,7.486,7.486,0,0,0,.36.69l.23.48a89.35,89.35,0,0,0,7.39,12l.24.33c19,25.94,48.12,38.58,51.24,39.88l.28.11.08-.29a132.31,132.31,0,0,0,3.86-25.26c0-.14,0-.26,0-.4a129.04,129.04,0,0,0,.09-13.83v-.74a112.229,112.229,0,0,0-2.81-20.32c-2.33,1.06-4.28,1.88-4.28,1.88l2.52-8.34a89.93,89.93,0,0,0-5.02-12.61ZM227.48,49a1.13,1.13,0,1,1,.81,1.37,1.15,1.15,0,0,1-.81-1.37Zm.31,3.82a1.75,1.75,0,0,1,2.35.81,1.77,1.77,0,1,1-2.35-.81Zm7.86,40.13a2.735,2.735,0,1,1,0-.01Zm-1.73,5.62a4.519,4.519,0,1,1,0-.01ZM265.71,64.3a.57.57,0,0,1,.78.26.58.58,0,1,1-1,.51.56.56,0,0,1,.22-.78Zm-11.4-6.51a.787.787,0,1,1,0-.01Zm.63,5.18a.59.59,0,0,1,.78.26.62.62,0,0,1-.26.8.61.61,0,0,1-.8-.28.58.58,0,0,1,.28-.75Z" fill="#aed3f2"/>
        <path id="Trazado_111404" data-name="Trazado 111404" d="M265.22,82.14l9.18-2.26.08.38L265,82.6l-6.76,16.64,9.22,18.85,7.86-18.74.34.14-8,19.08,16,32.68,12.59-22.54v.74l-8,14.31,7.89-.48v.4l-8.11.5-4.19,7.5,8.54,17.46-.36.18L279.6,143.94l-11.74-3.5.11-.4,11.4,3.43-8.58-17.55-15.58-3.73c-3.37,1.62-10.4,5-14.53,7.05l-.24-.33c4.38-2.14,11.88-5.78,14.14-6.86l-21.53-5.15-.23-.48,37.74,9-17.13-35-12-.86v-.38l11.78.83-7.26-14.84-23.27-6.32v-.41l11.57,3.14c-2.27-3.89-5.51-9.43-5.77-9.73l.14-.12h0l-.12-.14.16-.05c.13,0,.25,0,6.15,10.21l10.92,3L226.9,36l.08-.29.28.11,14.85,30.36L242.82,44c.13.08.25.16.39.23L242.49,67,258,98.76,271,66.7c.11.12.19.22.3.33Z" fill="#fff"/>
      </g>
      <g id="Grupo_60271" data-name="Grupo 60271">
        <g id="Grupo_60254" data-name="Grupo 60254">
          <path id="Trazado_111405" data-name="Trazado 111405" d="M667.83,85.74H654.09a14,14,0,0,0-27.93,0H612.42a4.05,4.05,0,0,0-4,4.05v11.48a1.84,1.84,0,0,0,1.84,1.84H670a1.84,1.84,0,0,0,1.84-1.84V89.79a4.05,4.05,0,0,0-4.01-4.05Zm-27.7-2.69a3.31,3.31,0,1,1,3.3-3.31,3.31,3.31,0,0,1-3.3,3.31Z" fill="#d9a171"/>
          <rect id="Rectángulo_8465" data-name="Rectángulo 8465" width="87.44" height="6.55" rx="2.39" transform="translate(596.14 89.65)" fill="#d9a171"/>
          <rect id="Rectángulo_8466" data-name="Rectángulo 8466" width="138.83" height="198.42" rx="4.65" transform="translate(570.71 93.44)" fill="#d9a171"/>
          <rect id="Rectángulo_8467" data-name="Rectángulo 8467" width="124.83" height="183.11" rx="5.69" transform="translate(576.86 102.53)" fill="#fff"/>
          <path id="Trazado_111406" data-name="Trazado 111406" d="M669.66,94.89v10a3.39,3.39,0,0,1-3.39,3.39H614.19a3.4,3.4,0,0,1-3.4-3.39v-10h-1.74v10.37a4.81,4.81,0,0,0,4.81,4.81h52.73a4.81,4.81,0,0,0,4.81-4.81V94.89Z" fill="#d9a171"/>
        </g>
        <g id="Grupo_60256" data-name="Grupo 60256">
          <g id="Grupo_60255" data-name="Grupo 60255">
            <rect id="Rectángulo_8468" data-name="Rectángulo 8468" width="5.4" height="5.95" transform="translate(592.77 180.21)" fill="#6595bf"/>
            <rect id="Rectángulo_8469" data-name="Rectángulo 8469" width="5.4" height="17.92" transform="translate(602.4 168.25)" fill="#6595bf"/>
            <rect id="Rectángulo_8470" data-name="Rectángulo 8470" width="5.4" height="11.2" transform="translate(612.03 174.97)" fill="#6595bf"/>
            <rect id="Rectángulo_8471" data-name="Rectángulo 8471" width="5.4" height="22.94" transform="translate(621.66 163.23)" fill="#6595bf"/>
          </g>
          <path id="Trazado_111407" data-name="Trazado 111407" d="M588.43,188.26V139.22h-1.32v50.37h47.14v-1.33Z" fill="#6595bf"/>
          <path id="Trazado_111408" data-name="Trazado 111408" d="M626.18,153.31l-2.88-.45-2.88-.45c-.17,0-.25.17-.15.35l1.19,2.17-5.86,3.15-1.81-1.71-.55-.51-.67.33-8.36,4.17-2.08-1.14-.43-.24-.39.15-9.41,3.61a.239.239,0,0,0,.13.46l1.92-.39,7.49-1.54,2.23,1.22.5.27.5-.25,8.19-4.08,1.83,1.72.57.53.68-.37,6.54-3.52.41.74.79,1.44c.09.16.26.2.35.11v-.05l1.17-2.66,1.11-2.52.07-.14a.32.32,0,0,0-.2-.4Z" fill="#6595bf"/>
        </g>
        <g id="Grupo_60258" data-name="Grupo 60258">
          <rect id="Rectángulo_8472" data-name="Rectángulo 8472" width="6.68" height="6.68" rx="2.44" transform="translate(648 146.14)" fill="#5e6178"/>
          <g id="Grupo_60257" data-name="Grupo 60257">
            <path id="Trazado_111409" data-name="Trazado 111409" d="M690,148.17H657.9a.43.43,0,0,1-.43-.43h0a.43.43,0,0,1,.43-.43H690a.43.43,0,0,1,.43.43h0A.43.43,0,0,1,690,148.17Z" fill="#5e6178"/>
            <path id="Trazado_111410" data-name="Trazado 111410" d="M666.33,151.64h-8.46a.43.43,0,0,1-.43-.43h0a.43.43,0,0,1,.43-.43h8.46a.43.43,0,0,1,.43.43h0a.43.43,0,0,1-.43.43Z" fill="#5e6178"/>
            <path id="Trazado_111411" data-name="Trazado 111411" d="M685.44,151.64H669.85a.43.43,0,0,1-.43-.43h0a.43.43,0,0,1,.43-.43h15.59a.43.43,0,0,1,.43.43h0a.43.43,0,0,1-.43.43Z" fill="#5e6178"/>
          </g>
        </g>
        <g id="Grupo_60260" data-name="Grupo 60260">
          <rect id="Rectángulo_8473" data-name="Rectángulo 8473" width="6.68" height="6.68" rx="2.44" transform="translate(648 161.07)" fill="#5e6178"/>
          <g id="Grupo_60259" data-name="Grupo 60259">
            <path id="Trazado_111412" data-name="Trazado 111412" d="M690,163.1H657.9a.43.43,0,0,1-.43-.43h0a.43.43,0,0,1,.43-.43H690a.43.43,0,0,1,.43.43h0A.43.43,0,0,1,690,163.1Z" fill="#5e6178"/>
            <path id="Trazado_111413" data-name="Trazado 111413" d="M666.33,166.57h-8.46a.43.43,0,0,1-.43-.43h0a.43.43,0,0,1,.43-.43h8.46a.43.43,0,0,1,.43.43h0a.43.43,0,0,1-.43.43Z" fill="#5e6178"/>
            <path id="Trazado_111414" data-name="Trazado 111414" d="M685.44,166.57H669.85a.43.43,0,0,1-.43-.43h0a.43.43,0,0,1,.43-.43h15.59a.43.43,0,0,1,.43.43h0a.43.43,0,0,1-.43.43Z" fill="#5e6178"/>
          </g>
        </g>
        <g id="Grupo_60262" data-name="Grupo 60262">
          <rect id="Rectángulo_8474" data-name="Rectángulo 8474" width="6.68" height="6.68" rx="2.44" transform="translate(648 176)" fill="#5e6178"/>
          <g id="Grupo_60261" data-name="Grupo 60261">
            <path id="Trazado_111415" data-name="Trazado 111415" d="M690,178H657.9a.43.43,0,0,1-.43-.43h0a.43.43,0,0,1,.43-.43H690a.43.43,0,0,1,.43.43h0A.43.43,0,0,1,690,178Z" fill="#5e6178"/>
            <path id="Trazado_111416" data-name="Trazado 111416" d="M666.33,181.5h-8.46a.43.43,0,0,1-.43-.43h0a.43.43,0,0,1,.43-.43h8.46a.43.43,0,0,1,.43.43h0A.43.43,0,0,1,666.33,181.5Z" fill="#5e6178"/>
            <path id="Trazado_111417" data-name="Trazado 111417" d="M685.44,181.5H669.85a.43.43,0,0,1-.43-.43h0a.43.43,0,0,1,.43-.43h15.59a.43.43,0,0,1,.43.43h0A.43.43,0,0,1,685.44,181.5Z" fill="#5e6178"/>
          </g>
        </g>
        <g id="Grupo_60263" data-name="Grupo 60263">
          <rect id="Rectángulo_8475" data-name="Rectángulo 8475" width="26.05" height="4.24" rx="1.55" transform="translate(589.99 198.62)" fill="#d9a171"/>
          <rect id="Rectángulo_8476" data-name="Rectángulo 8476" width="18.25" height="4.24" rx="1.55" transform="translate(644.11 198.62)" fill="#d9a171"/>
          <rect id="Rectángulo_8477" data-name="Rectángulo 8477" width="18.25" height="4.24" rx="1.55" transform="translate(668.89 198.62)" fill="#d9a171"/>
          <rect id="Rectángulo_8478" data-name="Rectángulo 8478" width="13.42" height="4.24" rx="1.55" transform="translate(621.88 198.62)" fill="#d9a171"/>
        </g>
        <g id="Grupo_60264" data-name="Grupo 60264">
          <rect id="Rectángulo_8479" data-name="Rectángulo 8479" width="26.05" height="4.24" rx="1.55" transform="translate(589.99 207.09)" fill="#e8c7aa"/>
          <rect id="Rectángulo_8480" data-name="Rectángulo 8480" width="18.25" height="4.24" rx="1.55" transform="translate(644.11 207.09)" fill="#e8c7aa"/>
          <rect id="Rectángulo_8481" data-name="Rectángulo 8481" width="18.25" height="4.24" rx="1.55" transform="translate(668.89 207.09)" fill="#e8c7aa"/>
          <rect id="Rectángulo_8482" data-name="Rectángulo 8482" width="13.42" height="4.24" rx="1.55" transform="translate(621.88 207.09)" fill="#e8c7aa"/>
        </g>
        <g id="Grupo_60265" data-name="Grupo 60265">
          <rect id="Rectángulo_8483" data-name="Rectángulo 8483" width="26.05" height="4.24" rx="1.55" transform="translate(589.99 215.57)" fill="#aed3f2"/>
          <rect id="Rectángulo_8484" data-name="Rectángulo 8484" width="18.25" height="4.24" rx="1.55" transform="translate(644.11 215.57)" fill="#aed3f2"/>
          <rect id="Rectángulo_8485" data-name="Rectángulo 8485" width="18.25" height="4.24" rx="1.55" transform="translate(668.89 215.57)" fill="#aed3f2"/>
          <rect id="Rectángulo_8486" data-name="Rectángulo 8486" width="13.42" height="4.24" rx="1.55" transform="translate(621.88 215.57)" fill="#aed3f2"/>
        </g>
        <g id="Grupo_60266" data-name="Grupo 60266">
          <rect id="Rectángulo_8487" data-name="Rectángulo 8487" width="26.05" height="4.24" rx="1.55" transform="translate(589.99 224.04)" fill="#e8c7aa"/>
          <rect id="Rectángulo_8488" data-name="Rectángulo 8488" width="18.25" height="4.24" rx="1.55" transform="translate(644.11 224.04)" fill="#e8c7aa"/>
          <rect id="Rectángulo_8489" data-name="Rectángulo 8489" width="18.25" height="4.24" rx="1.55" transform="translate(668.89 224.04)" fill="#e8c7aa"/>
          <rect id="Rectángulo_8490" data-name="Rectángulo 8490" width="13.42" height="4.24" rx="1.55" transform="translate(621.88 224.04)" fill="#e8c7aa"/>
        </g>
        <g id="Grupo_60267" data-name="Grupo 60267">
          <rect id="Rectángulo_8491" data-name="Rectángulo 8491" width="26.05" height="4.24" rx="1.55" transform="translate(589.99 232.52)" fill="#aed3f2"/>
          <rect id="Rectángulo_8492" data-name="Rectángulo 8492" width="18.25" height="4.24" rx="1.55" transform="translate(644.11 232.52)" fill="#aed3f2"/>
          <rect id="Rectángulo_8493" data-name="Rectángulo 8493" width="18.25" height="4.24" rx="1.55" transform="translate(668.89 232.52)" fill="#aed3f2"/>
          <rect id="Rectángulo_8494" data-name="Rectángulo 8494" width="13.42" height="4.24" rx="1.55" transform="translate(621.88 232.52)" fill="#aed3f2"/>
        </g>
        <g id="Grupo_60270" data-name="Grupo 60270">
          <rect id="Rectángulo_8495" data-name="Rectángulo 8495" width="13.07" height="11.83" rx="3.14" transform="translate(589.99 246.43)" fill="#6595bf"/>
          <rect id="Rectángulo_8496" data-name="Rectángulo 8496" width="13.07" height="11.83" rx="3.14" transform="translate(589.99 263.38)" fill="#6595bf"/>
          <g id="Grupo_60268" data-name="Grupo 60268">
            <path id="Trazado_111418" data-name="Trazado 111418" d="M654.89,251.46h-46.1a.61.61,0,0,1-.56-.66h0a.62.62,0,0,1,.56-.66h46.1a.62.62,0,0,1,.56.66h0a.61.61,0,0,1-.56.66Z" fill="#6595bf"/>
            <path id="Trazado_111419" data-name="Trazado 111419" d="M635.74,256.42h-27a.62.62,0,0,1-.56-.66h0a.62.62,0,0,1,.56-.66h27a.62.62,0,0,1,.56.66h0a.62.62,0,0,1-.56.66Z" fill="#6595bf"/>
            <path id="Trazado_111420" data-name="Trazado 111420" d="M673.86,256.42H640.39a.63.63,0,0,1-.57-.66h0a.63.63,0,0,1,.57-.66h33.47a.63.63,0,0,1,.57.66h0A.63.63,0,0,1,673.86,256.42Z" fill="#6595bf"/>
            <path id="Trazado_111421" data-name="Trazado 111421" d="M686.58,256.42h-8.52a.62.62,0,0,1-.57-.66h0a.62.62,0,0,1,.57-.66h8.52a.63.63,0,0,1,.57.66h0A.63.63,0,0,1,686.58,256.42Z" fill="#6595bf"/>
            <path id="Trazado_111422" data-name="Trazado 111422" d="M686.58,251.46H659.34a.61.61,0,0,1-.57-.66h0a.62.62,0,0,1,.57-.66h27.24a.63.63,0,0,1,.57.66h0a.62.62,0,0,1-.57.66Z" fill="#6595bf"/>
          </g>
          <g id="Grupo_60269" data-name="Grupo 60269">
            <path id="Trazado_111423" data-name="Trazado 111423" d="M654.89,267.47h-46.1a.61.61,0,0,1-.56-.66h0a.62.62,0,0,1,.56-.66h46.1a.62.62,0,0,1,.56.66h0a.61.61,0,0,1-.56.66Z" fill="#6595bf"/>
            <path id="Trazado_111424" data-name="Trazado 111424" d="M635.74,272.43h-27a.62.62,0,0,1-.56-.66h0a.61.61,0,0,1,.56-.66h27a.61.61,0,0,1,.56.66h0A.62.62,0,0,1,635.74,272.43Z" fill="#6595bf"/>
            <path id="Trazado_111425" data-name="Trazado 111425" d="M673.86,272.43H640.39a.63.63,0,0,1-.57-.66h0a.62.62,0,0,1,.57-.66h33.47a.62.62,0,0,1,.57.66h0A.63.63,0,0,1,673.86,272.43Z" fill="#6595bf"/>
            <path id="Trazado_111426" data-name="Trazado 111426" d="M686.58,272.43h-8.52a.62.62,0,0,1-.57-.66h0a.61.61,0,0,1,.57-.66h8.52a.62.62,0,0,1,.57.66h0A.63.63,0,0,1,686.58,272.43Z" fill="#6595bf"/>
            <path id="Trazado_111427" data-name="Trazado 111427" d="M686.58,267.47H659.34a.61.61,0,0,1-.57-.66h0a.62.62,0,0,1,.57-.66h27.24a.63.63,0,0,1,.57.66h0a.62.62,0,0,1-.57.66Z" fill="#6595bf"/>
          </g>
        </g>
        <path id="Trazado_111428" data-name="Trazado 111428" d="M599.07,248.81q-1.55,2.17-3.1,4.33l-2.16-2-1.3,1.65,3.66,2.42,4.68-5Z" fill="#fff"/>
        <path id="Trazado_111429" data-name="Trazado 111429" d="M599.07,266.05c-1,1.44-2.06,2.89-3.1,4.33l-2.16-2c-.43.55-.86,1.11-1.3,1.66l3.66,2.42,4.68-5Z" fill="#fff"/>
      </g>
      <g id="Grupo_60273" data-name="Grupo 60273">
        <rect id="Rectángulo_8497" data-name="Rectángulo 8497" width="31.73" height="24.89" rx="4.69" transform="translate(307.9 38.39)" fill="#d9a171"/>
        <rect id="Rectángulo_8498" data-name="Rectángulo 8498" width="31.73" height="24.89" rx="4.69" transform="translate(347.67 58.28)" fill="#d9a171"/>
        <rect id="Rectángulo_8499" data-name="Rectángulo 8499" width="31.73" height="24.89" rx="4.69" transform="translate(388.83 38.39)" fill="#d9a171"/>
        <path id="Trazado_111430" data-name="Trazado 111430" d="M326,50.83l3.74-3.74A2.17,2.17,0,1,0,326.7,44L323,47.76,319.22,44a2.171,2.171,0,1,0-3.07,3.07l3.74,3.74-3.74,3.73a2.18,2.18,0,1,0,3.08,3.08L323,53.91l3.74,3.73a2.174,2.174,0,1,0,3.07-3.08Z" fill="#fff"/>
        <path id="Trazado_111431" data-name="Trazado 111431" d="M365.3,68.7V63.76a2.03,2.03,0,0,0-4.06,0V68.7H356.3a2,2,0,0,0,0,4h4.94v4.93a2.015,2.015,0,0,0,4.03-.03V72.75h4.93a2,2,0,0,0,0-4Z" fill="#fff"/>
        <g id="Grupo_60272" data-name="Grupo 60272">
          <path id="Trazado_111432" data-name="Trazado 111432" d="M396,46.74h0a2,2,0,0,1,2-2h13.88a2,2,0,0,1,2,2h0a2,2,0,0,1-2,2H398A2,2,0,0,1,396,46.74Z" fill="#fff"/>
          <path id="Trazado_111433" data-name="Trazado 111433" d="M396,54.52h0a2,2,0,0,1,2-2h13.88a2,2,0,0,1,2,2h0a2,2,0,0,1-2,2H398A2,2,0,0,1,396,54.52Z" fill="#fff"/>
        </g>
      </g>
      <g id="Grupo_60275" data-name="Grupo 60275">
        <path id="Trazado_111434" data-name="Trazado 111434" d="M538.29,122.87v90.3H250.11v-90.3c0-13.42,12.9-24.31,28.82-24.31H509.46C525.38,98.56,538.29,109.45,538.29,122.87Z" fill="#6595bf"/>
        <path id="Trazado_111435" data-name="Trazado 111435" d="M538.29,213.17V425c0,13.43-12.91,24.32-28.83,24.32H278.93c-15.92,0-28.82-10.89-28.82-24.32V213.17Z" fill="#6595bf"/>
        <path id="Trazado_111436" data-name="Trazado 111436" d="M494,192.27H294.36c-5.68,0-10.29-3.89-10.29-8.68V133.23c0-4.8,4.61-8.69,10.29-8.69H494c5.68,0,10.29,3.89,10.29,8.69v50.36C504.32,188.38,499.71,192.27,494,192.27Z" fill="#fff"/>
        <path id="Trazado_111437" data-name="Trazado 111437" d="M317.78,254.12h-29.5c-7.79,0-14.11-5.33-14.11-11.91h0c0-6.57,6.32-11.9,14.11-11.9h29.5c7.79,0,14.11,5.33,14.11,11.9h0C331.89,248.79,325.57,254.12,317.78,254.12Z" fill="#fff"/>
        <path id="Trazado_111438" data-name="Trazado 111438" d="M387.2,254.12H357.7c-7.79,0-14.11-5.33-14.11-11.91h0c0-6.57,6.32-11.9,14.11-11.9h29.5c7.79,0,14.1,5.33,14.1,11.9h0C401.3,248.79,395,254.12,387.2,254.12Z" fill="#fff"/>
        <path id="Trazado_111439" data-name="Trazado 111439" d="M456.61,254.12H427.12c-7.8,0-14.11-5.33-14.11-11.91h0c0-6.57,6.31-11.9,14.11-11.9h29.49c7.8,0,14.11,5.33,14.11,11.9h0C470.72,248.79,464.41,254.12,456.61,254.12Z" fill="#fff"/>
        <path id="Trazado_111440" data-name="Trazado 111440" d="M501.2,307.7h0c-9.45,0-17.12-6.47-17.12-14.44V244.75c0-8,7.67-14.44,17.12-14.44h0c9.46,0,17.12,6.47,17.12,14.44v48.51C518.32,301.23,510.66,307.7,501.2,307.7Z" fill="#fff"/>
        <path id="Trazado_111441" data-name="Trazado 111441" d="M313.53,269.92H287.85c-6.54,0-11.85,4.47-11.85,10v21.66c0,5.52,5.31,10,11.85,10h25.68c6.54,0,11.85-4.48,11.85-10V279.91C325.38,274.39,320.07,269.92,313.53,269.92Z" fill="#fff"/>
        <path id="Trazado_111442" data-name="Trazado 111442" d="M385.28,269.92H359.61c-6.54,0-11.85,4.47-11.85,10v21.66c0,5.52,5.31,10,11.85,10h25.67c6.55,0,11.85-4.48,11.85-10V279.91C397.13,274.39,391.83,269.92,385.28,269.92Z" fill="#fff"/>
        <path id="Trazado_111443" data-name="Trazado 111443" d="M457,269.92H431.37c-6.55,0-11.85,4.47-11.85,10v21.66c0,5.52,5.3,10,11.85,10H457c6.55,0,11.85-4.48,11.85-10V279.91C468.89,274.39,463.59,269.92,457,269.92Z" fill="#fff"/>
        <path id="Trazado_111444" data-name="Trazado 111444" d="M313.53,328.61H287.85c-6.54,0-11.85,4.48-11.85,10v21.66c0,5.52,5.31,10,11.85,10h25.68c6.54,0,11.85-4.48,11.85-10V338.61C325.38,333.09,320.07,328.61,313.53,328.61Z" fill="#fff"/>
        <path id="Trazado_111445" data-name="Trazado 111445" d="M385.28,328.61H359.61c-6.54,0-11.85,4.48-11.85,10v21.66c0,5.52,5.31,10,11.85,10h25.67c6.55,0,11.85-4.48,11.85-10V338.61C397.13,333.09,391.83,328.61,385.28,328.61Z" fill="#fff"/>
        <path id="Trazado_111446" data-name="Trazado 111446" d="M457,328.61H431.37c-6.55,0-11.85,4.48-11.85,10v21.66c0,5.52,5.3,10,11.85,10H457c6.55,0,11.85-4.48,11.85-10V338.61C468.89,333.09,463.59,328.61,457,328.61Z" fill="#fff"/>
        <path id="Trazado_111447" data-name="Trazado 111447" d="M313.53,387.31H287.85c-6.54,0-11.85,4.48-11.85,10V419c0,5.52,5.31,10,11.85,10h25.68c6.54,0,11.85-4.47,11.85-10V397.31C325.38,391.79,320.07,387.31,313.53,387.31Z" fill="#fff"/>
        <path id="Trazado_111448" data-name="Trazado 111448" d="M385.28,387.31H359.61c-6.54,0-11.85,4.48-11.85,10V419c0,5.52,5.31,10,11.85,10h25.67c6.55,0,11.85-4.47,11.85-10V397.31C397.13,391.79,391.83,387.31,385.28,387.31Z" fill="#fff"/>
        <path id="Trazado_111449" data-name="Trazado 111449" d="M457,387.31H431.37c-6.55,0-11.85,4.48-11.85,10V419c0,5.52,5.3,10,11.85,10H457c6.55,0,11.85-4.47,11.85-10V397.31C468.89,391.79,463.59,387.31,457,387.31Z" fill="#fff"/>
        <path id="Trazado_111450" data-name="Trazado 111450" d="M502.88,367.44h0c-8.86,0-16-6.06-16-13.53v-5.64c0-7.48,7.18-13.54,16-13.54h0c8.86,0,16,6.06,16,13.54v5.64C518.93,361.38,511.74,367.44,502.88,367.44Z" fill="#fff"/>
        <path id="Trazado_111451" data-name="Trazado 111451" d="M502.58,424.49h0c-8.86,0-16-6.06-16-13.53v-5.64c0-7.48,7.18-13.54,16-13.54h0c8.86,0,16,6.06,16,13.54V411C518.62,418.43,511.44,424.49,502.58,424.49Z" fill="#fff"/>
        <g id="Grupo_60274" data-name="Grupo 60274">
          <path id="Trazado_111452" data-name="Trazado 111452" d="M356.55,168.11l7.32-.92a3.82,3.82,0,0,0,1,2.16,2.35,2.35,0,0,0,1.68.64,3,3,0,0,0,2.76-1.79,16.689,16.689,0,0,0,1.09-5.59,9.05,9.05,0,0,1-2.71,2,7.74,7.74,0,0,1-3.22.63,8,8,0,0,1-6-2.53,8.82,8.82,0,0,1-2.45-6.39,9.51,9.51,0,0,1,1.25-4.81,8.15,8.15,0,0,1,3.43-3.28,12.1,12.1,0,0,1,5.5-1.11,12.91,12.91,0,0,1,6.38,1.36,9.62,9.62,0,0,1,3.84,4.34,18.29,18.29,0,0,1,1.43,7.85q0,7.17-3,10.51a10.71,10.71,0,0,1-8.36,3.33,13.729,13.729,0,0,1-5-.73,7.74,7.74,0,0,1-3-2.14,9.9,9.9,0,0,1-1.94-3.53Zm13.56-11.82a4.89,4.89,0,0,0-1.09-3.37,3.4,3.4,0,0,0-2.64-1.22,3.13,3.13,0,0,0-2.43,1.1,4.93,4.93,0,0,0-1,3.31,5.11,5.11,0,0,0,1,3.4,3.16,3.16,0,0,0,2.5,1.17,3.35,3.35,0,0,0,2.59-1.14,4.71,4.71,0,0,0,1.07-3.25Z" fill="#5e6178"/>
          <path id="Trazado_111453" data-name="Trazado 111453" d="M383.89,147.56h17.48v5.87H389.53l-.63,4a12.261,12.261,0,0,1,2.43-.87,10.261,10.261,0,0,1,2.38-.29,8.84,8.84,0,0,1,6.45,2.41,8.07,8.07,0,0,1,2.47,6.05,10.259,10.259,0,0,1-1.27,4.93,8.66,8.66,0,0,1-3.62,3.62,12.68,12.68,0,0,1-6,1.24,17.808,17.808,0,0,1-4.49-.49,9.171,9.171,0,0,1-3.18-1.49,8.75,8.75,0,0,1-2.12-2.23,11.93,11.93,0,0,1-1.36-3.1l7.45-.82a4.54,4.54,0,0,0,1.26,2.72,3.37,3.37,0,0,0,2.37.93,3.22,3.22,0,0,0,2.54-1.16,5.22,5.22,0,0,0,1-3.48,5,5,0,0,0-1-3.47,3.45,3.45,0,0,0-2.69-1.1,4.34,4.34,0,0,0-2.06.52,6,6,0,0,0-1.63,1.37l-6.27-.9Z" fill="#5e6178"/>
          <path id="Trazado_111454" data-name="Trazado 111454" d="M405.6,160.7q0-7.56,2.72-10.57t8.28-3a12.38,12.38,0,0,1,4.39.66,8,8,0,0,1,2.8,1.72,8.94,8.94,0,0,1,1.71,2.22,11.1,11.1,0,0,1,1,2.72,25,25,0,0,1,.74,6.18q0,7.2-2.44,10.55t-8.4,3.34a11.76,11.76,0,0,1-5.4-1.06,8.81,8.81,0,0,1-3.38-3.13,11.592,11.592,0,0,1-1.49-4A27,27,0,0,1,405.6,160.7Zm7.3,0c0,3.37.29,5.67.89,6.91a2.82,2.82,0,0,0,2.59,1.85,2.71,2.71,0,0,0,1.95-.79,4.92,4.92,0,0,0,1.21-2.48,26,26,0,0,0,.39-5.3c0-3.51-.3-5.88-.9-7.09a2.86,2.86,0,0,0-2.68-1.81,2.73,2.73,0,0,0-2.64,1.85q-.81,1.86-.81,6.88Z" fill="#5e6178"/>
          <path id="Trazado_111455" data-name="Trazado 111455" d="M431,166.68h7.86v7.37H431Z" fill="#5e6178"/>
          <path id="Trazado_111456" data-name="Trazado 111456" d="M442.6,160.7q0-7.56,2.72-10.57t8.29-3a12.38,12.38,0,0,1,4.39.66,8.07,8.07,0,0,1,2.8,1.72,9.179,9.179,0,0,1,1.71,2.22,11.519,11.519,0,0,1,1,2.72,25,25,0,0,1,.74,6.18q0,7.2-2.44,10.55t-8.4,3.34a11.76,11.76,0,0,1-5.4-1.06,8.74,8.74,0,0,1-3.38-3.13,11.59,11.59,0,0,1-1.49-4A27,27,0,0,1,442.6,160.7Zm7.3,0q0,5.06.9,6.91a2.82,2.82,0,0,0,2.59,1.85,2.67,2.67,0,0,0,1.94-.79,4.85,4.85,0,0,0,1.22-2.48,26.868,26.868,0,0,0,.38-5.3c0-3.51-.29-5.88-.89-7.09a2.86,2.86,0,0,0-2.68-1.81,2.73,2.73,0,0,0-2.64,1.85c-.54,1.25-.82,3.54-.82,6.88Z" fill="#5e6178"/>
          <path id="Trazado_111457" data-name="Trazado 111457" d="M467.29,160.7q0-7.56,2.72-10.57t8.28-3a12.34,12.34,0,0,1,4.39.66,8,8,0,0,1,2.8,1.72,8.7,8.7,0,0,1,1.71,2.22,11.52,11.52,0,0,1,1,2.72,25.512,25.512,0,0,1,.74,6.18q0,7.2-2.44,10.55t-8.41,3.34a11.79,11.79,0,0,1-5.4-1.06,8.81,8.81,0,0,1-3.38-3.13,11.8,11.8,0,0,1-1.49-4A27.71,27.71,0,0,1,467.29,160.7Zm7.3,0q0,5.06.89,6.91a2.82,2.82,0,0,0,2.6,1.85,2.71,2.71,0,0,0,1.94-.79,4.84,4.84,0,0,0,1.21-2.48,26,26,0,0,0,.39-5.3c0-3.51-.3-5.88-.9-7.09A2.85,2.85,0,0,0,478,152a2.73,2.73,0,0,0-2.64,1.85q-.77,1.85-.77,6.87Z" fill="#5e6178"/>
        </g>
      </g>
      <g id="Grupo_60276" data-name="Grupo 60276">
        <path id="Trazado_111458" data-name="Trazado 111458" d="M523.2,343.08s.78,48.92,9.71,59.85c4.31,5.27,19.43,33.29,19.43,33.29L556,434c-2.92-16-7-29.27-13.25-37.21-3.28-22.53,6.34-32.35-4.27-53.71Z" fill="#f9cbcb"/>
        <path id="Trazado_111459" data-name="Trazado 111459" d="M519.37,343.07c-3.77,23.48-2.41,36.86.55,61.36a6.358,6.358,0,0,0,.13.74l8.72,37.52,4.4.61c1.11-12.4.47-28-1.72-38.48,1.62-30.57,17-39.08,2.69-61.73Z" fill="#f9cbcb"/>
        <path id="Trazado_111460" data-name="Trazado 111460" d="M549,413.14c-4.91-.61-9.39-3.44-12.51.13a19,19,0,0,1-8.2,5.8,15.5,15.5,0,0,1-4.52.78c-3,.08-5.67-2.2-6.45-5.59a141.242,141.242,0,0,1-3.79-30.58c0-21.84,6.2-42.12,6.2-42.12l.27-.07c2-.45,14.78-3.05,19.47,2.77,5.09,6.32,8.81,14.67,7.52,30.94-.92,11.62,3.73,22.42,6.8,30.16C555.31,409.23,552.64,413.6,549,413.14Z" fill="#344154"/>
        <path id="Trazado_111461" data-name="Trazado 111461" d="M523.06,305.16l-5.34,11.33-.49-.8c-2-3.31-9.78-16-11.74-21-1.58-4.07-1.87-14.51-1.59-21.61a48.619,48.619,0,0,1,.53-6s-3.31-3-.24-4.71.88-6.35,2-6.5,1.71,6.24,1.71,6.24,1.57-1.66,2.1-1c.8.95-1.92,6-1.92,6,.39,1.16.75,2.36,1.1,3.57a108.6,108.6,0,0,1,3.62,20.46C516.1,294.5,519.55,299.52,523.06,305.16Z" fill="#f9cbcb"/>
        <path id="Trazado_111462" data-name="Trazado 111462" d="M537.83,342.62H518.74c1-4.34,3.43-6.66-.14-16.5a21.83,21.83,0,0,1-1.37-10.42,16,16,0,0,1,5.83-10.53l4.58-2.57h5.6l5.62,4s-.29,15.81-1.17,21.21C536.92,332.57,536,338,537.83,342.62Z" fill="#3e3279"/>
        <path id="Trazado_111463" data-name="Trazado 111463" d="M541,345.58c-8.78,4.5-11.78-.34-18.45-.4a15.4,15.4,0,0,0-1.63.09,3.08,3.08,0,0,1-3.33-3.6c1.06-6.15.71-13-.84-22.14a27.882,27.882,0,0,0-1.69-5.95,30,30,0,0,0-1.62-3.38,166.3,166.3,0,0,1-7.92-15.53c-1.58-4.07-1.87-14.51-1.59-21.61l5.27-2.44a145.4,145.4,0,0,1,4.19,20.21c2.68,2.78,5.09,6.77,7.78,11.2a3.81,3.81,0,0,0,5.11,1.34l1.39-.78h5.6l5.62,4s-.29,15.81-1.17,21.21C536.92,332.57,539.16,341,541,345.58Z" fill="#d9a171"/>
        <path id="Trazado_111464" data-name="Trazado 111464" d="M558.16,329.65a2.4,2.4,0,0,1,0,.25,11.649,11.649,0,0,1-2.48,5.06,58.4,58.4,0,0,1-8.89,8.82c-1.43,1.16-2.39,1.88-2.39,1.88,2.46,5.57-2.54,10.69-4,7.75-.31-.64.82-2.82.82-3.68,0-.54-.94-1.14-1.6-2.1a2.78,2.78,0,0,1,.35-3.07c.87-1.2,1.73-2.55,2.61-3.94,2.34-3.69,4.85-7.69,8.35-10.4-5.9-3.14-9.88-4.55-14-8.27l1.93-15.36S558.65,322.61,558.16,329.65Z" fill="#f9cbcb"/>
        <path id="Trazado_111465" data-name="Trazado 111465" d="M558.16,329.65a2.4,2.4,0,0,1,0,.25c-.83,1.7-1.67,3.42-2.48,5.06a58.4,58.4,0,0,1-8.89,8.82l-4.23-3.16c2.34-3.69,4.85-7.69,8.35-10.4-5.9-3.14-9.88-4.55-14-8.27l1.93-15.36S558.65,322.61,558.16,329.65Z" fill="#a37955"/>
        <path id="Trazado_111466" data-name="Trazado 111466" d="M523.61,282.34S521,289.58,523,294.1s10,1.42,10,1.42Z" fill="#f9cbcb"/>
        <path id="Trazado_111467" data-name="Trazado 111467" d="M528.86,295.79l-1.22,6.8,5.6.01-.19-7.08Z" fill="#f9cbcb"/>
        <path id="Trazado_111468" data-name="Trazado 111468" d="M552.13,308c-.54-4,1.78-5.91.32-9.68-1.4-3.59-5.65-5.28-7.54-8.64-1.42-2.5-1.32-5.59-2.35-8.28a10.44,10.44,0,0,0-19.32-.48s-2.18,3.91,1,9.34c1.72,2.93,6.35,5.48,7.37,8.72,1.9,6-6.32,14.22-4,20.08,1.27,3.19,4.92,3.15,5.59,6.51.6,3-5,5.26,0,11.74,3.7,4.85,8.13,1,11,.67,2.41-.24,6.54,2.26,11-.23,8.06-4.55,1.28-10.72,3-17C560.37,312.72,552.71,312.34,552.13,308Z" fill="#344154"/>
        <path id="Trazado_111469" data-name="Trazado 111469" d="M533.36,441.25l.71,3.64a8.64,8.64,0,0,1,.21,3l-.41,3.93h-1.44l.13-2.49a.73.73,0,0,0-1.29-.39l-1.34,1.63A2.59,2.59,0,0,1,528,452c-2.5.36-7.39.51-7.61-1.13s4.51-1.82,5.87-3.7,2.2-5.74,2.2-5.74a7.18,7.18,0,0,0,4.9-.18Z" fill="#344154"/>
        <path id="Trazado_111470" data-name="Trazado 111470" d="M555.83,434.38l2.3,2.8a8.481,8.481,0,0,1,1.48,2.66l1.31,3.73-1.31.61-.94-2.31a.73.73,0,0,0-1.33.19l-.53,2.05a2.59,2.59,0,0,1-1.15,2.05c-2.11,1.39-6.47,3.61-7.37,2.22s3.3-3.57,3.74-5.85-.46-6.13-.46-6.13A6.62,6.62,0,0,0,555.83,434.38Z" fill="#344154"/>
      </g>
      <g id="Grupo_60294" data-name="Grupo 60294">
        <path id="Trazado_111471" data-name="Trazado 111471" d="M224.92,284.17s-4.49,25.29-11,27c-3,.79-6.78.13-10.42-1.1-6.16-2.08-11.82-5.79-12-6.8l-6.25-19c3.6,1.55,24.08,13.22,25.75,14.34,2.71-4.07,8.59-14.65,8.78-15.43,0,0-1.27-5.7-.15-7.31,1-1.42,1.37,3.24,1.79,2.68s5.68-3.29,7.48-1.36C232.85,281.55,224.92,284.17,224.92,284.17Z" fill="#f9cbcb"/>
        <path id="Trazado_111472" data-name="Trazado 111472" d="M207.49,296c-.47,4.95-3.34,11.64-3.64,14.74-6.16-2.09-13.58-2.79-13.78-3.8l-4.88-22.6C188.79,285.89,200.34,291.76,207.49,296Z" fill="#e1b48d"/>
        <path id="Trazado_111473" data-name="Trazado 111473" d="M183.54,392.16A85.872,85.872,0,0,0,181,405.32c-1.09,10.27-.78,26.08,1.1,36.07l5.27-.51s7.44-27,11-40.83c.9-3.5,1.61-6.64,2-9,2.12-13.48-5.74-51.67-6.25-54.14v-.09h0l-21.18-3C161.59,360.61,174.94,367.34,183.54,392.16Z" fill="#f1cccd"/>
        <path id="Trazado_111474" data-name="Trazado 111474" d="M173.55,370.15c3,6.15,6.81,12.84,10,22-1.17,4.36-2.51,8.9-4,14.18l18.33,2.56c.9-3.5,2.13-15.49,2.49-17.85,2.12-13.48-5.74-51.67-6.25-54.14v-.09h0l-21.18-3C165.74,350.72,168.44,359.63,173.55,370.15Z" fill="#27313f"/>
        <path id="Trazado_111475" data-name="Trazado 111475" d="M173.55,370.15c3,6.15,6.81,12.84,10,22-1.17,4.36-2.51,8.9-4,14.18l3.38.48c.58-5.23,5.2-13.84,6.76-13.56-1.38-.34-14-25-14.93-33.55Z" fill="#1a212a"/>
        <path id="Trazado_111476" data-name="Trazado 111476" d="M161.36,447.56l-12.91-15s9.48-14.81,17.15-24.65a72.991,72.991,0,0,1,5-5.94c10.5-10.88,16-65.71,16-65.71H169.23c-13.62,12.52-10.19,29.75-10.59,46.77a32.21,32.21,0,0,1-5.22,16.56c-.64,1-1.25,2-1.82,3.05-4,7.25-6.33,15.75-8.5,29.71l-2.69,9.07Z" fill="#f1cccd"/>
        <path id="Trazado_111477" data-name="Trazado 111477" d="M150.73,402.38l5,2.3,10.2,4.67c1.82-2.36,3.2-5.82,4.67-7.34,10.5-10.88,17.28-65.92,17.28-65.92l-17.92.2h-.74c-13.16,12.1-10.4,28.6-10.56,45.06a31,31,0,0,1-6.34,18.6,18.753,18.753,0,0,0-1.59,2.43Z" fill="#344154"/>
        <path id="Trazado_111478" data-name="Trazado 111478" d="M150.73,402.38l5,2.3A75.719,75.719,0,0,0,161.11,394c3.41-8.64,1.31-20.38,2.13-36.88.61-12.15,10.88-18.06,10.88-18.06L170,336.29h-.74c-13.16,12.1-10.4,28.6-10.56,45.06a31,31,0,0,1-6.34,18.6,18.75,18.75,0,0,0-1.63,2.43Z" fill="#27313f"/>
        <path id="Trazado_111479" data-name="Trazado 111479" d="M160.41,300.91c.15,10.95,2.84,29.93,3.87,36.76a3.5,3.5,0,0,0,2.92,3,97.888,97.888,0,0,0,14.39,1.11,72.193,72.193,0,0,0,12.31-1,3.53,3.53,0,0,0,2.92-3.1c.56-5.16-1.06-16.5-.8-27.52.17-7-2-24.84-15-27.65l-7.63-.06c-8.56,2.21-12.14,8.76-12.74,13.33a36,36,0,0,0-.24,5.13Z" fill="#d9a171"/>
        <path id="Trazado_111480" data-name="Trazado 111480" d="M188,439.37c8.11,3.11,17.1,2.79,17.66,10.11l-25.5-.89a18.31,18.31,0,0,1,1.55-9.22Z" fill="#27313f"/>
        <path id="Trazado_111481" data-name="Trazado 111481" d="M148.45,432.6c6.49,5.77,16.19,9.83,14.14,16.88L139,441.6c.81-3,1.9-7.83,4.22-10.21Z" fill="#27313f"/>
        <g id="Grupo_60277" data-name="Grupo 60277">
          <path id="Trazado_111482" data-name="Trazado 111482" d="M178.6,275.73c-2.48.77-3.49,2-6.67.58-4.83-2.19-8.91-10.55-2.49-14.34.44-1.32.89-1.84,2.58-2.21s3.43.37,5.76.33,5.63-2.44,7.66,1-3,6-5.53,7.7S178.2,273.29,178.6,275.73Z" fill="#344154"/>
          <path id="Trazado_111483" data-name="Trazado 111483" d="M173.24,282.42c2.78,2.77,5.39,3.3,7.74,0l-.66-5.35-.28-2.26H173.9l-.12,1.4Z" fill="#f9cbcb"/>
          <path id="Trazado_111484" data-name="Trazado 111484" d="M173.69,277.25c1.52,1.83,5.71,2.35,6.84,1.57l-.49-4-6.18-2.59Z" fill="#f0b4b4"/>
          <path id="Trazado_111485" data-name="Trazado 111485" d="M183.19,264.11c1.13,3.19,2.24,10.24-.46,12.86-1.72,1.66-7.93,1-9.2-3.55-1.5-1.08-2.6-3.73-1.22-4.93,1-.85,2.25,1.41,4,1,.65-.14-1.35-4.49.69-5.25S181.14,265.15,183.19,264.11Z" fill="#f9cbcb"/>
        </g>
        <g id="Grupo_60278" data-name="Grupo 60278">
          <path id="Trazado_111486" data-name="Trazado 111486" d="M170.79,309.8s6.83,8.21,13,12.73A19.55,19.55,0,0,0,188,325c9,3.43,29.86.73,29.86.73,6.56,3.35,14.85,1.36,16.49-1.11,2.9-4.42-7.85-.25-8.89-2.9,0,0,4.94-2.69,3.55-4.65s-10,3.29-10,3.29a82.56,82.56,0,0,0-25.78-6.13c-.67-.94-1.33-1.87-2-2.79-5-6.6-10.74-12.61-18.58-16.61C168.87,299.76,169,304.78,170.79,309.8Z" fill="#f9cbcb"/>
          <path id="Trazado_111487" data-name="Trazado 111487" d="M181.88,322.75l10.77-12c-5-6.6-14.49-21.07-21.13-15.3C162.68,303.1,175.68,318.23,181.88,322.75Z" fill="#e1b48d"/>
        </g>
        <g id="Grupo_60293" data-name="Grupo 60293">
          <path id="Trazado_111488" data-name="Trazado 111488" d="M231.32,281.69l-12.42-7.63a1.07,1.07,0,0,0-1.48.36l-11.54,18.77a1.07,1.07,0,0,0,.34,1.48l12.43,7.64a1.08,1.08,0,0,0,1.48-.36l11.54-18.77a1.09,1.09,0,0,0-.35-1.49Z" fill="#27313f"/>
          <rect id="Rectángulo_8500" data-name="Rectángulo 8500" width="15.04" height="22.5" rx="0.92" transform="matrix(0.852, 0.524, -0.524, 0.852, 218.211, 274.749)" fill="#fff"/>
          <path id="Trazado_111489" data-name="Trazado 111489" d="M228.05,279.72l-.64,1a.4.4,0,0,1-.56.14l-5.35-3.28a.42.42,0,0,1-.13-.57L222,276l-.18-.1-.66,1.07a.58.58,0,0,0,.19.81l5.41,3.32a.58.58,0,0,0,.8-.19l.66-1.08Z" fill="#2b3c85"/>
          <path id="Trazado_111490" data-name="Trazado 111490" d="M225.69,276.8h0a.58.58,0,0,0-.8.19l-.53.87,1,.6.53-.87a.57.57,0,0,0-.2-.79Zm-.42.68a.23.23,0,0,1-.08-.33.24.24,0,1,1,.08.33Z" fill="#27313f"/>
          <path id="Trazado_111491" data-name="Trazado 111491" d="M228,280.12l-6.38-3.92a.29.29,0,0,1-.09-.4h0a.29.29,0,0,1,.4-.1l6.37,3.92a.3.3,0,0,1,.1.4h0a.3.3,0,0,1-.4.1Z" fill="#27313f"/>
          <path id="Trazado_111492" data-name="Trazado 111492" d="M224.79,280l-1.41-.87a.19.19,0,0,1-.07-.26h0a.2.2,0,0,1,.27-.06l1.41.87a.21.21,0,0,1,.07.27h0A.2.2,0,0,1,224.79,280Z" fill="#27313f"/>
          <g id="Grupo_60292" data-name="Grupo 60292">
            <g id="Grupo_60279" data-name="Grupo 60279">
              <path id="Trazado_111493" data-name="Trazado 111493" d="M219.45,279.37l-.33-.21-.15.13-.3-.19,1-.73.32.2-.23,1.17-.31-.19Zm.07-.25.1-.41-.31.28Z" fill="#7e97fb"/>
              <path id="Trazado_111494" data-name="Trazado 111494" d="M220.47,279.84l.24.18-.15.09a.37.37,0,0,1-.18,0,.6.6,0,0,1-.21-.09.591.591,0,0,1-.17-.13.42.42,0,0,1-.09-.14.43.43,0,0,1,0-.16.37.37,0,0,1,.07-.18.45.45,0,0,1,.14-.16h.13a.331.331,0,0,1,.14,0,.64.64,0,0,1,.22.09.58.58,0,0,1,.22.22.36.36,0,0,1,0,.25l-.27-.12a.14.14,0,0,0,0-.09.12.12,0,0,0-.07-.07.13.13,0,0,0-.13,0c-.05,0-.09,0-.13.12a.17.17,0,0,0,0,.15.16.16,0,0,0,.07.11.15.15,0,0,0,.11,0A.14.14,0,0,0,220.47,279.84Z" fill="#7e97fb"/>
              <path id="Trazado_111495" data-name="Trazado 111495" d="M221.36,280.38l.24.19a.6.6,0,0,1-.15.09.37.37,0,0,1-.18,0,.6.6,0,0,1-.21-.09.841.841,0,0,1-.17-.13.421.421,0,0,1-.09-.14.45.45,0,0,1,0-.16.4.4,0,0,1,.07-.19.41.41,0,0,1,.14-.15.34.34,0,0,1,.14-.05h.13a.639.639,0,0,1,.22.09.58.58,0,0,1,.22.22.35.35,0,0,1,0,.25l-.27-.12a.14.14,0,0,0,0-.09.13.13,0,0,0-.07-.08.15.15,0,0,0-.13,0,.22.22,0,0,0-.13.11.2.2,0,0,0,0,.16.13.13,0,0,0,.08.1.1.1,0,0,0,.1,0,.161.161,0,0,0,.06-.01Z" fill="#7e97fb"/>
              <path id="Trazado_111496" data-name="Trazado 111496" d="M221.75,280.52a.4.4,0,0,1,.27-.2.52.52,0,0,1,.35.08.47.47,0,0,1,.24.31.43.43,0,0,1-.06.29.41.41,0,0,1-.27.2.46.46,0,0,1-.36-.08.42.42,0,0,1-.21-.25.4.4,0,0,1,.04-.35Zm.27.16a.23.23,0,0,0-.05.16.13.13,0,0,0,.07.1.12.12,0,0,0,.12,0s.08,0,.12-.12a.2.2,0,0,0,0-.16.12.12,0,0,0-.06-.1.17.17,0,0,0-.12,0,.18.18,0,0,0-.1.12Z" fill="#7e97fb"/>
              <path id="Trazado_111497" data-name="Trazado 111497" d="M223.19,281.88l-.25-.15.07-.11a.351.351,0,0,1-.17,0,.37.37,0,0,1-.16-.05.3.3,0,0,1-.13-.17.39.39,0,0,1,.06-.24l.27-.44.27.16-.23.38a.21.21,0,0,0,0,.11.1.1,0,0,0,.15.07.24.24,0,0,0,.12-.11l.2-.34.27.17Z" fill="#7e97fb"/>
              <path id="Trazado_111498" data-name="Trazado 111498" d="M223.78,281.29l.24.15-.07.11h.18a.24.24,0,0,1,.15.06.22.22,0,0,1,.13.17.29.29,0,0,1-.06.24l-.27.44-.26-.17.23-.38a.11.11,0,0,0,0-.1l-.05-.07a.09.09,0,0,0-.1,0,.28.28,0,0,0-.11.11l-.2.33-.27-.16Z" fill="#7e97fb"/>
              <path id="Trazado_111499" data-name="Trazado 111499" d="M225.15,281.77,225,282l.14.09-.12.19-.14-.09-.15.25v.06a.05.05,0,0,0,0,.05.19.19,0,0,0,.09,0l-.09.19a.719.719,0,0,1-.2-.09.52.52,0,0,1-.13-.11.17.17,0,0,1,0-.12.55.55,0,0,1,.08-.19l.15-.24-.1-.06.12-.19.1.06.08-.13Z" fill="#7e97fb"/>
              <path id="Trazado_111500" data-name="Trazado 111500" d="M225.27,282.2l.26.17-.42.69-.27-.16Zm.16-.26.27.16-.12.18-.26-.16Z" fill="#7e97fb"/>
              <path id="Trazado_111501" data-name="Trazado 111501" d="M225.7,282.47l.25.15-.07.12a.28.28,0,0,1,.17,0,.331.331,0,0,1,.16.05.27.27,0,0,1,.13.17.29.29,0,0,1-.06.24l-.27.44-.27-.16.24-.38a.3.3,0,0,0,0-.11.061.061,0,0,0-.1-.07.506.506,0,0,0-.11.11l-.21.34-.26-.17Z" fill="#7e97fb"/>
              <path id="Trazado_111502" data-name="Trazado 111502" d="M227.08,283.31l.24.16-.4.65h0a.31.31,0,0,1-.23.16.39.39,0,0,1-.15,0l-.17-.08c-.14-.09-.23-.17-.25-.24a.24.24,0,0,1,0-.22h0l.23.19V284l.07.07a.12.12,0,0,0,.1,0,.19.19,0,0,0,.09-.09l.07-.1h-.12a.381.381,0,0,1-.15-.05.29.29,0,0,1-.15-.26.44.44,0,0,1,.08-.27.38.38,0,0,1,.23-.19.286.286,0,0,1,.37.11.33.33,0,0,1,0,.15Zm-.46.19a.24.24,0,0,0,0,.13.16.16,0,0,0,.06.08.11.11,0,0,0,.11,0,.17.17,0,0,0,.1-.09.2.2,0,0,0,0-.14.14.14,0,0,0-.17-.11A.27.27,0,0,0,226.62,283.5Z" fill="#7e97fb"/>
            </g>
            <g id="Grupo_60280" data-name="Grupo 60280">
              <path id="Trazado_111503" data-name="Trazado 111503" d="M226.16,286l-8.83-5.43a.09.09,0,0,1,0-.11h0a.08.08,0,0,1,.11,0l8.82,5.42a.08.08,0,0,1,0,.11h0a.08.08,0,0,1-.1.01Z" fill="#b5c3fb"/>
              <path id="Trazado_111504" data-name="Trazado 111504" d="M222.56,284.42l-6.6-4.06a.07.07,0,0,1,0-.1h0a.09.09,0,0,1,.11,0l6.6,4a.07.07,0,0,1,0,.11h0a.07.07,0,0,1-.11.05Z" fill="#b5c3fb"/>
              <path id="Trazado_111505" data-name="Trazado 111505" d="M219.52,283.25l-3.87-2.38a.08.08,0,0,1,0-.11h0a.07.07,0,0,1,.11,0l3.87,2.37a.07.07,0,0,1,0,.11h0a.07.07,0,0,1-.11.01Z" fill="#b5c3fb"/>
              <path id="Trazado_111506" data-name="Trazado 111506" d="M225,286.59l-4.8-2.95a.08.08,0,0,1,0-.11h0a.08.08,0,0,1,.11,0l4.79,2.95a.08.08,0,0,1,0,.11h0a.08.08,0,0,1-.1,0Z" fill="#b5c3fb"/>
              <path id="Trazado_111507" data-name="Trazado 111507" d="M226.76,287.7l-1.24-.76a.07.07,0,0,1,0-.11h0a.07.07,0,0,1,.1,0l1.25.77a.09.09,0,0,1,0,.11h0a.09.09,0,0,1-.11-.01Z" fill="#b5c3fb"/>
              <path id="Trazado_111508" data-name="Trazado 111508" d="M227.07,287.2l-3.91-2.41a.09.09,0,0,1,0-.11h0a.09.09,0,0,1,.11,0l3.91,2.4a.08.08,0,0,1,0,.11h0a.08.08,0,0,1-.11.01Z" fill="#b5c3fb"/>
            </g>
            <rect id="Rectángulo_8501" data-name="Rectángulo 8501" width="1.57" height="1.42" rx="0.52" transform="matrix(0.852, 0.524, -0.524, 0.852, 215.046, 281.713)" fill="#b5c3fb"/>
            <rect id="Rectángulo_8502" data-name="Rectángulo 8502" width="1.57" height="1.42" rx="0.52" transform="matrix(0.852, 0.524, -0.524, 0.852, 213.979, 283.447)" fill="#b5c3fb"/>
            <rect id="Rectángulo_8503" data-name="Rectángulo 8503" width="1.57" height="1.42" rx="0.52" transform="translate(212.904 285.173) rotate(31.56)" fill="#b5c3fb"/>
            <rect id="Rectángulo_8504" data-name="Rectángulo 8504" width="1.57" height="1.42" rx="0.52" transform="matrix(0.852, 0.524, -0.524, 0.852, 211.816, 286.906)" fill="#b5c3fb"/>
            <g id="Grupo_60281" data-name="Grupo 60281">
              <path id="Trazado_111509" data-name="Trazado 111509" d="M208.09,293.3l2.95-4.8-.13-.08-2.95,4.8-.08.13.13.08,6.3,3.87.07-.13Z" fill="#dbdfff"/>
              <path id="Trazado_111510" data-name="Trazado 111510" d="M215.76,292.33l-3.14,3.03.37-2.1-1.91,1.15.31-1.14-.97.74.81-2.94-2.7,2.11,5.82,3.57Z" fill="#dbdfff"/>
            </g>
            <g id="Grupo_60283" data-name="Grupo 60283">
              <rect id="Rectángulo_8505" data-name="Rectángulo 8505" width="0.8" height="0.8" rx="0.29" transform="matrix(0.852, 0.523, -0.523, 0.852, 217.224, 293.941)" fill="#dbdfff"/>
              <g id="Grupo_60282" data-name="Grupo 60282">
                <path id="Trazado_111511" data-name="Trazado 111511" d="M221.35,296.78l-3.28-2v-.07h.07l3.27,2v.07h0A.115.115,0,0,1,221.35,296.78Z" fill="#dbdfff"/>
                <path id="Trazado_111512" data-name="Trazado 111512" d="M218.72,295.65l-.86-.53v-.07h.07l.86.53v.07h0A.158.158,0,0,1,218.72,295.65Z" fill="#dbdfff"/>
                <path id="Trazado_111513" data-name="Trazado 111513" d="M220.67,296.85l-1.59-1a.05.05,0,0,1,0-.07h0a.05.05,0,0,1,.07,0l1.59,1v.07h0a.06.06,0,0,1-.07,0Z" fill="#dbdfff"/>
              </g>
            </g>
            <g id="Grupo_60285" data-name="Grupo 60285">
              <rect id="Rectángulo_8506" data-name="Rectángulo 8506" width="0.8" height="0.8" rx="0.29" transform="matrix(0.852, 0.524, -0.524, 0.852, 216.256, 295.465)" fill="#dbdfff"/>
              <g id="Grupo_60284" data-name="Grupo 60284">
                <path id="Trazado_111514" data-name="Trazado 111514" d="M220.41,298.3l-3.27-2a.05.05,0,0,1,0-.07h0a.05.05,0,0,1,.07,0l3.28,2v.07h-.08Z" fill="#dbdfff"/>
                <path id="Trazado_111515" data-name="Trazado 111515" d="M217.78,297.17l-.86-.53a.06.06,0,0,1,0-.07h0a.07.07,0,0,1,.07,0l.87.53a.06.06,0,0,1,0,.08h0Z" fill="#dbdfff"/>
                <path id="Trazado_111516" data-name="Trazado 111516" d="M219.73,298.37l-1.59-1v-.07h.07l1.59,1v.07h-.07Z" fill="#dbdfff"/>
              </g>
            </g>
            <g id="Grupo_60287" data-name="Grupo 60287">
              <rect id="Rectángulo_8507" data-name="Rectángulo 8507" width="0.8" height="0.8" rx="0.29" transform="matrix(0.852, 0.523, -0.523, 0.852, 215.352, 296.98)" fill="#dbdfff"/>
              <g id="Grupo_60286" data-name="Grupo 60286">
                <path id="Trazado_111517" data-name="Trazado 111517" d="M219.48,299.83l-3.28-2a.06.06,0,0,1,0-.07h0a.07.07,0,0,1,.07,0l3.28,2a.06.06,0,0,1,0,.07h0a.07.07,0,0,1-.07,0Z" fill="#dbdfff"/>
                <path id="Trazado_111518" data-name="Trazado 111518" d="M216.85,298.7l-.87-.53a.06.06,0,0,1,0-.08h.07l.86.53a.06.06,0,0,1,0,.07h0A.07.07,0,0,1,216.85,298.7Z" fill="#dbdfff"/>
                <path id="Trazado_111519" data-name="Trazado 111519" d="M218.8,299.89l-1.59-1v-.07h.07l1.59,1a.06.06,0,0,1,0,.07h-.07Z" fill="#dbdfff"/>
              </g>
            </g>
            <g id="Grupo_60288" data-name="Grupo 60288">
              <path id="Trazado_111520" data-name="Trazado 111520" d="M222.13,286.79l-5.48-3.37a.08.08,0,0,1,0-.11h0a.08.08,0,0,1,.11,0l5.48,3.37a.08.08,0,0,1,0,.11h0a.08.08,0,0,1-.11,0Z" fill="#b5c3fb"/>
              <path id="Trazado_111521" data-name="Trazado 111521" d="M219.54,285.89l-3.2-2a.08.08,0,0,1,0-.11h0a.09.09,0,0,1,.11,0l3.2,2a.08.08,0,0,1,0,.11h0a.08.08,0,0,1-.11,0Z" fill="#b5c3fb"/>
              <path id="Trazado_111522" data-name="Trazado 111522" d="M224.08,288.68l-4-2.45a.09.09,0,0,1,0-.11h0a.09.09,0,0,1,.11,0l4,2.45a.07.07,0,0,1,0,.11h0a.08.08,0,0,1-.11,0Z" fill="#b5c3fb"/>
              <path id="Trazado_111523" data-name="Trazado 111523" d="M225.59,289.61l-1-.62a.08.08,0,0,1,0-.11h0a.08.08,0,0,1,.11,0l1,.63a.08.08,0,0,1,0,.11h0A.09.09,0,0,1,225.59,289.61Z" fill="#b5c3fb"/>
              <path id="Trazado_111524" data-name="Trazado 111524" d="M225.9,289.11l-3.24-2a.08.08,0,0,1,0-.11h0a.09.09,0,0,1,.11,0l3.24,2a.08.08,0,0,1,0,.11h0A.08.08,0,0,1,225.9,289.11Z" fill="#b5c3fb"/>
            </g>
            <g id="Grupo_60289" data-name="Grupo 60289">
              <path id="Trazado_111525" data-name="Trazado 111525" d="M221.13,288.42l-5.49-3.37a.08.08,0,0,1,0-.11h0a.08.08,0,0,1,.11,0l5.48,3.37a.07.07,0,0,1,0,.11h0a.08.08,0,0,1-.1,0Z" fill="#b5c3fb"/>
              <path id="Trazado_111526" data-name="Trazado 111526" d="M218.54,287.53l-3.21-2a.08.08,0,0,1,0-.11h0a.07.07,0,0,1,.1,0l3.21,2a.08.08,0,0,1,0,.11h0a.09.09,0,0,1-.1,0Z" fill="#b5c3fb"/>
              <path id="Trazado_111527" data-name="Trazado 111527" d="M223.07,290.31l-4-2.44a.08.08,0,0,1,0-.11h0a.09.09,0,0,1,.11,0l4,2.45a.08.08,0,0,1,0,.11h0a.07.07,0,0,1-.11-.01Z" fill="#b5c3fb"/>
              <path id="Trazado_111528" data-name="Trazado 111528" d="M224.58,291.25l-1-.63a.08.08,0,0,1,0-.11h0s.08-.05.11,0l1,.62a.08.08,0,0,1,0,.11h0a.08.08,0,0,1-.11.01Z" fill="#b5c3fb"/>
              <path id="Trazado_111529" data-name="Trazado 111529" d="M224.9,290.74l-3.24-2a.08.08,0,0,1,0-.11h0a.08.08,0,0,1,.11,0l3.24,2a.07.07,0,0,1,0,.11h0a.07.07,0,0,1-.11,0Z" fill="#b5c3fb"/>
            </g>
            <g id="Grupo_60290" data-name="Grupo 60290">
              <path id="Trazado_111530" data-name="Trazado 111530" d="M220.12,290.06l-5.48-3.38a.07.07,0,0,1,0-.1h0a.08.08,0,0,1,.11,0l5.48,3.37a.08.08,0,0,1,0,.11h0A.08.08,0,0,1,220.12,290.06Z" fill="#b5c3fb"/>
              <path id="Trazado_111531" data-name="Trazado 111531" d="M217.53,289.16l-3.2-2a.08.08,0,0,1,0-.11h0a.07.07,0,0,1,.11,0l3.21,2a.09.09,0,0,1,0,.11h0A.09.09,0,0,1,217.53,289.16Z" fill="#b5c3fb"/>
              <path id="Trazado_111532" data-name="Trazado 111532" d="M222.07,292l-4-2.45a.08.08,0,0,1,0-.11h0a.08.08,0,0,1,.11,0l4,2.44a.09.09,0,0,1,0,.11h0A.09.09,0,0,1,222.07,292Z" fill="#b5c3fb"/>
              <path id="Trazado_111533" data-name="Trazado 111533" d="M223.58,292.88l-1-.62a.09.09,0,0,1,0-.11h0a.08.08,0,0,1,.11,0l1,.62a.09.09,0,0,1,0,.11h0a.08.08,0,0,1-.11,0Z" fill="#b5c3fb"/>
              <path id="Trazado_111534" data-name="Trazado 111534" d="M223.89,292.37l-3.24-2a.08.08,0,0,1,0-.11h.11l3.24,2a.08.08,0,0,1,0,.11h0a.08.08,0,0,1-.11,0Z" fill="#b5c3fb"/>
            </g>
            <g id="Grupo_60291" data-name="Grupo 60291">
              <path id="Trazado_111535" data-name="Trazado 111535" d="M219.12,291.69l-5.49-3.37a.09.09,0,0,1,0-.11h0a.08.08,0,0,1,.11,0l5.48,3.37a.09.09,0,0,1,0,.11h0A.09.09,0,0,1,219.12,291.69Z" fill="#b5c3fb"/>
              <path id="Trazado_111536" data-name="Trazado 111536" d="M216.53,290.79l-3.21-2a.07.07,0,0,1,0-.1h0a.08.08,0,0,1,.11,0l3.2,2a.08.08,0,0,1,0,.11h0a.07.07,0,0,1-.1-.01Z" fill="#b5c3fb"/>
              <path id="Trazado_111537" data-name="Trazado 111537" d="M221.06,293.58l-4-2.44a.07.07,0,0,1,0-.11h0a.07.07,0,0,1,.1,0l4,2.45a.09.09,0,0,1,0,.11h0A.08.08,0,0,1,221.06,293.58Z" fill="#b5c3fb"/>
              <path id="Trazado_111538" data-name="Trazado 111538" d="M222.58,294.51l-1-.62a.07.07,0,0,1,0-.11h0a.07.07,0,0,1,.1,0l1,.63a.07.07,0,0,1,0,.11h0a.07.07,0,0,1-.1-.01Z" fill="#b5c3fb"/>
              <path id="Trazado_111539" data-name="Trazado 111539" d="M222.89,294l-3.24-2a.07.07,0,0,1,0-.1h0a.08.08,0,0,1,.11,0l3.24,2a.08.08,0,0,1,0,.11h0A.09.09,0,0,1,222.89,294Z" fill="#b5c3fb"/>
            </g>
          </g>
        </g>
      </g>
      <g id="Grupo_60301" data-name="Grupo 60301">
        <g id="Grupo_60298" data-name="Grupo 60298">
          <g id="Grupo_60295" data-name="Grupo 60295">
            <path id="Trazado_111540" data-name="Trazado 111540" d="M699.66,397H647.92c-2.4,0-4.35-2.39-4.35-5.33h0c0-2.95,1.95-5.34,4.35-5.34h51.74c2.41,0,4.35,2.39,4.35,5.34h0C704,394.59,702.07,397,699.66,397Z" fill="#d9a171"/>
            <path id="Trazado_111541" data-name="Trazado 111541" d="M647.3,389.29h51.75c2.34,0,4.24,2.27,4.34,5.11a6.351,6.351,0,0,0,.62-2.75c0-2.95-1.94-5.34-4.35-5.34H647.92c-2.4,0-4.35,2.39-4.35,5.34v.23A4.26,4.26,0,0,1,647.3,389.29Z" fill="#a37955"/>
            <path id="Trazado_111542" data-name="Trazado 111542" d="M699.76,446.08l-6.68-6.68H671.66V391.79h2.27v45.33h20.09l7.35,7.35Z" fill="#7b94c4"/>
            <path id="Trazado_111543" data-name="Trazado 111543" d="M645.83,446.08l-1.61-1.61,7.35-7.35h20.09V391.79h2.27V439.4H652.51Z" fill="#7b94c4"/>
            <path id="Trazado_111544" data-name="Trazado 111544" d="M695.79,443.43a2.79,2.79,0,1,1,2.79,2.79A2.79,2.79,0,0,1,695.79,443.43Z" fill="#7b94c4"/>
            <path id="Trazado_111545" data-name="Trazado 111545" d="M643.81,443.72a2.79,2.79,0,1,1,2.79,2.79A2.79,2.79,0,0,1,643.81,443.72Z" fill="#7b94c4"/>
          </g>
          <g id="Grupo_60297" data-name="Grupo 60297">
            <path id="Trazado_111546" data-name="Trazado 111546" d="M648.17,432.86c2.09-10.22,3.22-18.58,2.93-25.94-.2-5.4-.75-10.36-1.2-15.34l32.34-17.93,10.28-5.7h-19.7s-28.09,8.82-32.85,16.51c-3.21,5.17-2.54,16.83-1,27.4,1.59,11.09,4.11,21,4.11,21Z" fill="#e8a7b8"/>
            <path id="Trazado_111547" data-name="Trazado 111547" d="M648.25,432.63l1.66,5.25-1,8.16-1.67.08L645.68,439,643,443.72a4.61,4.61,0,0,1-3.31,2.51c-3.94.49-11.63.62-11.95-1.88s7.13-2.68,9.31-5.51,4.64-6.32,4.64-6.32Z" fill="#344154"/>
            <path id="Trazado_111548" data-name="Trazado 111548" d="M638.93,411.86l6.7,1.07,5.47-6,24.18-26.55,7-6.72,5.9-5.7H672.82s-28.09,8.82-32.85,16.51C636.76,389.63,637.43,401.29,638.93,411.86Z" fill="#344154"/>
            <path id="Trazado_111549" data-name="Trazado 111549" d="M642.36,433.16c5.89-4.88,9.8-11.08,12.85-18.12A94.821,94.821,0,0,0,660,400.48s30-2.45,37.86-13.56c5.37-7.57,1.06-19,1.06-19-5.12.16-11.83-.93-16.07.4-16,5-33.15,11.6-37.14,22.3a148.006,148.006,0,0,0-5.6,21.07c-1.35,6.4-2.56,13.84-4.34,21.33Z" fill="#f7c1ce"/>
            <path id="Trazado_111550" data-name="Trazado 111550" d="M640.13,411.72l10,2.2,5.09,1.12A94.823,94.823,0,0,0,660,400.48s17.65-1.45,29.42-7.13c3.57-1.73,6.61-3.84,8.44-6.43,4.91-6.93,1.73-17.07,1.15-18.73l-.09-.24h0c-5.12.15-12.41-1.4-16.64-.07-16,5-33.32,11.85-37.31,22.56C642.6,396.76,641.75,404,640.13,411.72Z" fill="#27313f"/>
            <path id="Trazado_111551" data-name="Trazado 111551" d="M689.44,393.35c3.57-1.73,6.61-3.84,8.44-6.43,4.91-6.93,1.73-17.07,1.15-18.73l-.09-.24h0l-5,2C697.47,378.72,695.43,386.41,689.44,393.35Z" fill="#344154"/>
            <path id="Trazado_111552" data-name="Trazado 111552" d="M681,308.47a5.26,5.26,0,0,1,6.14-.89c1.4.85,2.23,2.41,3.65,3.24,2.15,1.26,5,.5,7.37,1.2a6,6,0,0,1,4.24,5.08c.14,1.66-.44,3.43.29,4.94a5.94,5.94,0,0,0,3.27,2.5c3.21,1.31,6.83,2.12,9.22,4.58a3.51,3.51,0,0,1,1.2,2.68c-.1,1-.9,1.86-1,2.86a3.3,3.3,0,0,0,1.54,2.89,22.386,22.386,0,0,0,3.07,1.61c2.89,1.51,5.84,7,.93,10.57-2.09,1.53-7.14-2.63-8.38,1.22-.28.87-3.28,3.5-4.21,3.7-8.71,1.85-17.17-10.95-19.12-16.35-5.45-6.19-6.35-11.41-4.62-17.46-1.64-1.46-4.76-4.24-5.21-6.36a6.54,6.54,0,0,1,1.62-6.01Z" fill="#27313f"/>
            <path id="Trazado_111553" data-name="Trazado 111553" d="M678.8,347.75c-3.37,3.93-8.65,8.63-12.1,12.5-1.69-1.43-3.67-2.13-5.09-3.95,5.78-8.49,11.75-19.72,20.14-25C680.37,336.83,680.41,342.29,678.8,347.75Z" fill="#d9a171"/>
            <path id="Trazado_111554" data-name="Trazado 111554" d="M671.4,368.41c7.93-1,14.43,2.17,22.5,1.56a27,27,0,0,0,3-.39,3.61,3.61,0,0,0,3-3.87l-2.66-25.14-2.35-7.74-.54-1.77-4.2-2.18-4.62.15c-6.88,2.9-11.63,10.73-7.46,19.39C682.11,356.83,671.4,368.41,671.4,368.41Z" fill="#d9a171"/>
            <path id="Trazado_111555" data-name="Trazado 111555" d="M685.31,329.1c0,2.53,2.43,2.53,4.86,0l-.57-3.1-.35-1.9-3.66,1.77-.27,3.12Z" fill="#f7c1ce"/>
            <path id="Trazado_111556" data-name="Trazado 111556" d="M691.52,346.92c1.84,4.85,3.71,16.42,2.38,23.05a27,27,0,0,0,3-.39,3.61,3.61,0,0,0,3-3.87l-2.66-25.14-2.35-7.74a14.592,14.592,0,0,0-3.25,3.53A13.87,13.87,0,0,0,691.52,346.92Z" fill="#a37955"/>
            <g id="Grupo_60296" data-name="Grupo 60296">
              <path id="Trazado_111557" data-name="Trazado 111557" d="M662.75,362.53c2.11,3.09,9.94-.19,12.76,0,3.67-.2,7.6.35,11.31.07,4.48-.34,11.06,1.06,14.7-1.82s-1-17.09-2-20.28c-1.43-4.25-3-6.1-5.13-9.45.94,3.25,1.89,6.36,2.83,9.55-.59,4.95-1.09,9.92-1.62,14.87-3.62.47-6.34.79-10.16,1.41-3.37.56-8,1.32-11.48,2.25C670.81,357.47,660.65,359.43,662.75,362.53Z" fill="#f7c1ce"/>
              <path id="Trazado_111558" data-name="Trazado 111558" d="M685.51,356.83c.38,2,.78,3.79,1.31,5.84,4.74.22,10.48,1.53,14.89-2.06s1.44-18.17-.34-22.16c-1.92-4.28-3.51-5.64-7-7.45-6.76,6.58.35,15.72,1.21,24.45C692.18,355.86,688.84,356.3,685.51,356.83Z" fill="#d9a171"/>
            </g>
            <path id="Trazado_111559" data-name="Trazado 111559" d="M685.4,328a12.359,12.359,0,0,0,1.46.21c1.54,0,3-.24,2.74-2.21l-.35-1.9-3.66,1.77Z" fill="#e8a7b6"/>
            <path id="Trazado_111560" data-name="Trazado 111560" d="M682.35,312.9s1.89,3.88,8.23,5.32c0,0,2-2.09,2.84-.79s-1.22,3.62-1.22,3.62c-.24,3.8-3.06,6.81-6,6.1C679.57,325.53,682.35,312.9,682.35,312.9Z" fill="#f7c1ce"/>
            <path id="Trazado_111561" data-name="Trazado 111561" d="M642.36,433.16l1.66,5.25-1,8.16-1.67.08-1.52-7.15-2.69,4.75a4.61,4.61,0,0,1-3.31,2.51c-3.94.49-11.63.62-11.95-1.88s7.13-2.68,9.31-5.51,4.64-6.32,4.64-6.32Z" fill="#27313f"/>
          </g>
        </g>
        <g id="Grupo_60300" data-name="Grupo 60300">
          <path id="Trazado_111562" data-name="Trazado 111562" d="M665.46,447.44h0a3,3,0,0,1-2.26-.72l-57.12-80.51H611l56.7,79.93C668.19,446.79,667.05,447.44,665.46,447.44Z" fill="#8ea4cf"/>
          <path id="Trazado_111563" data-name="Trazado 111563" d="M614.79,447.44h0a3,3,0,0,0,2.26-.72l57.13-80.51h-4.95l-56.71,79.93C612.06,446.79,613.2,447.44,614.79,447.44Z" fill="#8ea4cf"/>
          <path id="Trazado_111564" data-name="Trazado 111564" d="M696.6,371H583.66c-3,0-5.37-1.72-5.37-3.84h0c0-2.12,2.4-3.84,5.37-3.84H696.6c3,0,5.36,1.72,5.36,3.84h0C702,369.28,699.56,371,696.6,371Z" fill="#f2e9e4"/>
          <path id="Trazado_111565" data-name="Trazado 111565" d="M698,363.55a2.68,2.68,0,0,1,.44,1.45c0,2.12-2.64,3.84-5.9,3.84H580.71a9,9,0,0,1-2-.23c.88,1.4,3,2.39,5.47,2.39H696.06c3.26,0,5.9-1.72,5.9-3.84C702,365.49,700.32,364.08,698,363.55Z" fill="#b6afab"/>
          <rect id="Rectángulo_8508" data-name="Rectángulo 8508" width="48.55" height="3.36" transform="translate(616.74 375)" fill="#8ea4cf"/>
          <path id="Trazado_111566" data-name="Trazado 111566" d="M692.37,449.61H587.89a1.94,1.94,0,0,1-2.12-1.67h0a1.93,1.93,0,0,1,2.12-1.66H692.37a1.92,1.92,0,0,1,2.11,1.66h0a1.93,1.93,0,0,1-2.11,1.67Z" fill="#8ea4cf"/>
          <g id="Grupo_60299" data-name="Grupo 60299">
            <path id="Trazado_111567" data-name="Trazado 111567" d="M679.75,354.68H641.56a2.1,2.1,0,0,1-2.07-1.74l-4.1-23.43a2.1,2.1,0,0,1,2.06-2.46h38.2a2.1,2.1,0,0,1,2.07,1.74l4.1,23.43a2.1,2.1,0,0,1-2.07,2.46Z" fill="#959cc4"/>
            <path id="Trazado_111568" data-name="Trazado 111568" d="M681.67,351.37H644.56a2.08,2.08,0,0,1-2.06-1.73l-4-22.59h-1.09a2.1,2.1,0,0,0-2.06,2.46l4.1,23.43a2.1,2.1,0,0,0,2.07,1.74h38.19a2.1,2.1,0,0,0,2.07-2.46Z" fill="#8d95c4"/>
            <rect id="Rectángulo_8509" data-name="Rectángulo 8509" width="6.91" height="9.74" transform="translate(656.26 351.58)" fill="#959cc4"/>
            <path id="Trazado_111569" data-name="Trazado 111569" d="M671.83,363.55H646.74a2.91,2.91,0,0,1,2.91-2.91h19.28a2.9,2.9,0,0,1,2.9,2.91Z" fill="#959cc4"/>
            <path id="Trazado_111570" data-name="Trazado 111570" d="M655.64,340.87a2.55,2.55,0,1,1,2.55,2.54,2.55,2.55,0,0,1-2.55-2.54Z" fill="#fff"/>
          </g>
        </g>
      </g>
      <g id="Grupo_60302" data-name="Grupo 60302">
        <path id="Trazado_111571" data-name="Trazado 111571" d="M110.6,221.87a11.09,11.09,0,0,1,8.4-9.77v-.22a5.17,5.17,0,0,1,5.62-4.68,3.389,3.389,0,0,1,.44.08,11.1,11.1,0,0,1,21.52.54,11,11,0,0,1,3.25-.2,10.79,10.79,0,0,1,7.71,4.35,8,8,0,0,1,1.09,0,7.72,7.72,0,0,1,2.3,14.81,5.52,5.52,0,0,1,0,.91,5.58,5.58,0,0,1-9,3.92,12.2,12.2,0,0,1-20.71,5.14,7.34,7.34,0,0,1-11.65-3A11.09,11.09,0,0,1,110.6,221.87Z" fill="#d9a171"/>
        <path id="Trazado_111572" data-name="Trazado 111572" d="M159.16,240.61a4,4,0,1,0-4,4A4,4,0,0,0,159.16,240.61Z" fill="#d9a171"/>
        <circle id="Elipse_4301" data-name="Elipse 4301" cx="2.6" cy="2.6" r="2.6" transform="translate(159.77 244.93)" fill="#d9a171"/>
        <circle id="Elipse_4302" data-name="Elipse 4302" cx="2.04" cy="2.04" r="2.04" transform="translate(150.62 217.09)" fill="#fff"/>
        <circle id="Elipse_4303" data-name="Elipse 4303" cx="2.04" cy="2.04" r="2.04" transform="translate(143.76 217.09)" fill="#fff"/>
        <circle id="Elipse_4304" data-name="Elipse 4304" cx="2.04" cy="2.04" r="2.04" transform="translate(136.9 217.09)" fill="#fff"/>
        <circle id="Elipse_4305" data-name="Elipse 4305" cx="2.04" cy="2.04" r="2.04" transform="translate(130.04 217.09)" fill="#fff"/>
        <path id="Trazado_111573" data-name="Trazado 111573" d="M127.25,219.13a2,2,0,1,0-2,2A2,2,0,0,0,127.25,219.13Z" fill="#fff"/>
      </g>
      <g id="Grupo_60304" data-name="Grupo 60304">
        <path id="Trazado_111574" data-name="Trazado 111574" d="M731.1,413.27c.72-4.28,5.87-.31,7.3,1.6a62.138,62.138,0,0,1-1.76-6.52c-11.59,1.45-8-9.7-.14-.67a51.7,51.7,0,0,1-1-8.22c-11.48-.43-6.34-10.74,0-.8a23.248,23.248,0,0,1,1.19-8.85c-11.68-2.23-4.5-11.63.18-.47,1.24-3.14,3.07-6.06,4.21-9.23-11.86-2.18-4.57-11.74.13-.37a14,14,0,0,0,.58-7.62c-12.13,1.12-7.68-10.25-.07-.32a17.829,17.829,0,0,0-3.7-7.49c-11.31-.13-6.41-10.2.16-.87a18,18,0,0,1,4.08,7.63c2.21-11.71,10.83-4,.19.77a14,14,0,0,1-.51,8c7.3-9.67,11.74,1.25-.22.64-1.2,3.28-3.1,6.27-4.32,9.53,7-10.32,12.57.69-.08.21a23.9,23.9,0,0,0-1.1,8.66c5.66-10.49,11.7-.6,0,.7a50.639,50.639,0,0,0,1,8c3-11.78,11.56-3.52.1.49a60.057,60.057,0,0,0,1.82,6.72c3.08-11.55,11.39-3.36.21.59a45.4,45.4,0,0,0,2.66,6.16c-.47,2.39-3.06-5.28-3.34-5.91C736.22,415.93,732.28,415.81,731.1,413.27Z" fill="#87a1ff"/>
        <path id="Trazado_111575" data-name="Trazado 111575" d="M732.34,434.88c1.87-3.7,5.42,1.38,6.19,3.53a57.676,57.676,0,0,1,.24-6.44c-11-2-4.52-11.1.06-.64a51.054,51.054,0,0,1,1.42-7.77c-10.33-3.66-2.71-11.58.2-.74a22.2,22.2,0,0,1,3.6-7.72c-10-5.34-.79-11.86.3-.38,2-2.5,4.52-4.63,6.46-7.2-10.17-5.35-.83-12,.22-.3a13.46,13.46,0,0,0,2.7-6.77c-11.36-2.42-4.08-11.51,0-.31a17.128,17.128,0,0,0-1.25-7.87c-10.2-3.26-2.91-11.1.4-.74a17.17,17.17,0,0,1,1.54,8.1c5.34-10,11-.59,0,.76a13.45,13.45,0,0,1-2.74,7.12c9.4-6.73,10.33,4.47-.38.51-2,2.65-4.6,4.83-6.64,7.45,9.29-7.4,11.25,4.2-.13.17a22.59,22.59,0,0,0-3.46,7.56c8.1-7.93,10.75,2.82-.18.65a47.85,47.85,0,0,0-1.36,7.6c6.07-9.87,11.52.09,0,.48a56.615,56.615,0,0,0-.26,6.64c6.09-9.64,11.32.18,0,.59a43.827,43.827,0,0,0,.67,6.37c-1.1,2-1.28-5.68-1.35-6.33C736.23,438.76,732.69,437.52,732.34,434.88Z" fill="#b0c1ff"/>
        <g id="Grupo_60303" data-name="Grupo 60303">
          <path id="Trazado_111576" data-name="Trazado 111576" d="M753.16,421c-.12,1.52-2.12,27-2.3,29.32H733.24c-.21-2.48-2.4-27.7-2.54-29.32Z" fill="#a66d58"/>
          <path id="Trazado_111577" data-name="Trazado 111577" d="M730.7,421c0,.24.09,1,.18,2h6.78a10.56,10.56,0,0,1,10.54,11.4c-.46,5.89-1,12.52-1.24,15.88h3.9c.18-2.36,2.18-27.8,2.3-29.32Z" fill="#46301e"/>
          <path id="Trazado_111578" data-name="Trazado 111578" d="M752.72,421H731.14a2.42,2.42,0,0,1-2.62-2.12h0a2.42,2.42,0,0,1,2.62-2.13h21.58a2.41,2.41,0,0,1,2.62,2.13h0a2.41,2.41,0,0,1-2.62,2.12Z" fill="#a66d58"/>
        </g>
      </g>
      <g id="Grupo_60306" data-name="Grupo 60306">
        <path id="Trazado_111579" data-name="Trazado 111579" d="M97.53,415.18c.71-4.28,5.86-.31,7.29,1.6a60.873,60.873,0,0,1-1.76-6.52c-11.59,1.46-8-9.69-.14-.66a51.71,51.71,0,0,1-1-8.22c-11.48-.44-6.33-10.74,0-.8a23.2,23.2,0,0,1,1.19-8.85c-11.68-2.23-4.5-11.63.18-.48,1.24-3.13,3.07-6.05,4.21-9.23-11.85-2.17-4.57-11.73.13-.37a14,14,0,0,0,.58-7.61c-12.12,1.12-7.68-10.26-.07-.32a17.83,17.83,0,0,0-3.7-7.49c-11.31-.13-6.41-10.2.16-.87a18,18,0,0,1,4.08,7.63c2.21-11.71,10.83-4,.19.77a14,14,0,0,1-.51,8c7.3-9.67,11.74,1.25-.22.64-1.2,3.28-3.1,6.27-4.32,9.52,7-10.31,12.58.7-.08.22a24.1,24.1,0,0,0-1.1,8.65c5.66-10.48,11.71-.6,0,.71a50.368,50.368,0,0,0,1,8c3-11.78,11.56-3.51.1.5a60.634,60.634,0,0,0,1.82,6.72c3.08-11.55,11.39-3.36.21.59a45.407,45.407,0,0,0,2.66,6.16c-.46,2.38-3.06-5.28-3.34-5.91C102.64,417.85,98.7,417.72,97.53,415.18Z" fill="#87a1ff"/>
        <path id="Trazado_111580" data-name="Trazado 111580" d="M98.76,436.79c1.87-3.69,5.42,1.39,6.19,3.53a57.5,57.5,0,0,1,.24-6.43c-11-2-4.52-11.1.07-.65a49.719,49.719,0,0,1,1.41-7.76c-10.32-3.67-2.71-11.58.2-.75a22.24,22.24,0,0,1,3.6-7.71c-10-5.35-.79-11.86.3-.38,2-2.5,4.52-4.64,6.46-7.2-10.17-5.35-.83-12,.23-.3a13.57,13.57,0,0,0,2.69-6.77c-11.36-2.43-4.08-11.52,0-.31a17,17,0,0,0-1.25-7.87c-10.2-3.27-2.9-11.1.4-.74a17.3,17.3,0,0,1,1.55,8.1c5.33-10,11-.59,0,.76a13.48,13.48,0,0,1-2.74,7.12c9.4-6.73,10.33,4.47-.38.51-2,2.65-4.6,4.83-6.63,7.44,9.28-7.4,11.24,4.21-.14.18a22.59,22.59,0,0,0-3.46,7.56c8.1-7.93,10.75,2.82-.18.65a47.848,47.848,0,0,0-1.36,7.6c6.07-9.87,11.52.09,0,.48a56.446,56.446,0,0,0-.26,6.63c6.09-9.63,11.32.19,0,.6a43.82,43.82,0,0,0,.67,6.37c-1.1,2-1.28-5.68-1.35-6.34C102.65,440.67,99.11,439.44,98.76,436.79Z" fill="#b0c1ff"/>
        <g id="Grupo_60305" data-name="Grupo 60305">
          <path id="Trazado_111581" data-name="Trazado 111581" d="M119.58,422.92c-.12,1.51-2.12,27-2.3,29.32H99.66c-.21-2.48-2.4-27.7-2.54-29.32Z" fill="#a66d58"/>
          <path id="Trazado_111582" data-name="Trazado 111582" d="M97.12,422.92c0,.23.09,1,.18,2h6.78a10.56,10.56,0,0,1,10.54,11.4c-.46,5.89-1,12.51-1.24,15.88h3.9c.18-2.36,2.18-27.81,2.3-29.32Z" fill="#53372c"/>
          <path id="Trazado_111583" data-name="Trazado 111583" d="M119.14,422.92H97.56a2.42,2.42,0,0,1-2.62-2.13h0a2.42,2.42,0,0,1,2.62-2.12h21.58a2.41,2.41,0,0,1,2.62,2.12h0a2.41,2.41,0,0,1-2.62,2.13Z" fill="#a66d58"/>
        </g>
      </g>
    </g>
  </g>
</svg>
