<svg xmlns="http://www.w3.org/2000/svg" width="145" height="145" viewBox="0 0 145 145">
  <g id="Grupo_60530" data-name="Grupo 60530" transform="translate(0 -0.174)">
    <g id="Grupo_60529" data-name="Grupo 60529" transform="translate(0 0)">
      <rect id="Rectángulo_8772" data-name="Rectángulo 8772" width="145" height="145" transform="translate(0 0.174)" fill="#344154" opacity="0"/>
      <path id="Trazado_113124" data-name="Trazado 113124" d="M789.927,5579.214a59.759,59.759,0,1,1-59.759-59.758A59.758,59.758,0,0,1,789.927,5579.214Z" transform="translate(-657.639 -5505.446)" fill="#344154"/>
    </g>
    <path id="Trazado_113125" data-name="Trazado 113125" d="M755.324,5535.387l9.968-13.876a17.851,17.851,0,0,1,13.957-6.061l17.943,1.994-9.968,13.957a13.986,13.986,0,0,1-11.962,5.981Z" transform="translate(-680.966 -5504.335)" fill="#35a872"/>
    <path id="Trazado_113126" data-name="Trazado 113126" d="M728.471,5543.634l-9.969-13.877a17.853,17.853,0,0,0-13.956-6.061l-17.944,1.994,9.969,13.957a13.983,13.983,0,0,0,11.962,5.981Z" transform="translate(-662.087 -5506.601)" fill="#35a872"/>
    <path id="Trazado_113127" data-name="Trazado 113127" d="M767.439,5533.9a1.994,1.994,0,0,1-1.994,1.993h-7.975a13.971,13.971,0,0,0-13.956,13.957v9.968a1.994,1.994,0,0,1-3.988,0v-3.988a13.971,13.971,0,0,0-13.956-13.956h-3.987a1.994,1.994,0,0,1,0-3.988h3.987a17.932,17.932,0,0,1,14.535,7.434,17.979,17.979,0,0,1,17.365-13.415h7.975A1.994,1.994,0,0,1,767.439,5533.9Z" transform="translate(-671.149 -5508.866)" fill="#3dc285"/>
    <path id="Trazado_113128" data-name="Trazado 113128" d="M722.338,5600.63H750.25v7.975H722.338Z" transform="translate(-671.904 -5527.745)" fill="#ffd33a"/>
    <path id="Trazado_113129" data-name="Trazado 113129" d="M716.84,5589.634h27.912v7.976H716.84Z" transform="translate(-670.394 -5524.724)" fill="#ffb632"/>
    <path id="Trazado_113130" data-name="Trazado 113130" d="M722.338,5578.639H750.25v7.975H722.338Z" transform="translate(-671.904 -5521.704)" fill="#ffd33a"/>
    <path id="Trazado_113131" data-name="Trazado 113131" d="M716.84,5567.643h27.912v7.976H716.84Z" transform="translate(-670.394 -5518.683)" fill="#ffb632"/>
    <path id="Trazado_113132" data-name="Trazado 113132" d="M716.84,5633.616h27.912v7.975H716.84Z" transform="translate(-670.394 -5536.807)" fill="#ffb632"/>
    <path id="Trazado_113133" data-name="Trazado 113133" d="M722.338,5622.621H750.25v7.975H722.338Z" transform="translate(-671.904 -5533.786)" fill="#ffd33a"/>
    <path id="Trazado_113134" data-name="Trazado 113134" d="M722.338,5644.611H750.25v7.976H722.338Z" transform="translate(-671.904 -5539.827)" fill="#ffd33a"/>
    <path id="Trazado_113135" data-name="Trazado 113135" d="M716.84,5611.625h27.912v7.976H716.84Z" transform="translate(-670.394 -5530.765)" fill="#ffb632"/>
    <path id="Trazado_113136" data-name="Trazado 113136" d="M760.279,5589.634a15.95,15.95,0,1,0,15.95,15.95A15.95,15.95,0,0,0,760.279,5589.634Zm0,27.913a11.962,11.962,0,1,1,11.962-11.962A11.963,11.963,0,0,1,760.279,5617.546Z" transform="translate(-677.945 -5524.724)" fill="#ffb632"/>
    <path id="Trazado_113137" data-name="Trazado 113137" d="M763.229,5632.929l-34.177-1.809a4.512,4.512,0,0,0-1.32,8.884h0l10.959,2.74-15.336,6.135-41.021-10.7a5.664,5.664,0,0,0-3.464,10.768l46.479,17.877,33.893-7.975,13.956,1.993h17.944v-27.912Z" transform="translate(-658.965 -5536.119)" fill="#f0c6a4"/>
    <path id="Trazado_113138" data-name="Trazado 113138" d="M810.3,5628.118h17.944v35.888H810.3Z" transform="translate(-696.069 -5535.296)" fill="#2d85cc"/>
    <ellipse id="Elipse_4379" data-name="Elipse 4379" cx="11.962" cy="11.962" rx="11.962" ry="11.962" transform="translate(70.371 68.897)" fill="#ffd33a"/>
    <path id="Trazado_113139" data-name="Trazado 113139" d="M768.8,5610.6a3.98,3.98,0,0,1-1.994,3.449v.539a3.152,3.152,0,1,1-3.987-3.987h1.994a3.985,3.985,0,0,1-1.994-7.437v-.539a3.152,3.152,0,1,1,3.987,3.988H764.81A3.992,3.992,0,0,1,768.8,5610.6Z" transform="translate(-682.476 -5527.745)" fill="#ffb632"/>
    <path id="Trazado_113140" data-name="Trazado 113140" d="M770.556,5650.534a1.976,1.976,0,0,1-.484-.061l-8.588-2.146a1.994,1.994,0,0,1,.949-3.873l.017,0,8.588,2.147a1.994,1.994,0,0,1-.482,3.928Z" transform="translate(-682.241 -5539.768)" fill="#e0b999"/>
  </g>
</svg>
