<svg xmlns="http://www.w3.org/2000/svg" width="145" height="145" viewBox="0 0 145 145">
  <g id="Grupo_60533" data-name="Grupo 60533" transform="translate(0 -0.058)">
    <g id="Grupo_60531" data-name="Grupo 60531" transform="translate(0 0)">
      <rect id="Rectángulo_8773" data-name="Rectángulo 8773" width="145" height="145" transform="translate(0 0.058)" fill="#344154" opacity="0"/>
      <path id="Trazado_113141" data-name="Trazado 113141" d="M789.927,5797.727a59.759,59.759,0,1,1-59.759-59.758A59.758,59.758,0,0,1,789.927,5797.727Z" transform="translate(-657.639 -5723.958)" fill="#344154"/>
    </g>
    <path id="Trazado_113142" data-name="Trazado 113142" d="M753.5,5839.148h29.382v8.395H753.5Z" transform="translate(-680.464 -5751.753)" fill="#ffd33a"/>
    <path id="Trazado_113143" data-name="Trazado 113143" d="M759.283,5827.574h29.381v8.395H759.283Z" transform="translate(-682.054 -5748.574)" fill="#ffb632"/>
    <path id="Trazado_113144" data-name="Trazado 113144" d="M753.5,5816h29.382v8.395H753.5Z" transform="translate(-680.464 -5745.394)" fill="#ffd33a"/>
    <path id="Trazado_113145" data-name="Trazado 113145" d="M759.283,5804.426h29.381v8.4H759.283Z" transform="translate(-682.054 -5742.215)" fill="#ffb632"/>
    <path id="Trazado_113146" data-name="Trazado 113146" d="M753.5,5792.853h29.382v8.394H753.5Z" transform="translate(-680.464 -5739.036)" fill="#ffd33a"/>
    <path id="Trazado_113147" data-name="Trazado 113147" d="M759.283,5781.277h29.381v8.4H759.283Z" transform="translate(-682.054 -5735.855)" fill="#ffb632"/>
    <ellipse id="Elipse_4380" data-name="Elipse 4380" cx="12.592" cy="12.592" rx="12.592" ry="12.592" transform="translate(94.019 68.507)" fill="#ffd33a"/>
    <g id="Grupo_60532" data-name="Grupo 60532" transform="translate(43.651 64.309)">
      <path id="Trazado_113148" data-name="Trazado 113148" d="M793.434,5807.319a16.789,16.789,0,1,0,16.789,16.789A16.789,16.789,0,0,0,793.434,5807.319Zm0,29.381a12.592,12.592,0,1,1,12.592-12.592A12.592,12.592,0,0,1,793.434,5836.7Z" transform="translate(-730.474 -5807.319)" fill="#ffb632"/>
      <path id="Trazado_113149" data-name="Trazado 113149" d="M802.4,5829.386a4.192,4.192,0,0,1-2.1,3.631v.566a3.318,3.318,0,1,1-4.2-4.2h2.1a4.194,4.194,0,0,1-2.1-7.827v-.567a3.318,3.318,0,1,1,4.2,4.2h-2.1A4.2,4.2,0,0,1,802.4,5829.386Z" transform="translate(-735.244 -5810.499)" fill="#ffb632"/>
      <path id="Trazado_113150" data-name="Trazado 113150" d="M712.987,5839.148h29.381v8.395H712.987Z" transform="translate(-712.987 -5816.063)" fill="#ffb632"/>
      <path id="Trazado_113151" data-name="Trazado 113151" d="M747.709,5850.723h29.382v8.394H747.709Z" transform="translate(-722.525 -5819.243)" fill="#ffb632"/>
    </g>
    <path id="Trazado_113152" data-name="Trazado 113152" d="M707.2,5850.723h29.381v8.394H707.2Z" transform="translate(-667.746 -5754.933)" fill="#facf39"/>
    <path id="Trazado_113153" data-name="Trazado 113153" d="M718.774,5827.574h29.381v8.395H718.774Z" transform="translate(-670.925 -5748.574)" fill="#facf39"/>
    <path id="Trazado_113154" data-name="Trazado 113154" d="M712.987,5816h29.381v8.395H712.987Z" transform="translate(-669.336 -5745.394)" fill="#ffb632"/>
    <path id="Trazado_113155" data-name="Trazado 113155" d="M718.774,5804.426h29.381v8.4H718.774Z" transform="translate(-670.925 -5742.215)" fill="#facf39"/>
    <path id="Trazado_113156" data-name="Trazado 113156" d="M712.987,5792.853h29.381v8.394H712.987Z" transform="translate(-669.336 -5739.036)" fill="#ffb632"/>
    <path id="Trazado_113157" data-name="Trazado 113157" d="M768.876,5759.607l-48.925-18.817-35.677,8.395-14.691.007v27.283l10.494-.008,35.976,1.9a4.749,4.749,0,0,0,1.39-9.351h0l-11.535-2.885,16.143-6.457,43.179,11.265a5.963,5.963,0,0,0,3.721-11.306l-.074-.029Z" transform="translate(-657.412 -5724.733)" fill="#f0c6a4"/>
    <path id="Trazado_113158" data-name="Trazado 113158" d="M715.452,5776.184a2.089,2.089,0,0,1-.51-.063l-9.041-2.26a2.1,2.1,0,0,1,1.018-4.071l9.04,2.26a2.1,2.1,0,0,1-.508,4.135Z" transform="translate(-666.956 -5732.684)" fill="#e0b999"/>
    <path id="Trazado_113159" data-name="Trazado 113159" d="M699.061,5866.88l48.924,18.817,35.677-8.4,14.69-.008v-27.283l-10.493.008-35.976-1.9a4.75,4.75,0,0,0-1.39,9.352h0l11.536,2.883-16.144,6.458-43.179-11.265a5.963,5.963,0,0,0-3.72,11.307l.074.029Z" transform="translate(-664.46 -5754.215)" fill="#f0c6a4"/>
    <path id="Trazado_113160" data-name="Trazado 113160" d="M795.572,5868.552a2.139,2.139,0,0,1-.511-.063l-9.04-2.26a2.1,2.1,0,1,1,1-4.076l.018,0,9.04,2.26a2.1,2.1,0,0,1-.508,4.136Z" transform="translate(-688.959 -5758.056)" fill="#e0b999"/>
  </g>
</svg>
