<svg xmlns="http://www.w3.org/2000/svg" width="515" height="95" viewBox="0 0 515 95">
  <g id="Grupo_60537" data-name="Grupo 60537" transform="translate(-664 -1076)">
    <path id="Trazado_113199" data-name="Trazado 113199" d="M0,0H515V95H0Z" transform="translate(664 1076)" fill="#6595bf" opacity="0.25"/>
    <path id="Trazado_113200" data-name="Trazado 113200" d="M101.313,8.594a2.641,2.641,0,0,1-.449,1.516,3.057,3.057,0,0,1-1.215,1.039,3.26,3.26,0,0,1,1.41,1.117,2.811,2.811,0,0,1,.52,1.664,2.972,2.972,0,0,1-1,2.352,4.367,4.367,0,0,1-5.25,0,2.986,2.986,0,0,1-.988-2.348,2.9,2.9,0,0,1,.5-1.664,3.136,3.136,0,0,1,1.395-1.125,2.981,2.981,0,0,1-1.2-1.039,2.679,2.679,0,0,1-.437-1.508,2.94,2.94,0,0,1,.922-2.281,3.915,3.915,0,0,1,4.855,0A2.934,2.934,0,0,1,101.313,8.594Zm-1.18,5.3a2.1,2.1,0,0,0-.605-1.555,2.147,2.147,0,0,0-1.582-.6A2.034,2.034,0,0,0,95.789,13.9a2.019,2.019,0,0,0,.574,1.523,2.565,2.565,0,0,0,3.191,0A2.014,2.014,0,0,0,100.133,13.9ZM97.961,6.656a1.865,1.865,0,0,0-1.379.527,1.937,1.937,0,0,0-.527,1.434,1.928,1.928,0,0,0,.52,1.4,2.064,2.064,0,0,0,2.773,0,1.928,1.928,0,0,0,.52-1.4A1.929,1.929,0,0,0,99.328,7.2,1.839,1.839,0,0,0,97.961,6.656Zm5.617,9.586a.905.905,0,0,1,.223-.625.848.848,0,0,1,.668-.25.874.874,0,0,1,.676.25.887.887,0,0,1,.23.625.839.839,0,0,1-.23.6.89.89,0,0,1-.676.242.8.8,0,0,1-.891-.844Zm6.133-5.633H110.8a2.387,2.387,0,0,0,1.609-.539,1.8,1.8,0,0,0,.586-1.414,1.764,1.764,0,0,0-1.992-2,2.072,2.072,0,0,0-1.5.535,1.873,1.873,0,0,0-.559,1.418H107.5a2.9,2.9,0,0,1,.988-2.246A3.6,3.6,0,0,1,111,5.469a3.558,3.558,0,0,1,2.523.852,3.076,3.076,0,0,1,.914,2.367,2.5,2.5,0,0,1-.48,1.438,2.9,2.9,0,0,1-1.309,1.039,2.8,2.8,0,0,1,1.449.984,2.734,2.734,0,0,1,.512,1.68,3.1,3.1,0,0,1-1,2.43,3.745,3.745,0,0,1-2.6.9,3.844,3.844,0,0,1-2.605-.867,2.877,2.877,0,0,1-1-2.289h1.453a1.859,1.859,0,0,0,.586,1.438,2.229,2.229,0,0,0,1.57.539,2.187,2.187,0,0,0,1.6-.547,2.108,2.108,0,0,0,.555-1.57,1.912,1.912,0,0,0-.609-1.523,2.655,2.655,0,0,0-1.758-.547h-1.086Zm14.227-4.172L119.227,17h-1.516l4.7-10.187H116.25V5.625h7.688Zm8.984,0L128.211,17H126.7l4.7-10.187h-6.156V5.625h7.688Zm1.82,9.8a.905.905,0,0,1,.223-.625.848.848,0,0,1,.668-.25.874.874,0,0,1,.676.25.887.887,0,0,1,.23.625.839.839,0,0,1-.23.6.89.89,0,0,1-.676.242.8.8,0,0,1-.891-.844Zm4.7-4.945.578-5.672h5.828V6.961h-4.6l-.344,3.1a3.671,3.671,0,0,1,1.9-.492,3.138,3.138,0,0,1,2.469,1.027,4.026,4.026,0,0,1,.914,2.777,3.886,3.886,0,0,1-.949,2.77,3.46,3.46,0,0,1-2.652,1.012,3.6,3.6,0,0,1-2.461-.836,3.337,3.337,0,0,1-1.086-2.312H140.4a2.3,2.3,0,0,0,.7,1.473,2.162,2.162,0,0,0,1.484.5,1.95,1.95,0,0,0,1.582-.687,2.874,2.874,0,0,0,.574-1.9,2.638,2.638,0,0,0-.621-1.832,2.113,2.113,0,0,0-1.652-.691,2.383,2.383,0,0,0-1.484.414l-.383.313Zm15.453.852a6.61,6.61,0,0,1-.867,3.773,3.6,3.6,0,0,1-5.406.027,6.274,6.274,0,0,1-.906-3.605v-1.93a6.463,6.463,0,0,1,.867-3.727A3.668,3.668,0,0,1,154,6.645a6.237,6.237,0,0,1,.891,3.629Zm-1.445-1.977A5.3,5.3,0,0,0,152.93,7.5a1.775,1.775,0,0,0-1.633-.84,1.751,1.751,0,0,0-1.617.836,5.171,5.171,0,0,0-.523,2.57v2.313a5.381,5.381,0,0,0,.535,2.723,1.771,1.771,0,0,0,1.621.879,1.747,1.747,0,0,0,1.59-.828,5.186,5.186,0,0,0,.543-2.609Zm10.43,1.977a6.61,6.61,0,0,1-.867,3.773,3.6,3.6,0,0,1-5.406.027,6.274,6.274,0,0,1-.906-3.605v-1.93a6.463,6.463,0,0,1,.867-3.727,3.668,3.668,0,0,1,5.422-.043,6.237,6.237,0,0,1,.891,3.629Zm-1.445-1.977a5.3,5.3,0,0,0-.516-2.676,1.775,1.775,0,0,0-1.633-.84,1.751,1.751,0,0,0-1.617.836,5.171,5.171,0,0,0-.523,2.57v2.313a5.381,5.381,0,0,0,.535,2.723,1.771,1.771,0,0,0,1.621.879,1.747,1.747,0,0,0,1.59-.828,5.186,5.186,0,0,0,.543-2.609Zm10.242,1.461,1.875-3.086h1.688l-2.766,4.18L176.32,17h-1.672L172.7,13.836,170.742,17h-1.68l2.852-4.273-2.766-4.18h1.672Zm9,.75a12.079,12.079,0,0,1,.473-3.391,9.85,9.85,0,0,1,1.41-2.953A6,6,0,0,1,185.5,4.164l.3.953a6.222,6.222,0,0,0-1.871,2.672,11.583,11.583,0,0,0-.8,4.023l-.008.664a11.643,11.643,0,0,0,1.1,5.234,6.252,6.252,0,0,0,1.578,2.078l-.3.883a6.192,6.192,0,0,1-1.984-1.937A10.859,10.859,0,0,1,181.672,12.383ZM191.8,17h-1.453V7.367l-2.914,1.07V7.125L191.57,5.57h.227Zm8.523-6.1h3.172v1.367H200.32v3.594h-1.453V12.266H195.7V10.9h3.172V7.578h1.453Zm9.531,6.1H208.4V7.367l-2.914,1.07V7.125l4.141-1.555h.227Zm8.984,0h-1.453V7.367l-2.914,1.07V7.125l4.141-1.555h.227Zm4.336,2.266-.82-.562a3.77,3.77,0,0,0,.766-2.109v-1.3h1.414v1.133A3.559,3.559,0,0,1,224.145,18,3.7,3.7,0,0,1,223.172,19.266Zm5.141-8.656H229.4a2.387,2.387,0,0,0,1.609-.539,1.8,1.8,0,0,0,.586-1.414,1.764,1.764,0,0,0-1.992-2,2.072,2.072,0,0,0-1.5.535,1.873,1.873,0,0,0-.559,1.418H226.1a2.9,2.9,0,0,1,.988-2.246,3.6,3.6,0,0,1,2.512-.895,3.558,3.558,0,0,1,2.523.852,3.076,3.076,0,0,1,.914,2.367,2.5,2.5,0,0,1-.48,1.438,2.9,2.9,0,0,1-1.309,1.039,2.8,2.8,0,0,1,1.449.984,2.734,2.734,0,0,1,.512,1.68,3.1,3.1,0,0,1-1,2.43,3.745,3.745,0,0,1-2.6.9A3.844,3.844,0,0,1,227,16.289,2.877,2.877,0,0,1,226,14h1.453a1.859,1.859,0,0,0,.586,1.438,2.229,2.229,0,0,0,1.57.539,2.187,2.187,0,0,0,1.6-.547,2.108,2.108,0,0,0,.555-1.57,1.912,1.912,0,0,0-.609-1.523,2.655,2.655,0,0,0-1.758-.547h-1.086ZM241.3,13.18h1.578v1.18H241.3V17h-1.453V14.359h-5.18v-.852l5.094-7.883H241.3Zm-4.992,0h3.539V7.6l-.172.313Zm7.75-5.367a2.308,2.308,0,0,1,.652-1.687,2.451,2.451,0,0,1,3.359,0,2.388,2.388,0,0,1,.645,1.73v.555a2.278,2.278,0,0,1-.652,1.684,2.249,2.249,0,0,1-1.66.652,2.3,2.3,0,0,1-1.68-.652,2.326,2.326,0,0,1-.664-1.738Zm1.078.6a1.478,1.478,0,0,0,.344,1.006,1.16,1.16,0,0,0,.922.4,1.137,1.137,0,0,0,.895-.384,1.527,1.527,0,0,0,.34-1.049V7.808A1.515,1.515,0,0,0,247.3,6.8a1.246,1.246,0,0,0-1.828,0,1.563,1.563,0,0,0-.336,1.041Zm4.461,5.8a2.3,2.3,0,0,1,.652-1.684,2.467,2.467,0,0,1,3.355,0,2.355,2.355,0,0,1,.656,1.742v.555a2.3,2.3,0,0,1-.652,1.684,2.244,2.244,0,0,1-1.668.66,2.3,2.3,0,0,1-1.68-.652,2.326,2.326,0,0,1-.664-1.738Zm1.078.606a1.49,1.49,0,0,0,.344,1.014,1.16,1.16,0,0,0,.922.4,1.129,1.129,0,0,0,.9-.388,1.553,1.553,0,0,0,.336-1.053v-.579a1.485,1.485,0,0,0-.34-1.01,1.249,1.249,0,0,0-1.812,0,1.508,1.508,0,0,0-.348,1.045Zm-3.945,1.323-.82-.516,5.555-8.891.82.516Zm12.656-3.68a12.084,12.084,0,0,1-.457,3.34,9.876,9.876,0,0,1-1.4,2.949,6.127,6.127,0,0,1-1.973,1.922l-.3-.883a6.281,6.281,0,0,0,1.934-2.863,12.387,12.387,0,0,0,.746-4.309v-.25a12.862,12.862,0,0,0-.344-3.051,10.3,10.3,0,0,0-.957-2.527,5.837,5.837,0,0,0-1.379-1.742l.3-.883A6.1,6.1,0,0,1,257.52,6.07a9.9,9.9,0,0,1,1.4,2.945A12.363,12.363,0,0,1,259.383,12.461Zm12.8-1.82h-6.516V9.383h6.516Zm0,3.242h-6.516v-1.25h6.516ZM283.7,12a3.536,3.536,0,0,1-1.082.867,2.936,2.936,0,0,1-1.379.328,3.031,3.031,0,0,1-1.715-.484,3.149,3.149,0,0,1-1.129-1.363,4.648,4.648,0,0,1-.4-1.941,4.735,4.735,0,0,1,.434-2.055,3.185,3.185,0,0,1,1.23-1.4,3.509,3.509,0,0,1,1.859-.484,3.177,3.177,0,0,1,2.66,1.262,5.5,5.5,0,0,1,.973,3.441v.422q0,3.32-1.312,4.848a5.043,5.043,0,0,1-3.961,1.566H279.6V15.781h.3a3.979,3.979,0,0,0,2.75-.932A4,4,0,0,0,283.7,12Zm-2.227,0a2.232,2.232,0,0,0,1.34-.445,2.625,2.625,0,0,0,.895-1.1V9.875a3.977,3.977,0,0,0-.617-2.312A1.887,1.887,0,0,0,280,7.4a3.013,3.013,0,0,0-.578,1.926,3.136,3.136,0,0,0,.559,1.918A1.769,1.769,0,0,0,281.477,12Zm5.852,4.242a.905.905,0,0,1,.223-.625.848.848,0,0,1,.668-.25.874.874,0,0,1,.676.25.887.887,0,0,1,.23.625.839.839,0,0,1-.23.6.89.89,0,0,1-.676.242.8.8,0,0,1-.891-.844Zm6.133-5.633h1.086a2.387,2.387,0,0,0,1.609-.539,1.8,1.8,0,0,0,.586-1.414,1.764,1.764,0,0,0-1.992-2,2.072,2.072,0,0,0-1.5.535,1.873,1.873,0,0,0-.559,1.418H291.25a2.9,2.9,0,0,1,.988-2.246,3.6,3.6,0,0,1,2.512-.895,3.558,3.558,0,0,1,2.523.852,3.076,3.076,0,0,1,.914,2.367,2.5,2.5,0,0,1-.48,1.438,2.9,2.9,0,0,1-1.309,1.039,2.8,2.8,0,0,1,1.449.984,2.734,2.734,0,0,1,.512,1.68,3.1,3.1,0,0,1-1,2.43,3.745,3.745,0,0,1-2.6.9,3.844,3.844,0,0,1-2.605-.867,2.877,2.877,0,0,1-1-2.289H292.6a1.859,1.859,0,0,0,.586,1.438,2.229,2.229,0,0,0,1.57.539,2.187,2.187,0,0,0,1.6-.547,2.108,2.108,0,0,0,.555-1.57,1.912,1.912,0,0,0-.609-1.523,2.655,2.655,0,0,0-1.758-.547h-1.086ZM307.8,17h-7.453V15.961l3.938-4.375a9.353,9.353,0,0,0,1.207-1.613,2.693,2.693,0,0,0,.332-1.285,2.041,2.041,0,0,0-.539-1.461,1.885,1.885,0,0,0-1.437-.57,2.232,2.232,0,0,0-1.676.613,2.343,2.343,0,0,0-.6,1.707h-1.445a3.355,3.355,0,0,1,1.012-2.539,3.751,3.751,0,0,1,2.707-.969,3.6,3.6,0,0,1,2.508.832,2.838,2.838,0,0,1,.922,2.215q0,1.68-2.141,4l-3.047,3.3H307.8Zm8.875-10.562L311.961,17h-1.516l4.7-10.187h-6.156V5.625h7.688Zm1.82,9.8a.905.905,0,0,1,.223-.625.848.848,0,0,1,.668-.25.874.874,0,0,1,.676.25.887.887,0,0,1,.23.625.839.839,0,0,1-.23.6.89.89,0,0,1-.676.242.8.8,0,0,1-.891-.844Zm10.133-3.062H330.2v1.18h-1.578V17h-1.453V14.359h-5.18v-.852l5.094-7.883h1.539Zm-4.992,0h3.539V7.6L327,7.914ZM337.18,5.617V6.844h-.266a3.805,3.805,0,0,0-2.687,1,4.161,4.161,0,0,0-1.156,2.727,3.085,3.085,0,0,1,2.453-1.031,2.95,2.95,0,0,1,2.371,1.047,4.038,4.038,0,0,1,.887,2.7,4.025,4.025,0,0,1-.957,2.813,3.3,3.3,0,0,1-2.566,1.055,3.247,3.247,0,0,1-2.648-1.254,4.97,4.97,0,0,1-1.016-3.23v-.555a7.488,7.488,0,0,1,1.34-4.8,4.921,4.921,0,0,1,3.988-1.7Zm-1.9,5.125a2.429,2.429,0,0,0-2.234,1.563v.531a3.731,3.731,0,0,0,.633,2.266,1.9,1.9,0,0,0,1.578.859,1.838,1.838,0,0,0,1.535-.719,2.982,2.982,0,0,0,.559-1.883,2.983,2.983,0,0,0-.566-1.895A1.816,1.816,0,0,0,335.281,10.742Zm7.313-.133h1.086a2.387,2.387,0,0,0,1.609-.539,1.8,1.8,0,0,0,.586-1.414,1.764,1.764,0,0,0-1.992-2,2.072,2.072,0,0,0-1.5.535,1.873,1.873,0,0,0-.559,1.418h-1.445a2.9,2.9,0,0,1,.988-2.246,3.6,3.6,0,0,1,2.512-.895,3.558,3.558,0,0,1,2.523.852,3.076,3.076,0,0,1,.914,2.367,2.5,2.5,0,0,1-.48,1.438,2.9,2.9,0,0,1-1.309,1.039,2.8,2.8,0,0,1,1.449.984,2.734,2.734,0,0,1,.512,1.68,3.1,3.1,0,0,1-1,2.43,3.745,3.745,0,0,1-2.6.9,3.844,3.844,0,0,1-2.605-.867,2.877,2.877,0,0,1-1-2.289h1.453a1.859,1.859,0,0,0,.586,1.438,2.229,2.229,0,0,0,1.57.539,2.187,2.187,0,0,0,1.6-.547,2.108,2.108,0,0,0,.555-1.57,1.912,1.912,0,0,0-.609-1.523,2.655,2.655,0,0,0-1.758-.547h-1.086Z" transform="translate(701 1113)" fill="#12263f"/>
  </g>
</svg>
