<svg xmlns="http://www.w3.org/2000/svg" width="451.029" height="440.98" viewBox="0 0 451.029 440.98">
  <g id="Capa_2" data-name="Capa 2" transform="translate(-40.141 -22.11)">
    <circle id="Elipse_4336" data-name="Elipse 4336" cx="216.11" cy="216.11" r="216.11" transform="translate(58.95 22.11)" fill="#f2e9e4"/>
    <g id="Grupo_60370" data-name="Grupo 60370">
      <rect id="Rectángulo_8547" data-name="Rectángulo 8547" width="3.12" height="161.74" transform="translate(56.06 294.87)" fill="#f7c785"/>
      <rect id="Rectángulo_8548" data-name="Rectángulo 8548" width="3.12" height="161.74" transform="translate(107.24 296.52)" fill="#f7c785"/>
      <rect id="Rectángulo_8549" data-name="Rectángulo 8549" width="3.12" height="161.74" transform="translate(155.31 298.78)" fill="#f7c785"/>
      <rect id="Rectángulo_8550" data-name="Rectángulo 8550" width="3.12" height="161.74" transform="translate(209 301.35)" fill="#f7c785"/>
      <rect id="Rectángulo_8551" data-name="Rectángulo 8551" width="3.12" height="161.74" transform="translate(267.67 298.78)" fill="#f7c785"/>
      <rect id="Rectángulo_8552" data-name="Rectángulo 8552" width="3.12" height="161.74" transform="translate(317.61 301.35)" fill="#f7c785"/>
      <rect id="Rectángulo_8553" data-name="Rectángulo 8553" width="3.12" height="161.74" transform="translate(375.05 300.66)" fill="#f7c785"/>
      <rect id="Rectángulo_8554" data-name="Rectángulo 8554" width="3.12" height="161.74" transform="translate(425.61 298.34)" fill="#f7c785"/>
      <path id="Trazado_111675" data-name="Trazado 111675" d="M63.44,338.22l4-3.17c1.35-1.08,2.67-2.27,4.09-3.24.81-.56,1.38-.17,2.13.27l2.21,1.29L80.39,336a.66.66,0,0,0,.89-.23l5.44-7.13-1,.13c1.44,1.72,3,3.39,4.53,5,.79.8,1.6,1.58,2.42,2.35l1.24,1.14.54.48.37.31c.14.22.21.22.2,0l.3-.39h.6l.18.53-.8.45h.06c.82.16,1.17-1.1.35-1.26h-.06a.69.69,0,0,0-.81.46c-.37,1.18,1.73,1.4,1.48.05-.11-.63-.86-1.06-1.3-1.46-.6-.53-1.19-1.07-1.78-1.62a84,84,0,0,1-6.6-7,.67.67,0,0,0-1,.13l-5.43,7.13.89-.23-5.08-3c-1.3-.76-3-2.24-4.57-1.54a9.662,9.662,0,0,0-2,1.44l-2.29,1.82-4.59,3.66c-.66.52.27,1.44.92.92Z" fill="#f7c785"/>
      <path id="Trazado_111676" data-name="Trazado 111676" d="M96.59,339a28.761,28.761,0,0,1,5-5.72h-.92a12.289,12.289,0,0,1,2.67,3.49l.74-1-.86-.36a.65.65,0,0,0-.8.46.67.67,0,0,0,.46.8l.86.36c.56.23,1-.51.73-1a13.32,13.32,0,0,0-2.88-3.75.66.66,0,0,0-.92,0,29.761,29.761,0,0,0-5.16,6c-.46.7.67,1.36,1.13.66Z" fill="#f7c785"/>
      <path id="Trazado_111677" data-name="Trazado 111677" d="M64.51,358.17c5.84,1.56,10.76-2.64,15.4-5.48a22.89,22.89,0,0,1,14.94-3.21,22.27,22.27,0,0,1,8.36,2.85l.15-1.2a5,5,0,0,0-2.75,2.31,38.5,38.5,0,0,1-2.19,3.3,18.9,18.9,0,0,1-6,4.92,15.15,15.15,0,0,1-7.54,1.79c-3-.11-5.73-1.48-8.49-2.63a27.091,27.091,0,0,0-10.81-2.11.66.66,0,0,0,0,1.31,25.68,25.68,0,0,1,9.8,1.79c2.88,1.14,5.6,2.61,8.74,2.9,5.25.48,10.46-2,14.06-5.73a20,20,0,0,0,2.72-3.5c.71-1.16,1.39-2.69,2.81-3.09a.66.66,0,0,0,.16-1.19,24,24,0,0,0-22.44-.85c-2.57,1.26-4.84,3-7.3,4.51-2.77,1.64-6,2.92-9.28,2.05a.653.653,0,1,0-.34,1.26Z" fill="#f7c785"/>
      <path id="Trazado_111678" data-name="Trazado 111678" d="M67.68,383.18c2.11-2.26,5.57-5.09,8.82-3.21a9.44,9.44,0,0,1,2.86,3.4A11.43,11.43,0,0,0,82,386.42a10,10,0,0,0,7.34,2.05c2.92-.4,4.85-2.31,6.28-4.78a17.691,17.691,0,0,1,2.86-4.28c1.15-1.07,2.89-2,4.44-1.18.75.38,1.41-.75.66-1.13-2.92-1.47-5.93.79-7.49,3.18s-2.68,5.68-5.8,6.65a8.47,8.47,0,0,1-7.7-1.7c-2.27-1.89-3-5.27-5.79-6.59-3.79-1.78-7.53.95-10,3.62-.57.61.35,1.54.92.92Z" fill="#f7c785"/>
      <path id="Trazado_111679" data-name="Trazado 111679" d="M85.92,396.6a7.63,7.63,0,0,0-9.74,1.2,7.71,7.71,0,0,0-2,4.68,9.39,9.39,0,0,1-.28,2.94,4.19,4.19,0,0,1-1.08,1.52c-2.06,2-5,2.75-6.77,5.12a9.31,9.31,0,0,0-1.43,5.38,14.39,14.39,0,0,0,.53,5.35c1.48,3.92,5.87,3.33,9.21,2.82a124.988,124.988,0,0,0,13.31-2.56,8.1,8.1,0,0,0,2.9-1,2.57,2.57,0,0,0,.82-2.27,14.34,14.34,0,0,0-.78-4.78,5.27,5.27,0,0,0-2.91-3.17c-1.36-.53-3.73-.43-3.46-2.51.24-1.78,1.81-2.66,3.41-3a29.776,29.776,0,0,1,3.06-.36,4.22,4.22,0,0,0,2.58-.86c1.06-1,.78-2.81,0-3.94a6.88,6.88,0,0,0-4.45-2.48c-.9-.17-1.81-.27-2.71-.36s-.83,1.23,0,1.31a11.51,11.51,0,0,1,4.93,1.23c.9.54,2.38,2.26,1.3,3.31-.58.56-1.81.5-2.56.57a20.935,20.935,0,0,0-2.83.39,5.21,5.21,0,0,0-3.48,2.42,3.59,3.59,0,0,0-.12,3.7c1,1.47,2.73,1.21,4.13,1.91a4.56,4.56,0,0,1,2.15,3.17,13.591,13.591,0,0,1,.35,2.12c0,.64.31,1.8-.06,2.38-.24.37-.78.45-1.17.57l-1.45.4c-1,.28-2.11.53-3.18.77-2,.44-4.1.82-6.17,1.16-1.91.32-3.83.66-5.75.89-1.53.18-3.35.3-4.66-.64s-1.58-2.86-1.63-4.44a16.05,16.05,0,0,1,.38-5.08c.86-2.84,3.74-3.92,6-5.45a7.26,7.26,0,0,0,2.7-2.88c.79-1.75.19-3.72.91-5.51a6.33,6.33,0,0,1,9.34-2.88c.7.46,1.36-.67.66-1.13Z" fill="#f7c785"/>
      <path id="Trazado_111680" data-name="Trazado 111680" d="M64.1,441.83a15.13,15.13,0,0,1,12.82-4.4c2.64.38,5.11,1.52,7.76,1.87a14.611,14.611,0,0,0,7-.79,14.77,14.77,0,0,0,3.47-1.83c1-.73,2.18-1.58,2.26-2.93a.66.66,0,0,0-.66-.65h-1a.65.65,0,0,0,0,1.3h1l-.65-.66c0,.55-.53.94-.92,1.26a11.387,11.387,0,0,1-1.56,1.12,13.351,13.351,0,0,1-3.08,1.39,13.53,13.53,0,0,1-7,.24c-2.51-.57-4.9-1.55-7.48-1.74a16.17,16.17,0,0,0-6.54.9,16.4,16.4,0,0,0-6.27,4c-.59.6.33,1.53.92.92Z" fill="#f7c785"/>
      <path id="Trazado_111681" data-name="Trazado 111681" d="M66.4,447.59a17.54,17.54,0,0,1,12.35-1.49c2.08.53,4.08,1.53,6.27,1.46a16.51,16.51,0,0,0,6.25-1.94,12.73,12.73,0,0,0,3.09-1.7c.63-.57,1-1.58.09-2.1a.652.652,0,1,0-.66,1.12c-.17-.1,0-.22-.15-.17,0,0-.12.15-.15.18a2.619,2.619,0,0,1-.53.33l-1.37.74a29.268,29.268,0,0,1-2.92,1.31,9.22,9.22,0,0,1-5.78.66,57.316,57.316,0,0,0-5.65-1.51,18.79,18.79,0,0,0-11.5,2c-.74.39-.08,1.52.66,1.13Z" fill="#f7c785"/>
      <path id="Trazado_111682" data-name="Trazado 111682" d="M118.61,326.21c1.85-3.36,6.11-4.46,9.57-5.28a27.9,27.9,0,0,1,12.91-.37,18.689,18.689,0,0,1,5.43,2.23,15.271,15.271,0,0,1,2.32,1.74c.25.24.69.58.54,1s-.63.49-.92.59a13.07,13.07,0,0,1-2.93.38c-1.16.1-2.32.17-3.48.22-2.24.08-4.49.07-6.73,0a76.089,76.089,0,0,1-15.3-2.34.654.654,0,1,0-.35,1.26,78,78,0,0,0,15,2.35,73.931,73.931,0,0,0,7.59.06c1.29-.05,2.57-.14,3.86-.26a10.171,10.171,0,0,0,3-.52,2.27,2.27,0,0,0,1.5-1.58c.18-1.06-.69-1.82-1.42-2.43a18.47,18.47,0,0,0-5.6-3.21,26.32,26.32,0,0,0-13.92-.72,33.8,33.8,0,0,0-7.25,2.09,10.12,10.12,0,0,0-5,4.2c-.4.73.72,1.39,1.13.66Z" fill="#f7c785"/>
      <path id="Trazado_111683" data-name="Trazado 111683" d="M136,321.56c-.94-1.1-2.67-.31-3.12.85-.58,1.51.88,2.89,2.18,3.32a5,5,0,0,0,4.29-.64,2.74,2.74,0,0,0,1.42-2,2,2,0,0,0-1.24-1.77,5.93,5.93,0,0,0-5.42.26.654.654,0,0,0,.66,1.13,4.64,4.64,0,0,1,3.24-.53,2.3,2.3,0,0,1,1.35.63c.26.33-.13.66-.37.88a3.76,3.76,0,0,1-2.69.91,2.33,2.33,0,0,1-2.19-1.34.88.88,0,0,1,0-.32s0-.15,0-.13a.74.74,0,0,1,.31-.36s.21-.11.17-.1l.2-.05a.22.22,0,0,1,.19,0h0l.07.09a.651.651,0,1,0,.92-.92Z" fill="#f7c785"/>
      <path id="Trazado_111684" data-name="Trazado 111684" d="M116.08,349.13l3.39-3.38c1.12-1.11,2.21-2.32,3.39-3.37.31-.27.47-.26.8,0s.5.44.76.65c.52.44,1.07.86,1.62,1.26a25.658,25.658,0,0,0,3.53,2.1,25.993,25.993,0,0,0,3.77,1.5c1.14.35,2.35.72,3.14-.43s1.45-2.55,2.15-3.81a6,6,0,0,1,1-1.6c.51-.44,1.24.3,1.68.59l9,5.82c.7.46,1.36-.67.66-1.13l-8.42-5.47c-1-.63-2.19-1.78-3.41-1a3.35,3.35,0,0,0-1,1.15c-.41.69-.79,1.41-1.18,2.11s-.77,1.38-1.16,2.07c-.13.24-.28.7-.56.81s-.89-.15-1.16-.23a24.238,24.238,0,0,1-4.08-1.62,24.547,24.547,0,0,1-3.59-2.21c-.55-.41-1.07-.86-1.59-1.3a2.29,2.29,0,0,0-1.73-.76c-.77.1-1.3.83-1.82,1.35l-2,2-4,4c-.6.59.32,1.51.92.92Z" fill="#f7c785"/>
      <path id="Trazado_111685" data-name="Trazado 111685" d="M116.59,359.91q8.07-.07,16.15,0,4,.06,8.08.18l3.9.12,2.08.08h1c.18,0,.66-.07.82.05l-.3-.39v.08l.07-.5.18-.18.5.07h0l.3.74v-.07c.25-.8-1-1.14-1.26-.34v.06a.66.66,0,0,0,.3.74.82.82,0,0,0,1.2-.92c-.29-.89-1.86-.62-2.57-.65q-3.7-.14-7.42-.24-7.35-.19-14.71-.22h-8.34a.66.66,0,0,0,0,1.31Z" fill="#f7c785"/>
      <path id="Trazado_111686" data-name="Trazado 111686" d="M120.56,368q14,.07,28.05.59l-.18-1.28-.89.27c-.8.24-.46,1.5.34,1.26l.9-.27a.66.66,0,0,0-.17-1.29q-14-.51-28.05-.59a.66.66,0,0,0,0,1.31Z" fill="#f7c785"/>
      <path id="Trazado_111687" data-name="Trazado 111687" d="M117.45,383.62a3.33,3.33,0,0,1,3.58.26c1.46,1.07,1.28,2.91,1.16,4.52a9.83,9.83,0,0,0,.63,4.62,8.87,8.87,0,0,0,2.8,3.64c2.77,2.12,6.42,2.14,9.74,1.88s6.86-.58,9.84-2.23a8.83,8.83,0,0,0,4.61-6.69c.29-2.59-1.13-5.79-4-6.06a2.78,2.78,0,0,0-1.86.48A16.583,16.583,0,0,0,142.2,386a3.8,3.8,0,0,1-4.27.92c-1.62-.81-1.58-2.67-2.17-4.16a11.23,11.23,0,0,0-2.41-3.68,10.74,10.74,0,0,0-9-3.18,11.15,11.15,0,0,0-8.07,5.21.65.65,0,1,0,1.12.66,9.91,9.91,0,0,1,6.94-4.56,9.4,9.4,0,0,1,7.71,2.47,9.8,9.8,0,0,1,2.41,3.43c.55,1.36.59,2.92,1.62,4.06,2.14,2.37,5.76,1.4,7.54-.86.4-.51.77-1.16,1.42-1.36a2.39,2.39,0,0,1,2.06.61,4.33,4.33,0,0,1,1.41,3.26,7.43,7.43,0,0,1-4.19,6.5c-2.8,1.48-6.12,1.74-9.22,2s-6.84.24-9.32-2.13a7.69,7.69,0,0,1-2.29-4.3c-.31-1.87.36-3.77-.13-5.63a4.59,4.59,0,0,0-6.61-2.7.654.654,0,0,0,.66,1.13Z" fill="#f7c785"/>
      <path id="Trazado_111688" data-name="Trazado 111688" d="M129.54,398.65a59.289,59.289,0,0,0,.32,9.88.67.67,0,0,0,.82.63,1.8,1.8,0,0,0,1.39-1.4c.15-.82-1.1-1.17-1.26-.35a.54.54,0,0,1-.47.49l.82.63a60.381,60.381,0,0,1-.31-9.88.655.655,0,0,0-1.31,0Z" fill="#f7c785"/>
      <path id="Trazado_111689" data-name="Trazado 111689" d="M140.07,397.32q.19,6-.09,11.93a.65.65,0,0,0,1.3,0q.28-6,.1-11.93a.66.66,0,0,0-1.31,0Z" fill="#f7c785"/>
      <path id="Trazado_111690" data-name="Trazado 111690" d="M117.58,418.09q13-.46,26.12.19c2.46.12,4.93.28,7.39.46v-1.3l-.73.09c-.82.1-.83,1.41,0,1.3l.73-.09a.65.65,0,0,0,0-1.3q-13-1-26.11-.83-3.69,0-7.4.17c-.84,0-.84,1.34,0,1.31Z" fill="#f7c785"/>
      <path id="Trazado_111691" data-name="Trazado 111691" d="M120.05,440.19q6.42-5.78,13.31-11c1.11-.84,2.23-1.67,3.36-2.48a6.139,6.139,0,0,1,1.61-1.08c.6-.16,1.42.58,1.89.89a44.15,44.15,0,0,1,11.72,11.33l.57-1a194.133,194.133,0,0,1-28.31,1.48.65.65,0,1,0,0,1.3,194.121,194.121,0,0,0,28.31-1.47c.43-.06.88-.53.56-1a45.82,45.82,0,0,0-11.64-11.43c-1-.68-2.24-1.8-3.53-1.37a6.449,6.449,0,0,0-1.64,1.05l-2,1.44q-3.66,2.72-7.21,5.6-4.07,3.28-7.94,6.78c-.62.56.3,1.48.93.92Z" fill="#f7c785"/>
      <path id="Trazado_111692" data-name="Trazado 111692" d="M40.59,326.47a9.219,9.219,0,0,0,5-.09.67.67,0,0,0,.46-.8.66.66,0,0,0-.8-.46,7.88,7.88,0,0,1-4.28.09.654.654,0,1,0-.35,1.26Z" fill="#f7c785"/>
      <path id="Trazado_111693" data-name="Trazado 111693" d="M41.77,348h2.65a.66.66,0,0,0,.65-.65.67.67,0,0,0-.65-.65H41.77a.67.67,0,0,0-.66.65.66.66,0,0,0,.66.65Z" fill="#f7c785"/>
      <path id="Trazado_111694" data-name="Trazado 111694" d="M43.24,354.27l1.32.36a.68.68,0,0,0,.81-.46.72.72,0,0,0-.07-.5.62.62,0,0,0-.39-.3L43.59,353a.67.67,0,0,0-.5.07.62.62,0,0,0-.3.39.66.66,0,0,0,.06.5.65.65,0,0,0,.39.3Z" fill="#f7c785"/>
      <path id="Trazado_111695" data-name="Trazado 111695" d="M163.36,327.52l5.94-3.78,3-1.89a10.468,10.468,0,0,1,1.35-.84c.55-.23,1.12.45,1.51.77l5.32,4.36c.69.56,1.47,1.36,2.39.78a7,7,0,0,0,1.1-1l1.29-1.25,5.69-5.54H190a52,52,0,0,0,10.5,7.32c.74.39,1.4-.74.66-1.13a50.26,50.26,0,0,1-10.24-7.11.66.66,0,0,0-.92,0l-4.87,4.73-2.48,2.41c-.19.19-.37.47-.69.36s-.5-.41-.69-.56L179.9,324l-2.56-2.1a18.682,18.682,0,0,0-2.53-2c-.94-.52-1.73-.1-2.54.42l-2.86,1.81-6.71,4.27c-.7.45,0,1.58.66,1.13Z" fill="#f7c785"/>
      <path id="Trazado_111696" data-name="Trazado 111696" d="M167.57,336.33l30.79.46a.65.65,0,0,0,0-1.3L167.57,335a.65.65,0,0,0,0,1.3Z" fill="#f7c785"/>
      <path id="Trazado_111697" data-name="Trazado 111697" d="M169.92,342.45a197.419,197.419,0,0,0,23.81,1.5.65.65,0,0,0,0-1.3,197.418,197.418,0,0,1-23.81-1.5C169.09,341.04,169.09,342.35,169.92,342.45Z" fill="#f7c785"/>
      <path id="Trazado_111698" data-name="Trazado 111698" d="M167.35,360.91a84.394,84.394,0,0,1,11.49-7.29c.9-.47,2.13-1.4,3.19-1.08a25.486,25.486,0,0,1,3.4,1.57l6.73,3.16,3.78,1.78,1.89.89a5.79,5.79,0,0,1,.75.37c.11.07.35.29.31.3-.83.17-.48,1.43.34,1.26a1.34,1.34,0,0,0,.71-2.07,2.75,2.75,0,0,0-1.1-.83c-.71-.34-1.42-.66-2.13-1l-7.9-3.72-3.9-1.84c-1.11-.52-2.4-1.41-3.68-1.24a10.939,10.939,0,0,0-3.48,1.54c-1.19.63-2.37,1.3-3.53,2a84.717,84.717,0,0,0-7.53,5.07c-.66.5,0,1.63.66,1.13Z" fill="#f7c785"/>
      <path id="Trazado_111699" data-name="Trazado 111699" d="M168.59,374.53a19.27,19.27,0,0,1,8.19-4.85,12.1,12.1,0,0,1,4.58-.66,2.16,2.16,0,0,1,1.72.94c.24.45.35,1.16-.12,1.5a.65.65,0,0,0,.5,1.19,38.891,38.891,0,0,1,11.6-.23c.95.12,1.9.29,2.85.48.61.13,1.65.13,1.93.8.63,1.55-1.41,2.38-2.5,2.79-.77.3-.48,1.49.35,1.26,1-.28,2.82-.71,3.63.23a1.47,1.47,0,0,1-.23,1.9,5.32,5.32,0,0,1-2.48,1.25c-.67.2-.59,1.37.17,1.28s2.55-.1,1.72,1.12c-.65,1-2.51.77-3.51.79a71.916,71.916,0,0,1-8.43-.33c-5.62-.49-11.23-1.32-16.88-1.2-1.35,0-3.18.43-4.39-.34a1.54,1.54,0,0,1-.79-1.44,1.08,1.08,0,0,0,0-.79c-.06-.11-.54-.52-.39-.27a6.821,6.821,0,0,1-.1.79l-.33.15c.82-.08.85-1.35,0-1.31h-.05c-.84,0-.84,1.35,0,1.31h.05v-1.31a1,1,0,0,0-.59.24.65.65,0,0,0-.11.79c.14.24.31.26.5.41-.07-.16-.13-.31-.19-.47a7.35,7.35,0,0,0-.07.82,2.29,2.29,0,0,0,.23.85,3.13,3.13,0,0,0,1.21,1.36c1.2.75,2.7.6,4,.55a73.6,73.6,0,0,1,10,.38c3.27.31,6.54.7,9.82.94,1.63.12,3.27.19,4.91.2a16.38,16.38,0,0,0,4.64-.31,2.48,2.48,0,0,0,1.92-2.89c-.41-1.36-2-1.48-3.14-1.35.06.43.12.86.17,1.29a6.26,6.26,0,0,0,3.24-1.8,2.8,2.8,0,0,0,.4-3.06c-1-1.81-3.59-1.5-5.25-1,.12.42.23.84.35,1.26,1.58-.6,3.46-1.47,3.55-3.41a2.45,2.45,0,0,0-.87-2,7.36,7.36,0,0,0-3-.83,40.59,40.59,0,0,0-14.29-.08c.17.4.34.8.5,1.2a2.58,2.58,0,0,0,.06-4c-1.42-1.3-3.65-1-5.37-.65a20.58,20.58,0,0,0-10.63,5.64c-.6.59.33,1.51.92.92Z" fill="#f7c785"/>
      <path id="Trazado_111700" data-name="Trazado 111700" d="M169.66,407.71a16.35,16.35,0,0,1,5.53-1.1.65.65,0,0,0,0-1.3,17.06,17.06,0,0,0-5.87,1.14.68.68,0,0,0-.46.81.65.65,0,0,0,.8.45Z" fill="#f7c785"/>
      <path id="Trazado_111701" data-name="Trazado 111701" d="M189.42,403.3a59.405,59.405,0,0,1,9,.19c.84.08.83-1.23,0-1.31a58.122,58.122,0,0,0-9-.18C188.59,402,188.58,403.35,189.42,403.3Z" fill="#f7c785"/>
      <path id="Trazado_111702" data-name="Trazado 111702" d="M169.73,431.71l2.33-.6a.66.66,0,0,0,.46-.8.67.67,0,0,0-.8-.46l-2.34.6a.654.654,0,0,0,.35,1.26Z" fill="#f7c785"/>
      <path id="Trazado_111703" data-name="Trazado 111703" d="M196.87,456.86a3.65,3.65,0,0,0,3.26-.83.65.65,0,0,0,0-.92.67.67,0,0,0-.92,0l-.13.1h0l-.07.05a2.6,2.6,0,0,1-.28.17l-.15.07h-.08l-.33.11h-1.04a.654.654,0,1,0-.35,1.26Z" fill="#f7c785"/>
      <path id="Trazado_111704" data-name="Trazado 111704" d="M218.22,321.17a.66.66,0,1,0-.579-.655A.66.66,0,0,0,218.22,321.17Z" fill="#f7c785"/>
      <path id="Trazado_111705" data-name="Trazado 111705" d="M218.79,321.09c4.43-4.33,10.77-5.57,16.76-5.64a89.009,89.009,0,0,1,9.09.4,36.339,36.339,0,0,1,7.75,1.4,15.5,15.5,0,0,1,7.18,4.48,8.03,8.03,0,0,1,.13-1c-4.62,2.53-10,3.05-15.16,3.64a36.5,36.5,0,0,1-8.55.15c-2.91-.36-5.79-1-8.67-1.58l-9.64-1.86c-.82-.15-1.17,1.1-.34,1.26l8.88,1.72c2.94.56,5.88,1.21,8.84,1.64a34.871,34.871,0,0,0,8.84,0c2.68-.28,5.36-.59,8-1.07a28.231,28.231,0,0,0,8.45-2.81.66.66,0,0,0,.13-1c-3.62-4.17-9.2-5.55-14.47-6.13a90.774,90.774,0,0,0-9.47-.54,35.581,35.581,0,0,0-10,1.17,20.33,20.33,0,0,0-8.67,4.85c-.6.59.32,1.51.92.93Z" fill="#f7c785"/>
      <path id="Trazado_111706" data-name="Trazado 111706" d="M225.16,333.43a83.052,83.052,0,0,0,1,14.69,30.553,30.553,0,0,0,.64,3.41,2.53,2.53,0,0,0,1.63,1.89,9.1,9.1,0,0,0,3.25.05,28.544,28.544,0,0,0,3.58-.5c.83-.17.48-1.43-.34-1.26a29.379,29.379,0,0,1-3.24.46c-.53,0-1.06.07-1.59.08a3.05,3.05,0,0,1-1.44-.14c-.73-.4-.77-1.75-.9-2.46-.2-1-.37-2.08-.52-3.13a79.629,79.629,0,0,1-.79-13.09.66.66,0,0,0-1.31,0Z" fill="#f7c785"/>
      <path id="Trazado_111707" data-name="Trazado 111707" d="M239.75,332.76c.19,2.58.41,5.15.65,7.73a38.524,38.524,0,0,0,.85,6.87,5.2,5.2,0,0,0,3.71,3.85,12,12,0,0,0,5.7-.42c-.16-.4-.33-.8-.5-1.2l-.81.49a.65.65,0,1,0,.66,1.12l.81-.48a.65.65,0,0,0-.5-1.19,10.2,10.2,0,0,1-5.19.37c-1.81-.52-2.54-2.15-2.84-3.87-.36-2.07-.47-4.22-.66-6.32q-.31-3.46-.57-6.95c-.07-.83-1.37-.84-1.31,0Z" fill="#f7c785"/>
      <path id="Trazado_111708" data-name="Trazado 111708" d="M217.38,372.65a42.241,42.241,0,0,1,9-6.61l-.9-.23a27.851,27.851,0,0,0,6.07,7,27.53,27.53,0,0,0,3.81,2.64c.61.36,1.3.82,2,.53s.95-1,1.28-1.54a37.617,37.617,0,0,1,2.92-4.25c.53-.67,1.08-1.31,1.66-1.94l.79-.84c.28-.29.61-.82,1-.59s.67.86.92,1.18l.76,1c.57.74,1.13,1.48,1.69,2.23l1.69,2.22a6.541,6.541,0,0,0,1.54,1.69c1.66,1,2.87-.75,3.57-2l3.12-5.64-1.19-.15a55.07,55.07,0,0,0,3.62,7.25.654.654,0,1,0,1.13-.66,50.608,50.608,0,0,1-3.49-6.94.67.67,0,0,0-1.2-.16l-2.62,4.74a17.324,17.324,0,0,1-1.1,1.92c-.54.73-1.05.77-1.64.09-1.15-1.33-2.15-2.82-3.22-4.23l-1.38-1.81a8.149,8.149,0,0,0-1.56-1.89c-1.32-.89-2.51.72-3.31,1.58a41,41,0,0,0-2.95,3.63c-.45.63-.89,1.27-1.3,1.92q-.31.49-.6,1c-.15.24-.3.75-.54.9s-1.55-.68-1.9-.9c-.66-.42-1.31-.86-1.93-1.33a26.78,26.78,0,0,1-6.57-7.3.67.67,0,0,0-.89-.24,43.783,43.783,0,0,0-9.3,6.81c-.61.58.32,1.51.92.93Z" fill="#f7c785"/>
      <path id="Trazado_111709" data-name="Trazado 111709" d="M219,392.49c1.27-1.37,2.61-2.7,4-3.95a14.912,14.912,0,0,1,2.07-1.74c.81-.47,1.8.58,2.44,1l10,7a.65.65,0,0,0,.89-.23,30.87,30.87,0,0,1,3.45-4.95c.67-.77,1.36-1.51,2.1-2.22.33-.31.71-.77,1.2-.55a4.26,4.26,0,0,1,1.13,1.11l4.49,5.05c1,1.11,2.7,2.73,4.2,1.46a5.719,5.719,0,0,0,1-1.28c.34-.56.69-1.11,1-1.66.71-1.14,1.43-2.28,2.15-3.42h-1.13l4.85,7.63c.45.71,1.58.05,1.13-.66l-4.85-7.63a.66.66,0,0,0-1.13,0c-.62,1-1.25,2-1.87,3s-1.12,1.94-1.78,2.81-1.65-.07-2.18-.63c-.78-.82-1.5-1.68-2.25-2.52l-2.2-2.48a6.77,6.77,0,0,0-2.13-2,2.15,2.15,0,0,0-2.32.65,26.687,26.687,0,0,0-2,2.09,32.842,32.842,0,0,0-4,5.56l.9-.23c-3.7-2.58-7.37-5.19-11.09-7.72a2.36,2.36,0,0,0-2.35-.46,9.45,9.45,0,0,0-2.22,1.72,59.174,59.174,0,0,0-4.47,4.35c-.57.62.35,1.54.93.92Z" fill="#f7c785"/>
      <path id="Trazado_111710" data-name="Trazado 111710" d="M220.69,408.81c4.74-1.56,9.76-1.55,14.7-1.57H251.2q4.55,0,9.07.09a.66.66,0,0,0,0-1.31q-8-.1-16.07-.12c-5.2,0-10.45-.16-15.64.17a33.309,33.309,0,0,0-8.22,1.46c-.79.26-.45,1.52.35,1.26Z" fill="#f7c785"/>
      <path id="Trazado_111711" data-name="Trazado 111711" d="M220.48,424.73c.09-3.13,3.37-4.93,6.18-4.92,3.65,0,6.86,2.1,10,3.64a16.73,16.73,0,0,0,9.27,1.93,14.94,14.94,0,0,0,8.35-3.68c1.3-1.16,2.44-2.64,4.05-3.39,1.22-.56,3.07-.64,3.92.59.47.69,1.6,0,1.12-.66a3.92,3.92,0,0,0-3.56-1.61,7,7,0,0,0-4.14,1.95,35.466,35.466,0,0,1-3.8,3.34,13.83,13.83,0,0,1-4.71,1.95c-3.63.78-7-.14-10.26-1.75s-6.85-3.79-10.76-3.61c-3.39.16-6.9,2.57-7,6.22a.66.66,0,0,0,1.31,0Z" fill="#f7c785"/>
      <path id="Trazado_111712" data-name="Trazado 111712" d="M219.55,456.12l11.73-20.2-1,.13,14.43,17.5a.66.66,0,0,0,1.1-.29A164.89,164.89,0,0,1,253,434.37h-1.13a143.574,143.574,0,0,1,6.34,13.39c.45,1.11.89,2.22,1.32,3.34a31.8,31.8,0,0,0,1.25,3.34c.36.67,1.5,1.13,1.81.14.2-.65-.51-1.53-1.17-1s0,1.64.66,1.13l.07-.05-.51.06a.42.42,0,0,1-.29-.56l.39-.3c.27-.1.09-.29,0-.53l-.25-.7-.48-1.28c-.32-.85-.65-1.69-1-2.54-.68-1.7-1.4-3.39-2.14-5.06q-2.25-5.1-4.89-10a.66.66,0,0,0-1.13,0,168.653,168.653,0,0,0-7.31,19.21l1.09-.29L231.2,435.16a.67.67,0,0,0-1,.14l-11.73,20.2a.654.654,0,1,0,1.13.66Z" fill="#f7c785"/>
      <path id="Trazado_111713" data-name="Trazado 111713" d="M275.7,324.35l6.9-6.64a12.34,12.34,0,0,1,1.58-1.49c.65-.43,1.3.28,1.77.7l3.67,3.31,1.73,1.56a4.65,4.65,0,0,0,1.72,1.24c1.35.37,2.17-1.16,2.86-2l3.05-3.85.72-.91a4.937,4.937,0,0,1,.67-.84c.29-.21.42.07.67.31l1,1,8,7.36a.66.66,0,0,0,1-.14,39.469,39.469,0,0,0,3.71-7.55c.29-.79-1-1.13-1.26-.35a37.879,37.879,0,0,1-3.58,7.25l1-.14-7.57-7c-.59-.55-1.17-1.12-1.78-1.64a1.48,1.48,0,0,0-1.65-.39,4.4,4.4,0,0,0-1.26,1.35l-1.77,2.23c-1,1.28-2,2.66-3.07,3.87-.31.34-.51.27-.85,0s-.62-.56-.93-.83L290.15,319c-1.25-1.14-2.47-2.33-3.78-3.4a2.33,2.33,0,0,0-3.35-.07c-2.83,2.55-5.5,5.3-8.24,7.94-.61.58.32,1.51.92.92Z" fill="#f7c785"/>
      <path id="Trazado_111714" data-name="Trazado 111714" d="M275.36,339.93c1.53-2.27,4.62-4.78,7.45-3.15a19.24,19.24,0,0,1,3.2,2.92,10.249,10.249,0,0,0,3.35,2.06,8.19,8.19,0,0,0,7.5-.61,25.408,25.408,0,0,0,3.1-3.29,7.2,7.2,0,0,1,11.72,2.31l.89-.89-.43-.19c-.76-.34-1.42.79-.66,1.13l.43.19a.66.66,0,0,0,.9-.89,8.44,8.44,0,0,0-11.33-4.27,9.79,9.79,0,0,0-3.59,3,6.61,6.61,0,0,1-3.71,2.64,7.56,7.56,0,0,1-4.13-.29,9.131,9.131,0,0,1-3.62-2.34,12,12,0,0,0-3.49-2.89c-3.42-1.5-6.87,1.16-8.71,3.89-.47.69.66,1.35,1.13.65Z" fill="#f7c785"/>
      <path id="Trazado_111715" data-name="Trazado 111715" d="M277.51,350.87a4.54,4.54,0,0,1,6.68-2.13,9.361,9.361,0,0,1,2.44,3.1,6.52,6.52,0,0,0,2.68,2.6c2.39,1.13,5.25.5,7.51-.64,2.62-1.32,4.84-3.46,7.69-4.3,2.19-.65,5.47-.25,6.4,2.19.29.78,1.56.44,1.26-.35-.91-2.4-3.42-3.47-5.86-3.43-3.06.06-5.59,2-8.06,3.54s-5.57,3.16-8.37,1.82c-1.39-.66-2.06-2-2.84-3.26a6.8,6.8,0,0,0-3.06-2.85,5.85,5.85,0,0,0-7.73,3.36c-.3.78,1,1.12,1.26.35Z" fill="#f7c785"/>
      <path id="Trazado_111716" data-name="Trazado 111716" d="M278.61,362.89a208.873,208.873,0,0,1,26.47.71c2.53.22,5.06.5,7.58.82l-.33-1.22-.83.38c-.76.35-.1,1.48.66,1.13l.83-.38c.67-.3.23-1.15-.33-1.22a212.2,212.2,0,0,0-26.43-1.67q-3.81,0-7.62.15a.65.65,0,0,0,0,1.3Z" fill="#f7c785"/>
      <path id="Trazado_111717" data-name="Trazado 111717" d="M277.59,371.61q15.62.43,31.22-.22c.84,0,.84-1.34,0-1.3q-15.6.65-31.22.22A.65.65,0,0,0,277.59,371.61Z" fill="#f7c785"/>
      <path id="Trazado_111718" data-name="Trazado 111718" d="M277.08,394.15a28,28,0,0,1,14.16-6.67,27.59,27.59,0,0,1,7.91-.15,18.549,18.549,0,0,1,7.23,2.2c2,1.21,3.76,3.23,3.36,5.75s-2.69,4.65-4.88,6c-4.62,2.75-10.27,3.12-15.47,2.22a31.14,31.14,0,0,1-8.54-2.65c-2.28-1.14-4.78-3-4.89-5.75,0-.84-1.34-.84-1.31,0,.22,5.73,7.47,8,12,9.16,5.66,1.39,11.86,1.49,17.23-1a13.14,13.14,0,0,0,6.39-5.58,6.39,6.39,0,0,0-.89-7.3,13.34,13.34,0,0,0-6.92-3.69,28.341,28.341,0,0,0-8.61-.75,29.51,29.51,0,0,0-17.74,7.35c-.63.56.3,1.48.93.92Z" fill="#f7c785"/>
      <path id="Trazado_111719" data-name="Trazado 111719" d="M283.09,411.61c-2.49-.83-5.13.9-6,3.26-.9,2.55.69,5.29,2.89,6.57a7.73,7.73,0,0,0,8.09-.6c2.08-1.39,4.23-4.09,3.39-6.77a4.13,4.13,0,0,0-3.36-2.63,54,54,0,0,0-5.81-.6c-.84-.07-.83,1.24,0,1.3,1.46.13,2.92.26,4.38.41a4.62,4.62,0,0,1,3.12,1.14c1.46,1.69-.22,4.23-1.56,5.39a7.08,7.08,0,0,1-6.41,1.74,4.92,4.92,0,0,1-3.67-4.63,3.68,3.68,0,0,1,4.56-3.32c.8.27,1.14-1,.35-1.26Z" fill="#f7c785"/>
      <path id="Trazado_111720" data-name="Trazado 111720" d="M301.24,412.38a5.45,5.45,0,0,0-4.38,5.43,6.11,6.11,0,0,0,4.58,5.53,7,7,0,0,0,7.13-2.63c1.41-1.87,1.82-4.79.39-6.76a6.27,6.27,0,0,0-4.2-2.21,13.3,13.3,0,0,0-5.58.23.654.654,0,1,0,.35,1.26,12.1,12.1,0,0,1,4.11-.33,7.11,7.11,0,0,1,3.59,1.13c1.6,1.19,1.59,3.55.74,5.19a5.76,5.76,0,0,1-5.22,3,4.88,4.88,0,0,1-4.45-3.5,4.13,4.13,0,0,1,3.29-5.07c.82-.13.47-1.38-.35-1.26Z" fill="#f7c785"/>
      <path id="Trazado_111721" data-name="Trazado 111721" d="M280,397.1l14.88-.3,7.31-.16c.69,0,2-.09,1.75-1.14a.84.84,0,0,0-1.54-.21.67.67,0,0,0,0,.66v.06c.5.67,1.63,0,1.13-.66V396l-.57.2-.3-.39c.29-.34.33-.49.12-.44a1.222,1.222,0,0,1-.33,0h-2.09l-2.87.06-5.87.12L280,395.8a.65.65,0,0,0,0,1.3Z" fill="#f7c785"/>
      <path id="Trazado_111722" data-name="Trazado 111722" d="M279.31,433q1.24,11.36,2.48,22.69c.09.83,1.39.84,1.31,0l-.15-1.57c-.08-.83-1.39-.84-1.31,0l.15,1.57h1.31q-1.25-11.34-2.48-22.69C280.53,432.18,279.22,432.17,279.31,433Z" fill="#f7c785"/>
      <path id="Trazado_111723" data-name="Trazado 111723" d="M288.31,435.34a35.791,35.791,0,0,0,.74,10.11q.975,5.055,2,10.11a.66.66,0,0,0,1.26,0c.09-.42.18-.85.26-1.27.17-.82-1.09-1.17-1.26-.35-.08.43-.17.85-.26,1.27h1.26c-.64-3.28-1.29-6.57-1.93-9.86a35,35,0,0,1-.74-10c.07-.83-1.24-.83-1.31,0Z" fill="#f7c785"/>
      <path id="Trazado_111724" data-name="Trazado 111724" d="M302.41,434.34a70.3,70.3,0,0,0,3.2,19.51c.2.66,1.37.59,1.28-.18a6.828,6.828,0,0,0-.11-.88c-.1-.82-1.41-.83-1.3,0a8.458,8.458,0,0,0,.1.88l1.29-.17a69.279,69.279,0,0,1-3.16-19.16.65.65,0,0,0-1.3,0Z" fill="#f7c785"/>
      <path id="Trazado_111725" data-name="Trazado 111725" d="M331.54,316.86c1,9.54,2.09,19.08,2.72,28.65a.67.67,0,0,0,.83.63,86.874,86.874,0,0,1,15.38-.72.66.66,0,0,0,.33-1.22,22.389,22.389,0,0,0-7.07-3.38c-.61-.17-1.24-.31-1.87-.42a4.517,4.517,0,0,1-.73-.16c-.37-.15-.36-.43-.39-.79-.12-1.51-.23-3-.34-4.52q-.33-4.5-.68-9c-.1-1.4-.19-2.8-.32-4.2a10.73,10.73,0,0,0-.8-3.54c-1-2.08-3.6-3.68-5.77-2.31-.7.45-.05,1.58.66,1.13a2.44,2.44,0,0,1,2.75.25,4.52,4.52,0,0,1,1.62,2.84,26.325,26.325,0,0,1,.4,3.77l.33,4.38c.22,2.84.43,5.67.64,8.51,0,.69.1,1.37.16,2.06a5.1,5.1,0,0,0,.25,1.74c.45,1,1.69,1.06,2.65,1.27a21.33,21.33,0,0,1,7.85,3.52l.33-1.22a89.913,89.913,0,0,0-15.73.77l.83.63c-.63-9.57-1.68-19.11-2.73-28.65-.09-.82-1.4-.83-1.3,0Z" fill="#f7c785"/>
      <path id="Trazado_111726" data-name="Trazado 111726" d="M350.16,321.88a26.82,26.82,0,0,0,.31,7.21l1.08,7.39.54,3.7.26,1.79a2.19,2.19,0,0,0,.43,1.24,2.41,2.41,0,0,0,2.24.39,24.918,24.918,0,0,1,3.56-.32,25.58,25.58,0,0,1,8,1.11.66.66,0,0,0,.73-1,8.47,8.47,0,0,0-3.76-3.11c-.75-.34-1.52-.63-2.3-.9l-1.27-.43c-.34-.12-.83-.2-1-.53a3.36,3.36,0,0,1-.1-1.45c0-.61,0-1.22,0-1.82v-5.21c0-.41.1-.9-.2-1.24-.62-.72-1.46,0-1.7.66-.3.79,1,1.13,1.26.35h-.12l-.46-.19.1.09c-.07-.16-.13-.31-.19-.47v6.12c0,.94-.05,1.91,0,2.85a1.93,1.93,0,0,0,1.06,1.7c1.27.66,2.77.92,4.09,1.5a7.46,7.46,0,0,1,3.47,2.72l.73-1a26.44,26.44,0,0,0-6.36-1.12,25.489,25.489,0,0,0-3.27,0c-1,.07-2,.31-3,.37-.49,0-.52-.08-.59-.53s-.17-1.19-.26-1.78c-.17-1.15-.34-2.3-.5-3.45-.34-2.3-.68-4.59-1-6.89a28.862,28.862,0,0,1-.41-7.87c.11-.83-1.2-.82-1.31,0Z" fill="#f7c785"/>
      <path id="Trazado_111727" data-name="Trazado 111727" d="M329.64,357.19q15.17,1,30.36,1.1h8.57a.66.66,0,0,0,0-1.31q-15.19.18-30.37-.58-4.29-.21-8.56-.49c-.84-.06-.83,1.25,0,1.3Z" fill="#f7c785"/>
      <path id="Trazado_111728" data-name="Trazado 111728" d="M329.43,390.29A134.546,134.546,0,0,0,341,369.88l-1,.13a204.7,204.7,0,0,1,12.95,18.75.66.66,0,0,0,1.19-.16q3.63-9.6,7.81-19l-1.19-.15a125.066,125.066,0,0,0,8.21,18.21.652.652,0,1,0,1.13-.65,124.085,124.085,0,0,1-8.1-17.88c-.17-.47-.95-.72-1.2-.16q-4.25,9.52-7.94,19.28l1.2-.15a206.721,206.721,0,0,0-13.16-19,.64.64,0,0,0-1,.13,134.608,134.608,0,0,1-11.57,20.41c-.48.69.66,1.34,1.13.66Z" fill="#f7c785"/>
      <path id="Trazado_111729" data-name="Trazado 111729" d="M328.47,398.42a33.63,33.63,0,0,1,9.21-1.06.65.65,0,0,0,0-1.3,35,35,0,0,0-9.56,1.1.654.654,0,1,0,.35,1.26Z" fill="#f7c785"/>
      <path id="Trazado_111730" data-name="Trazado 111730" d="M344.4,397a79.635,79.635,0,0,0,8.74-.1c.83-.06.84-1.36,0-1.31a79.642,79.642,0,0,1-8.74.11.65.65,0,0,0,0,1.3Z" fill="#f7c785"/>
      <path id="Trazado_111731" data-name="Trazado 111731" d="M362.53,396.45l6.37-.42a.68.68,0,0,0,.65-.66.66.66,0,0,0-.65-.65l-6.37.43a.65.65,0,1,0,0,1.3Z" fill="#f7c785"/>
      <path id="Trazado_111732" data-name="Trazado 111732" d="M326.55,413.8l3.75-3.92c.62-.65,1.24-1.31,1.87-2a11.478,11.478,0,0,1,1.79-1.83c.76-.48,1.61.49,2.16.93l2.11,1.69,4.22,3.38c1,.83,2.39,2.23,3.88,1.86s1.75-2,2.36-3.13a16.68,16.68,0,0,1,2.81-3.77c.36-.36,1.25-1.43,1.84-1.14.27.14.4.53.53.79s.39.72.6,1.07a18.65,18.65,0,0,0,6.9,6.59.67.67,0,0,0,.89-.24l6-9.75-1,.14a23.178,23.178,0,0,1,3,5c.35.77,1.47.1,1.13-.66a24.939,24.939,0,0,0-3.24-5.29.66.66,0,0,0-1,.14l-6,9.74.9-.23a17.17,17.17,0,0,1-6.48-6.21c-.67-1.11-1.22-2.86-2.89-2.4a4.64,4.64,0,0,0-1.85,1.28,18,18,0,0,0-1.6,1.78,19,19,0,0,0-2.4,4c-.37.82-.76,1.24-1.67.77a12.689,12.689,0,0,1-2.17-1.63l-4.42-3.53c-.73-.59-1.47-1.19-2.21-1.77a3.29,3.29,0,0,0-2-.92c-.92,0-1.55.74-2.14,1.35l-2.13,2.24-4.46,4.67c-.58.61.34,1.53.92.92Z" fill="#f7c785"/>
      <path id="Trazado_111733" data-name="Trazado 111733" d="M327.44,429.11q1.49-1.89,3-3.77l1.45-1.85.77-1a4.7,4.7,0,0,1,.68-.85c.26-.17.51.15.73.32l.95.75c.59.46,1.17.94,1.77,1.39a1.5,1.5,0,0,0,1.72.28,1.09,1.09,0,0,0,.39-1.43c-.35-.77-1.48-.1-1.13.66v-.42a2.27,2.27,0,0,1-.25-.18l-.44-.34-.77-.61-1.64-1.29a1.74,1.74,0,0,0-1.58-.48,2.77,2.77,0,0,0-1.2,1.1l-5.34,6.77c-.51.65.41,1.58.93.92Z" fill="#f7c785"/>
      <path id="Trazado_111734" data-name="Trazado 111734" d="M349,429.62a35.449,35.449,0,0,1,2.64-3.36c.47-.52.95-1,1.45-1.53l.75-.73a3.261,3.261,0,0,1,.77-.67c.53-.21,1.24.82,1.61,1.18l1.66,1.63,3.4,3.35a.66.66,0,0,0,1-.13l3.07-5.72c.09-.18.52-1.24.77-1.25a10.4,10.4,0,0,1,.67,1.06l1.84,2.84c.46.7,1.59,0,1.13-.66-.78-1.2-1.55-2.41-2.34-3.61a1.76,1.76,0,0,0-1.06-.91,1.38,1.38,0,0,0-1.3.48,7.367,7.367,0,0,0-.9,1.5l-1,1.8c-.69,1.27-1.37,2.54-2.05,3.81l1-.13-3.95-3.89-1.94-1.91a1.94,1.94,0,0,0-1.85-.78,4.29,4.29,0,0,0-1.71,1.25c-.59.56-1.16,1.15-1.72,1.75a39,39,0,0,0-3.16,4c-.48.69.65,1.34,1.13.66Z" fill="#f7c785"/>
      <path id="Trazado_111735" data-name="Trazado 111735" d="M383.22,314.2c2.37-2.65,6.29-5,9.76-2.86,1.68,1,2.26,3,3,4.67a7,7,0,0,0,3.24,3.9c2,.87,3.72-.24,5.5-1a9.59,9.59,0,0,1,5-.58,14.8,14.8,0,0,1,8.9,5.19c1.24,1.46,2.53,3.37,2.32,5.38a10.43,10.43,0,0,1-2.69,5.12,16.11,16.11,0,0,1-8.88,5.42,12.68,12.68,0,0,1-9.86-2,12,12,0,0,1-5.19-8.18c-.23-1.94.18-3.89-.11-5.83a6.07,6.07,0,0,0-2.31-3.89c-2.27-1.79-5.24-2.26-7.6-3.89a5.84,5.84,0,0,1-1.45-1.4c-.49-.67-1.63,0-1.13.66,1.88,2.6,5.07,3.28,7.78,4.66a6.11,6.11,0,0,1,3.11,2.92c.83,2,.2,4.3.37,6.4.58,7.34,7.88,12.79,15,12.08a17.34,17.34,0,0,0,13.41-9.39,6.53,6.53,0,0,0,.14-6,16.29,16.29,0,0,0-8.33-7.63,12.88,12.88,0,0,0-5.27-1,11.237,11.237,0,0,0-2.64.4,30.543,30.543,0,0,0-2.85,1.18c-4.83,2-5.24-4.87-7.55-7.34-2.79-3-7.42-2.19-10.38,0a15.59,15.59,0,0,0-2.19,2c-.56.63.36,1.55.92.93Z" fill="#f7c785"/>
      <path id="Trazado_111736" data-name="Trazado 111736" d="M400.28,339.84l1.8,5.88a.654.654,0,0,0,1.26-.35l-1.8-5.87C401.3,338.69,400.03,339.04,400.28,339.84Z" fill="#f7c785"/>
      <path id="Trazado_111737" data-name="Trazado 111737" d="M410.46,340.52a29.568,29.568,0,0,0,.25,4.41.67.67,0,0,0,.65.65c.32,0,.7-.3.65-.65a31,31,0,0,1-.25-4.41.65.65,0,1,0-1.3,0Z" fill="#f7c785"/>
      <path id="Trazado_111738" data-name="Trazado 111738" d="M386.29,356q14.34-.26,28.68.07,4,.11,8.08.24c-.06-.43-.11-.86-.17-1.28l-.56.21c-.78.3-.44,1.56.34,1.26l.57-.21a.66.66,0,0,0-.18-1.29q-14.32-.49-28.68-.41c-2.69,0-5.39,0-8.08.1a.66.66,0,0,0,0,1.31Z" fill="#f7c785"/>
      <path id="Trazado_111739" data-name="Trazado 111739" d="M388.35,361.65q15.45-.07,30.9.46a.65.65,0,0,0,0-1.3q-15.44-.54-30.9-.47a.66.66,0,0,0,0,1.31Z" fill="#f7c785"/>
      <path id="Trazado_111740" data-name="Trazado 111740" d="M383.22,378.06q1.69-1.76,3.51-3.39a12.078,12.078,0,0,1,1.81-1.54c.67-.38,1.64.56,2.21.91l8.94,5.62a.66.66,0,0,0,1-.39,19.28,19.28,0,0,1,2.07-4.58,17.646,17.646,0,0,1,1.52-2.11c.23-.27.46-.56.71-.81.43-.4.72-.24,1.18,0,3.31,2.07,6.55,4.25,9.83,6.38.7.46,1.36-.67.66-1.13l-5.68-3.68-2.84-1.85c-.76-.49-1.68-1.33-2.64-1.36s-1.47.7-2,1.31a21.893,21.893,0,0,0-1.69,2.27,20.45,20.45,0,0,0-2.38,5.18l1-.39c-3.35-2.11-6.69-4.23-10.05-6.32a2.22,2.22,0,0,0-2-.41,7,7,0,0,0-1.94,1.45q-2.1,1.86-4.06,3.87c-.58.61.34,1.53.93.93Z" fill="#f7c785"/>
      <path id="Trazado_111741" data-name="Trazado 111741" d="M385.27,389a144.146,144.146,0,0,1,25.85-1.18c1.23,0,2.47.12,3.7.21l1.79.13.89.08h.37c.42.06.07.1.17-.29l.3-.39a.38.38,0,0,1,.41.06l.19.46V388c-.07.15-.13.31-.19.46l.06-.05c.63-.56-.3-1.48-.93-.92s.15,1.51.9,1.28c1-.32.47-1.54-.29-1.77a9.479,9.479,0,0,0-1.76-.19l-2-.16c-1.4-.09-2.8-.17-4.21-.22a144.008,144.008,0,0,0-16.36.28c-3.07.22-6.14.56-9.2,1-.83.12-.47,1.37.35,1.26Z" fill="#f7c785"/>
      <path id="Trazado_111742" data-name="Trazado 111742" d="M388.93,394.69a187.437,187.437,0,0,1,25.52-.78.656.656,0,0,0,0-1.31l-1.09-.06a.655.655,0,0,0,0,1.31l1.09.06V392.6a190.715,190.715,0,0,0-25.52.78C388.1,393.46,388.1,394.77,388.93,394.69Z" fill="#f7c785"/>
      <path id="Trazado_111743" data-name="Trazado 111743" d="M384.53,418.85a108.008,108.008,0,0,0,6.32-10.46l-.89.23a117.356,117.356,0,0,1,14,9.34.67.67,0,0,0,.92,0,87.216,87.216,0,0,1,11.45-10.45c.66-.5,0-1.63-.66-1.12A88.865,88.865,0,0,0,403.91,417h.92a120,120,0,0,0-14.21-9.55.67.67,0,0,0-.9.24,106,106,0,0,1-6.32,10.46c-.47.69.66,1.35,1.13.66Z" fill="#f7c785"/>
      <path id="Trazado_111744" data-name="Trazado 111744" d="M433.55,325.9l4.41-.62a.66.66,0,0,0,.46-.8.68.68,0,0,0-.81-.46l-4.41.62a.65.65,0,0,0-.45.8.66.66,0,0,0,.8.46Z" fill="#f7c785"/>
      <path id="Trazado_111745" data-name="Trazado 111745" d="M434.59,356.61c-.64-.68-1.66.26-1.21,1s1.51.26,2.14.1l4.45-1.16a.654.654,0,0,0-.35-1.26l-2.87.75-1.41.36-.67.18-.34.09-.19.05h0l.29.16h0l.09.33-.34.42h-.31l-.28-.17h0c.57.62,1.49-.31.92-.92Z" fill="#f7c785"/>
      <path id="Trazado_111746" data-name="Trazado 111746" d="M435.14,387.77a116.328,116.328,0,0,0,1.47-16.35.65.65,0,0,0-1.3,0,116.141,116.141,0,0,1-1.43,16c-.13.82,1.13,1.17,1.26.34Z" fill="#f7c785"/>
      <path id="Trazado_111747" data-name="Trazado 111747" d="M439,414.68a108.993,108.993,0,0,1,1.42-13.37c.13-.82-1.12-1.17-1.26-.35a112.794,112.794,0,0,0-1.47,13.72A.655.655,0,0,0,439,414.68Z" fill="#f7c785"/>
      <path id="Trazado_111748" data-name="Trazado 111748" d="M386.52,432.33A126.612,126.612,0,0,0,388.78,449c.17.82,1.43.47,1.26-.35a124.676,124.676,0,0,1-2.22-16.33c-.05-.83-1.36-.84-1.3,0Z" fill="#f7c785"/>
      <path id="Trazado_111749" data-name="Trazado 111749" d="M412.22,432.48a62.714,62.714,0,0,1,2.58,9.93l1.09-.64L415,441c-.63-.55-1.56.37-.92.93l.89.78a.66.66,0,0,0,1.09-.64,63.288,63.288,0,0,0-2.58-9.93c-.28-.79-1.54-.45-1.26.35Z" fill="#f7c785"/>
    </g>
    <path id="Trazado_111750" data-name="Trazado 111750" d="M236.69,89.83a43.14,43.14,0,0,1-10.18.38c2.55-4.08,7.66-12.51,8.89-16.39,1.66-5.22.26-13.78-3.92-15.81-4.48-2.18-12.67-2-16.88,0S209,68.6,210.68,73.82c1.23,3.88,6.36,12.34,8.9,16.41a44.3,44.3,0,0,1-10-.4,29.14,29.14,0,0,1-9.91-3.91V97.84a29.14,29.14,0,0,1,9.91-3.91c4.56-.7,10-.67,11.38-.13-.24,5.17-1.2,24.48-2.48,29.49A33.1,33.1,0,0,1,213,134.13h20.14a33.1,33.1,0,0,1-5.52-10.84c-1.28-5-2.23-24.06-2.48-29.39.91-.64,6.75-.72,11.58,0a29.14,29.14,0,0,1,9.91,3.91V85.92a29.14,29.14,0,0,1-9.94,3.91Zm-20.88-24.4c1.84-3.85,7.07-3.59,7.23-3.62s5.39-.23,7.23,3.62c4.9,10.22-5.48,22.46-7.23,24.8C221.29,87.89,210.91,75.65,215.81,65.43Z" fill="#d9a171"/>
    <g id="Grupo_60371" data-name="Grupo 60371">
      <path id="Trazado_111751" data-name="Trazado 111751" d="M317.31,69.18l5.88,5.22s6.72-11.25,16.5-11.6c12.67-.46,16.16,6.23,24.39,9.43,16,6.2,27.48-.12,27.48-.12L389.1,67s-13,3.78-19.94.95S352.71,54.7,339.08,56.68C323.43,59,317.31,69.18,317.31,69.18Z" fill="#d9a171"/>
      <path id="Trazado_111752" data-name="Trazado 111752" d="M391.27,77.45S375.78,81,367.56,80.06,356.94,67,339.14,70.66C333,71.93,326.67,79,326.67,79l-4.35.44v5.44a7.43,7.43,0,0,1,6.52,0c3.26,1.74,8.7,7.83,16.32,7.17s17.62-8.26,17.62-8.26l26.32.43a3.58,3.58,0,0,0,2.17-2.39,8.75,8.75,0,0,0,0-4.38Zm-46.92,10.4c-7-.87-15-6.35-15-6.35s5.92-4.88,11.28-5.79c12.23-2.07,18.71,5.79,18.71,5.79s-8.03,7.22-14.99,6.35Z" fill="#d9a171"/>
      <path id="Trazado_111753" data-name="Trazado 111753" d="M338.19,90.81v10.35l-2.82,1.31a54.82,54.82,0,0,1,2.82,8.7,17.29,17.29,0,0,1,0,7.39s.68,1.73,3.92,2.18c2.78.38,3.7-.87,3.7-.87l-2-27.8Z" fill="#d9a171"/>
      <path id="Trazado_111754" data-name="Trazado 111754" d="M342.76,95.07c.22.87,5.08,13.23,11.61,17.58s17.33,6.06,24.29,3.52c7.26-2.65,9.28-7.87,7-12-1.88-3.38-4.53-4-7-3.46-3.24.73-2.39,5.07-2.39,5.07h1.49s0-3.28,2.69-2.77c2.41.45,3.87,3,1,6.42-4.69,5.74-23,7.26-30.67-9.36a21.07,21.07,0,0,1-1.74-10.44h-6.31Z" fill="#d9a171"/>
      <path id="Trazado_111755" data-name="Trazado 111755" d="M351.8,81.32a6.61,6.61,0,1,1-6.6-6.6,6.61,6.61,0,0,1,6.6,6.6Z" fill="#d9a171"/>
      <path id="Trazado_111756" data-name="Trazado 111756" d="M341.31,78.27a3.43,3.43,0,0,0-.74,1.41,1.81,1.81,0,0,0,.31,1.53,1.27,1.27,0,0,0,1.44.39c.75-.34.84-1.35,1.24-2.07a2.38,2.38,0,0,1,1.63-1.16,3.861,3.861,0,0,0,.59-.12.56.56,0,0,0,.36-.44c0-.88-1.43-1.39-2.11-1.33a4.6,4.6,0,0,0-2.72,1.79Z" fill="#d9a171" opacity="0.51"/>
      <path id="Trazado_111757" data-name="Trazado 111757" d="M321.24,66.06a4,4,0,0,0-1,1.29A1.32,1.32,0,0,0,322,69.19a3.81,3.81,0,0,0,1.36-.92c1.82-1.72,3.38-3.77,5.56-5,.74-.41,1.53-.72,2.23-1.2a2.77,2.77,0,0,0,1.36-2,7,7,0,0,0-5.23,1.44,44.289,44.289,0,0,0-6.04,4.55Z" fill="#d9a171" opacity="0.51"/>
      <path id="Trazado_111758" data-name="Trazado 111758" d="M334.25,59.49a.65.65,0,0,0-.24.35.61.61,0,0,0,.4.66,1.88,1.88,0,0,0,.82.06,8,8,0,0,0,3.43-.85.65.65,0,0,0,.26-.26c.12-.3-.24-.57-.55-.66a4.2,4.2,0,0,0-4.12.7Z" fill="#d9a171" opacity="0.51"/>
    </g>
    <g id="Grupo_60372" data-name="Grupo 60372">
      <path id="Trazado_111759" data-name="Trazado 111759" d="M414.27,83.33s-.13,1.6,2.94,2.33a21.46,21.46,0,0,0,4.72.72l-1,3.55,2.83,6.38.25.9h10.83l-3.8-.88a22.53,22.53,0,0,1-4.73,0,2.8,2.8,0,0,1-1.49-.65,10.71,10.71,0,0,1-1.53-5.2c-.14-2.75,1.28-3.76,2.76-3.64s1.1,3.93,1.1,3.93L431.22,97l8.83.59v-1s-6.38.37-7.61-1.1-3.93-4.91-2.7-8.47,11.17-14.49,10.31-16.09-2.33-3.56-1.22-6,4.91-5.52,4.91-5.52-1.72-1.78-5.44-1.71c-3.23.07-4.51,1.46-5.49,4.65s.37,4.06-1.35,5.9-4,1.23-7.61,4.79S414,82.56,414.27,83.33Z" fill="#d9a171"/>
      <path id="Trazado_111760" data-name="Trazado 111760" d="M456.85,69.27c-.76-.2-1.46-.36-1.85-.49-2.27-.79-4.91-2.24-5.93-4.54a5.21,5.21,0,0,1,1.05-5.45,7.73,7.73,0,0,1,5.23-2.33,6.26,6.26,0,0,1,2.65.34,5.11,5.11,0,0,1,2.78,3,7.6,7.6,0,0,1,.25,4.15,5.66,5.66,0,0,1-1,2.44c-2.33,2.95-7.12,1.44-9.91,4A12.47,12.47,0,0,0,447.55,74a29.91,29.91,0,0,0-2.79,8.83,21.929,21.929,0,0,1,4,1.7A25.13,25.13,0,0,0,448.92,95a4.55,4.55,0,0,0,1.56,2.89,4.9,4.9,0,0,0,2.39.63,90.5,90.5,0,0,0,14.54-.06L465,96.41a1.06,1.06,0,0,1-.39-.5,1.09,1.09,0,0,1,.07-.59q1.58-4.91,3.14-9.82c.43-1.37.82-3-.13-4.1a2.81,2.81,0,0,0-3-.58,7,7,0,0,0-2.58,1.91,21.53,21.53,0,0,0-5.19,8.09,14.48,14.48,0,0,0-1.6-11.15,4.75,4.75,0,0,1-1-2.24c0-1.51,1.52-2.52,2.89-3.15,1-.47,3-1.32,3.1-2.66S458.48,69.71,456.85,69.27Z" fill="#d9a171"/>
      <path id="Trazado_111761" data-name="Trazado 111761" d="M418.51,100.42a1.92,1.92,0,0,0-1.09.74,1.49,1.49,0,0,0,.68,1.91,4.34,4.34,0,0,0,2.18.41l45.25.56c1.43,0,3.36-.42,3.36-1.85s-1.92-1.86-3.35-1.83c-5.76.13-11.52.58-17.29.38-4.09-.15-8.17-.62-12.26-.8-3.51-.15-7,.07-10.46.17C423.06,100.17,421,99.53,418.51,100.42Z" fill="#d9a171"/>
    </g>
    <g id="Grupo_60373" data-name="Grupo 60373">
      <path id="Trazado_111762" data-name="Trazado 111762" d="M105.6,74.61a9.84,9.84,0,0,1-1,3.78c-1.08,1.86-3.13,2.67-5.07,3.16a5.18,5.18,0,0,0-2,.78,2,2,0,0,0-.77,2q5.33-.27,10.6-.94.1-7.61.22-15.19c0-1.42.81-9.18.59-10.28-.06-.31-1.63-.61-2.52-.26C105.82,63.43,106.31,68.86,105.6,74.61Z" fill="#d9a171"/>
      <path id="Trazado_111763" data-name="Trazado 111763" d="M114.16,57.18c.22,4.92.25,9.86.08,14.78a18.08,18.08,0,0,1-.68,5.15,8.29,8.29,0,0,1-5.17,5.35q0,.54,0,1.08a33.83,33.83,0,0,0,8.63-.69q-.39-7.2-.55-14.39c0-2.38-.08-4.75-.1-7.13,0-.72.46-3.4.11-4C116.31,57,114.16,57.29,114.16,57.18Z" fill="#d9a171"/>
      <path id="Trazado_111764" data-name="Trazado 111764" d="M121.58,59.8v2a2.86,2.86,0,0,0-2.22,2,7.19,7.19,0,0,0-.26,3.27,36,36,0,0,0,2.38,8.14,9.061,9.061,0,0,1,.62,2.35c.23,2.35-1.14,4.47-2.43,6.34a41.488,41.488,0,0,0,6.3-.24,13.06,13.06,0,0,1-1.57-8.91,47.4,47.4,0,0,1,1.36-4.79,10.78,10.78,0,0,0,.46-4.94,4.4,4.4,0,0,0-2.84-3.56,7.52,7.52,0,0,0-.15-1.77l2.88-.1-.51-1.85c-1.16.1-5.39-.43-6.9-.09-.26.06-.25,1.57-.16,2.42C118.79,60,121.57,59.57,121.58,59.8Z" fill="#d9a171"/>
      <path id="Trazado_111765" data-name="Trazado 111765" d="M143.3,56.93a3.49,3.49,0,0,0-4.73,1.14c-1,1.63-.43,4.24,1.2,5a4.49,4.49,0,0,1,1,.51c-.29.59-1.09.1-1.69.14-1.22.08-2.39,2-3.37,2.76A4.87,4.87,0,0,1,134.55,64a13.09,13.09,0,0,0-.45-1.66,1.32,1.32,0,0,0-1.2-.91c-.55.07-1.43.61-1.44,1.23s-.18,1.68,1,1.87l.72-.23a18.89,18.89,0,0,0,2,5.57l4.15-3.22a62.45,62.45,0,0,0,.26,10.14l-2.78-4.54c-.36-.59-.79-1.24-1.43-1.33s-1.39.66-1.53,1.47a5.2,5.2,0,0,0,.35,2.43,43.4,43.4,0,0,0,2.15,5.38c-1,.39-2.18.3-3.18.79s-1.73,2-1,2.91l16.32-.23a6,6,0,0,0-3.7-2.8,8.51,8.51,0,0,0-.82-8.52l5.62.53c-.77-2.33-1.55-4.67-2.33-7-.53-1.59-1.4-1.83-2.78-2,.47-1.19,1.2-1.59,1-3.15a5.12,5.12,0,0,0-2.18-3.8Z" fill="#d9a171"/>
      <path id="Trazado_111766" data-name="Trazado 111766" d="M96.49,88.46a4.23,4.23,0,0,0,1.7.15c15.84-.67,31.74,1.11,47.55-.07,1.21-.09,2.74-.47,2.91-1.67a1,1,0,0,0-.1-.62c-.29-.52-1-.5-1.62-.42a67.126,67.126,0,0,1-7.22.59c-5.4.14-10.8-.37-16.2-.46-4.6-.08-9.2.13-13.79.35l-10,.47a9.84,9.84,0,0,1-2.17,0c-.36-.06-.89-.46-1.25-.41C95.09,86.57,95.52,88.08,96.49,88.46Z" fill="#d9a171"/>
    </g>
    <g id="Grupo_60374" data-name="Grupo 60374">
      <path id="Trazado_111767" data-name="Trazado 111767" d="M422.34,148.49a9.79,9.79,0,0,1-1,3.78c-1.08,1.86-3.13,2.67-5.06,3.16a5.3,5.3,0,0,0-2,.79,2,2,0,0,0-.77,2c3.54-.17,7.08-.49,10.6-.94l.21-15.18c0-1.43.82-9.19.6-10.29-.06-.3-1.63-.61-2.53-.25C422.56,137.31,423.06,142.75,422.34,148.49Z" fill="#d9a171"/>
      <path id="Trazado_111768" data-name="Trazado 111768" d="M430.91,131.06q.33,7.4.08,14.79a18.37,18.37,0,0,1-.69,5.14,8.32,8.32,0,0,1-5.17,5.36v1.08a34.29,34.29,0,0,0,8.63-.7q-.39-7.18-.54-14.39c-.06-2.37-.09-4.75-.1-7.12,0-.72.46-3.4.11-4C433.06,130.93,430.91,131.17,430.91,131.06Z" fill="#d9a171"/>
      <path id="Trazado_111769" data-name="Trazado 111769" d="M438.32,133.68c0,.66,0,1.32.05,2a2.83,2.83,0,0,0-2.21,2,7.07,7.07,0,0,0-.27,3.27,36.062,36.062,0,0,0,2.39,8.14,10.062,10.062,0,0,1,.62,2.35c.23,2.35-1.14,4.48-2.44,6.34a40.188,40.188,0,0,0,6.3-.23,13.2,13.2,0,0,1-1.57-8.92,49.173,49.173,0,0,1,1.36-4.78,10.821,10.821,0,0,0,.46-4.95,4.34,4.34,0,0,0-2.84-3.55,7.56,7.56,0,0,0-.14-1.78l2.87-.1c-.16-.61-.33-1.23-.5-1.85-1.17.1-5.4-.42-6.9-.09-.26.06-.25,1.57-.17,2.42C435.53,133.87,438.32,133.45,438.32,133.68Z" fill="#d9a171"/>
      <path id="Trazado_111770" data-name="Trazado 111770" d="M460.05,130.82a3.48,3.48,0,0,0-4.73,1.13c-1,1.63-.44,4.24,1.19,5a5,5,0,0,1,1,.51c-.29.59-1.09.1-1.7.14-1.22.09-2.38,2-3.36,2.77-.49-.3-.84-1.28-1.2-2.55a11.237,11.237,0,0,0-.44-1.66c-.23-.52-.69-1-1.2-.91s-1.43.61-1.45,1.22-.18,1.69,1,1.88l.73-.23a18.619,18.619,0,0,0,2,5.57l4.14-3.23a63.572,63.572,0,0,0,.26,10.14l-2.77-4.54c-.36-.59-.8-1.23-1.43-1.32s-1.39.65-1.53,1.47a5.17,5.17,0,0,0,.34,2.42,41.947,41.947,0,0,0,2.16,5.38c-1,.39-2.19.3-3.18.79s-1.74,2-1,2.91l16.31-.22a6,6,0,0,0-3.69-2.81,8.49,8.49,0,0,0-.83-8.52l5.63.54q-1.17-3.51-2.33-7c-.53-1.59-1.4-1.83-2.78-1.94.46-1.19,1.19-1.6,1-3.15a5.16,5.16,0,0,0-2.14-3.79Z" fill="#d9a171"/>
      <path id="Trazado_111771" data-name="Trazado 111771" d="M413.24,162.34a4.17,4.17,0,0,0,1.69.16c15.84-.68,31.74,1.1,47.56-.07,1.21-.09,2.73-.48,2.9-1.68a1,1,0,0,0-.09-.61c-.3-.52-1-.5-1.63-.42a66.932,66.932,0,0,1-7.21.58c-5.4.15-10.8-.36-16.21-.46-4.59-.08-9.19.14-13.78.35l-10,.47a9.269,9.269,0,0,1-2.17,0c-.36-.07-.89-.47-1.26-.41C411.83,160.46,412.26,162,413.24,162.34Z" fill="#d9a171"/>
    </g>
    <g id="Grupo_60378" data-name="Grupo 60378">
      <path id="Trazado_111772" data-name="Trazado 111772" d="M111.61,256.15a9.529,9.529,0,0,0-1,1.66c-1.49,2.86-4.25,10-6,25.35-2.51,21.89,1.43,62.8,0,67.82s-6.65,10.56-9.49,29.49c-2.35,15.63-1.64,41.2-2.35,45.87s-1.86,6.43-2.06,10.52c-.27,5.62,1.34,5.62,1.34,5.62h49.16s5.74-2.15,0-2.87-28.71-13.63-30.5-15.07,15.07-59.92,16.15-63.87,9.33-85.76,9.33-85.76Z" fill="#c07f68"/>
      <path id="Trazado_111773" data-name="Trazado 111773" d="M105.08,349.31s.08.28-.64,2.13-2.75,6.09-2.75,6.09,3.07.72,12.3-1.39A86.36,86.36,0,0,0,128,352l1-7.73Z" fill="#9b5938"/>
      <path id="Trazado_111774" data-name="Trazado 111774" d="M130,274.71C127.45,296.6,143.26,346,141.82,351s-3.1,13.38-.71,29c2.62,17.14,18.93,41.69,18.22,46.36s-1.86,6.43-2.06,10.52c-.27,5.62,1.34,5.62,1.34,5.62h49.16s5.74-2.15,0-2.87-28.71-13.63-30.5-15.07-14.28-59.92-13.2-63.87-4.73-109-4.73-109Z" fill="#c07f68"/>
      <path id="Trazado_111775" data-name="Trazado 111775" d="M141.42,345l.39,3.62a25.78,25.78,0,0,0,11.58-1.81c5.61-2.43,10.09-4.77,10.09-4.77l-.17-11.23-21.89,9.66Z" fill="#9b5938"/>
      <path id="Trazado_111776" data-name="Trazado 111776" d="M159.55,256.15l3.87,76.9.06,1.27s-5.76,4.95-19.75,9.9-38.92,5.1-38.92,5.1l6.08-93.17Z" fill="#9dbbf9"/>
      <path id="Trazado_111777" data-name="Trazado 111777" d="M111.11,349.32s12.9-6,24.9-25.79,23.86-63.7,23.86-63.7l-4.92-.45-49.87,89.93Z" fill="#4c708f"/>
      <path id="Trazado_111778" data-name="Trazado 111778" d="M174.15,149.89s9.31-1.14,13,3.64,18,72.45,18,72.45L197,243.13s-16.1-17.69-20.14-34.89C173,192,166.57,159.77,166.57,159.77l7.58-9.88Z" fill="#c07f68"/>
      <path id="Trazado_111779" data-name="Trazado 111779" d="M184.68,228.15l6.21,7.42,14.2-9.59-1.72-4.49Z" fill="#9b5938"/>
      <path id="Trazado_111780" data-name="Trazado 111780" d="M256.64,250.76c4.37-1.5,9.38-1.08,13.45-3.21.87-.46,2-1,2.75-.54,1,.61.35,2-.42,2.91a1.34,1.34,0,0,0-.41.76,1.36,1.36,0,0,0,.41.76,4.06,4.06,0,0,1,.07,4.89,5,5,0,0,1,.29,5.9,2.64,2.64,0,0,0-.66,1.43c0,.47.36.87.4,1.34a2.09,2.09,0,0,1-.8,1.5c-3.39,3.32-8.71,4.17-13.6,4.42a54.55,54.55,0,0,1-9-.16,11,11,0,0,1-4.17-1.1c-4.07-2.29-3.64-8-.53-11.08,1.31-1.31,3.23-2.11,4.72-3.23C251.55,253.57,253.73,251.76,256.64,250.76Z" fill="#a66d58"/>
      <path id="Trazado_111781" data-name="Trazado 111781" d="M197,243.13s12.56,9.27,23.35,14.83,27.59,12.72,27.59,12.72l2.44-11.79s-17.37-12.74-27-20.46A142.114,142.114,0,0,0,205.09,226l-7.26,15.36Z" fill="#a66d58"/>
      <path id="Trazado_111782" data-name="Trazado 111782" d="M114.59,204.2l-43.52,1.47s-1.1-30.11,2.57-45.9a72.93,72.93,0,0,1,34.52-47c20.93-12.12,35.57-11,35.57-11v84.46Z" fill="#5e6178"/>
      <path id="Trazado_111783" data-name="Trazado 111783" d="M122.9,143.7s-29.77,7.17-37.12,18.89c-4.53,7.23,7.57,29.35,13.15,42.91s12,50.65,12,50.65h48.66a85.87,85.87,0,0,1,4-32.3c5.43-16.31,5.18-21.54,8.37-23.93S180.68,174,180.68,174s2-20.91-6.53-24.11C161.39,145.11,122.9,143.7,122.9,143.7Z" fill="#c07f68"/>
      <path id="Trazado_111784" data-name="Trazado 111784" d="M89.49,184c.46,1.13,8.87,16.08,12.52,30.86s8.88,41.3,8.88,41.3h48.66l14.58-60h0L106.39,179Z" fill="#6595bf"/>
      <path id="Trazado_111785" data-name="Trazado 111785" d="M185.07,294.49l18.12-84.3a17.06,17.06,0,0,1,15.86-13.05h69.42a17.09,17.09,0,0,0-15.86,13.05l-18.1,84.3a17.08,17.08,0,0,1-15.86,13H169.22a17.06,17.06,0,0,0,15.85-13Z" fill="#a66d58"/>
      <path id="Trazado_111786" data-name="Trazado 111786" d="M215.26,202.76c4.4-1.45,9.4-.95,13.5-3,.87-.45,2-1,2.76-.5,1,.62.31,2-.46,2.91a1.3,1.3,0,0,0-.42.75,1.41,1.41,0,0,0,.4.77,4.06,4.06,0,0,1,0,4.89,5,5,0,0,1,.21,5.9,2.74,2.74,0,0,0-.69,1.42c0,.47.36.88.39,1.35a2.13,2.13,0,0,1-.82,1.48c-3.43,3.28-8.77,4.05-13.66,4.24a55.651,55.651,0,0,1-8.95-.29,10.92,10.92,0,0,1-4.15-1.16c-4-2.34-3.53-8-.38-11.09,1.33-1.28,3.26-2.06,4.76-3.16C210.14,205.49,212.34,203.72,215.26,202.76Z" fill="#c07f68"/>
      <path id="Trazado_111787" data-name="Trazado 111787" d="M128.89,195.38c-7.66-7.89-21.48-21.5-26.5-32.33-2.62-5.65-.52-12.39-.52-12.39s-27.8,9.87-22,24.28c2.25,5.59,57.61,56.32,57.61,56.32l12.6-6.26S141.18,208.05,128.89,195.38Z" fill="#a66d58"/>
      <path id="Trazado_111788" data-name="Trazado 111788" d="M153.36,104.4c-1.09-3.53-3.85-5.87-5.76-8.86-3.87-6.07-4-14.33-5.95-21.59-.34-1.25-1.3-3.7-2.61-4.66a1.4,1.4,0,0,0-2.2.46c-1.53,1.9-4,25.76-3,38a31.9,31.9,0,0,0,1.89,9.54c1.21,3,3.32,5.52,6,6.31a6.77,6.77,0,0,0,7.27-2.9,10.89,10.89,0,0,0,1.23-2.29,15.341,15.341,0,0,0,1.44-2.36C153.45,112.55,154.54,108.22,153.36,104.4Z" fill="#344154"/>
      <path id="Trazado_111789" data-name="Trazado 111789" d="M97.63,152.42s7.44,23.69,26.31,30,35.28.66,42-4.68c9.58-7.59,15.55-27.73,15.55-27.73s-14.68-6.29-41.93-6.29a110.82,110.82,0,0,0-41.93,8.7Z" fill="#e1b48d"/>
      <path id="Trazado_111790" data-name="Trazado 111790" d="M166,173.79c-6.76,5.34-23.18,11-42,4.68-14.45-4.82-22.2-19.84-25-26.61l-1.27.55s7.44,23.69,26.31,30,35.28.67,42-4.68c9.58-7.58,15.55-27.73,15.55-27.73s-.39-.17-1.16-.45C178.2,155.64,173.08,168.17,166,173.79Z" fill="#6595bf"/>
      <path id="Trazado_111791" data-name="Trazado 111791" d="M104.91,149.62s6.91,15.39,21.54,19.84,27.36.47,32.6-3.31c7.43-5.37,13.49-18.9,13.49-18.9s-12.81-5.17-33.94-5.17C120.64,142.08,104.91,149.62,104.91,149.62Z" fill="#c9522d"/>
      <path id="Trazado_111792" data-name="Trazado 111792" d="M159.05,162.72c-5.24,3.78-18,7.76-32.6,3.31-10.72-3.26-17.3-12.4-20-17-1,.41-1.5.66-1.5.66s6.91,15.38,21.54,19.83,27.36.47,32.6-3.31c7.43-5.36,13.49-18.9,13.49-18.9s-.5-.19-1.44-.51C168.87,151.05,164.3,158.92,159.05,162.72Z" fill="#6595bf"/>
      <path id="Trazado_111793" data-name="Trazado 111793" d="M127.8,102.68s24.44-2.28,28.38.91,4.33,8.32,8.47,10,32.13,2.21,31.54,4.66-3.11,12.49-8.37,14.94-25.87,3.35-27.25,6.28l-5.28,11.16a14.72,14.72,0,0,1-9.4,5.61c-8.44,1.44-13.76-.29-13.76-.29l-5.79-49.74Z" fill="#344154"/>
      <path id="Trazado_111794" data-name="Trazado 111794" d="M109.36,248.51s-7.54,6.78-9.59,23.55c-1.9,15.51,5.31,77.25,5.31,77.25s5.92,1.19,25.73-27.85S158.5,257.8,158.5,257.8Z" fill="#e1b48d"/>
      <g id="Grupo_60375" data-name="Grupo 60375">
        <path id="Trazado_111795" data-name="Trazado 111795" d="M142.39,285.15q-6.91,9.24-13.73,18.56t-13.47,18.62q-3.37,4.71-6.72,9.44l-3.31,4.7c-.43.6-.86,1.21-1.28,1.82.08.74.16,1.46.23,2.14.43-.69.89-1.35,1.35-2,2.17-3.12,4.37-6.21,6.57-9.3q6.61-9.33,13.34-18.58t13.54-18.44q6.85-9.23,13.8-18.38l2-2.62c.44-1.36.84-2.64,1.2-3.83C151.4,273.22,146.87,279.17,142.39,285.15Z" fill="#e5a35c"/>
        <path id="Trazado_111796" data-name="Trazado 111796" d="M104,281.14c-1.47,1.57-2.95,3.13-4.38,4.72a19.577,19.577,0,0,0,.07,2c2.29-2.6,4.7-5.1,7.06-7.63l16.73-17.85c2.68-2.86,5.41-5.68,8-8.62l.78-.91-1.55-.29c-.55.63-1.11,1.26-1.67,1.88-5.46,6-11.06,11.82-16.6,17.73Z" fill="#e5a35c"/>
        <path id="Trazado_111797" data-name="Trazado 111797" d="M143.74,296.11l-14.35,18.42L115,333l-7.17,9.21c-1,1.33-2,2.72-3.12,4,.08.72.15,1.33.2,1.81l.26-.26c.61-.64,1.12-1.39,1.66-2.08l1.77-2.28,14.45-18.54,14.48-18.58,6.73-8.65c.84-1.78,1.63-3.54,2.39-5.28Z" fill="#e5a35c"/>
        <path id="Trazado_111798" data-name="Trazado 111798" d="M116,249.76l-1.7-.33L112.63,251l-9.11,8.13-.87.78c-.3.83-.6,1.7-.88,2.62Z" fill="#e5a35c"/>
        <path id="Trazado_111799" data-name="Trazado 111799" d="M121.83,275.85c-5,6-10.09,11.9-14.89,18-2.21,2.83-4.35,5.71-6.36,8.69.06.73.11,1.47.17,2.21q1.27-2,2.64-3.88c4.33-6.11,9.16-11.84,14-17.59l15.72-18.79,7.86-9.4.48-.57-1.54-.29c-.75.9-1.51,1.8-2.26,2.71Z" fill="#e5a35c"/>
        <path id="Trazado_111800" data-name="Trazado 111800" d="M127.48,279c-4.33,6.16-8.69,12.29-13.3,18.24q-3.41,4.43-7,8.68c-1.23,1.44-2.47,2.87-3.74,4.27-.67.75-1.34,1.53-2,2.26l.15,1.75c.86-.8,1.63-1.68,2.42-2.54q1.91-2.1,3.75-4.26c4.92-5.75,9.52-11.77,14-17.89s8.74-12.32,13.08-18.51c3.68-5.23,7.3-10.57,11.41-15.49l-1.51-.29c-1.46,1.79-2.86,3.63-4.22,5.48C136,266.68,131.77,272.84,127.48,279Z" fill="#e5a35c"/>
        <path id="Trazado_111801" data-name="Trazado 111801" d="M132.57,255.2c-4.78,5.21-9.22,10.73-13.58,16.3s-8.72,11.27-13.27,16.75c-1.85,2.22-3.7,4.45-5.67,6.58l.12,1.87c.62-.66,1.22-1.34,1.83-2,1.19-1.34,2.36-2.69,3.51-4.07,2.32-2.74,4.57-5.54,6.8-8.36,4.45-5.63,8.79-11.35,13.34-16.92,3.31-4.05,6.73-8,10.36-11.79l-1.61-.31C133.79,253.88,133.17,254.54,132.57,255.2Z" fill="#e5a35c"/>
        <path id="Trazado_111802" data-name="Trazado 111802" d="M103.05,267.5c4.38-4.79,9.23-9.12,13.67-13.85a37.26,37.26,0,0,0,2.77-3.24l-1.49-.28c-.93,1.17-2,2.27-3,3.33-2.26,2.37-4.62,4.64-7,6.94-2.65,2.61-5.3,5.27-7.73,8.1-.15.86-.3,1.74-.42,2.65C100.91,269.9,102,268.69,103.05,267.5Z" fill="#e5a35c"/>
        <path id="Trazado_111803" data-name="Trazado 111803" d="M123.06,253.41q-7.55,8.85-15.49,17.38-4,4.29-8.06,8.47h0v1.94q7.62-7.8,14.92-15.89,6.06-6.72,11.89-13.65l-1.55-.29Z" fill="#e5a35c"/>
        <path id="Trazado_111804" data-name="Trazado 111804" d="M153.91,260.73c-4.53,5.86-8.88,11.85-13.15,17.9s-8.41,12.14-12.57,18.24-8.32,12.2-12.57,18.24q-3.2,4.54-6.48,9a91.541,91.541,0,0,1-5.93,7.63q.09.92.18,1.8a68.362,68.362,0,0,0,5.76-7.14c4.42-6,8.7-12.09,12.93-18.22s8.36-12.25,12.56-18.37,8.47-12.26,12.85-18.28q3.27-4.5,6.65-8.91c1.27-1.66,2.54-3.33,3.87-5l-1.51-.28C155.62,258.51,154.76,259.62,153.91,260.73Z" fill="#e5a35c"/>
        <path id="Trazado_111805" data-name="Trazado 111805" d="M144.88,263.59c-4.39,5.88-8.8,11.74-13.17,17.64s-8.73,11.86-13,17.87-8.41,12.08-12.41,18.26c-1.33,2.05-2.64,4.12-3.93,6.19.07.76.15,1.51.22,2.25.13-.21.25-.42.38-.62q5.76-9.3,12-18.3c4.13-6,8.38-11.95,12.68-17.84s8.68-11.75,13.06-17.6c3.71-5,7.48-9.9,11.15-14.9l-1.52-.29Q147.63,259.92,144.88,263.59Z" fill="#e5a35c"/>
      </g>
      <path id="Trazado_111806" data-name="Trazado 111806" d="M107.2,250.91s4.92,2.3,21.77,5.05,30.9,3.87,30.9,3.87l.83-8.42s-13-.6-27.86-2.9a156.175,156.175,0,0,1-24.41-5.6Z" fill="#c9522d"/>
      <path id="Trazado_111807" data-name="Trazado 111807" d="M108,245.8a254.939,254.939,0,0,0,28,5.91c12.86,1.74,24.41,2.51,24.41,2.51l-.2,2s-14.65-.82-24.43-2.26c-11.32-1.68-28.22-5.48-28.22-5.48Z" fill="#9dbbf9"/>
      <path id="Trazado_111808" data-name="Trazado 111808" d="M114.99,182.4,99.45,195.54l11.86,12.8,17.58-12.96Z" fill="#c9522d"/>
      <path id="Trazado_111809" data-name="Trazado 111809" d="M101.37,197.61l16-12.99.9.84-15.59,13.57Z" fill="#e1b48d"/>
      <path id="Trazado_111810" data-name="Trazado 111810" d="M108.9,205.67l16.69-13.37,1.01.73-16.9,13.58Z" fill="#e1b48d"/>
      <path id="Trazado_111811" data-name="Trazado 111811" d="M139.58,117.94s5.25.71,7-.18,4.87-2.78,9-2.78c4.78,0,8.86,3.87,8.86,3.87s-4.29,3-9,3-7.26-1.74-9.84-2.18a42.63,42.63,0,0,0-7-.3Z" fill="#9dbbf9"/>
      <path id="Trazado_111812" data-name="Trazado 111812" d="M153.28,116.35a2.82,2.82,0,0,0-.77,1.09,2.41,2.41,0,0,0,0,2.08,3.47,3.47,0,0,0,2.11,1.33,3.62,3.62,0,0,0,1.17.22,2.74,2.74,0,0,0,2.38-2,2.09,2.09,0,0,0,.05-1.21,2.45,2.45,0,0,0-.53-.89,3.79,3.79,0,0,0-1.18-1,3.35,3.35,0,0,0-3.23.38Z" fill="#0c0b0f"/>
      <path id="Trazado_111813" data-name="Trazado 111813" d="M154.83,116.72c-.09-.11-.26-.06-.39,0a2,2,0,0,0-.91.84,1,1,0,0,0,.11,1.17.73.73,0,0,0,1.1,0c.17-.26.12-.63.32-.87s.44-.24.66-.36.43-.4.29-.61a.4.4,0,0,0-.16-.13,1.35,1.35,0,0,0-.9-.17Z" fill="#fff"/>
      <path id="Trazado_111814" data-name="Trazado 111814" d="M189,116.36a1.449,1.449,0,0,0-.18.17,2.53,2.53,0,0,0-.42,2.92c.67.88,2,.75,2.94,1.21,1.49.76,1.81,2.8,1.5,4.45a11.62,11.62,0,0,1-4.06,6.64,15.64,15.64,0,0,1-4.39,2.54,18.37,18.37,0,0,0,3.46-1c5.26-2.45,7.78-12.49,8.37-14.94C196.39,117.47,193.3,116.86,189,116.36Z" fill="#0c0b0f"/>
      <path id="Trazado_111815" data-name="Trazado 111815" d="M161,139c2.14-1.72,11.18-2.71,18.43-3.86a9.252,9.252,0,0,0-1.77.11c-1.9.2-3.79.39-5.7.55a90.76,90.76,0,0,1-19.84-.22c-1-.13-6.36-1.33-5.2,1.08s6.11,2.74,8.37,2.74A47.5,47.5,0,0,0,161,139Z" fill="#0c0b0f"/>
      <path id="Trazado_111816" data-name="Trazado 111816" d="M240.12,237.89c.35,1.55,1.17,2.69,2.75,2.75a3.57,3.57,0,0,0,3.48-2.57c.14,1.6,1,2.89,2.63,2.93a2.35,2.35,0,0,0,2.49-2.89c.1.51.14,2.88,2.85,2.19,1.52-.39,1.26-3.49,1.2-4.35-.13-2-.56-2.12-2.1-3.47a8.36,8.36,0,0,0-3.33-1.55,16.51,16.51,0,0,0-7.51-.57c-2.59.51-6.74,2.69-7.21,5.59C234.6,240.74,240.08,241.5,240.12,237.89Z" fill="#e1b48d"/>
      <rect id="Rectángulo_8555" data-name="Rectángulo 8555" width="11.28" height="2.1" transform="translate(241.15 187.82)" fill="#e5a35c"/>
      <path id="Trazado_111817" data-name="Trazado 111817" d="M240.41,193.99h12.41l.15,2.35-12.92.61Z" fill="#e5a35c"/>
      <path id="Trazado_111818" data-name="Trazado 111818" d="M240.05,237.42l1.1-41.08,1.67.48Z" fill="#e5a35c"/>
      <path id="Trazado_111819" data-name="Trazado 111819" d="M246.35,238.07c-.23-.54-1.55-41.73-1.55-41.73l2-.87Z" fill="#e5a35c"/>
      <path id="Trazado_111820" data-name="Trazado 111820" d="M251.47,238.11l-2.41-42.05,2.41-.59Z" fill="#e5a35c"/>
      <path id="Trazado_111821" data-name="Trazado 111821" d="M289,114a17.759,17.759,0,0,1-4.12-.61,44.122,44.122,0,0,0,4.8-5.93c1.06-2,1.14-5.52-.39-6.66a9.63,9.63,0,0,0-6.79-1.26c-1.84.49-3,3.84-2.76,6.07a44.319,44.319,0,0,0,2.35,7.27,18.18,18.18,0,0,1-4-.91,12,12,0,0,1-3.69-2.32l-.43,2.3v.19l-.43,2.31a12,12,0,0,1,4.28-.84,14.05,14.05,0,0,1,4.59.81c-.48,2.06-2.32,9.76-3.21,11.68a13.48,13.48,0,0,1-3,3.94l3.66.69.78.14,3.66.68a13.62,13.62,0,0,1-1.41-4.77c-.14-2.1.91-9.85,1.21-12,.41-.19,2.77.22,4.66.88a11.85,11.85,0,0,1,3.69,2.31l.43-2.3v-.19l.43-2.3A11.89,11.89,0,0,1,289,114Zm-6.57-11.38c1-1.41,3.12-.92,3.18-.92s2.18.32,2.64,2c1.2,4.48-3.89,8.62-4.77,9.44-.48-1.14-3.78-6.82-1.04-10.56Z" fill="#e1b48d"/>
      <path id="Trazado_111822" data-name="Trazado 111822" d="M98.73,153.7c.74-.53,7.49-3,7.49-3l-6,4.23,2.2,4.53,6.21-3.54-5.53,5.5,2.39,3.84,6.91-5.8-5.56,7.93,2,1.9,7.13-6.33-4.34,9.88,3.19,2.11s8.2-6.8,8-6.8-3.35,11.5-3.35,11.5l10.66,2.79,9.37.38.61-12,1.15,11.61,5.38-.39-.87-12.18,3.55,11.32,5.89-1.34-3-11.33,6,10,3.5-2-5.31-10.26,8.48,8.35,3.61-2.11-7.32-10.27s9.43,8.54,9.43,8.25A17.76,17.76,0,0,1,172,168l-7.51-8.58,9.6,5,1.46-2-8.35-7.39,10.08,4.37,1.54-4-9.22-5.18L180.29,152l-7.75-4.73,8.48,2.53-7.54,16.78-8.61,10-6.56,4.13-11.22,2.11-11.42,1.06L122.9,182l-8-5.86-6.6-7.1-7.17-10.84Z" fill="#6595bf"/>
      <path id="Trazado_111823" data-name="Trazado 111823" d="M122.51,66c1.57,1,2.71,3.42,3.11,4.66,2.34,7.27,2.49,15.52,7.11,21.6,2.28,3,5.57,5.33,6.88,8.86,1.4,3.82.1,8.14-2,11.65-1.57,2.64-4.11,5.26-7.16,4.94-3.24-.35-5.14-3.76-6.18-6.84-2.53-7.47-3.2-15.42-3.85-23.28-.43-5.25-.41-10.8-1.4-16C118.74,70.07,119,64.26,122.51,66Z" fill="#344154"/>
      <path id="Trazado_111824" data-name="Trazado 111824" d="M136.65,113.16l.85,92.51L114.99,182.4l-.54-36.61-6.15-23.11Z" fill="#5e6178"/>
      <path id="Trazado_111825" data-name="Trazado 111825" d="M134.45,117.45a8.91,8.91,0,0,1-8.75,2.87,11.42,11.42,0,0,1-7.16-6.31,27.69,27.69,0,0,1-2.25-9.53c-1.22-12.79,2-38.34,3.84-38.1.92-.3,1.55.91,1.74,1.85,1.65,8.49.71,17.71,4.8,25.32C130.26,100.21,141.32,109.21,134.45,117.45Z" fill="#848d9b"/>
      <path id="Trazado_111826" data-name="Trazado 111826" d="M126.67,93.55c-4.09-7.61-3.15-16.83-4.8-25.32-.19-.94-.82-2.15-1.74-1.85-.52-.07-1.16,2-1.78,5.32a2.91,2.91,0,0,1,.93,1.72c1.64,8.48.71,17.7,4.8,25.31,2.92,5.41,10.77,12.37,9.92,19.21.15-.15.3-.32.45-.49C141.32,109.21,130.26,100.21,126.67,93.55Z" fill="#747c87"/>
      <path id="Trazado_111827" data-name="Trazado 111827" d="M174.13,196.1c.36-.88,4-6.18,5.27-11.39s3.6-13.93,3.6-13.93-1.09,8.21-2,14.4-4.93,19.74-4.93,19.74Z" fill="#9b5938"/>
      <path id="Trazado_111828" data-name="Trazado 111828" d="M97.11,123.85A30.14,30.14,0,0,0,88,137.44a7.29,7.29,0,0,0-.36,3.33,3.15,3.15,0,0,0,2,2.52A3.36,3.36,0,0,0,93.06,142a12.35,12.35,0,0,0,1.69-3.55,32.89,32.89,0,0,1,10.82-14.59c2.57-2,5.49-3.59,7.53-6.1a2.06,2.06,0,0,0,.57-2.07C111.53,111.34,99,122.19,97.11,123.85Z" fill="#fff" opacity="0.26"/>
      <path id="Trazado_111829" data-name="Trazado 111829" d="M85.19,146.92c-1.58-.25-2.88,1.31-3.36,2.84a3.72,3.72,0,0,0,.33,3.47,3,3,0,0,0,3.36.68,6.2,6.2,0,0,0,2.7-2.4,3.25,3.25,0,0,0,.75-2.32c-.25-1.39-1.9-2-3.28-2.3Z" fill="#fff" opacity="0.26"/>
      <path id="Trazado_111830" data-name="Trazado 111830" d="M144,103.63a5.38,5.38,0,0,0-2,.22,1.86,1.86,0,0,0-1.26,1.45,1.94,1.94,0,0,0,1.68,1.86,7.71,7.71,0,0,0,2.74-.21,14.75,14.75,0,0,1,8.66,1.16,1.39,1.39,0,0,0,.64.19c.78,0,.8-1.24.36-1.87C152.82,103.54,147.08,103.66,144,103.63Z" fill="#fff" opacity="0.12"/>
      <path id="Trazado_111831" data-name="Trazado 111831" d="M89.49,185.73l7,14.19s18.54,20.25,27.26,28.65A117.08,117.08,0,0,0,136,238.11l28.52-2.54,1.72-7-28.74,2.69s-19.5-20.13-27.8-26.89S89.49,185.73,89.49,185.73Z" fill="#c07f68"/>
      <path id="Trazado_111832" data-name="Trazado 111832" d="M137.51,231.26s31.67-.65,43.67-2.48,29.8-5.91,29.8-5.91l-4.95-11s-21.54-.11-33.84-.72c-12.06-.6-29.43,1.73-29.43,1.73l-5.25,18.36Z" fill="#c07f68"/>
      <path id="Trazado_111833" data-name="Trazado 111833" d="M181.53,211.51a19.779,19.779,0,0,1,2,6.05c.84,7.19-1,11-1,11l21.72-4.21a15.63,15.63,0,0,0,1.23-6.8c-.47-5.67-2.5-7.16-2.5-7.16Z" fill="#6595bf"/>
      <path id="Trazado_111834" data-name="Trazado 111834" d="M183.72,211.4s2.18,4.9,2.33,7.73a31.931,31.931,0,0,1-1.37,9s1.88,0,1.52-.29,1.82-4.09,1-9.5a35.711,35.711,0,0,0-2.06-7Z" fill="#e1b48d"/>
      <path id="Trazado_111835" data-name="Trazado 111835" d="M200,210.4s2.53,2.69,2.67,5.57S201,225,201.08,225s1.07-.26,1.07-.26,1.81-5.29,1.53-8.73a10.86,10.86,0,0,0-2.1-5.64Z" fill="#e1b48d"/>
      <path id="Trazado_111836" data-name="Trazado 111836" d="M88.39,184.62S97,202.23,99.45,211.33s9,31.58,9,31.58l7.49,2.15a95.871,95.871,0,0,0-.71-20c-1.57-9.31-1-13.11-1-13.11l-16.6-17.26Z" fill="#4c708f"/>
      <path id="Trazado_111837" data-name="Trazado 111837" d="M87.91,160.8a18.909,18.909,0,0,0-2.47,1.69,10.18,10.18,0,0,0-3.18,9.74,11.48,11.48,0,0,0,6.68,7.91c1.17.5,2.69.75,3.57-.17a2.57,2.57,0,0,0,.13-2.94,11,11,0,0,0-2.08-2.35,15.5,15.5,0,0,1-2.83-3.85,3.81,3.81,0,0,1-.5-1.44,3.89,3.89,0,0,1,.85-2.43,15.27,15.27,0,0,1,4.25-4.19c1.1-.71,2.42-1.48,2.56-2.78C95.37,155.42,89,160.17,87.91,160.8Z" fill="#fff" opacity="0.26"/>
      <path id="Trazado_111838" data-name="Trazado 111838" d="M145.19,218.58a6.719,6.719,0,0,0,2.48-.52,58.131,58.131,0,0,1,19.75-3,1.24,1.24,0,0,0-.62-1.27,3.41,3.41,0,0,0-1.44-.4,53,53,0,0,0-15.15.41c-1.58.28-4.6.38-5.94,1.35C142.69,216.27,143.05,218.46,145.19,218.58Z" fill="#fff" opacity="0.26"/>
      <g id="Grupo_60377" data-name="Grupo 60377">
        <path id="Trazado_111839" data-name="Trazado 111839" d="M288.47,197.14H219.05a14.58,14.58,0,0,1,14.22,13.05l18,195.87a14.59,14.59,0,0,0,14.24,13h43.34a11.72,11.72,0,0,0,11.93-11.5,11.342,11.342,0,0,0-.07-1.54l-18-195.87a14.6,14.6,0,0,0-14.24-13.01Z" fill="#d9a171"/>
        <path id="Trazado_111840" data-name="Trazado 111840" d="M277.39,406.06a11.73,11.73,0,0,1-10.32,13,11.419,11.419,0,0,1-1.55.07H335a11.74,11.74,0,0,0,11.85-13Z" fill="#d9a171" opacity="0.7"/>
        <g id="Grupo_60376" data-name="Grupo 60376" opacity="0.5">
          <path id="Trazado_111841" data-name="Trazado 111841" d="M245.23,219.09H292.3a2.56,2.56,0,0,0,2.59-2.52v-.32h0a3.19,3.19,0,0,0-3.1-2.84h-47a2.55,2.55,0,0,0-2.59,2.52v.32h0a3.19,3.19,0,0,0,3.03,2.84Z" fill="#fff" stroke="#5e6178" stroke-miterlimit="10" stroke-width="0"/>
          <path id="Trazado_111842" data-name="Trazado 111842" d="M246.7,234.45h47a2.55,2.55,0,0,0,2.6-2.5v-.34h0a3.2,3.2,0,0,0-3.1-2.84h-47a2.55,2.55,0,0,0-2.6,2.51v.33h0a3.19,3.19,0,0,0,3.1,2.84Z" fill="#fff" stroke="#5e6178" stroke-miterlimit="10" stroke-width="0"/>
          <path id="Trazado_111843" data-name="Trazado 111843" d="M259.6,249.83h35.49a2.56,2.56,0,0,0,2.59-2.52,1.673,1.673,0,0,0,0-.32h0a3.17,3.17,0,0,0-3.09-2.84H259.11a2.56,2.56,0,0,0-2.61,2.5v.34h0a3.19,3.19,0,0,0,3.1,2.84Z" fill="#fff" stroke="#5e6178" stroke-miterlimit="10" stroke-width="0"/>
          <path id="Trazado_111844" data-name="Trazado 111844" d="M284.46,265.27h12a2.56,2.56,0,0,0,2.6-2.51,1.709,1.709,0,0,0,0-.32h0a3.2,3.2,0,0,0-3.1-2.84h-12a2.55,2.55,0,0,0-2.58,2.52v.32h0A3.2,3.2,0,0,0,284.46,265.27Z" fill="#fff" stroke="#5e6178" stroke-miterlimit="10" stroke-width="0"/>
          <path id="Trazado_111845" data-name="Trazado 111845" d="M250.9,280.56h47a2.56,2.56,0,0,0,2.59-2.52v-.32h0a3.19,3.19,0,0,0-3.1-2.84h-47a2.56,2.56,0,0,0-2.6,2.51q0,.165,0,.33h0a3.19,3.19,0,0,0,3.11,2.84Z" fill="#fff" stroke="#5e6178" stroke-miterlimit="10" stroke-width="0"/>
          <path id="Trazado_111846" data-name="Trazado 111846" d="M270.78,295.94h28.5a2.56,2.56,0,0,0,2.6-2.51,1.828,1.828,0,0,0,0-.33h0a3.18,3.18,0,0,0-3.09-2.84H270.28a2.57,2.57,0,0,0-2.6,2.54v.3h0a3.19,3.19,0,0,0,3.1,2.84Z" fill="#fff" stroke="#5e6178" stroke-miterlimit="10" stroke-width="0"/>
          <path id="Trazado_111847" data-name="Trazado 111847" d="M253.69,311.3h47a2.56,2.56,0,0,0,2.59-2.52v-.32h0a3.2,3.2,0,0,0-3.09-2.85H253.22a2.59,2.59,0,0,0-2.61,2.54,3,3,0,0,0,0,.31h0A3.2,3.2,0,0,0,253.69,311.3Z" fill="#fff" stroke="#5e6178" stroke-miterlimit="10" stroke-width="0"/>
          <path id="Trazado_111848" data-name="Trazado 111848" d="M266.61,326.67h35.46a2.54,2.54,0,0,0,2.6-2.5,1.931,1.931,0,0,0,0-.34h0a3.2,3.2,0,0,0-3.1-2.84H266.1a2.55,2.55,0,0,0-2.6,2.51v.33h0a3.19,3.19,0,0,0,3.11,2.84Z" fill="#fff" stroke="#5e6178" stroke-miterlimit="10" stroke-width="0"/>
          <path id="Trazado_111849" data-name="Trazado 111849" d="M291.44,342.05h12a2.57,2.57,0,0,0,2.6-2.54v-.3h0a3.18,3.18,0,0,0-3.11-2.84h-12a2.56,2.56,0,0,0-2.61,2.5c0,.11,0,.23,0,.34h0A3.2,3.2,0,0,0,291.44,342.05Z" fill="#fff" stroke="#5e6178" stroke-miterlimit="10" stroke-width="0"/>
          <path id="Trazado_111850" data-name="Trazado 111850" d="M257.89,357.41h47a2.56,2.56,0,0,0,2.6-2.51v-.33h0a3.2,3.2,0,0,0-3.1-2.85h-47a2.57,2.57,0,0,0-2.59,2.53,1.77,1.77,0,0,0,0,.32h0A3.18,3.18,0,0,0,257.89,357.41Z" fill="#fff" stroke="#5e6178" stroke-miterlimit="10" stroke-width="0"/>
          <path id="Trazado_111851" data-name="Trazado 111851" d="M277.79,372.78h28.48a2.54,2.54,0,0,0,2.6-2.5v-.34h0a3.2,3.2,0,0,0-3.1-2.84H277.28a2.57,2.57,0,0,0-2.61,2.51v.33h0A3.18,3.18,0,0,0,277.79,372.78Z" fill="#fff" stroke="#5e6178" stroke-miterlimit="10" stroke-width="0"/>
          <path id="Trazado_111852" data-name="Trazado 111852" d="M260.69,388.21h47a2.56,2.56,0,0,0,2.6-2.51q0-.165,0-.33h0a3.2,3.2,0,0,0-3.1-2.83h-47a2.54,2.54,0,0,0-2.58,2.52,1.631,1.631,0,0,0,0,.31h0A3.21,3.21,0,0,0,260.69,388.21Z" fill="#fff" stroke="#5e6178" stroke-miterlimit="10" stroke-width="0"/>
        </g>
      </g>
    </g>
  </g>
</svg>
