<svg xmlns="http://www.w3.org/2000/svg" width="555.43" height="357.385" viewBox="0 0 555.43 357.385">
  <g id="Capa_2" data-name="Capa 2" transform="translate(-168.14 -46.615)">
    <g id="Grupo_60322" data-name="Grupo 60322" transform="translate(228.317 71.222)">
      <g id="Grupo_60311" data-name="Grupo 60311" transform="translate(0 20.489)">
        <ellipse id="Elipse_4306" data-name="Elipse 4306" cx="222.195" cy="15.395" rx="222.195" ry="15.395" transform="translate(0 248.537)" fill="#a66d58" opacity="0.2"/>
        <g id="Grupo_60310" data-name="Grupo 60310" transform="translate(18.832)">
          <g id="Grupo_60308" data-name="Grupo 60308">
            <rect id="Rectángulo_8510" data-name="Rectángulo 8510" width="406.734" height="257.891" rx="7.63" transform="translate(0 6.302)" fill="#a66d58"/>
            <rect id="Rectángulo_8511" data-name="Rectángulo 8511" width="406.734" height="257.891" rx="7.63" fill="#6595bf"/>
            <circle id="Elipse_4307" data-name="Elipse 4307" cx="7.347" cy="7.347" r="7.347" transform="translate(196.016 236.635)" fill="none" stroke="#381531" stroke-miterlimit="10" stroke-width="2.57"/>
          </g>
          <rect id="Rectángulo_8512" data-name="Rectángulo 8512" width="385.788" height="210.652" transform="translate(10.473 21.517)" fill="#fff"/>
          <g id="Grupo_60309" data-name="Grupo 60309" transform="translate(200.669 9.02)">
            <circle id="Elipse_4308" data-name="Elipse 4308" cx="1.584" cy="1.584" r="1.584" transform="translate(0 0.686)" fill="#d9a171"/>
            <circle id="Elipse_4309" data-name="Elipse 4309" cx="2.269" cy="2.269" r="2.269" transform="translate(8.906)" fill="#fff"/>
          </g>
        </g>
      </g>
      <g id="Grupo_60321" data-name="Grupo 60321" transform="translate(46.088)">
        <g id="Grupo_60317" data-name="Grupo 60317" transform="translate(0 78.535)">
          <g id="Grupo_60314" data-name="Grupo 60314" transform="translate(0 1.535)">
            <line id="Línea_501" data-name="Línea 501" x2="355.52" transform="translate(0 151.161)" fill="none" stroke="#ffa299" stroke-miterlimit="10" stroke-width="0.86"/>
            <g id="Grupo_60312" data-name="Grupo 60312" transform="translate(24.619)">
              <rect id="Rectángulo_8513" data-name="Rectángulo 8513" width="9.102" height="25.893" transform="translate(296.486 125.268)" fill="#d9a171"/>
              <rect id="Rectángulo_8514" data-name="Rectángulo 8514" width="9.102" height="150.467" transform="translate(268.25 0.694)" fill="#d9a171"/>
              <rect id="Rectángulo_8515" data-name="Rectángulo 8515" width="9.102" height="23.795" transform="translate(240.014 127.366)" fill="#d9a171"/>
              <rect id="Rectángulo_8516" data-name="Rectángulo 8516" width="9.102" height="34.994" transform="translate(211.779 116.167)" fill="#d9a171"/>
              <rect id="Rectángulo_8517" data-name="Rectángulo 8517" width="9.102" height="18.897" transform="translate(183.535 132.264)" fill="#d9a171"/>
              <rect id="Rectángulo_8518" data-name="Rectángulo 8518" width="9.102" height="74.879" transform="translate(155.3 76.283)" fill="#d9a171"/>
              <rect id="Rectángulo_8519" data-name="Rectángulo 8519" width="9.102" height="111.971" transform="translate(127.064 39.19)" fill="#d9a171"/>
              <rect id="Rectángulo_8520" data-name="Rectángulo 8520" width="9.102" height="151.161" transform="translate(98.828)" fill="#d9a171"/>
              <rect id="Rectángulo_8521" data-name="Rectángulo 8521" width="9.102" height="76.283" transform="translate(56.471 74.878)" fill="#d9a171"/>
              <rect id="Rectángulo_8522" data-name="Rectángulo 8522" width="9.102" height="31.493" transform="translate(28.236 119.668)" fill="#d9a171"/>
              <rect id="Rectángulo_8523" data-name="Rectángulo 8523" width="9.102" height="116.877" transform="translate(0 34.292)" fill="#d9a171"/>
            </g>
            <g id="Grupo_60313" data-name="Grupo 60313" transform="translate(10.498 21.689)" opacity="0.5">
              <rect id="Rectángulo_8524" data-name="Rectángulo 8524" width="9.102" height="74.879" transform="translate(0 54.594)" fill="#d9a171"/>
              <rect id="Rectángulo_8525" data-name="Rectángulo 8525" width="9.102" height="121.072" transform="translate(296.486 8.4)" fill="#d9a171"/>
              <rect id="Rectángulo_8526" data-name="Rectángulo 8526" width="9.102" height="62.985" transform="translate(268.25 66.487)" fill="#d9a171"/>
              <rect id="Rectángulo_8527" data-name="Rectángulo 8527" width="9.102" height="9.796" transform="translate(240.014 119.677)" fill="#d9a171"/>
              <rect id="Rectángulo_8528" data-name="Rectángulo 8528" width="9.102" height="25.893" transform="translate(211.779 103.579)" fill="#d9a171"/>
              <rect id="Rectángulo_8529" data-name="Rectángulo 8529" width="9.102" height="89.58" transform="translate(183.543 39.892)" fill="#d9a171"/>
              <rect id="Rectángulo_8530" data-name="Rectángulo 8530" width="9.102" height="51.092" transform="translate(155.308 78.389)" fill="#d9a171"/>
              <rect id="Rectángulo_8531" data-name="Rectángulo 8531" width="9.102" height="129.472" transform="translate(127.064)" fill="#d9a171"/>
              <rect id="Rectángulo_8532" data-name="Rectángulo 8532" width="9.102" height="120.37" transform="translate(98.829 9.102)" fill="#d9a171"/>
              <rect id="Rectángulo_8533" data-name="Rectángulo 8533" width="9.102" height="97.98" transform="translate(84.715 31.493)" fill="#d9a171"/>
              <rect id="Rectángulo_8534" data-name="Rectángulo 8534" width="9.102" height="61.589" transform="translate(56.479 67.891)" fill="#d9a171"/>
              <rect id="Rectángulo_8535" data-name="Rectángulo 8535" width="9.102" height="93.776" transform="translate(28.236 35.696)" fill="#d9a171"/>
              <rect id="Rectángulo_8536" data-name="Rectángulo 8536" width="9.102" height="74.879" transform="translate(324.729 54.594)" fill="#d9a171"/>
            </g>
          </g>
          <g id="Grupo_60315" data-name="Grupo 60315" transform="translate(12.702)">
            <path id="Trazado_111584" data-name="Trazado 111584" d="M315.75,257.012l14.938-47.827,28.04,85.833L429.362,175.13,471.58,275.207l28.464-38.962,14.693,70.919,28.227-16.326,13.763,25.893L598.954,175.6,626.717,300.17l14.693-48.757" transform="translate(-314.224 -173.367)" fill="none" stroke="#562349" stroke-miterlimit="10" stroke-width="0.86"/>
            <circle id="Elipse_4310" data-name="Elipse 4310" cx="1.763" cy="1.763" r="1.763" transform="translate(0 81.417)" fill="#6595bf"/>
            <circle id="Elipse_4311" data-name="Elipse 4311" cx="1.763" cy="1.763" r="1.763" transform="translate(14.693 34.056)" fill="#6595bf"/>
            <circle id="Elipse_4312" data-name="Elipse 4312" cx="1.763" cy="1.763" r="1.763" transform="translate(42.692 119.677)" fill="#6595bf"/>
            <circle id="Elipse_4313" data-name="Elipse 4313" cx="1.763" cy="1.763" r="1.763" transform="translate(113.375)" fill="#6595bf"/>
            <circle id="Elipse_4314" data-name="Elipse 4314" cx="1.763" cy="1.763" r="1.763" transform="translate(155.961 100.077)" fill="#6595bf"/>
            <circle id="Elipse_4315" data-name="Elipse 4315" cx="1.763" cy="1.763" r="1.763" transform="translate(184.164 61.353)" fill="#6595bf"/>
            <circle id="Elipse_4316" data-name="Elipse 4316" cx="1.763" cy="1.763" r="1.763" transform="translate(198.522 132.631)" fill="#6595bf"/>
            <circle id="Elipse_4317" data-name="Elipse 4317" cx="1.763" cy="1.763" r="1.763" transform="translate(227.084 115.244)" fill="#6595bf"/>
            <circle id="Elipse_4318" data-name="Elipse 4318" cx="1.763" cy="1.763" r="1.763" transform="translate(240.741 141.602)" fill="#6595bf"/>
            <circle id="Elipse_4319" data-name="Elipse 4319" cx="1.763" cy="1.763" r="1.763" transform="translate(310.958 125.505)" fill="#6595bf"/>
            <circle id="Elipse_4320" data-name="Elipse 4320" cx="1.763" cy="1.763" r="1.763" transform="translate(325.423 76.054)" fill="#6595bf"/>
            <circle id="Elipse_4321" data-name="Elipse 4321" cx="1.763" cy="1.763" r="1.763" transform="translate(282.968 0.465)" fill="#6595bf"/>
          </g>
          <g id="Grupo_60316" data-name="Grupo 60316" transform="translate(12.702 41.762)">
            <path id="Trazado_111585" data-name="Trazado 111585" d="M315.75,305.372l14.938,17.844,28.04-52.488,70.634,43.386,42.219-63.2,28.464,58.3,14.693-26.342,28.227,38.235,13.763-94.127,42.227,68.585,27.762-69.279,14.693,61.581" transform="translate(-314.224 -224.527)" fill="none" stroke="#ad6989" stroke-miterlimit="10" stroke-width="0.86"/>
            <circle id="Elipse_4322" data-name="Elipse 4322" cx="1.763" cy="1.763" r="1.763" transform="translate(0 79.074)" fill="#aed3f2"/>
            <circle id="Elipse_4323" data-name="Elipse 4323" cx="1.763" cy="1.763" r="1.763" transform="translate(14.693 96.339)" fill="#aed3f2"/>
            <circle id="Elipse_4324" data-name="Elipse 4324" cx="1.763" cy="1.763" r="1.763" transform="translate(113.375 87.825)" fill="#aed3f2"/>
            <circle id="Elipse_4325" data-name="Elipse 4325" cx="1.763" cy="1.763" r="1.763" transform="translate(155.961 24.954)" fill="#aed3f2"/>
            <circle id="Elipse_4326" data-name="Elipse 4326" cx="1.763" cy="1.763" r="1.763" transform="translate(184.164 82.576)" fill="#aed3f2"/>
            <circle id="Elipse_4327" data-name="Elipse 4327" cx="1.763" cy="1.763" r="1.763" transform="translate(198.522 56.087)" fill="#aed3f2"/>
            <circle id="Elipse_4328" data-name="Elipse 4328" cx="1.763" cy="1.763" r="1.763" transform="translate(240.741)" fill="#aed3f2"/>
            <circle id="Elipse_4329" data-name="Elipse 4329" cx="1.763" cy="1.763" r="1.763" transform="translate(310.958)" fill="#aed3f2"/>
            <circle id="Elipse_4330" data-name="Elipse 4330" cx="1.763" cy="1.763" r="1.763" transform="translate(325.423 61.581)" fill="#aed3f2"/>
            <circle id="Elipse_4331" data-name="Elipse 4331" cx="1.763" cy="1.763" r="1.763" transform="translate(226.978 94.821)" fill="#aed3f2"/>
            <circle id="Elipse_4332" data-name="Elipse 4332" cx="1.763" cy="1.763" r="1.763" transform="translate(282.968 69.279)" fill="#aed3f2"/>
            <circle id="Elipse_4333" data-name="Elipse 4333" cx="1.763" cy="1.763" r="1.763" transform="translate(42.692 44.317)" fill="#aed3f2"/>
          </g>
        </g>
        <g id="Grupo_60320" data-name="Grupo 60320" transform="translate(55.551)">
          <g id="Grupo_60318" data-name="Grupo 60318">
            <path id="Trazado_111586" data-name="Trazado 111586" d="M371.732,151.83,395.6,193.159a3.967,3.967,0,0,0,6.792,0L426.26,151.83a4.008,4.008,0,0,0-3.4-5.926h-7.51V83.115a3.967,3.967,0,0,0-3.935-3.935H386.547a3.926,3.926,0,0,0-3.91,3.935v62.765h-7.518a3.975,3.975,0,0,0-3.388,5.951Z" transform="translate(-367.26 -77.205)" fill="#a66d58" opacity="0.2"/>
            <path id="Trazado_111587" data-name="Trazado 111587" d="M366.885,149.386l23.868,41.329a3.975,3.975,0,0,0,6.8,0l23.86-41.329a4.008,4.008,0,0,0-3.4-5.926h-7.51V80.695a3.967,3.967,0,0,0-3.935-3.935H381.684a3.926,3.926,0,0,0-3.935,3.935v62.765h-7.5a3.975,3.975,0,0,0-3.363,5.926Z" transform="translate(-366.372 -76.76)" fill="#5e6178"/>
          </g>
          <g id="Grupo_60319" data-name="Grupo 60319" transform="translate(144.679 6.182)">
            <path id="Trazado_111588" data-name="Trazado 111588" d="M602.928,131.264,579.06,89.919a3.975,3.975,0,0,0-6.8,0L548.4,131.264a4.008,4.008,0,0,0,3.4,5.926h7.51v62.765a3.967,3.967,0,0,0,3.935,3.935h24.84a3.943,3.943,0,0,0,3.943-3.935V137.182h7.5a3.984,3.984,0,0,0,3.4-5.918Z" transform="translate(-544.402 -85.007)" fill="#a66d58" opacity="0.2"/>
            <path id="Trazado_111589" data-name="Trazado 111589" d="M598.62,127.586,574.768,86.249a3.967,3.967,0,0,0-6.792,0l-23.868,41.337a3.992,3.992,0,0,0,3.4,5.918h7.51v62.765a3.975,3.975,0,0,0,3.935,3.943H583.8a3.943,3.943,0,0,0,3.935-3.943V133.5h7.51a3.967,3.967,0,0,0,3.379-5.918Z" transform="translate(-543.612 -84.333)" fill="#344154"/>
          </g>
        </g>
      </g>
    </g>
    <g id="Grupo_60347" data-name="Grupo 60347" transform="translate(564.669 87.51)">
      <ellipse id="Elipse_4334" data-name="Elipse 4334" cx="63.981" cy="8.604" rx="63.981" ry="8.604" transform="translate(30.939 294.695)" fill="#a66d58" opacity="0.2"/>
      <g id="Grupo_60346" data-name="Grupo 60346" transform="translate(0)">
        <g id="Grupo_60327" data-name="Grupo 60327" transform="translate(59.201)">
          <g id="Grupo_60325" data-name="Grupo 60325">
            <g id="Grupo_60323" data-name="Grupo 60323" transform="translate(56.189 5.657)">
              <path id="Trazado_111590" data-name="Trazado 111590" d="M814.15,137.239c8.653-8.759,14.775-25.7,3.192-31.893s-17.354,6.473-17.681,6.922l1.633,1.584s2.914-4.653,8.906-.816-22.734,30.333-12.84,41.223,20.016,1.265,20.016,1.265C808.248,158.471,806.387,145.092,814.15,137.239Z" transform="translate(-795.266 -103.644)" fill="#344154"/>
              <path id="Trazado_111591" data-name="Trazado 111591" d="M799.88,111.173a3.673,3.673,0,1,0,3.673-3.673A3.673,3.673,0,0,0,799.88,111.173Z" transform="translate(-796.114 -104.352)" fill="#d9a171"/>
            </g>
            <path id="Trazado_111592" data-name="Trazado 111592" d="M753.637,147.949s-1.184,16.448-4.179,16.693c-5.045.408-20.766-1.3-22.766,1.29s7.722,22.44,23.672,19.983,27.958-13.657,27.958-13.657l-4.392-3.339s-9.657-2.506-9.461-3.608c.931-5.2,5.714-20.3,5.714-20.3Z" transform="translate(-726.432 -105.586)" fill="#f28b86"/>
            <g id="Grupo_60324" data-name="Grupo 60324" transform="translate(8.436)">
              <path id="Trazado_111593" data-name="Trazado 111593" d="M767.16,99.7s-8.661-7.134-20.995,1.567-12.506,34.807-.645,39.655S767.16,99.7,767.16,99.7Z" transform="translate(-736.767 -96.757)" fill="#344154"/>
              <path id="Trazado_111594" data-name="Trazado 111594" d="M771.675,107.874s-17.077-8.751-24.628,12.3c-8,22.3,3.331,40.227,23.346,27.607C780.883,141.171,789.422,112.756,771.675,107.874Z" transform="translate(-738.18 -98.433)" fill="#ffbf9d"/>
              <path id="Trazado_111595" data-name="Trazado 111595" d="M787.854,137.493c5.51-4.286,23.411-24.636,1.992-36.113,0,0-17.55-12.13-22.04,2.726-4.9,16.2,11.624,21.3,11.624,21.3s-4.286,7.036-1.224,11.02l4.637-8.22-4.024,9.289-3.967,8.432C779.593,144.072,781.87,142.146,787.854,137.493Z" transform="translate(-742.302 -96.714)" fill="#344154"/>
            </g>
          </g>
          <g id="Grupo_60326" data-name="Grupo 60326" transform="translate(17.736 19.56)">
            <path id="Trazado_111596" data-name="Trazado 111596" d="M786.923,134.537a5.713,5.713,0,0,0-1.469.588,43.78,43.78,0,0,0-4.383,9.747c1.208,1.869,5.151.294,6.783-2.22C789.894,139.525,791.853,133.37,786.923,134.537Z" transform="translate(-754.206 -123.196)" fill="#d9a171"/>
            <path id="Trazado_111597" data-name="Trazado 111597" d="M783.571,144.112a1.69,1.69,0,0,0,.539-.4.482.482,0,0,0,.122-.473,1.216,1.216,0,0,0-.31-.441,5.9,5.9,0,0,0-.482-.392l-.22-.171.106-.318a19.833,19.833,0,0,1,1.053-2.506,11.244,11.244,0,0,1,1.535-2.326,3.08,3.08,0,0,1,.588-.522,1.913,1.913,0,0,1,.408-.22,2.774,2.774,0,0,1,.4-.122,2.171,2.171,0,0,1,1.633.294,1.559,1.559,0,0,1,.506.735,1.747,1.747,0,0,1,0,.816,3.185,3.185,0,0,1-.6,1.265,4.728,4.728,0,0,0,.1-1.29.873.873,0,0,0-.482-.816,1.38,1.38,0,0,0-.939,0,2.316,2.316,0,0,0-.237.1c-.049.049-.09.049-.155.122a3.628,3.628,0,0,0-.375.4,19.04,19.04,0,0,0-1.38,2.122l-1.306,2.269-.106-.49a4.654,4.654,0,0,1,.482.62,1.543,1.543,0,0,1,.261.816.816.816,0,0,1-.457.735,1.559,1.559,0,0,1-.686.2Z" transform="translate(-754.601 -123.523)" fill="#d67676"/>
            <path id="Trazado_111598" data-name="Trazado 111598" d="M757.4,131.87a8.483,8.483,0,0,1-.645,1.959,8.017,8.017,0,0,1-1.1,1.771,6.767,6.767,0,0,1-3.518,2.335l.294-.531a4.2,4.2,0,0,0,.971,1.78,5.527,5.527,0,0,0,1.771,1.257,4.081,4.081,0,0,1-3.575-2.8l-.131-.392.424-.139a8,8,0,0,0,3.151-2.057,17.956,17.956,0,0,0,2.359-3.184Z" transform="translate(-748.768 -122.733)" fill="#d67676"/>
            <path id="Trazado_111599" data-name="Trazado 111599" d="M751,145.28s8.563,1.633,12.693,3C763.685,148.317,754.306,153.394,751,145.28Z" transform="translate(-748.682 -125.196)" fill="#fff"/>
            <path id="Trazado_111600" data-name="Trazado 111600" d="M769.78,135.807a9.342,9.342,0,0,0-.065-2.833,2.163,2.163,0,0,0-.531-1.086,1.73,1.73,0,0,0-1.02-.449,2.645,2.645,0,0,0-2.277.816,8.367,8.367,0,0,0-1.527,2.375,5.109,5.109,0,0,1,.98-2.857,3.119,3.119,0,0,1,2.914-1.249,2.375,2.375,0,0,1,2.155,2.359,5.527,5.527,0,0,1-.628,2.922Z" transform="translate(-751.136 -122.482)" fill="#21081c"/>
            <path id="Trazado_111601" data-name="Trazado 111601" d="M754.239,132.595a9.449,9.449,0,0,0-.22-2.833,2.024,2.024,0,0,0-.588-1.045,1.747,1.747,0,0,0-1.045-.4,2.669,2.669,0,0,0-2.228.931,8.088,8.088,0,0,0-1.388,2.449,5.094,5.094,0,0,1,.816-2.906A3.355,3.355,0,0,1,750.8,127.7a3.4,3.4,0,0,1,1.633-.318,2.571,2.571,0,0,1,1.633.7,2.661,2.661,0,0,1,.694,1.526A5.567,5.567,0,0,1,754.239,132.595Z" transform="translate(-748.272 -121.907)" fill="#21081c"/>
            <path id="Trazado_111602" data-name="Trazado 111602" d="M764,126.136a5.387,5.387,0,0,1,2.579-2.041,5.2,5.2,0,0,1,3.5-.139,5.657,5.657,0,0,1,2.816,2.033,9.166,9.166,0,0,1,.816,1.437,11.036,11.036,0,0,1,.416,1.584,13.755,13.755,0,0,1-1.175-1.061l-.571-.482a4.86,4.86,0,0,0-.555-.457,7.942,7.942,0,0,0-2.318-1.273,6.335,6.335,0,0,0-2.6-.229,18.139,18.139,0,0,0-2.914.629Z" transform="translate(-751.07 -121.235)" fill="#21081c"/>
            <path id="Trazado_111603" data-name="Trazado 111603" d="M757.009,126.173c-.743-.71-1.4-1.38-2.057-1.984a8.729,8.729,0,0,0-2.024-1.453,3.543,3.543,0,0,0-2.147-.278,7.346,7.346,0,0,0-1.257.327,14.515,14.515,0,0,1-1.363.531,6.236,6.236,0,0,1,.816-1.282,4.28,4.28,0,0,1,1.3-.963,3.9,3.9,0,0,1,3.42,0,5.657,5.657,0,0,1,2.343,2.22,6.2,6.2,0,0,1,.971,2.882Z" transform="translate(-748.16 -120.676)" fill="#21081c"/>
          </g>
        </g>
        <g id="Grupo_60328" data-name="Grupo 60328" transform="translate(39.126 58.117)">
          <path id="Trazado_111604" data-name="Trazado 111604" d="M781.657,178.889c-1.967-2.449-6.253-4.539-11.73-6.212-4.465,4.179-9.975,6.841-16.807,6.31-7.722-.6-16.171-4.432-19.346-11.077-6.636.049-12.065.735-14.693,2.114-9.363,4.9-17.24,22.66-17.24,22.66l82.756,13.3S789.053,188.138,781.657,178.889Z" transform="translate(-701.84 -167.91)" fill="#aed3f2"/>
          <path id="Trazado_111605" data-name="Trazado 111605" d="M705.174,190.35c-2.073,3.665-3.314,6.457-3.314,6.457l82.756,13.3a53.792,53.792,0,0,0,1.3-10.2C759.049,196.3,732.177,192.464,705.174,190.35Z" transform="translate(-701.844 -172.032)" fill="#491b3f" opacity="0.2"/>
        </g>
        <g id="Grupo_60333" data-name="Grupo 60333" transform="translate(24.345 111.706)">
          <g id="Grupo_60330" data-name="Grupo 60330" transform="translate(13.307 99)">
            <g id="Grupo_60329" data-name="Grupo 60329">
              <path id="Trazado_111606" data-name="Trazado 111606" d="M726.177,356.6s10.857,31.542-.522,91.008c0,0-31.452,6.645-5.6-3.265,0,0-14.881-55.883-19.534-76.046S726.177,356.6,726.177,356.6Z" transform="translate(-700.035 -354.84)" fill="#d9a171"/>
              <path id="Trazado_111607" data-name="Trazado 111607" d="M729.6,420.717c4.171-42.031-3.42-64.112-3.42-64.112s-30.309-8.449-25.656,11.722c2.6,11.281,8.408,33.746,13.061,51.345A40,40,0,0,0,729.6,420.717Z" transform="translate(-700.035 -354.841)" fill="#f28b86"/>
            </g>
            <path id="Trazado_111608" data-name="Trazado 111608" d="M718.275,465.9s-7.7,2.449-7.885,4.13,17.64-1.314,17.64-1.314l.188-2.065S715.083,467.614,718.275,465.9Z" transform="translate(-701.937 -375.242)" fill="#6595bf"/>
          </g>
          <g id="Grupo_60332" data-name="Grupo 60332" transform="translate(65.522 96.639)">
            <g id="Grupo_60331" data-name="Grupo 60331">
              <path id="Trazado_111609" data-name="Trazado 111609" d="M764,359.231s.163,33.362,30.521,85.711c0,0,31.884-4.081,4.22-4.9,0,0-4.392-57.663-6.653-78.233S764,359.231,764,359.231Z" transform="translate(-764 -351.948)" fill="#d9a171"/>
              <path id="Trazado_111610" data-name="Trazado 111610" d="M781.958,420.882C764.139,382.589,764,359.235,764,359.235s25.828-17.958,28.089,2.6c1.265,11.51,3.2,34.635,4.653,52.765a40.04,40.04,0,0,1-14.783,6.285Z" transform="translate(-764 -351.952)" fill="#f28b86"/>
            </g>
            <path id="Trazado_111611" data-name="Trazado 111611" d="M809.183,459.707s8.073-.237,8.816,1.3-17.142,4.579-17.142,4.579L800,463.7S812.759,460.246,809.183,459.707Z" transform="translate(-770.613 -371.741)" fill="#6595bf"/>
          </g>
          <path id="Trazado_111612" data-name="Trazado 111612" d="M711.084,233.56S683.012,251.3,683.747,287.5s16.26,104.183,16.26,104.183,17,7.4,31.019-.735l-5.094-89.213,30.962,88.47a57.957,57.957,0,0,0,33.248-7.347S781.277,268.334,739.9,235.111Z" transform="translate(-683.733 -233.56)" fill="#344154"/>
        </g>
        <g id="Grupo_60345" data-name="Grupo 60345" transform="translate(0 77.244)">
          <g id="Grupo_60343" data-name="Grupo 60343">
            <g id="Grupo_60342" data-name="Grupo 60342">
              <rect id="Rectángulo_8537" data-name="Rectángulo 8537" width="135.888" height="92.355" rx="5.45" transform="translate(12.981 0) rotate(8.08)" fill="#6595bf"/>
              <rect id="Rectángulo_8538" data-name="Rectángulo 8538" width="126.085" height="80.895" transform="translate(17.024 6.37) rotate(8.08)" fill="#fff"/>
              <g id="Grupo_60335" data-name="Grupo 60335" transform="translate(17.935 13.239)">
                <g id="Grupo_60334" data-name="Grupo 60334" transform="translate(6.283 27.831)">
                  <rect id="Rectángulo_8539" data-name="Rectángulo 8539" width="5.567" height="6.139" transform="translate(0.863 14.809) rotate(8.08)" fill="#6595bf"/>
                  <rect id="Rectángulo_8540" data-name="Rectángulo 8540" width="5.567" height="18.481" transform="translate(12.433 3.989) rotate(8.08)" fill="#d9a171"/>
                  <rect id="Rectángulo_8541" data-name="Rectángulo 8541" width="5.567" height="11.551" transform="translate(21.296 12.249) rotate(8.08)" fill="#6595bf"/>
                  <rect id="Rectángulo_8542" data-name="Rectángulo 8542" width="5.567" height="23.648" transform="translate(32.833 1.669) rotate(8.08)" fill="#d9a171"/>
                  <rect id="Rectángulo_8543" data-name="Rectángulo 8543" width="5.567" height="17.812" transform="translate(43.425 9.077) rotate(8.08)" fill="#6595bf"/>
                  <rect id="Rectángulo_8544" data-name="Rectángulo 8544" width="5.567" height="28.489" transform="translate(55.492 0) rotate(8.08)" fill="#d9a171"/>
                </g>
                <path id="Trazado_111613" data-name="Trazado 111613" d="M677.431,257.819l7.11-50.071-1.355-.188-7.11,50.063-.2,1.355,1.355.2,73.058,10.375.188-1.355Z" transform="translate(-675.88 -207.56)" fill="#6595bf"/>
                <path id="Trazado_111614" data-name="Trazado 111614" d="M737.5,227.889l-3.9-1.159-3.9-1.192c-.229-.065-.384.188-.278.457l1.224,3.265-8.726,3.184-2.18-2.726-.645-.816-1,.327-12.391,4.13-2.661-1.992-.547-.408-.563.122L688.2,234.223a.351.351,0,0,0-.269.351.343.343,0,0,0,.367.318l2.735-.163,10.661-.661,2.857,2.131.62.473.743-.253,12.146-4.081,2.2,2.751.677.816,1.012-.376,9.755-3.584.416,1.094.816,2.155c.09.237.31.327.449.22l.065-.065,2.139-3.445,2.033-3.265.114-.188a.441.441,0,0,0-.229-.563Z" transform="translate(-678.094 -210.861)" fill="#5e6178"/>
              </g>
              <g id="Grupo_60337" data-name="Grupo 60337" transform="translate(17.027 67.993)">
                <path id="Trazado_111615" data-name="Trazado 111615" d="M678.516,274.672h0a3.265,3.265,0,0,1,2.792,3.714h0a3.265,3.265,0,0,1-3.714,2.792h0a3.265,3.265,0,0,1-2.792-3.714h0a3.265,3.265,0,0,1,3.714-2.792Z" transform="translate(-674.767 -274.637)" fill="#d9a171"/>
                <g id="Grupo_60336" data-name="Grupo 60336" transform="translate(9.039 2.13)">
                  <path id="Trazado_111616" data-name="Trazado 111616" d="M752.777,287.412,687.2,278.106c-.482-.073-.816-.318-.816-.547h0c0-.229.449-.367.939-.294l65.581,9.314c.482.065.816.31.816.539h0C753.683,287.355,753.267,287.486,752.777,287.412Z" transform="translate(-685.939 -277.246)" fill="#ccc4ff"/>
                  <path id="Trazado_111617" data-name="Trazado 111617" d="M703.929,284.7l-17.273-2.449c-.482-.065-.816-.31-.816-.539h0c0-.237.449-.367.939-.294l17.273,2.449c.482.073.816.318.816.547h0C704.794,284.632,704.378,284.762,703.929,284.7Z" transform="translate(-685.84 -278.008)" fill="#ccc4ff"/>
                  <path id="Trazado_111618" data-name="Trazado 111618" d="M748.452,291.02,716.616,286.5c-.49-.065-.816-.31-.816-.539h0c0-.237.457-.367.939-.294l31.835,4.522c.482.065.816.31.816.539h0C749.358,290.963,748.933,291.094,748.452,291.02Z" transform="translate(-691.344 -278.789)" fill="#ccc4ff"/>
                </g>
              </g>
              <g id="Grupo_60339" data-name="Grupo 60339" transform="translate(15.696 77.398)">
                <path id="Trazado_111619" data-name="Trazado 111619" d="M676.878,286.192h0a3.265,3.265,0,0,1,2.792,3.714h0a3.265,3.265,0,0,1-3.714,2.792h0a3.265,3.265,0,0,1-2.783-3.714h0a3.265,3.265,0,0,1,3.706-2.792Z" transform="translate(-673.137 -286.158)" fill="#6595bf"/>
                <g id="Grupo_60338" data-name="Grupo 60338" transform="translate(8.998 2.128)">
                  <path id="Trazado_111620" data-name="Trazado 111620" d="M751.145,298.932l-65.589-9.314c-.482-.065-.816-.31-.816-.539h0c0-.229.457-.367.939-.294L751.26,298.1c.49.065.816.31.816.539h0C752.043,298.875,751.627,299.006,751.145,298.932Z" transform="translate(-684.267 -288.766)" fill="#ccc4ff"/>
                  <path id="Trazado_111621" data-name="Trazado 111621" d="M702.249,296.257l-17.273-2.449c-.49-.065-.816-.31-.816-.539h0c0-.237.457-.367.939-.294l17.273,2.449c.49.073.816.31.816.547h0C703.155,296.159,702.731,296.257,702.249,296.257Z" transform="translate(-684.16 -289.535)" fill="#ccc4ff"/>
                  <path id="Trazado_111622" data-name="Trazado 111622" d="M746.812,302.54l-31.835-4.522c-.482-.065-.816-.31-.816-.539h0c0-.237.449-.367.939-.294l31.835,4.522c.482.065.816.31.816.539h0C747.718,302.483,747.3,302.614,746.812,302.54Z" transform="translate(-689.671 -290.309)" fill="#ccc4ff"/>
                </g>
              </g>
              <g id="Grupo_60340" data-name="Grupo 60340" transform="translate(103.709 34.681)">
                <path id="Trazado_111623" data-name="Trazado 111623" d="M792.8,262.484a12.9,12.9,0,0,1-7.779-4.13l9.575-7.583,9.526,7.673a12.914,12.914,0,0,1-11.322,4.041Z" transform="translate(-781.703 -236.94)" fill="#5e6178"/>
                <path id="Trazado_111624" data-name="Trazado 111624" d="M797.84,246.06l1.69-11.91a12.865,12.865,0,0,1,10.277,13.608Z" transform="translate(-784.058 -233.887)" fill="#344154"/>
                <path id="Trazado_111625" data-name="Trazado 111625" d="M802.9,251.92l9.942,1.412a12.709,12.709,0,0,1-2.13,4.9Z" transform="translate(-784.988 -237.151)" fill="#d9a171"/>
                <path id="Trazado_111626" data-name="Trazado 111626" d="M783.3,254.025a12.669,12.669,0,0,1-2.212-9.175,12.873,12.873,0,0,1,13.779-10.979l-1.739,12.342Z" transform="translate(-780.957 -233.828)" fill="#6595bf"/>
              </g>
              <g id="Grupo_60341" data-name="Grupo 60341" transform="translate(99.755 68.194)">
                <path id="Trazado_111627" data-name="Trazado 111627" d="M788.034,301.7l-.441,3.069a12.906,12.906,0,0,1-7.273-3.943l2.122-2.277A9.8,9.8,0,0,0,788.034,301.7Z" transform="translate(-776.886 -279.231)" fill="#ccc4ff"/>
                <path id="Trazado_111628" data-name="Trazado 111628" d="M788.034,301.7l-.441,3.069a12.906,12.906,0,0,1-7.273-3.943l2.122-2.277A9.8,9.8,0,0,0,788.034,301.7Z" transform="translate(-776.886 -279.231)" fill="#6595bf"/>
                <path id="Trazado_111629" data-name="Trazado 111629" d="M781.18,296.014l-2.147,2.3a12.783,12.783,0,0,1-2.792-9.934.606.606,0,0,1,.049-.3l3.086.441a1.835,1.835,0,0,0-.049.294,9.738,9.738,0,0,0,1.853,7.2Z" transform="translate(-776.113 -277.308)" fill="#ccc4ff"/>
                <path id="Trazado_111630" data-name="Trazado 111630" d="M781.18,296.014l-2.147,2.3a12.783,12.783,0,0,1-2.792-9.934.606.606,0,0,1,.049-.3l3.086.441a1.835,1.835,0,0,0-.049.294,9.738,9.738,0,0,0,1.853,7.2Z" transform="translate(-776.113 -277.308)" fill="#5e6178"/>
                <path id="Trazado_111631" data-name="Trazado 111631" d="M787.244,278.253a9.8,9.8,0,0,0-7.632,7.143l-3.1-.441a12.685,12.685,0,0,1,3.665-6.424,12.849,12.849,0,0,1,6.53-3.33Z" transform="translate(-776.186 -274.942)" fill="#ccc4ff"/>
                <path id="Trazado_111632" data-name="Trazado 111632" d="M787.244,278.253a9.8,9.8,0,0,0-7.632,7.143l-3.1-.441a12.685,12.685,0,0,1,3.665-6.424,12.849,12.849,0,0,1,6.53-3.33Z" transform="translate(-776.186 -274.942)" fill="#6595bf"/>
                <path id="Trazado_111633" data-name="Trazado 111633" d="M806.27,290.482a12.62,12.62,0,0,1-1.037,3.551l-2.686-1.633a9.472,9.472,0,0,0,.637-2.343,9.747,9.747,0,0,0-2.645-8.163l2.277-2.114a12.987,12.987,0,0,1,2.873,4.677A12.612,12.612,0,0,1,806.27,290.482Z" transform="translate(-780.601 -275.783)" fill="#ccc4ff"/>
                <path id="Trazado_111634" data-name="Trazado 111634" d="M806.27,290.482a12.62,12.62,0,0,1-1.037,3.551l-2.686-1.633a9.472,9.472,0,0,0,.637-2.343,9.747,9.747,0,0,0-2.645-8.163l2.277-2.114a12.987,12.987,0,0,1,2.873,4.677A12.612,12.612,0,0,1,806.27,290.482Z" transform="translate(-780.601 -275.783)" fill="#d9a171"/>
                <path id="Trazado_111635" data-name="Trazado 111635" d="M802.979,297.731a12.9,12.9,0,0,1-12.8,6.694l.433-3.069a9.8,9.8,0,0,0,9.706-5.265Z" transform="translate(-778.698 -278.779)" fill="#ccc4ff"/>
                <path id="Trazado_111636" data-name="Trazado 111636" d="M802.979,297.731a12.9,12.9,0,0,1-12.8,6.694l.433-3.069a9.8,9.8,0,0,0,9.706-5.265Z" transform="translate(-778.698 -278.779)" fill="#344154"/>
                <path id="Trazado_111637" data-name="Trazado 111637" d="M800.321,278.358l-2.286,2.122a9.8,9.8,0,0,0-5.11-2.359q-.327-.049-.661-.073a10.065,10.065,0,0,0-1.788,0l-.547-3.061a12.981,12.981,0,0,1,3.265,0h.2A12.881,12.881,0,0,1,800.321,278.358Z" transform="translate(-778.652 -274.884)" fill="#ccc4ff"/>
                <path id="Trazado_111638" data-name="Trazado 111638" d="M800.321,278.358l-2.286,2.122a9.8,9.8,0,0,0-5.11-2.359q-.327-.049-.661-.073a10.065,10.065,0,0,0-1.788,0l-.547-3.061a12.981,12.981,0,0,1,3.265,0h.2A12.881,12.881,0,0,1,800.321,278.358Z" transform="translate(-778.652 -274.884)" fill="#344154"/>
              </g>
            </g>
            <rect id="Rectángulo_8545" data-name="Rectángulo 8545" width="14.285" height="28.08" transform="matrix(0.148, -0.989, 0.989, 0.148, 9.568, 74.269)" fill="#fff"/>
            <rect id="Rectángulo_8546" data-name="Rectángulo 8546" width="11.33" height="24.138" transform="matrix(0.148, -0.989, 0.989, 0.148, 85.006, 66.101)" fill="#fff"/>
          </g>
          <g id="Grupo_60344" data-name="Grupo 60344" transform="translate(3.734 28.102)">
            <path id="Trazado_111639" data-name="Trazado 111639" d="M826.254,271.593s1.91-1.322-.106-2.212c0,0-21.264-6.106-2.645,1.363,0,0-23.591-3.265-.114,2.718,0,0-21.656-4.081-.873,2.261,0,0-17.82-1.339.106,2.212l-.294,3.967a3.845,3.845,0,0,0,2.277-1.633,4.345,4.345,0,0,0,1.339-4.988,2.449,2.449,0,0,0,.31-3.69Z" transform="translate(-686.866 -233.349)" fill="#d9a171"/>
            <path id="Trazado_111640" data-name="Trazado 111640" d="M659.721,228.219s-1.584-1.706.571-2.139c0,0,22.04-1.445,2.3,1.894,0,0,23.746,1.812-.473,2.677,0,0,22.04.588.375,2.4,0,0,17.7,2.449-.58,2.139l-.547,3.935a3.894,3.894,0,0,1-1.894-2.049,4.347,4.347,0,0,1-.245-5.159,2.449,2.449,0,0,1,.49-3.7Z" transform="translate(-658.483 -225.769)" fill="#d9a171"/>
          </g>
        </g>
      </g>
    </g>
    <g id="Grupo_60369" data-name="Grupo 60369" transform="translate(168.14 46.615)">
      <ellipse id="Elipse_4335" data-name="Elipse 4335" cx="67.899" cy="6.587" rx="67.899" ry="6.587" transform="translate(0 344.21)" fill="#344154" opacity="0.1"/>
      <g id="Grupo_60368" data-name="Grupo 60368" transform="translate(12.375)">
        <g id="Grupo_60351" data-name="Grupo 60351" transform="translate(0 164.545)">
          <g id="Grupo_60348" data-name="Grupo 60348" transform="translate(0 138.109)">
            <path id="Trazado_111641" data-name="Trazado 111641" d="M212.654,435.1s2.449,28.913,1.633,30.284-60.993,9.379-11.428-4.5l-2.824-24.815Z" transform="translate(-183.3 -420.635)" fill="#1a212a"/>
            <path id="Trazado_111642" data-name="Trazado 111642" d="M269.82,417.38s3.755,43.378,4.563,44.749,60.993,9.379,11.428-4.5l-3.355-39.28Z" transform="translate(-199.194 -417.38)" fill="#1a212a"/>
          </g>
          <g id="Grupo_60350" data-name="Grupo 60350" transform="translate(9.933)">
            <path id="Trazado_111643" data-name="Trazado 111643" d="M195.764,248.729s-2.4,102.477,6.481,174.189l16.391,1.347,4.9-141.937,5.836.539,28.146,140.712,17.305-1.314L254.088,248.19Z" transform="translate(-195.468 -248.19)" fill="#344154"/>
            <g id="Grupo_60349" data-name="Grupo 60349" transform="translate(0.01 2.155)">
              <path id="Trazado_111644" data-name="Trazado 111644" d="M256.031,256.224h11.085l-1.151-4.734-10.106-.09Q255.974,253.816,256.031,256.224Z" transform="translate(-206.572 -250.935)" fill="#1a212a"/>
              <path id="Trazado_111645" data-name="Trazado 111645" d="M243.972,251.294,209.9,251c0,1.722,0,3.453.057,5.175h34.186Q244.07,253.714,243.972,251.294Z" transform="translate(-198.129 -250.861)" fill="#1a212a"/>
              <path id="Trazado_111646" data-name="Trazado 111646" d="M203.814,250.912l-8.334-.082.286,5.29h8.1C203.839,254.381,203.823,252.65,203.814,250.912Z" transform="translate(-195.48 -250.83)" fill="#1a212a"/>
              <path id="Trazado_111647" data-name="Trazado 111647" d="M237.121,251.385l-11.191-.555-.58,6.13h12.057Zm-9.469,4.481.367-3.943,7.192.359.188,3.584Z" transform="translate(-200.967 -250.83)" fill="#d9a171"/>
            </g>
          </g>
        </g>
        <g id="Grupo_60358" data-name="Grupo 60358" transform="translate(6.138)">
          <g id="Grupo_60356" data-name="Grupo 60356">
            <g id="Grupo_60353" data-name="Grupo 60353" transform="translate(11.441 9.571)">
              <g id="Grupo_60352" data-name="Grupo 60352" transform="translate(7.147 47.753)">
                <path id="Trazado_111648" data-name="Trazado 111648" d="M214.178,133.06,213.59,117.6l17.363-.759.955,16.587L226.659,148.6Z" transform="translate(-213.59 -116.84)" fill="#d9a171"/>
                <path id="Trazado_111649" data-name="Trazado 111649" d="M230.136,124.089l1.437.31-.62-7.559-17.363.759.2,3.192C219.2,122.064,224.683,122.995,230.136,124.089Z" transform="translate(-213.59 -116.84)" fill="#f28b86"/>
              </g>
              <path id="Trazado_111650" data-name="Trazado 111650" d="M206.4,86.4s3.1,20.228,5.461,21.224c3.641,1.518,22.105,8.587,27.566,2.016,2.449-2.939,3.641-32.056-2.335-42.912S212.6,56.12,207.435,64.209,206.4,86.4,206.4,86.4Z" transform="translate(-204.835 -58.34)" fill="#ffbf9d"/>
            </g>
            <g id="Grupo_60355" data-name="Grupo 60355">
              <path id="Trazado_111651" data-name="Trazado 111651" d="M243.356,50.423s-1.82,4.547-5.461,4.294-28.35-18.432-34.856.506c0,0-9.257-.922-11.428,8.832C187,84.634,203.856,98.894,207.938,97.2l-4.947-17.673,2.93,12.048,3.9-.882-3.388-12.244c1.551-2.286,3.265-4.441,3.126-5.053a63.1,63.1,0,0,1,0-7.069s29.125,6.53,33.55-3.028l-4.424,1.771S246.475,61.027,243.356,50.423Z" transform="translate(-190.82 -46.615)" fill="#344154"/>
              <g id="Grupo_60354" data-name="Grupo 60354" transform="translate(6.502 33.753)">
                <path id="Trazado_111652" data-name="Trazado 111652" d="M208.666,100.181s-3.641-14.391-8.326-11.934,2.147,17.044,8.163,13.257Z" transform="translate(-198.785 -87.964)" fill="#ffbf9d"/>
                <path id="Trazado_111653" data-name="Trazado 111653" d="M207.383,101.082a6.939,6.939,0,0,1-1.224-.253,4.179,4.179,0,0,1-1.184-.547c-.1-.073-.188-.155-.278-.237a2.155,2.155,0,0,1-.245-.343,1.167,1.167,0,0,1-.09-.473,1.078,1.078,0,0,1,.139-.457,2.841,2.841,0,0,1,1.1-.971l-.269.514c-.188-.939-.416-1.886-.669-2.808a15.892,15.892,0,0,0-.931-2.653,3.265,3.265,0,0,0-.718-1.012.816.816,0,0,0-.433-.188,1.232,1.232,0,0,0-.531,0c-.318.09-.531.5-.629.939a6.008,6.008,0,0,0-.09,1.445A4.082,4.082,0,0,1,201,92.6a2.236,2.236,0,0,1,.122-.816,1.388,1.388,0,0,1,.588-.718,1.819,1.819,0,0,1,1.837.024,3.7,3.7,0,0,1,1.118,1.265,11.427,11.427,0,0,1,1.1,2.865,19.109,19.109,0,0,1,.539,2.963l.041.359-.31.147a2.3,2.3,0,0,0-.816.514c-.09.09-.073.131-.09.229s.049.114.09.18l.155.2A8.317,8.317,0,0,0,207.383,101.082Z" transform="translate(-199.191 -88.49)" fill="#d67676"/>
              </g>
              <path id="Trazado_111654" data-name="Trazado 111654" d="M207,87.214s1.722,23.526,4.326,25.444c6.759,4.988,18.114,7.877,26.766,6.53s4.081-19.42,4.081-19.42-1.078,8.163-2.449,7.347,1.633-6.294-2.163-6.294-15.134-2.359-15.4,1.837-2.971,4.988-5.4,2.882-7.306-22.04-7.306-22.04Z" transform="translate(-193.792 -53.391)" fill="#344154"/>
            </g>
          </g>
          <g id="Grupo_60357" data-name="Grupo 60357" transform="translate(24.963 26.878)">
            <path id="Trazado_111655" data-name="Trazado 111655" d="M234.77,101.192c2.131-.514,4.277-.914,6.424-1.306l-.424.7c-.531-1.1-1.02-2.212-1.486-3.339l-.669-1.69-.62-1.714a42.269,42.269,0,0,1-1.869-7.085,42.688,42.688,0,0,1,3.265,6.53l.669,1.69.612,1.771c.392,1.151.751,2.31,1.078,3.486l.18.661h-.6C239.145,101.053,236.966,101.176,234.77,101.192Z" transform="translate(-223.856 -80.868)" fill="#d67676"/>
            <path id="Trazado_111656" data-name="Trazado 111656" d="M238.644,84.177a4.171,4.171,0,0,1,3.453-4.6,4.645,4.645,0,0,1,3.094.686,6.718,6.718,0,0,1,1.086.971,6.05,6.05,0,0,1,.767,1.241,9.093,9.093,0,0,1-1.38-.245c-.433-.065-.816-.155-1.208-.229a7.094,7.094,0,0,0-2.008-.065,4.4,4.4,0,0,0-1.78.694,20.659,20.659,0,0,0-2.024,1.543Z" transform="translate(-224.563 -79.542)" fill="#21081c"/>
            <path id="Trazado_111657" data-name="Trazado 111657" d="M231.971,84.275a28.919,28.919,0,0,0-2.955-.906,7.461,7.461,0,0,0-2.62-.18h-.318l-.294.09a2.759,2.759,0,0,0-.629.18c-.2.082-.4.163-.612.229a3.4,3.4,0,0,0-.6.343c-.2.114-.212.1-.31.163s-.2.147-.3.212l-.629.416c-.408.3-.816.645-1.306.947a8.024,8.024,0,0,1,.514-1.633,6.88,6.88,0,0,1,.988-1.412,5.183,5.183,0,0,1,3.216-1.633,5.649,5.649,0,0,1,3.51.743,5.787,5.787,0,0,1,2.343,2.441Z" transform="translate(-221.4 -79.82)" fill="#21081c"/>
            <path id="Trazado_111658" data-name="Trazado 111658" d="M224.8,89a7.208,7.208,0,0,0,1.265,2.384,3.077,3.077,0,0,0,2.065,1.086,2.294,2.294,0,0,0,1.975-1A6.383,6.383,0,0,0,231.039,89a4.155,4.155,0,0,1-.245,2.922l-.188.359a3.1,3.1,0,0,1-.269.3,2.4,2.4,0,0,1-.637.539,2.841,2.841,0,0,1-.775.327,4.081,4.081,0,0,1-.816.082,3.453,3.453,0,0,1-2.661-1.633A4.457,4.457,0,0,1,224.8,89Z" transform="translate(-222.019 -81.279)" fill="#21081c"/>
            <path id="Trazado_111659" data-name="Trazado 111659" d="M240.552,87.993a7.886,7.886,0,0,0,1.118,2.343,2.669,2.669,0,0,0,1.869,1.151,2.024,2.024,0,0,0,1.771-1.078,7.633,7.633,0,0,0,.816-2.449,4.522,4.522,0,0,1-.131,2.8,2.5,2.5,0,0,1-.384.669,2.31,2.31,0,0,1-.563.563,2.449,2.449,0,0,1-1.551.473,3.1,3.1,0,0,1-2.449-1.714A4.669,4.669,0,0,1,240.552,87.993Z" transform="translate(-224.911 -81.088)" fill="#21081c"/>
            <path id="Trazado_111660" data-name="Trazado 111660" d="M227,108.33l14.75.424S238.534,115.154,227,108.33Z" transform="translate(-222.429 -84.831)" fill="#fff"/>
          </g>
        </g>
        <g id="Grupo_60367" data-name="Grupo 60367" transform="translate(0.66 66.312)">
          <g id="Grupo_60359" data-name="Grupo 60359" transform="translate(61.37 33.811)">
            <path id="Trazado_111661" data-name="Trazado 111661" d="M311.149,177.449s-25.705,34.415-36.79,33.125c-8.114-.947-15.069-35.7-15.069-35.7l17.289-5.6,5.33,19.8,23.942-18.073Z" transform="translate(-259.29 -169.27)" fill="#d9a171"/>
            <path id="Trazado_111662" data-name="Trazado 111662" d="M294.468,197.081a233.146,233.146,0,0,0,16.685-19.632l-5.314-6.457-23.926,18.073-5.314-19.8-17.289,5.6s1.747,8.71,4.506,17.534Q279.13,194.8,294.468,197.081Z" transform="translate(-259.294 -169.27)" fill="#f28b86"/>
          </g>
          <g id="Grupo_60362" data-name="Grupo 60362" transform="translate(2.27)">
            <g id="Grupo_60360" data-name="Grupo 60360" transform="translate(0 5.182)">
              <path id="Trazado_111663" data-name="Trazado 111663" d="M267.39,140.48s7.8,2.71,10.751,17.909l-15.95,6.024Z" transform="translate(-200.722 -135.352)" fill="#d9a171"/>
              <path id="Trazado_111664" data-name="Trazado 111664" d="M253.965,139.457s-13.061-6.53-24.154-5.037l-8.081,15.052-15.346-14.9c-11.844.253-19.591,10.13-19.493,10.906.286,1.943,7.3,82.307,7.3,82.307l58.324-.539Z" transform="translate(-186.889 -134.198)" fill="#d9a171"/>
              <path id="Trazado_111665" data-name="Trazado 111665" d="M235.119,188.918c-17.583-10.7-33.558-22.66-47.859-37.068,1.4,15.093,7,79.18,7,79.18l58.324-.539.514-30.929Q244.033,194.363,235.119,188.918Z" transform="translate(-186.957 -137.441)" fill="#a37955"/>
            </g>
            <g id="Grupo_60361" data-name="Grupo 60361" transform="translate(14.474)">
              <path id="Trazado_111666" data-name="Trazado 111666" d="M224.942,143.667l3.151,6.963.286-7.241,5.2-2.89-5.485,10.653L221.53,145.3Z" transform="translate(-207.726 -130.174)" fill="#f2d1a0"/>
              <path id="Trazado_111667" data-name="Trazado 111667" d="M204.62,132.429l12.62,14.2,4.6-5.29L210.024,127.85Z" transform="translate(-204.62 -127.85)" fill="#ffeacc"/>
              <path id="Trazado_111668" data-name="Trazado 111668" d="M229.92,141.283l4.6,3.9,10.326-13.093-6.024-3.061Z" transform="translate(-209.268 -128.067)" fill="#ffeacc"/>
            </g>
          </g>
          <g id="Grupo_60366" data-name="Grupo 60366" transform="translate(0 6.424)">
            <g id="Grupo_60364" data-name="Grupo 60364">
              <g id="Grupo_60363" data-name="Grupo 60363" transform="translate(1.675 4.69)">
                <path id="Trazado_111669" data-name="Trazado 111669" d="M186.16,155.7s20.987,42.733,32.211,47.345,37.86-34.831,37.86-34.831l-3.543-7.934-28.962,21.06s-14.775-32.962-23.934-38.766S186.16,155.7,186.16,155.7Z" transform="translate(-186.16 -141.465)" fill="#d9a171"/>
                <path id="Trazado_111670" data-name="Trazado 111670" d="M260.743,184.174c5.069-6.457,8.628-11.73,8.628-11.73l-3.543-7.934L257.87,170.3Q259.266,177.244,260.743,184.174Z" transform="translate(-199.334 -145.699)" fill="#f28b86"/>
                <path id="Trazado_111671" data-name="Trazado 111671" d="M213.971,161.967c-4.6-8.31-10-16.726-14.212-19.4-9.167-5.8-13.6,13.126-13.6,13.126s4.514,9.183,10.465,19.493C202,170.187,207.62,165.485,213.971,161.967Z" transform="translate(-186.16 -141.466)" fill="#f28b86"/>
              </g>
              <path id="Trazado_111672" data-name="Trazado 111672" d="M202.035,135.72s-13.3.6-17.142,11.9,7.681,26.554,7.681,26.554l22.162-17.705Z" transform="translate(-184.108 -135.72)" fill="#d9a171"/>
            </g>
            <g id="Grupo_60365" data-name="Grupo 60365" transform="translate(63.884 16.174)">
              <path id="Trazado_111673" data-name="Trazado 111673" d="M311.111,189.554a2.139,2.139,0,0,1-2.359,1.861L264.3,186.933a2.106,2.106,0,0,1-1.918-2.294l2.9-27.232a2.147,2.147,0,0,1,2.367-1.861L312.1,160a2.106,2.106,0,0,1,1.918,2.294Z" transform="translate(-262.369 -155.534)" fill="#344154"/>
              <path id="Trazado_111674" data-name="Trazado 111674" d="M325.79,168.858s2.2-1.477-.122-2.449c0,0-24.489-6.824-3.045,1.526,0,0-27.174-3.665-.131,3.037,0,0-24.954-4.6-1.012,2.531,0,0-20.53-1.494.131,2.449l-.343,4.432a4.433,4.433,0,0,0,2.62-1.8c1.371-1.265,2.563-3.167,1.551-5.575a2.686,2.686,0,0,0,.351-4.155Z" transform="translate(-271.212 -157.049)" fill="#d9a171"/>
            </g>
          </g>
        </g>
      </g>
    </g>
  </g>
</svg>
