<svg id="Capa_2" data-name="Capa 2" xmlns="http://www.w3.org/2000/svg" width="401.922" height="326.164" viewBox="0 0 401.922 326.164">
  <ellipse id="Elipse_4351" data-name="Elipse 4351" cx="163.082" cy="163.082" rx="163.082" ry="163.082" transform="translate(33.624 0)" fill="#f2e9e4"/>
  <g id="freepik--background-complete--inject-259" transform="translate(133.018 30.782)">
    <path id="Trazado_112706" data-name="Trazado 112706" d="M289.781,113.315c-.221.39.151,35.245.151,35.245h2.834l.956-35.28Z" transform="translate(-190.724 -102.051)" fill="#e0e0e0"/>
    <path id="Trazado_112707" data-name="Trazado 112707" d="M292.583,147.78l-3.268.177.027,4.932-3.7,1.939.018,3.241,2.426,3.356.1-4.676,3.029-1.576,2.577,1.346-.151,5.039,2.674-3.277-.151-3-3.436-2.55Z" transform="translate(-190.258 -106)" fill="#e0e0e0"/>
    <rect id="Rectángulo_8730" data-name="Rectángulo 8730" width="59.562" height="16.383" rx="8.191" transform="translate(38.642 45.854) rotate(-50.34)" fill="#e0e0e0"/>
    <rect id="Rectángulo_8731" data-name="Rectángulo 8731" width="34.802" height="10.281" rx="5.141" transform="translate(71.003 6.296)" fill="#e0e0e0"/>
    <rect id="Rectángulo_8732" data-name="Rectángulo 8732" width="23.015" height="72.429" rx="11.508" transform="translate(40.239 35.369)" fill="#e0e0e0"/>
    <path id="Trazado_112708" data-name="Trazado 112708" d="M241.533,209.177a5.676,5.676,0,1,1-5.685-5.667h0A5.676,5.676,0,0,1,241.533,209.177Z" transform="translate(-183.91 -112.379)" fill="#e0e0e0"/>
    <path id="Trazado_112709" data-name="Trazado 112709" d="M241.3,151.026a5.676,5.676,0,1,1-5.676-5.676h0a5.676,5.676,0,0,1,5.676,5.676Z" transform="translate(-183.884 -105.722)" fill="#e0e0e0"/>
    <ellipse id="Elipse_4352" data-name="Elipse 4352" cx="3.445" cy="3.445" rx="3.445" ry="3.445" transform="translate(73.412 7.996)" fill="#e0e0e0"/>
    <ellipse id="Elipse_4353" data-name="Elipse 4353" cx="2.338" cy="2.338" rx="2.338" ry="2.338" transform="translate(98.862 9.103)" fill="#e0e0e0"/>
    <path id="Trazado_112710" data-name="Trazado 112710" d="M231.84,210.8a5.818,5.818,0,1,0,5.818-5.818A5.818,5.818,0,0,0,231.84,210.8Z" transform="translate(-184.1 -112.547)" fill="#e0e0e0"/>
    <ellipse id="Elipse_4354" data-name="Elipse 4354" cx="5.818" cy="5.818" rx="5.818" ry="5.818" transform="translate(0 91.512)" fill="#e0e0e0"/>
    <path id="Trazado_112711" data-name="Trazado 112711" d="M291.66,210.8a5.818,5.818,0,1,0,5.818-5.818A5.818,5.818,0,0,0,291.66,210.8Z" transform="translate(-190.947 -112.547)" fill="#e0e0e0"/>
    <path id="Trazado_112712" data-name="Trazado 112712" d="M351.48,210.8a5.818,5.818,0,1,0,5.818-5.818A5.818,5.818,0,0,0,351.48,210.8Z" transform="translate(-197.794 -112.547)" fill="#e0e0e0"/>
    <path id="Trazado_112713" data-name="Trazado 112713" d="M411.3,210.8a5.818,5.818,0,1,0,5.818-5.818A5.818,5.818,0,0,0,411.3,210.8Z" transform="translate(-204.641 -112.547)" fill="#e0e0e0"/>
    <rect id="Rectángulo_8733" data-name="Rectángulo 8733" width="66.407" height="55.293" transform="translate(24.459 146.062)" fill="#e0e0e0"/>
  </g>
  <g id="freepik--Floor--inject-259" transform="translate(13.354 322.294)">
    <path id="Trazado_112714" data-name="Trazado 112714" d="M351.82,430.02c0,.133,88.9.23-52.654.23s-256.365-.1-256.365-.23,114.758-.23,256.365-.23S351.82,429.9,351.82,430.02Z" transform="translate(-42.8 -429.79)" fill="#344154"/>
  </g>
  <g id="freepik--character-2--inject-259" transform="translate(257.95 111.658)">
    <path id="Trazado_112715" data-name="Trazado 112715" d="M390.766,425.712l.089-5.933-11.122-.239-.213,8.687.682.062c3.073.23,15.6.974,17.667.4C400.171,428.041,390.766,425.712,390.766,425.712Z" transform="translate(-325.936 -217.981)" fill="#d9a171"/>
    <g id="Grupo_60417" data-name="Grupo 60417" transform="translate(53.593 206.959)" opacity="0.4">
      <path id="Trazado_112716" data-name="Trazado 112716" d="M383.55,428.925a3.879,3.879,0,0,0-3.95-3.285l-.071,3.108Z" transform="translate(-379.53 -425.638)"/>
    </g>
    <g id="Grupo_60418" data-name="Grupo 60418" transform="translate(53.584 209.051)" opacity="0.4">
      <path id="Trazado_112717" data-name="Trazado 112717" d="M395.362,428s3.285,1.027,2.869,1.559-13.124.266-18.712-.345v-.248l14.806.443S394.716,428,395.362,428Z" transform="translate(-379.52 -428)"/>
    </g>
    <path id="Trazado_112718" data-name="Trazado 112718" d="M379.35,429.06h.186l.549.044,2.019.124c1.709.106,4.065.2,6.668.266s4.968.062,6.677,0l2.028-.044h-2.028c-1.709,0-4.065,0-6.668-.071s-4.968-.151-6.668-.221l-2.028-.089h-.735Z" transform="translate(-325.916 -219.071)" fill="#344154"/>
    <path id="Trazado_112719" data-name="Trazado 112719" d="M396.26,429.548a4.092,4.092,0,0,1,.39-.956,5.237,5.237,0,0,1,.708-.762,1.771,1.771,0,0,0-1.1,1.718Z" transform="translate(-327.852 -218.93)" fill="#344154"/>
    <path id="Trazado_112720" data-name="Trazado 112720" d="M392.59,427.692a2.24,2.24,0,0,0,.363-.425,1.275,1.275,0,0,0,.248-.487,2.356,2.356,0,0,0-.363.416,1.178,1.178,0,0,0-.248.5Z" transform="translate(-327.432 -218.81)" fill="#344154"/>
    <path id="Trazado_112721" data-name="Trazado 112721" d="M391.59,427.175a1.821,1.821,0,0,0,.363-.221c.195-.168.336-.328.31-.354s-.195.089-.39.257S391.563,427.149,391.59,427.175Z" transform="translate(-327.317 -218.789)" fill="#344154"/>
    <path id="Trazado_112722" data-name="Trazado 112722" d="M391,426.042a1.293,1.293,0,0,0,.576.089,1.311,1.311,0,0,0,.585-.053,1.284,1.284,0,0,0-.576-.08,1.186,1.186,0,0,0-.584.044Z" transform="translate(-327.25 -218.718)" fill="#344154"/>
    <path id="Trazado_112723" data-name="Trazado 112723" d="M390.77,425.21a1.585,1.585,0,0,0,1.311.124,4.005,4.005,0,0,0-.655-.053,3.231,3.231,0,0,0-.655-.071Z" transform="translate(-327.223 -218.63)" fill="#344154"/>
    <path id="Trazado_112724" data-name="Trazado 112724" d="M393,426.594a1.957,1.957,0,0,0,.717,0,3.224,3.224,0,0,0,.762-.151,2.075,2.075,0,0,0,.443-.168.345.345,0,0,0,.177-.221.266.266,0,0,0-.1-.283,1.3,1.3,0,0,0-1.629.345,1.24,1.24,0,0,0-.248.478v.186a1.77,1.77,0,0,1,.337-.6,1.266,1.266,0,0,1,.62-.381,1.107,1.107,0,0,1,.886.08c.106.08.062.213-.062.292a3.247,3.247,0,0,1-.407.159,4.338,4.338,0,0,1-.744.177C393.31,426.576,393,426.576,393,426.594Z" transform="translate(-327.479 -218.677)" fill="#344154"/>
    <path id="Trazado_112725" data-name="Trazado 112725" d="M393.133,426.589a.744.744,0,0,0,.089-.5,1.151,1.151,0,0,0-.177-.531.708.708,0,0,0-.593-.372.283.283,0,0,0-.221.328.69.69,0,0,0,.115.319,1.976,1.976,0,0,0,.328.443c.213.221.39.31.4.292s-.142-.133-.328-.363a2.073,2.073,0,0,1-.292-.434c-.1-.151-.159-.425,0-.452s.354.168.46.31a1.293,1.293,0,0,1,.195.469,4.493,4.493,0,0,1,.027.487Z" transform="translate(-327.39 -218.628)" fill="#344154"/>
    <path id="Trazado_112726" data-name="Trazado 112726" d="M379.68,425.621s.319,0,.815.044a3.639,3.639,0,0,1,1.771.779,3.7,3.7,0,0,1,1.089,1.6,6.483,6.483,0,0,1,.186.8.47.47,0,0,0,0-.221,3.345,3.345,0,0,0-3.046-3.055,3.622,3.622,0,0,0-.62,0C379.751,425.595,379.671,425.613,379.68,425.621Z" transform="translate(-325.954 -218.669)" fill="#344154"/>
    <path id="Trazado_112727" data-name="Trazado 112727" d="M381.067,420.43a17.988,17.988,0,0,0-.142,2.285,19.677,19.677,0,0,0,0,2.285,17.993,17.993,0,0,0,.151-2.285,19.676,19.676,0,0,0-.009-2.285Z" transform="translate(-326.093 -218.083)" fill="#344154"/>
    <path id="Trazado_112728" data-name="Trazado 112728" d="M385.68,428.159a9.113,9.113,0,0,0,3.25.1H387.3C386.406,428.256,385.68,428.115,385.68,428.159Z" transform="translate(-326.641 -218.967)" fill="#344154"/>
    <path id="Trazado_112729" data-name="Trazado 112729" d="M383.22,428.1s.053.159.124.328.106.31.151.31.053-.177,0-.363S383.238,428.073,383.22,428.1Z" transform="translate(-326.359 -218.96)" fill="#344154"/>
    <path id="Trazado_112730" data-name="Trazado 112730" d="M382.31,426.929a.7.7,0,0,0,.159.257c.115.115.221.195.248.168s0-.142-.151-.257S382.345,426.9,382.31,426.929Z" transform="translate(-326.255 -218.826)" fill="#344154"/>
    <path id="Trazado_112731" data-name="Trazado 112731" d="M381,426.362l.319.1c.168.053.275.151.3.133s-.053-.186-.257-.257S381,426.327,381,426.362Z" transform="translate(-326.105 -218.755)" fill="#344154"/>
    <path id="Trazado_112732" data-name="Trazado 112732" d="M380.06,426.1a.274.274,0,0,0,.142.133.292.292,0,0,0,.186,0,.239.239,0,0,0-.133-.133C380.166,426.061,380.078,426.061,380.06,426.1Z" transform="translate(-325.998 -218.728)" fill="#344154"/>
    <path id="Trazado_112733" data-name="Trazado 112733" d="M342.054,420.612l1.629-5.712,10.715,2.993-2.3,8.377-.673-.142c-3-.664-15.214-3.542-17.029-4.729C332.384,420.116,342.054,420.612,342.054,420.612Z" transform="translate(-320.739 -217.45)" fill="#d9a171"/>
    <g id="Grupo_60419" data-name="Grupo 60419" transform="translate(27.496 205.454)" opacity="0.4">
      <path id="Trazado_112734" data-name="Trazado 112734" d="M350.06,426.136a3.941,3.941,0,0,1,2.01-1.9,3.79,3.79,0,0,1,2.719-.08l-.832,3Z" transform="translate(-350.06 -423.938)"/>
    </g>
    <g id="Grupo_60420" data-name="Grupo 60420" transform="translate(13.332 203.082)" opacity="0.4">
      <path id="Trazado_112735" data-name="Trazado 112735" d="M337.275,421.26s-3.445,0-3.2.664,12.486,4.047,18.012,5.074l.053-.239-14.3-3.861S337.9,421.455,337.275,421.26Z" transform="translate(-334.066 -421.26)"/>
    </g>
    <path id="Trazado_112736" data-name="Trazado 112736" d="M352.32,426.861h-.186l-.54-.115c-.531-.133-1.2-.283-1.975-.46-1.656-.4-3.941-.983-6.456-1.683s-4.773-1.381-6.4-1.9l-1.922-.62-.522-.177-.177-.071.186.044.522.151,1.939.584c1.638.487,3.9,1.16,6.411,1.86s4.791,1.293,6.447,1.709l1.957.5.531.142Z" transform="translate(-320.742 -218.244)" fill="#344154"/>
    <path id="Trazado_112737" data-name="Trazado 112737" d="M338.208,423.047a4.991,4.991,0,0,0-.106-1.027,4.515,4.515,0,0,0-.452-.93A1.771,1.771,0,0,1,338.208,423.047Z" transform="translate(-321.144 -218.158)" fill="#344154"/>
    <path id="Trazado_112738" data-name="Trazado 112738" d="M342.309,422.354a2.605,2.605,0,0,1-.221-.5,1.31,1.31,0,0,1-.1-.549,2.109,2.109,0,0,1,.23.5,1.179,1.179,0,0,1,.088.549Z" transform="translate(-321.64 -218.182)" fill="#344154"/>
    <path id="Trazado_112739" data-name="Trazado 112739" d="M343.414,422.138a1.859,1.859,0,0,1-.31-.354c-.142-.213-.221-.407-.195-.434s.168.142.31.363S343.441,422.12,343.414,422.138Z" transform="translate(-321.745 -218.188)" fill="#344154"/>
    <path id="Trazado_112740" data-name="Trazado 112740" d="M344.266,421.231a1.284,1.284,0,0,1-.576-.08,1.321,1.321,0,0,1-.54-.221,1.426,1.426,0,0,1,.576.089C344.036,421.1,344.283,421.2,344.266,421.231Z" transform="translate(-321.773 -218.14)" fill="#344154"/>
    <path id="Trazado_112741" data-name="Trazado 112741" d="M344.683,420.5a1.089,1.089,0,0,1-.673,0,1.063,1.063,0,0,1-.62-.266,4.007,4.007,0,0,1,.646.142,3.2,3.2,0,0,1,.646.124Z" transform="translate(-321.801 -218.06)" fill="#344154"/>
    <path id="Trazado_112742" data-name="Trazado 112742" d="M342,421.141a2.124,2.124,0,0,1-.691-.195,5.182,5.182,0,0,1-.691-.372,1.932,1.932,0,0,1-.372-.292.354.354,0,0,1-.106-.257.292.292,0,0,1,.177-.248,1.337,1.337,0,0,1,1.541,1.08,2.35,2.35,0,0,1,0,.248.363.363,0,0,1,0,.195,2.055,2.055,0,0,0-.151-.682,1.346,1.346,0,0,0-.478-.54,1.116,1.116,0,0,0-.886-.177c-.124.053-.124.195,0,.3a1.983,1.983,0,0,0,.336.275,6,6,0,0,0,.655.381A4.48,4.48,0,0,1,342,421.141Z" transform="translate(-321.429 -218.006)" fill="#344154"/>
    <path id="Trazado_112743" data-name="Trazado 112743" d="M342,421.15a.717.717,0,0,1,.062-.5,1.018,1.018,0,0,1,.328-.443.691.691,0,0,1,.664-.195.275.275,0,0,1,.124.363h0a.8.8,0,0,1-.2.283,2.188,2.188,0,0,1-.434.319,1.036,1.036,0,0,1-.478.168,3.144,3.144,0,0,0,.425-.248,2.877,2.877,0,0,0,.407-.328c.133-.124.266-.363.106-.443s-.39.053-.54.159a1.374,1.374,0,0,0-.319.4,3.965,3.965,0,0,0-.142.469Z" transform="translate(-321.639 -218.032)" fill="#344154"/>
    <path id="Trazado_112744" data-name="Trazado 112744" d="M354.748,424.084a4.428,4.428,0,0,0-.806-.195,3.471,3.471,0,0,0-3.427,1.461c-.292.407-.39.717-.416.708s0-.08.062-.221a3.356,3.356,0,0,1,3.8-2.037,2.658,2.658,0,0,1,.584.177Z" transform="translate(-322.567 -218.461)" fill="#344154"/>
    <path id="Trazado_112745" data-name="Trazado 112745" d="M355.348,418.75a21.317,21.317,0,0,1-.522,2.223,20.857,20.857,0,0,1-.655,2.2,21.466,21.466,0,0,1,.522-2.232,17.228,17.228,0,0,1,.655-2.187Z" transform="translate(-323.034 -217.891)" fill="#344154"/>
    <path id="Trazado_112746" data-name="Trazado 112746" d="M348.464,424.711a6.2,6.2,0,0,1-1.612-.283,6.758,6.758,0,0,1-1.532-.558l1.567.425C347.746,424.525,348.473,424.667,348.464,424.711Z" transform="translate(-322.021 -218.477)" fill="#344154"/>
    <path id="Trazado_112747" data-name="Trazado 112747" d="M351.181,425.469l-.213.275c-.115.142-.195.275-.23.266s0-.186.124-.345S351.163,425.443,351.181,425.469Z" transform="translate(-322.64 -218.659)" fill="#344154"/>
    <path id="Trazado_112748" data-name="Trazado 112748" d="M352.382,424.609a.789.789,0,0,1-.23.2c-.142.08-.266.124-.292.089s.089-.124.23-.2S352.355,424.582,352.382,424.609Z" transform="translate(-322.77 -218.56)" fill="#344154"/>
    <path id="Trazado_112749" data-name="Trazado 112749" d="M353.784,424.438h-.336c-.177,0-.31.062-.328,0s.106-.151.319-.168S353.8,424.411,353.784,424.438Z" transform="translate(-322.914 -218.522)" fill="#344154"/>
    <path id="Trazado_112750" data-name="Trazado 112750" d="M354.794,424.464a.292.292,0,0,1-.168.089c-.1,0-.186,0-.186-.053s.071-.071.168-.08S354.794,424.429,354.794,424.464Z" transform="translate(-323.065 -218.539)" fill="#344154"/>
    <path id="Trazado_112751" data-name="Trazado 112751" d="M357.615,298.66c-.824,1.142-18.455,105.513-18.455,105.513l18.455,6.2,15.453-99.518L371.2,409.716l20.368.328L388.609,298.66Z" transform="translate(-321.316 -204.146)" fill="#344154"/>
    <path id="Trazado_112752" data-name="Trazado 112752" d="M333.083,210.359l-2.869,7.7h-.044l-8.191,19.393c-2.488,4.64-2.727,11.857,4.747,14.4,5.969,2.037,18.481-3.71,18.481-3.71l-1.514-10.954L331.56,240.8l4.755-20.084s.407-.708,1.381-2.825l3.941-3.958s-.221-1.169-2.143.531a1.257,1.257,0,0,1-1.851-1.638,2.019,2.019,0,0,1,3.693.416s.753.328,1.036-.248-.992-2.657-2.612-2.657a4.737,4.737,0,0,0-1.948.4s1.922-4.879,1.532-5.056-1.054,0-3.108,5.313c0,0,1.213-4.375,1.3-4.95s-.531-1.187-1.063.168l-1.691,4.3s.416-2.958.434-3.206c.053-.629-.549-.762-.886,0Z" transform="translate(-319.171 -193.471)" fill="#b78876"/>
    <path id="Trazado_112753" data-name="Trazado 112753" d="M385.957,251.675l2.763,6.4,8.174-11.955-6.987-13.584c-3.232-3.215-12.681-3.374-14.24-3.542a18.853,18.853,0,0,1-11.406,0,15.3,15.3,0,0,0-4.72.886c-2.949,1.071-8.855,3.392-7.97,2.984L331.4,242.545l5.03-18.393-8.174-3.542s-11.317,20.368-8.909,28.2c2.108,6.819,10.751,6.456,12.938,6.252h0L332.7,255h.1l22.094-2.9v13.283L341.361,350.6l50.122,2.347-5.012-89.8Z" transform="translate(-319.01 -195.213)" fill="#6595bf"/>
    <path id="Trazado_112754" data-name="Trazado 112754" d="M375.339,355.62a1.083,1.083,0,0,1,0-.239v-3.347c0-2.311,0-5.65.08-9.741.115-8.253.345-19.65.638-32.243s.576-23.91.77-32.243c.1-4.091.177-7.421.23-9.741,0-1.125.044-2.01.062-2.657v-.691a.133.133,0,0,1-.1-.151.127.127,0,1,1,.151.15v3.347c0,2.311,0,5.65-.08,9.741-.115,8.253-.345,19.65-.638,32.243s-.576,23.963-.77,32.243c-.1,4.1-.177,7.421-.23,9.741,0,1.125-.044,2.019-.062,2.657v.691A1.162,1.162,0,0,1,375.339,355.62Z" transform="translate(-325.457 -200.233)" fill="#344154"/>
    <path id="Trazado_112755" data-name="Trazado 112755" d="M388.611,210.579c1-.886,2.5-.753,3.817-.584a3.581,3.581,0,0,1,2.657,1.133c.886,1.3-.195,3.17.416,4.623s2.657,1.771,3.994,2.657a4.206,4.206,0,0,1,.354,6.792,9.617,9.617,0,0,1,2.232,6.845,8.059,8.059,0,0,1-3.675,6.1,9.741,9.741,0,0,1-7.766.682,7.713,7.713,0,0,1-4.791-3.418,8.7,8.7,0,0,1-.7-4.826,10.343,10.343,0,0,1,2.143-6.137,15.543,15.543,0,0,0,1.346-1.505,2.081,2.081,0,0,0,.337-1.922c-.221-.522-.744-.886-.956-1.4a2.3,2.3,0,0,1,.629-2.2,8.465,8.465,0,0,0,1.5-1.868,2.462,2.462,0,0,0-2.223-3.463" transform="translate(-326.57 -193.983)" fill="#344154"/>
    <path id="Trazado_112756" data-name="Trazado 112756" d="M383.922,217.371a7.713,7.713,0,0,0,3.843-10.219c-.089-.2-.195-.407-.3-.6H382Z" transform="translate(-326.22 -193.603)" fill="#344154"/>
    <path id="Trazado_112757" data-name="Trazado 112757" d="M368.73,229.977c-.106,0,7.7,30.649,7.7,30.649l7.97-30.4S371.13,229.454,368.73,229.977Z" transform="translate(-324.701 -196.264)" fill="#344154"/>
    <path id="Trazado_112758" data-name="Trazado 112758" d="M376.151,232.9h0a5.845,5.845,0,0,1-5.845-5.827v-4.8s-4.428-.691-4.507-5.136.717-14.665.717-14.665h0a15.453,15.453,0,0,1,15.533,1.948l.664.514L382,227.29A5.836,5.836,0,0,1,376.151,232.9Z" transform="translate(-324.365 -192.993)" fill="#b78876"/>
    <path id="Trazado_112759" data-name="Trazado 112759" d="M368.354,211.323a.647.647,0,0,0-.841-.983.655.655,0,0,0-.071.886h0a.646.646,0,0,0,.912.1Z" transform="translate(-324.537 -194.019)" fill="#344154"/>
    <path id="Trazado_112760" data-name="Trazado 112760" d="M366.539,209.979c.071.08.5-.257,1.116-.257s1.063.31,1.125.23,0-.168-.23-.319a1.505,1.505,0,0,0-.886-.283,1.585,1.585,0,0,0-.886.3C366.574,209.81,366.5,209.926,366.539,209.979Z" transform="translate(-324.449 -193.924)" fill="#344154"/>
    <path id="Trazado_112761" data-name="Trazado 112761" d="M374.9,210.778a.655.655,0,0,0-.213.886.647.647,0,0,0,.886.213.638.638,0,0,0,.221-.886.655.655,0,0,0-.886-.213Z" transform="translate(-325.372 -194.077)" fill="#344154"/>
    <path id="Trazado_112762" data-name="Trazado 112762" d="M374.048,210.589c.071.08.514-.257,1.125-.257s1.054.31,1.125.23,0-.168-.23-.319a1.443,1.443,0,0,0-.886-.283,1.461,1.461,0,0,0-.886.3C374.084,210.42,374,210.553,374.048,210.589Z" transform="translate(-325.308 -193.994)" fill="#344154"/>
    <path id="Trazado_112763" data-name="Trazado 112763" d="M371.075,215.692a3.205,3.205,0,0,0-.992-.213c-.159,0-.283-.053-.292-.133a.885.885,0,0,1,.106-.46l.487-1.249a16.951,16.951,0,0,0,1.054-3.268,16.54,16.54,0,0,0-1.382,3.144c-.151.434-.31.886-.452,1.258a.965.965,0,0,0-.089.664.416.416,0,0,0,.275.257.718.718,0,0,0,.274,0A2.763,2.763,0,0,0,371.075,215.692Z" transform="translate(-324.788 -194.041)" fill="#344154"/>
    <path id="Trazado_112764" data-name="Trazado 112764" d="M370.869,224.657a10.281,10.281,0,0,0,5.8-1.647s-1.373,3.2-5.809,2.8Z" transform="translate(-324.945 -195.487)" fill="#936050"/>
    <path id="Trazado_112765" data-name="Trazado 112765" d="M384.258,211.285c.08,0,2.559-.549,2.542,2.435s-3.02,1.975-3.02,1.886S384.258,211.285,384.258,211.285Z" transform="translate(-326.423 -194.141)" fill="#b78876"/>
    <path id="Trazado_112766" data-name="Trazado 112766" d="M384.81,214.694a.248.248,0,0,1,.142.08.584.584,0,0,0,.39,0,1.275,1.275,0,0,0,.6-1.151,1.639,1.639,0,0,0-.142-.744.6.6,0,0,0-.39-.4.266.266,0,0,0-.31.142v.142s-.062,0,0-.168a.283.283,0,0,1,.115-.186.416.416,0,0,1,.292-.08.717.717,0,0,1,.531.469,1.682,1.682,0,0,1,.177.832,1.355,1.355,0,0,1-.762,1.284.576.576,0,0,1-.478-.089C384.819,214.765,384.8,214.694,384.81,214.694Z" transform="translate(-326.541 -194.265)" fill="#936050"/>
    <path id="Trazado_112767" data-name="Trazado 112767" d="M366.537,202.017a5.313,5.313,0,0,0,4.507,2.444,17.489,17.489,0,0,0,5.269-.93c.939-.257,2.072-.461,2.763.23a2.7,2.7,0,0,1,.584,1.559,16.721,16.721,0,0,1,.053,3.764,4.251,4.251,0,0,0,0,1.5,1.257,1.257,0,0,0,1.01.992c.779.062,1.709-1.2,1.975-1.939a11.3,11.3,0,0,0,.425-2.772,4.914,4.914,0,0,0-.576-3.161,6.412,6.412,0,0,0-2.887-2.232,16.9,16.9,0,0,0-7.084-1.868,9.422,9.422,0,0,0-6.757,2.568" transform="translate(-324.368 -192.807)" fill="#344154"/>
    <path id="Trazado_112768" data-name="Trazado 112768" d="M373.507,217.265a.886.886,0,0,0-1.08-.266,1.435,1.435,0,0,0-.691.965c-.044.168-.062.39.08.5a.469.469,0,0,0,.266.08,2.3,2.3,0,0,0,.886-.044,1.116,1.116,0,0,0,.691-.522.735.735,0,0,0-.1-.832" transform="translate(-325.041 -194.79)" fill="#936050"/>
    <path id="Trazado_112769" data-name="Trazado 112769" d="M385.466,206.945h-21.4a1.142,1.142,0,0,1-1.142-1.142h0a1.142,1.142,0,0,1,1.142-1.142h21.4a1.142,1.142,0,0,1,1.142,1.142h0a1.142,1.142,0,0,1-1.142,1.142Z" transform="translate(-324.036 -193.387)" fill="#d9a171"/>
    <path id="Trazado_112770" data-name="Trazado 112770" d="M384.969,203.512H365v-1.576A9.971,9.971,0,0,1,375,192h0a9.971,9.971,0,0,1,9.971,9.971h0Z" transform="translate(-324.274 -191.938)" fill="#d9a171"/>
    <rect id="Rectángulo_8734" data-name="Rectángulo 8734" width="3.055" height="11.99" transform="translate(48.926 0.027)" fill="#d9a171"/>
    <path id="Trazado_112771" data-name="Trazado 112771" d="M374.156,203.317a34.53,34.53,0,0,1-.23-5.659,34.531,34.531,0,0,1,.23-5.659,35.557,35.557,0,0,1,.23,5.659,35.55,35.55,0,0,1-.23,5.659Z" transform="translate(-325.292 -191.938)" fill="#344154"/>
    <path id="Trazado_112772" data-name="Trazado 112772" d="M377.626,203.317a34.534,34.534,0,0,1-.23-5.659,34.534,34.534,0,0,1,.23-5.659,35.553,35.553,0,0,1,.23,5.659,35.55,35.55,0,0,1-.23,5.659Z" transform="translate(-325.689 -191.938)" fill="#344154"/>
    <path id="Trazado_112773" data-name="Trazado 112773" d="M385.3,204.6c0,.133-4.569.23-10.21.23s-10.219-.1-10.219-.23,4.569-.23,10.219-.23S385.3,204.476,385.3,204.6Z" transform="translate(-324.259 -193.354)" fill="#344154"/>
    <g id="Grupo_60421" data-name="Grupo 60421" transform="translate(51.999)" opacity="0.2">
      <path id="Trazado_112774" data-name="Trazado 112774" d="M377.73,191.93v11.317l1.523-10.892Z" transform="translate(-377.73 -191.93)"/>
    </g>
    <g id="Grupo_60422" data-name="Grupo 60422" transform="translate(41.501 1.886)" opacity="0.6">
      <path id="Trazado_112775" data-name="Trazado 112775" d="M371.928,194.06a10.779,10.779,0,0,1-1.328.735,9.573,9.573,0,0,0-4.277,5.535,10.444,10.444,0,0,1-.39,1.461A3.356,3.356,0,0,1,366,200.25a8.351,8.351,0,0,1,4.472-5.747,3.348,3.348,0,0,1,1.452-.443Z" transform="translate(-365.875 -194.06)" fill="#fff"/>
    </g>
    <path id="Trazado_112776" data-name="Trazado 112776" d="M374,216.848c.08.1-.4.664-1.178,1.133s-1.505.629-1.55.5.584-.452,1.311-.886S373.909,216.751,374,216.848Z" transform="translate(-324.991 -194.78)" fill="#344154"/>
    <path id="Trazado_112777" data-name="Trazado 112777" d="M403.592,312.88c0,.124-11.787.23-26.336.23s-26.336-.106-26.336-.23,11.787-.23,26.336-.23S403.592,312.747,403.592,312.88Z" transform="translate(-322.662 -205.747)" fill="#344154"/>
    <path id="Trazado_112778" data-name="Trazado 112778" d="M403.082,344.349c0,.124-11.8.23-26.336.23s-26.336-.106-26.336-.23,11.787-.239,26.336-.239S403.082,344.216,403.082,344.349Z" transform="translate(-322.604 -209.348)" fill="#344154"/>
    <path id="Trazado_112779" data-name="Trazado 112779" d="M389.406,210c.124,0,.275.567.159,1.275s-.416,1.222-.531,1.169,0-.584.08-1.24S389.273,210,389.406,210Z" transform="translate(-327.019 -193.998)" fill="#d9a171"/>
    <path id="Trazado_112780" data-name="Trazado 112780" d="M336.19,262.332l4.295,18.092,26.407-.576-3.905-18.039Z" transform="translate(-320.976 -199.928)" fill="#344154"/>
    <path id="Trazado_112781" data-name="Trazado 112781" d="M360.07,269.925h7.137V267.33s5.18,0,6.482,4.1v6.2h-4.959a5.65,5.65,0,0,1-5.632-5.19h0S359.424,272.085,360.07,269.925Z" transform="translate(-323.701 -200.56)" fill="#b78876"/>
    <path id="Trazado_112782" data-name="Trazado 112782" d="M410.86,265.244l-8.067-16.524L392.609,255.9l3.445,7.846-22.714,2.161v10.4c.425.106,17.1.071,28.169,0a9.741,9.741,0,0,0,9.67-9.741h0A3.081,3.081,0,0,0,410.86,265.244Z" transform="translate(-325.228 -198.43)" fill="#6595bf"/>
    <path id="Trazado_112783" data-name="Trazado 112783" d="M398.3,279.78c0,.124-5.588.23-12.477.23s-12.486-.106-12.486-.23,5.588-.23,12.486-.23S398.3,279.656,398.3,279.78Z" transform="translate(-325.228 -201.959)" fill="#344154"/>
    <path id="Trazado_112784" data-name="Trazado 112784" d="M396.086,265.686a4.24,4.24,0,0,1-.886.177c-.567.089-1.39.195-2.409.319-2.037.257-4.853.576-7.97.886s-5.933.584-7.97.753c-1.027.089-1.851.151-2.426.177a2.966,2.966,0,0,1-.886,0,4.238,4.238,0,0,1,.886-.177c.567-.089,1.39-.195,2.409-.319,2.037-.257,4.853-.576,7.97-.886s5.933-.584,7.97-.753c1.027-.089,1.851-.151,2.426-.177a2.967,2.967,0,0,1,.886,0Z" transform="translate(-325.251 -200.368)" fill="#344154"/>
    <path id="Trazado_112785" data-name="Trazado 112785" d="M402.368,270q-1.8-2.224-3.5-4.525a6.269,6.269,0,0,1,2.09,2A6.579,6.579,0,0,1,402.368,270Z" transform="translate(-328.151 -200.347)" fill="#344154"/>
    <path id="Trazado_112786" data-name="Trazado 112786" d="M403.9,267.479c-.089.106-1.027-.638-2.364-1.187s-2.506-.7-2.5-.886a5.632,5.632,0,0,1,4.862,2.072Z" transform="translate(-328.17 -200.337)" fill="#344154"/>
    <ellipse id="Elipse_4355" data-name="Elipse 4355" cx="0.806" cy="0.806" rx="0.806" ry="0.806" transform="translate(28.142 67.151)" fill="#5e6178"/>
    <rect id="Rectángulo_8735" data-name="Rectángulo 8735" width="7.589" height="1.992" transform="translate(57.357 54.452)" fill="#d9a171"/>
    <path id="Trazado_112787" data-name="Trazado 112787" d="M327.59,251.334a14.649,14.649,0,0,1,2.09-3.1,15.239,15.239,0,0,1,2.453-2.825,14.99,14.99,0,0,1-2.09,3.1A15.52,15.52,0,0,1,327.59,251.334Z" transform="translate(-319.992 -198.051)" fill="#344154"/>
    <path id="Trazado_112788" data-name="Trazado 112788" d="M327.18,248.2a9.856,9.856,0,0,1,5.145-3.126,21.141,21.141,0,0,1-2.577,1.55A20.577,20.577,0,0,1,327.18,248.2Z" transform="translate(-319.945 -198.012)" fill="#344154"/>
  </g>
  <g id="freepik--character-1--inject-259" transform="translate(113.939 114.014)">
    <path id="Trazado_112789" data-name="Trazado 112789" d="M166.077,258.375a7.474,7.474,0,0,0,.965,1.771,4.622,4.622,0,0,0,1.125,1.187,21.008,21.008,0,0,0,2.054,1.346s19.712,1.072,23.024.593,12.247-11.2,12.247-11.2l7.27,8.227a60.588,60.588,0,0,1-14.921,12.592c-5.6,3.232-30.109-2.577-30.109-2.577a62.628,62.628,0,0,1-6.447.177c-3-.2-2.993-.478-2.9-.824.221-.93,5.313.159,4.348-.708s-6.367-.611-6.093-1.567c.354-1.257,5.65,0,6.11.053s.576-.584.159-.629c-.6-.062-6.845-.886-6.509-2.09.186-.691,1.381-.23,1.381-.23s5.8,1.178,5.942.584-3.241-1.4-4.428-1.594-1.514-.806-1.01-1.249c.345-.292,3.905.2,5.048.425s4.259.886,2.975-.708-1.665-3.259-1.452-3.79a.638.638,0,0,1,1.222.212Z" transform="translate(-156.385 -201.169)" fill="#ffbe9d"/>
    <path id="Trazado_112790" data-name="Trazado 112790" d="M227.921,209.932c-1.222-.3-1.027-3.657-1.151-4.685a3.25,3.25,0,0,1,.124-1.86,2.559,2.559,0,0,1,1.992-1.24c.806-.124,1.638,0,2.444-.159,1.621-.239,3.073-1.24,4.711-1.39a4.649,4.649,0,0,1,3.657,1.337,8.954,8.954,0,0,0,1.683,1.691,9.387,9.387,0,0,0,2.028.6,4.667,4.667,0,0,1,3.215,3.808,13.072,13.072,0,0,1-.23,3.108,4.862,4.862,0,0,0,.434,3.037c.567.886,1.629,1.461,2.152,2.409a2.595,2.595,0,0,1-2.657,3.817c-.31-.044-.655-.133-.886.062a1.2,1.2,0,0,0-.275.726,1.967,1.967,0,1,1-3.87-.708" transform="translate(-164.432 -195.276)" fill="#344154"/>
    <path id="Trazado_112791" data-name="Trazado 112791" d="M242.084,231.808l-10.7-.886c-.062-1.249,0-6.084,0-6.084s-4.428-.691-4.507-5.136.717-14.665.717-14.665h0a15.453,15.453,0,0,1,15.532,1.957l.664.5Z" transform="translate(-164.453 -195.642)" fill="#ffbe9d"/>
    <path id="Trazado_112792" data-name="Trazado 112792" d="M229.043,213.752a.646.646,0,0,0,0-.886.638.638,0,0,0-.886,0,.646.646,0,0,0,0,.886h0a.655.655,0,0,0,.886,0Z" transform="translate(-164.58 -196.661)" fill="#344154"/>
    <path id="Trazado_112793" data-name="Trazado 112793" d="M227.659,212.646c.071.071.5-.266,1.116-.266s1.063.31,1.125.239,0-.177-.23-.328a1.488,1.488,0,0,0-1.771,0C227.694,212.469,227.623,212.611,227.659,212.646Z" transform="translate(-164.542 -196.583)" fill="#344154"/>
    <path id="Trazado_112794" data-name="Trazado 112794" d="M235.57,213.447a.646.646,0,0,0-.221.886h0a.647.647,0,1,0,1.16-.576.362.362,0,0,0-.062-.1.646.646,0,0,0-.886-.221Z" transform="translate(-165.412 -196.737)" fill="#344154"/>
    <path id="Trazado_112795" data-name="Trazado 112795" d="M235.169,213.258c.071.071.514-.266,1.125-.266s1.054.31,1.125.239,0-.177-.23-.328a1.567,1.567,0,0,0-.886-.283,1.532,1.532,0,0,0-.886.31C235.2,213.08,235.143,213.222,235.169,213.258Z" transform="translate(-165.402 -196.654)" fill="#344154"/>
    <path id="Trazado_112796" data-name="Trazado 112796" d="M232.2,218.312a2.958,2.958,0,0,0-.992-.2c-.159,0-.283-.053-.292-.142a.886.886,0,0,1,.106-.46l.487-1.249a16.95,16.95,0,0,0,1.054-3.268,16.375,16.375,0,0,0-1.381,3.153q-.239.638-.452,1.249a.965.965,0,0,0-.089.664.416.416,0,0,0,.274.257.717.717,0,0,0,.275,0,2.763,2.763,0,0,0,1.01,0Z" transform="translate(-164.881 -196.696)" fill="#344154"/>
    <path id="Trazado_112797" data-name="Trazado 112797" d="M232,227.317a10.352,10.352,0,0,0,5.8-1.647s-1.373,3.2-5.809,2.8Z" transform="translate(-165.039 -198.147)" fill="#eb996e"/>
    <path id="Trazado_112798" data-name="Trazado 112798" d="M245.378,214c.08,0,2.559-.54,2.542,2.435s-3.02,1.975-3.02,1.9S245.378,214,245.378,214Z" transform="translate(-166.516 -196.807)" fill="#ffbe9d"/>
    <path id="Trazado_112799" data-name="Trazado 112799" d="M245.93,217.355a.248.248,0,0,1,.142.08.5.5,0,0,0,.39,0,1.275,1.275,0,0,0,.6-1.151,1.639,1.639,0,0,0-.142-.744.6.6,0,0,0-.39-.4.283.283,0,0,0-.31.142v.151s-.062-.053,0-.177a.319.319,0,0,1,.115-.186.372.372,0,0,1,.292-.071.717.717,0,0,1,.531.46,1.771,1.771,0,0,1,.177.832,1.355,1.355,0,0,1-.762,1.284.576.576,0,0,1-.478-.08C245.939,217.426,245.921,217.364,245.93,217.355Z" transform="translate(-166.634 -196.925)" fill="#eb996e"/>
    <path id="Trazado_112800" data-name="Trazado 112800" d="M227.657,204.693a5.313,5.313,0,0,0,4.507,2.444,17.215,17.215,0,0,0,5.269-.886c.939-.257,2.072-.452,2.763.23a2.7,2.7,0,0,1,.584,1.559,16.719,16.719,0,0,1,.053,3.764,3.87,3.87,0,0,0,0,1.5,1.257,1.257,0,0,0,1.01.992c.779.071,1.709-1.2,1.975-1.939a11.3,11.3,0,0,0,.425-2.772,4.915,4.915,0,0,0-.576-3.161,6.518,6.518,0,0,0-2.887-2.232,16.9,16.9,0,0,0-7.084-1.869,9.458,9.458,0,0,0-6.757,2.568" transform="translate(-164.461 -195.474)" fill="#344154"/>
    <path id="Trazado_112801" data-name="Trazado 112801" d="M278.71,424.72l-1.4-5.774,10.812-2.657,2.081,8.43-.655.2c-2.94.886-15.054,4.313-17.162,4.2C270.032,429.024,278.71,424.72,278.71,424.72Z" transform="translate(-169.616 -219.965)" fill="#d9a171"/>
    <g id="Grupo_60423" data-name="Grupo 60423" transform="translate(116.675 201.603)" opacity="0.4">
      <path id="Trazado_112802" data-name="Trazado 112802" d="M288.149,426.306a3.888,3.888,0,0,1,.824-2.657,3.746,3.746,0,0,1,2.338-1.4l.735,3.02Z" transform="translate(-288.141 -422.25)"/>
    </g>
    <g id="Grupo_60424" data-name="Grupo 60424" transform="translate(102.372 204.552)" opacity="0.4">
      <path id="Trazado_112803" data-name="Trazado 112803" d="M274.514,428.042s-2.993,1.718-2.462,2.143,12.867-2.568,18.189-4.366l-.071-.239L275.807,429.2S275.142,427.918,274.514,428.042Z" transform="translate(-271.989 -425.58)"/>
    </g>
    <path id="Trazado_112804" data-name="Trazado 112804" d="M290.34,425.53l-.186.062-.522.168-1.948.558c-1.638.46-3.923,1.072-6.456,1.691s-4.8,1.125-6.509,1.479l-1.984.4-.54.1H272l.186-.053.54-.124,1.975-.434c1.665-.372,3.967-.886,6.5-1.514s4.809-1.213,6.464-1.647l1.948-.522.531-.142Z" transform="translate(-169.618 -221.022)" fill="#344154"/>
    <path id="Trazado_112805" data-name="Trazado 112805" d="M276.159,429.675a5.136,5.136,0,0,0-.593-.841,3.977,3.977,0,0,0-.886-.593,1.824,1.824,0,0,1,1.452,1.435Z" transform="translate(-169.925 -221.332)" fill="#344154"/>
    <path id="Trazado_112806" data-name="Trazado 112806" d="M279.4,427.061a2.4,2.4,0,0,1-.434-.328c-.213-.2-.381-.407-.354-.434s.221.124.443.336S279.424,427.035,279.4,427.061Z" transform="translate(-170.374 -221.11)" fill="#344154"/>
    <path id="Trazado_112807" data-name="Trazado 112807" d="M280.263,426.341a.992.992,0,0,1-.443-.159c-.23-.124-.4-.248-.381-.283s.213,0,.443.159S280.281,426.306,280.263,426.341Z" transform="translate(-170.469 -221.063)" fill="#344154"/>
    <path id="Trazado_112808" data-name="Trazado 112808" d="M280.565,425.089a2.533,2.533,0,0,1-1.125.292,1.231,1.231,0,0,1,.549-.212,1.283,1.283,0,0,1,.576-.08Z" transform="translate(-170.47 -220.971)" fill="#344154"/>
    <path id="Trazado_112809" data-name="Trazado 112809" d="M280.567,424.23a1.187,1.187,0,0,1-.584.337,1.169,1.169,0,0,1-.673.071,4,4,0,0,1,.629-.2,3.26,3.26,0,0,1,.629-.2Z" transform="translate(-170.455 -220.873)" fill="#344154"/>
    <path id="Trazado_112810" data-name="Trazado 112810" d="M278.545,426.111a2.311,2.311,0,0,1-.691.159,3.814,3.814,0,0,1-.779,0,2.723,2.723,0,0,1-.469-.071.345.345,0,0,1-.221-.177.266.266,0,0,1,0-.3,1.311,1.311,0,0,1,1.665,0,1.151,1.151,0,0,1,.336.407.478.478,0,0,1,.071.186,1.957,1.957,0,0,0-.46-.514,1.39,1.39,0,0,0-.691-.248,1.142,1.142,0,0,0-.815.257c-.089.115,0,.23.124.275a2.336,2.336,0,0,0,.434.071,5.463,5.463,0,0,0,.762,0C278.279,426.146,278.545,426.085,278.545,426.111Z" transform="translate(-170.114 -221.01)" fill="#344154"/>
    <path id="Trazado_112811" data-name="Trazado 112811" d="M278.613,426.085a.779.779,0,0,1-.2-.461,1.293,1.293,0,0,1,.071-.549c.089-.186.195-.434.5-.5a.292.292,0,0,1,.292.266.885.885,0,0,1-.044.337,2.16,2.16,0,0,1-.23.5,1.133,1.133,0,0,1-.328.381s.106-.159.248-.425a2.508,2.508,0,0,0,.186-.487c.062-.177.062-.452-.115-.443s-.319.239-.39.407a1.2,1.2,0,0,0-.089.5A2.128,2.128,0,0,0,278.613,426.085Z" transform="translate(-170.351 -220.913)" fill="#344154"/>
    <path id="Trazado_112812" data-name="Trazado 112812" d="M291.243,422.25a4.226,4.226,0,0,0-.8.221,3.471,3.471,0,0,0-2.276,2.949,6.252,6.252,0,0,0,0,.815.692.692,0,0,0-.053-.213,2.356,2.356,0,0,1,0-.611,3.386,3.386,0,0,1,2.94-3.161Z" transform="translate(-171.46 -220.647)" fill="#344154"/>
    <path id="Trazado_112813" data-name="Trazado 112813" d="M289.15,417.48a18.838,18.838,0,0,1,.629,2.2,19.328,19.328,0,0,1,.5,2.232,18.868,18.868,0,0,1-.638-2.2,19.306,19.306,0,0,1-.5-2.232Z" transform="translate(-171.581 -220.101)" fill="#344154"/>
    <path id="Trazado_112814" data-name="Trazado 112814" d="M285.923,426a9.041,9.041,0,0,1-3.152.8l1.576-.39Z" transform="translate(-170.851 -221.076)" fill="#344154"/>
    <path id="Trazado_112815" data-name="Trazado 112815" d="M288.693,425.43a1.311,1.311,0,0,1-.053.337c-.053.177,0,.336-.08.345s-.1-.159-.053-.363S288.666,425.4,288.693,425.43Z" transform="translate(-171.505 -221.01)" fill="#344154"/>
    <path id="Trazado_112816" data-name="Trazado 112816" d="M289.308,424.089a.549.549,0,0,1-.1.283c-.1.142-.177.239-.213.221s0-.151.1-.292S289.273,424.063,289.308,424.089Z" transform="translate(-171.562 -220.857)" fill="#344154"/>
    <path id="Trazado_112817" data-name="Trazado 112817" d="M290.436,423.256a2.662,2.662,0,0,0-.283.168c-.142.1-.239.2-.275.186s0-.186.2-.3S290.445,423.221,290.436,423.256Z" transform="translate(-171.663 -220.758)" fill="#344154"/>
    <path id="Trazado_112818" data-name="Trazado 112818" d="M291.331,422.789a.186.186,0,0,1-.106.159c-.106.053-.159.08-.186.053s0-.106.106-.159S291.313,422.762,291.331,422.789Z" transform="translate(-171.796 -220.707)" fill="#344154"/>
    <path id="Trazado_112819" data-name="Trazado 112819" d="M226.352,425.916v-5.933l11.122-.133.142,8.687-.682.053c-3.073.2-15.612.886-17.711.239C216.93,428.156,226.352,425.916,226.352,425.916Z" transform="translate(-163.536 -220.372)" fill="#d9a171"/>
    <g id="Grupo_60425" data-name="Grupo 60425" transform="translate(70.015 204.841)" opacity="0.4">
      <path id="Trazado_112820" data-name="Trazado 112820" d="M235.45,429.186a3.843,3.843,0,0,1,1.39-2.391,3.772,3.772,0,0,1,2.586-.886l.044,3.108Z" transform="translate(-235.45 -425.906)"/>
    </g>
    <g id="Grupo_60426" data-name="Grupo 60426" transform="translate(55.297 206.801)" opacity="0.4">
      <path id="Trazado_112821" data-name="Trazado 112821" d="M221.752,428.12s-3.3,1-2.887,1.541,13.124.372,18.712-.186v-.248l-14.806.31S222.4,428.138,221.752,428.12Z" transform="translate(-218.829 -428.12)"/>
    </g>
    <path id="Trazado_112822" data-name="Trazado 112822" d="M237.836,429.36h-.744l-2.019.115c-1.709.08-4.065.168-6.668.2s-4.977,0-6.677,0l-2.028-.062h8.7c2.6,0,4.968-.1,6.677-.159l2.019-.071h.576Z" transform="translate(-163.632 -221.46)" fill="#344154"/>
    <path id="Trazado_112823" data-name="Trazado 112823" d="M223.116,429.7A2.657,2.657,0,0,0,222,428a1.86,1.86,0,0,1,1.116,1.7Z" transform="translate(-163.895 -221.305)" fill="#344154"/>
    <path id="Trazado_112824" data-name="Trazado 112824" d="M226.862,427.882a2.55,2.55,0,0,1-.354-.416c-.168-.248-.274-.478-.239-.5s.186.168.354.416S226.916,427.882,226.862,427.882Z" transform="translate(-164.383 -221.187)" fill="#344154"/>
    <path id="Trazado_112825" data-name="Trazado 112825" d="M227.909,427.361a1.823,1.823,0,0,1-.39-.257c-.195-.168-.337-.328-.31-.354s.2.089.4.257a1.107,1.107,0,0,1,.3.354Z" transform="translate(-164.491 -221.161)" fill="#344154"/>
    <path id="Trazado_112826" data-name="Trazado 112826" d="M228.43,426.242a1.284,1.284,0,0,1-.576.08,1.31,1.31,0,0,1-.584-.053,1.284,1.284,0,0,1,.576-.08,1.311,1.311,0,0,1,.584.053Z" transform="translate(-164.498 -221.096)" fill="#344154"/>
    <path id="Trazado_112827" data-name="Trazado 112827" d="M228.621,425.41a1.054,1.054,0,0,1-.646.195,1.072,1.072,0,0,1-.664-.08q.656-.049,1.311-.115Z" transform="translate(-164.503 -221.008)" fill="#344154"/>
    <path id="Trazado_112828" data-name="Trazado 112828" d="M226.229,426.773a1.9,1.9,0,0,1-.708,0,3.844,3.844,0,0,1-.77-.159,2.653,2.653,0,0,1-.434-.177.345.345,0,0,1-.177-.221.275.275,0,0,1,.106-.283,1.3,1.3,0,0,1,1.621.363,1.222,1.222,0,0,1,.239.478.656.656,0,0,1,0,.186,2.107,2.107,0,0,0-.337-.6,1.346,1.346,0,0,0-.62-.39,1.072,1.072,0,0,0-.886.071c-.106.08-.062.213.062.292a2.321,2.321,0,0,0,.407.168,4.227,4.227,0,0,0,.735.177C225.963,426.755,226.229,426.755,226.229,426.773Z" transform="translate(-164.139 -221.052)" fill="#344154"/>
    <path id="Trazado_112829" data-name="Trazado 112829" d="M226.277,426.76a.726.726,0,0,1-.089-.487,1.178,1.178,0,0,1,.195-.531.726.726,0,0,1,.584-.372.3.3,0,0,1,.23.328,1.115,1.115,0,0,1-.115.328,2.7,2.7,0,0,1-.337.434c-.221.221-.4.31-.407.292s.142-.133.337-.354a2.329,2.329,0,0,0,.292-.434c.1-.151.159-.425,0-.461s-.363.168-.469.31a1.293,1.293,0,0,0-.195.469,2.169,2.169,0,0,0-.027.478Z" transform="translate(-164.373 -221.004)" fill="#344154"/>
    <path id="Trazado_112830" data-name="Trazado 112830" d="M239.374,425.916a6.393,6.393,0,0,0-.824,0,3.542,3.542,0,0,0-2.887,2.356c-.159.487-.177.806-.195.8a.469.469,0,0,1,0-.221,2.78,2.78,0,0,1,.115-.6,3.374,3.374,0,0,1,2.967-2.426,3.537,3.537,0,0,1,.611,0,.585.585,0,0,1,.213.1Z" transform="translate(-165.435 -221.054)" fill="#344154"/>
    <path id="Trazado_112831" data-name="Trazado 112831" d="M238.508,420.72a21.64,21.64,0,0,1,.124,2.276,19.816,19.816,0,0,1,0,2.294,39.363,39.363,0,0,1-.115-4.569Z" transform="translate(-165.783 -220.472)" fill="#344154"/>
    <path id="Trazado_112832" data-name="Trazado 112832" d="M233.43,428.4a8.855,8.855,0,0,1-3.25.071h1.612C232.677,428.47,233.43,428.364,233.43,428.4Z" transform="translate(-164.831 -221.35)" fill="#344154"/>
    <path id="Trazado_112833" data-name="Trazado 112833" d="M236.27,428.369s-.053.151-.124.319-.115.319-.151.319-.062-.177,0-.372S236.252,428.343,236.27,428.369Z" transform="translate(-165.493 -221.347)" fill="#344154"/>
    <path id="Trazado_112834" data-name="Trazado 112834" d="M237.175,427.2a.345.345,0,0,1-.159.257c-.159.115-.23.195-.257.168s.044-.142.159-.257S237.149,427.173,237.175,427.2Z" transform="translate(-165.584 -221.213)" fill="#344154"/>
    <path id="Trazado_112835" data-name="Trazado 112835" d="M238.468,426.651a.673.673,0,0,0-.319.1c-.159.1-.283.142-.31.124s.062-.186.266-.257S238.477,426.616,238.468,426.651Z" transform="translate(-165.708 -221.143)" fill="#344154"/>
    <path id="Trazado_112836" data-name="Trazado 112836" d="M239.447,426.4a.272.272,0,0,1-.337.124.328.328,0,0,1,.142-.133C239.34,426.352,239.429,426.361,239.447,426.4Z" transform="translate(-165.854 -221.118)" fill="#344154"/>
    <path id="Trazado_112837" data-name="Trazado 112837" d="M218.76,293.54l5.189,115.36,17.321.363-2.878-96.578,31.384,97.729,14.16-3.879-31.587-113" transform="translate(-163.524 -205.915)" fill="#344154"/>
    <path id="Trazado_112838" data-name="Trazado 112838" d="M290.392,418.1c.089,0,.221.159.3.416s.071.487,0,.514-.23-.159-.3-.416S290.3,418.127,290.392,418.1Z" transform="translate(-171.716 -220.172)" fill="#5e6178"/>
    <path id="Trazado_112839" data-name="Trazado 112839" d="M289.123,413.87c.089,0,.292.372.443.886s.213.965.124.992-.292-.372-.443-.886S289.008,413.9,289.123,413.87Z" transform="translate(-171.572 -219.688)" fill="#5e6178"/>
    <path id="Trazado_112840" data-name="Trazado 112840" d="M287.864,409.64c.089,0,.283.372.434.886s.212.965.124.992-.283-.372-.443-.886S287.776,409.667,287.864,409.64Z" transform="translate(-171.429 -219.203)" fill="#5e6178"/>
    <path id="Trazado_112841" data-name="Trazado 112841" d="M286.594,405.41c.089,0,.283.372.443.886s.2.965.115.992-.283-.372-.443-.886S286.506,405.437,286.594,405.41Z" transform="translate(-171.283 -218.719)" fill="#5e6178"/>
    <path id="Trazado_112842" data-name="Trazado 112842" d="M285.324,401.18c.089,0,.283.372.443.886s.2.965.115.992-.283-.372-.443-.886S285.236,401.207,285.324,401.18Z" transform="translate(-171.138 -218.235)" fill="#5e6178"/>
    <path id="Trazado_112843" data-name="Trazado 112843" d="M284.058,397c.089,0,.283.372.443.886s.2.965.115.992-.283-.372-.434-.886A2.055,2.055,0,0,1,284.058,397Z" transform="translate(-170.996 -217.757)" fill="#5e6178"/>
    <path id="Trazado_112844" data-name="Trazado 112844" d="M282.785,392.72c.089,0,.292.372.443.886s.213.965.124.992-.292-.372-.443-.886S282.7,392.747,282.785,392.72Z" transform="translate(-170.848 -217.267)" fill="#5e6178"/>
    <path id="Trazado_112845" data-name="Trazado 112845" d="M281.515,388.49c.089,0,.292.372.443.886s.213.965.124.992-.292-.372-.443-.885S281.426,388.517,281.515,388.49Z" transform="translate(-170.702 -216.783)" fill="#5e6178"/>
    <path id="Trazado_112846" data-name="Trazado 112846" d="M280.245,384.26c.089,0,.292.372.443.886s.213.965.124.992-.292-.372-.443-.886S280.156,384.287,280.245,384.26Z" transform="translate(-170.557 -216.299)" fill="#5e6178"/>
    <path id="Trazado_112847" data-name="Trazado 112847" d="M278.994,380c.089,0,.283.372.434.886s.213.965.124.992-.283-.372-.443-.886S278.9,380.053,278.994,380Z" transform="translate(-170.413 -215.811)" fill="#5e6178"/>
    <path id="Trazado_112848" data-name="Trazado 112848" d="M277.714,375.8c.089,0,.283.372.443.886s.2.965.115.992-.283-.372-.443-.886S277.626,375.827,277.714,375.8Z" transform="translate(-170.267 -215.33)" fill="#5e6178"/>
    <path id="Trazado_112849" data-name="Trazado 112849" d="M276.444,371.57c.089,0,.283.372.443.886s.2.965.115.992-.283-.372-.443-.886S276.356,371.6,276.444,371.57Z" transform="translate(-170.121 -214.846)" fill="#5e6178"/>
    <path id="Trazado_112850" data-name="Trazado 112850" d="M275.175,367.34c.089,0,.283.372.443.886s.213.965.115.992-.283-.372-.434-.886S275.086,367.367,275.175,367.34Z" transform="translate(-169.977 -214.362)" fill="#5e6178"/>
    <path id="Trazado_112851" data-name="Trazado 112851" d="M273.9,363.11c.089,0,.292.372.443.886s.213.965.124.992-.292-.372-.443-.886S273.816,363.137,273.9,363.11Z" transform="translate(-169.831 -213.878)" fill="#5e6178"/>
    <path id="Trazado_112852" data-name="Trazado 112852" d="M272.635,358.88c.089,0,.292.372.443.886s.213.965.124.992-.292-.372-.443-.886S272.546,358.907,272.635,358.88Z" transform="translate(-169.686 -213.394)" fill="#5e6178"/>
    <path id="Trazado_112853" data-name="Trazado 112853" d="M271.374,354.65c.089,0,.283.372.434.886s.213.965.124.992-.283-.372-.443-.886S271.276,354.677,271.374,354.65Z" transform="translate(-169.541 -212.91)" fill="#5e6178"/>
    <path id="Trazado_112854" data-name="Trazado 112854" d="M270.1,350.42c.089,0,.283.372.443.886s.2.965.115.992-.283-.372-.443-.886S270.006,350.447,270.1,350.42Z" transform="translate(-169.395 -212.425)" fill="#5e6178"/>
    <path id="Trazado_112855" data-name="Trazado 112855" d="M268.834,346.19c.089,0,.283.372.443.886s.2.965.115.992-.283-.372-.443-.885S268.746,346.217,268.834,346.19Z" transform="translate(-169.25 -211.941)" fill="#5e6178"/>
    <path id="Trazado_112856" data-name="Trazado 112856" d="M267.564,342c.089,0,.283.372.443.886s.2.965.115.992-.283-.372-.443-.886S267.476,342,267.564,342Z" transform="translate(-169.105 -211.462)" fill="#5e6178"/>
    <path id="Trazado_112857" data-name="Trazado 112857" d="M266.295,337.73c.089,0,.283.372.443.886s.212.965.124.992-.292-.372-.443-.886S266.206,337.757,266.295,337.73Z" transform="translate(-168.96 -210.973)" fill="#5e6178"/>
    <path id="Trazado_112858" data-name="Trazado 112858" d="M265,333.5c.089,0,.292.372.443.886s.213.965.124.992-.292-.372-.443-.886A1.931,1.931,0,0,1,265,333.5Z" transform="translate(-168.814 -210.489)" fill="#5e6178"/>
    <path id="Trazado_112859" data-name="Trazado 112859" d="M263.755,329.27c.089,0,.292.372.443.886s.213.965.124.992-.292-.372-.443-.886S263.666,329.3,263.755,329.27Z" transform="translate(-168.67 -210.005)" fill="#5e6178"/>
    <path id="Trazado_112860" data-name="Trazado 112860" d="M262.494,325c.089,0,.283.372.434.886s.213.965.124.992-.283-.372-.443-.885S262.4,325.062,262.494,325Z" transform="translate(-168.524 -209.516)" fill="#5e6178"/>
    <path id="Trazado_112861" data-name="Trazado 112861" d="M261.224,320.81c.089,0,.283.372.443.886s.2.965.115.992-.283-.372-.443-.886S261.136,320.837,261.224,320.81Z" transform="translate(-168.379 -209.036)" fill="#5e6178"/>
    <path id="Trazado_112862" data-name="Trazado 112862" d="M259.992,316.58c.089,0,.283.372.443.886s.2.965.115.992-.283-.372-.443-.886S259.868,316.607,259.992,316.58Z" transform="translate(-168.237 -208.552)" fill="#5e6178"/>
    <path id="Trazado_112863" data-name="Trazado 112863" d="M258.685,312.35c.089,0,.283.372.443.886s.2.965.115.992-.283-.372-.434-.886S258.6,312.377,258.685,312.35Z" transform="translate(-168.089 -208.068)" fill="#5e6178"/>
    <path id="Trazado_112864" data-name="Trazado 112864" d="M257.415,308.12c.089,0,.292.372.443.886s.213.965.124.992-.292-.372-.443-.886S257.326,308.147,257.415,308.12Z" transform="translate(-167.944 -207.584)" fill="#5e6178"/>
    <path id="Trazado_112865" data-name="Trazado 112865" d="M256.145,303.89c.089,0,.292.372.443.886s.213.965.124.992-.292-.372-.443-.885S256.056,303.917,256.145,303.89Z" transform="translate(-167.799 -207.1)" fill="#5e6178"/>
    <path id="Trazado_112866" data-name="Trazado 112866" d="M254.875,299.66c.089,0,.292.372.443.886s.213.965.124.992-.292-.372-.443-.886S254.786,299.687,254.875,299.66Z" transform="translate(-167.653 -206.616)" fill="#5e6178"/>
    <path id="Trazado_112867" data-name="Trazado 112867" d="M253.931,296.5c.089,0,.221.159.292.416s.071.487,0,.514-.221-.159-.3-.416S253.843,296.527,253.931,296.5Z" transform="translate(-167.542 -206.254)" fill="#5e6178"/>
    <path id="Trazado_112868" data-name="Trazado 112868" d="M240.792,423.15c.089,0,.177.213.186.478s-.044.487-.142.5-.177-.213-.186-.478S240.694,423.159,240.792,423.15Z" transform="translate(-166.03 -220.75)" fill="#5e6178"/>
    <path id="Trazado_112869" data-name="Trazado 112869" d="M240.612,418.81c.089,0,.186.425.2.956s-.044.965-.133.965-.186-.416-.2-.948S240.515,418.819,240.612,418.81Z" transform="translate(-166.01 -220.253)" fill="#5e6178"/>
    <path id="Trazado_112870" data-name="Trazado 112870" d="M240.471,414.47c.1,0,.186.425.195.956s-.044.965-.133.965-.186-.425-.2-.956S240.383,414.479,240.471,414.47Z" transform="translate(-165.993 -219.756)" fill="#5e6178"/>
    <path id="Trazado_112871" data-name="Trazado 112871" d="M240.362,410.13c.1,0,.177.425.195.956s-.053.965-.142.965-.186-.425-.195-.956S240.273,410.13,240.362,410.13Z" transform="translate(-165.98 -219.26)" fill="#5e6178"/>
    <path id="Trazado_112872" data-name="Trazado 112872" d="M240.262,405.79c.089,0,.177.425.195.956s-.053.965-.151.965-.177-.425-.186-.956S240.164,405.79,240.262,405.79Z" transform="translate(-165.969 -218.763)" fill="#5e6178"/>
    <path id="Trazado_112873" data-name="Trazado 112873" d="M240.152,401.44c.089,0,.177.425.195.956s-.053.965-.142.965-.186-.425-.195-.956S240.054,401.44,240.152,401.44Z" transform="translate(-165.956 -218.265)" fill="#5e6178"/>
    <path id="Trazado_112874" data-name="Trazado 112874" d="M239.983,397.1c.1,0,.186.425.2.956s0,.965-.133.965-.186-.425-.2-.956S239.912,397.1,239.983,397.1Z" transform="translate(-165.938 -217.768)" fill="#5e6178"/>
    <path id="Trazado_112875" data-name="Trazado 112875" d="M239.824,392.76c.1,0,.186.425.213.956s0,.956-.133.965-.186-.425-.2-.956S239.735,392.76,239.824,392.76Z" transform="translate(-165.921 -217.271)" fill="#5e6178"/>
    <path id="Trazado_112876" data-name="Trazado 112876" d="M239.652,388.42c.1,0,.186.425.2.956s0,.956-.133.965-.177-.425-.2-.956S239.564,388.42,239.652,388.42Z" transform="translate(-165.9 -216.775)" fill="#5e6178"/>
    <path id="Trazado_112877" data-name="Trazado 112877" d="M239.5,384.08c.089,0,.186.425.2.956s-.044.956-.142.965-.177-.425-.195-.956S239.414,384.08,239.5,384.08Z" transform="translate(-165.883 -216.278)" fill="#5e6178"/>
    <path id="Trazado_112878" data-name="Trazado 112878" d="M239.371,379.73c.089,0,.177.425.195.956s-.044.965-.142.965-.177-.425-.195-.956S239.274,379.739,239.371,379.73Z" transform="translate(-165.867 -215.78)" fill="#5e6178"/>
    <path id="Trazado_112879" data-name="Trazado 112879" d="M239.251,375.39c.1,0,.186.425.195.956s-.053.965-.142.965-.177-.425-.195-.956S239.163,375.39,239.251,375.39Z" transform="translate(-165.853 -215.283)" fill="#5e6178"/>
    <path id="Trazado_112880" data-name="Trazado 112880" d="M239.16,371.05c.089,0,.177.425.186.956s-.053.965-.151.965-.177-.425-.186-.956S239.072,371.05,239.16,371.05Z" transform="translate(-165.842 -214.787)" fill="#5e6178"/>
    <path id="Trazado_112881" data-name="Trazado 112881" d="M239.089,366.7c.089,0,.168.434.177.965s-.053.956-.151.965-.177-.434-.186-.965S238.992,366.709,239.089,366.7Z" transform="translate(-165.833 -214.289)" fill="#5e6178"/>
    <path id="Trazado_112882" data-name="Trazado 112882" d="M239.03,362.36c.1,0,.177.434.186.956s-.071.965-.159.965-.177-.425-.177-.956a2.161,2.161,0,0,1,.151-.965Z" transform="translate(-165.826 -213.792)" fill="#5e6178"/>
    <path id="Trazado_112883" data-name="Trazado 112883" d="M238.979,358c.1,0,.177.425.177.956s-.071.965-.159.965-.177-.434-.177-.965S238.909,358,238.979,358Z" transform="translate(-165.82 -213.293)" fill="#5e6178"/>
    <path id="Trazado_112884" data-name="Trazado 112884" d="M238.979,353.67c.1,0,.168.434.168.965s-.071.965-.159.965-.168-.434-.168-.965S238.9,353.67,238.979,353.67Z" transform="translate(-165.82 -212.797)" fill="#5e6178"/>
    <path id="Trazado_112885" data-name="Trazado 112885" d="M238.976,349.33c.089,0,.159.434.159.965s-.08.956-.168.956-.168-.425-.168-.956a1.683,1.683,0,0,1,.177-.965Z" transform="translate(-165.817 -212.301)" fill="#5e6178"/>
    <path id="Trazado_112886" data-name="Trazado 112886" d="M239.036,345c.1,0,.168.425.159.956s-.08.965-.177.965-.159-.434-.159-.965A1.824,1.824,0,0,1,239.036,345Z" transform="translate(-165.824 -211.805)" fill="#5e6178"/>
    <path id="Trazado_112887" data-name="Trazado 112887" d="M239.1,340.64c.089,0,.159.434.151.965s-.089.965-.177.965-.168-.434-.159-.965S238.99,340.64,239.1,340.64Z" transform="translate(-165.831 -211.306)" fill="#5e6178"/>
    <path id="Trazado_112888" data-name="Trazado 112888" d="M239.166,336.3c.1,0,.159.434.151.965s-.089.965-.186.956-.159-.434-.151-.965S239.077,336.3,239.166,336.3Z" transform="translate(-165.839 -210.809)" fill="#5e6178"/>
    <path id="Trazado_112889" data-name="Trazado 112889" d="M239.266,332c.1,0,.159.434.151.965s-.106.956-.195.956-.159-.434-.142-.965S239.177,332,239.266,332Z" transform="translate(-165.85 -210.317)" fill="#5e6178"/>
    <path id="Trazado_112890" data-name="Trazado 112890" d="M239.422,327.61c.089,0,.151.443.124.965s-.115.965-.2.956-.151-.434-.133-.965S239.325,327.61,239.422,327.61Z" transform="translate(-165.865 -209.815)" fill="#5e6178"/>
    <path id="Trazado_112891" data-name="Trazado 112891" d="M239.669,323.27c.089,0,.142.443.106.974s-.142.956-.23.948-.142-.443-.106-.974S239.571,323.261,239.669,323.27Z" transform="translate(-165.89 -209.318)" fill="#5e6178"/>
    <path id="Trazado_112892" data-name="Trazado 112892" d="M240.062,319c.089,0,.124.443.062.974s-.168.948-.257.939-.124-.443-.071-.974S239.974,318.937,240.062,319Z" transform="translate(-165.929 -208.829)" fill="#5e6178"/>
    <path id="Trazado_112893" data-name="Trazado 112893" d="M240.487,315.72c.089,0,.133.239.1.5s-.142.46-.239.452-.133-.239-.1-.5S240.39,315.7,240.487,315.72Z" transform="translate(-165.982 -208.454)" fill="#5e6178"/>
    <path id="Trazado_112894" data-name="Trazado 112894" d="M237.669,295.19a2.657,2.657,0,0,1,.115.7c0,.46.106,1.116.168,1.939.133,1.629.292,3.879.443,6.376.071,1.24.142,2.426.2,3.542a11.006,11.006,0,0,0,.337,2.8,2.391,2.391,0,0,0,1.169,1.39,3.375,3.375,0,0,0,.664.195h-.151a1.347,1.347,0,0,1-.531-.1,2.435,2.435,0,0,1-1.337-1.426,10.468,10.468,0,0,1-.425-2.869c-.071-1.089-.142-2.276-.23-3.542-.151-2.488-.275-4.747-.345-6.385,0-.815-.053-1.479-.062-1.939A3.542,3.542,0,0,1,237.669,295.19Z" transform="translate(-165.688 -206.104)" fill="#5e6178"/>
    <path id="Trazado_112895" data-name="Trazado 112895" d="M239.626,296.9a1,1,0,0,0-.159.425.514.514,0,0,0,.133.4.459.459,0,0,0,.735-.3.549.549,0,0,0-.177-.372c-.2-.186-.407-.151-.416-.195s.213-.195.549,0a.726.726,0,0,1,.354.558.7.7,0,0,1-.469.682.717.717,0,0,1-.806-.159.771.771,0,0,1-.142-.646C239.334,296.911,239.626,296.857,239.626,296.9Z" transform="translate(-165.865 -206.284)" fill="#5e6178"/>
    <path id="Trazado_112896" data-name="Trazado 112896" d="M256.989,299.511a3.348,3.348,0,0,1-1.435.549,6.1,6.1,0,0,1-6.456-2.887,3.267,3.267,0,0,1-.549-1.443c.053,0,.23.549.753,1.311a6.429,6.429,0,0,0,2.657,2.3,6.562,6.562,0,0,0,3.542.478,8.368,8.368,0,0,0,1.488-.31Z" transform="translate(-166.934 -206.166)" fill="#5e6178"/>
    <path id="Trazado_112897" data-name="Trazado 112897" d="M224.832,295.19a2.488,2.488,0,0,1-.062,1.249,4.915,4.915,0,0,1-4.321,3.79,2.4,2.4,0,0,1-1.249-.106c0-.053.478,0,1.213-.133a5.154,5.154,0,0,0,4.127-3.613C224.761,295.659,224.779,295.19,224.832,295.19Z" transform="translate(-163.575 -206.104)" fill="#5e6178"/>
    <path id="Trazado_112898" data-name="Trazado 112898" d="M264.143,250.245l-10.91-10.99h0a19.482,19.482,0,0,0-7.536-4.879,15.567,15.567,0,0,0-4.72-.886h0a18.827,18.827,0,0,1-11.4,0c-1.567.195-11.016.354-14.24,3.542h0L205.6,254.956l10.467,7.323,3.215-6.128-.514,11.441-1.727,20.368,33.8.354-.434-18.375V256.656l4.879,4.747Z" transform="translate(-162.018 -199.042)" fill="#5e6178"/>
    <path id="Trazado_112899" data-name="Trazado 112899" d="M246.586,209.607h-21.4a1.134,1.134,0,0,1-1.142-1.125h0a1.142,1.142,0,0,1,1.142-1.142h21.4a1.142,1.142,0,0,1,1.142,1.142h0A1.142,1.142,0,0,1,246.586,209.607Z" transform="translate(-164.129 -196.049)" fill="#d9a171"/>
    <path id="Trazado_112900" data-name="Trazado 112900" d="M246.092,206.168H226.15v-1.576a9.971,9.971,0,0,1,9.971-9.971h0a9.971,9.971,0,0,1,9.971,9.971Z" transform="translate(-164.37 -194.593)" fill="#d9a171"/>
    <rect id="Rectángulo_8736" data-name="Rectángulo 8736" width="3.055" height="11.99" transform="translate(69.953 0.027)" fill="#d9a171"/>
    <path id="Trazado_112901" data-name="Trazado 112901" d="M219.73,234.162l-2.09,58.791,37.512-2.108-3.374-54.151s-6.084-4.012-9.342-3.294l-7.784,25.5-6.066-26.044Z" transform="translate(-163.396 -198.97)" fill="#d9a171"/>
    <path id="Trazado_112902" data-name="Trazado 112902" d="M254.465,282.642l-36.245-.151.124-3.392,35.873.31Z" transform="translate(-163.463 -204.263)" fill="#fff"/>
    <path id="Trazado_112903" data-name="Trazado 112903" d="M254.745,291.492l-36.865-.151L218,287.95h36.52Z" transform="translate(-163.424 -205.275)" fill="#fff"/>
    <path id="Trazado_112904" data-name="Trazado 112904" d="M259.72,262.606l3.471,3.037-24.91-2.409-2.931,7.89,31.995,5.685c3.719.5,9.67-1.93,10.317-6.792h0a8.962,8.962,0,0,0-2.444-7.447l-8.9-8.43" transform="translate(-165.423 -201.406)" fill="#ffbe9d"/>
    <path id="Trazado_112905" data-name="Trazado 112905" d="M235.276,205.977a34.536,34.536,0,0,1-.23-5.659,34.538,34.538,0,0,1,.23-5.659,35.553,35.553,0,0,1,.23,5.659A35.553,35.553,0,0,1,235.276,205.977Z" transform="translate(-165.385 -194.598)" fill="#344154"/>
    <path id="Trazado_112906" data-name="Trazado 112906" d="M238.746,205.977a34.537,34.537,0,0,1-.23-5.659,34.538,34.538,0,0,1,.23-5.659,35.556,35.556,0,0,1,.23,5.659A35.555,35.555,0,0,1,238.746,205.977Z" transform="translate(-165.782 -194.598)" fill="#344154"/>
    <path id="Trazado_112907" data-name="Trazado 112907" d="M246.421,207.27c0,.124-4.569.23-10.21.23s-10.21-.106-10.21-.23,4.569-.23,10.219-.23S246.421,207.137,246.421,207.27Z" transform="translate(-164.353 -196.015)" fill="#344154"/>
    <g id="Grupo_60427" data-name="Grupo 60427" transform="translate(73.026)" opacity="0.2">
      <path id="Trazado_112908" data-name="Trazado 112908" d="M238.85,194.59v11.317l1.523-10.892Z" transform="translate(-238.85 -194.59)"/>
    </g>
    <g id="Grupo_60428" data-name="Grupo 60428" transform="translate(62.528 1.886)" opacity="0.6">
      <path id="Trazado_112909" data-name="Trazado 112909" d="M233.048,196.72a10.779,10.779,0,0,1-1.328.735,9.573,9.573,0,0,0-4.277,5.535,10.448,10.448,0,0,1-.39,1.461,3.357,3.357,0,0,1,.071-1.541,8.315,8.315,0,0,1,4.428-5.738A3.276,3.276,0,0,1,233.048,196.72Z" transform="translate(-226.995 -196.72)" fill="#fff"/>
    </g>
    <path id="Trazado_112910" data-name="Trazado 112910" d="M235.117,219.518c.08.089-.4.664-1.178,1.125s-1.505.629-1.55.514.584-.46,1.311-.886S235.029,219.421,235.117,219.518Z" transform="translate(-165.084 -197.442)" fill="#344154"/>
    <path id="Trazado_112911" data-name="Trazado 112911" d="M234.533,271.465a62.628,62.628,0,0,1-6.447.177c-3-.2-2.993-.478-2.9-.824.221-.93,5.313.159,4.348-.708s-6.367-.611-6.093-1.567c.354-1.257,5.65,0,6.11.053s.576-.584.159-.629c-.6-.062-6.845-.886-6.509-2.09.186-.691,1.39-.239,1.39-.239s5.791,1.187,5.933.593-3.241-1.4-4.428-1.594-1.523-.806-1.018-1.249c.345-.3,3.905.2,5.048.425s4.259.886,2.984-.708-1.674-3.259-1.461-3.79a.647.647,0,0,1,1.2.186,7.474,7.474,0,0,0,.965,1.771,5.119,5.119,0,0,0,1.125,1.187A21.02,21.02,0,0,0,237,263.806" transform="translate(-164.031 -201.959)" fill="#ffbe9d"/>
  </g>
  <g id="freepik--Machine--inject-259" transform="translate(0 102.546)">
    <path id="Trazado_112912" data-name="Trazado 112912" d="M444.148,254.68l3.9.2-.035,5.871,4.41,2.3-.027,3.861-2.887,3.994-.115-5.561-3.6-1.877-3.073,1.6.186,6-3.179-3.9.177-3.569,4.091-3.046Z" transform="translate(-74.876 -189.999)" fill="#344154"/>
    <path id="Trazado_112913" data-name="Trazado 112913" d="M93.058,258.57c0,.044-.886.248-2.32.762a24.8,24.8,0,0,0-5.862,3.064,30.313,30.313,0,0,0-7,6.863,38.273,38.273,0,0,0-5.508,10.627,57.986,57.986,0,0,0-2.418,11.831c-.39,3.693-.5,7.04-.54,9.847s0,5.092,0,6.668v1.815a3.728,3.728,0,0,1,0,.629,2.967,2.967,0,0,1-.062-.629l-.08-1.815c-.053-1.567-.124-3.852-.124-6.668a97.06,97.06,0,0,1,.452-9.847,56.835,56.835,0,0,1,2.426-11.893,38.353,38.353,0,0,1,5.605-10.759,30.037,30.037,0,0,1,7.084-6.881,23.309,23.309,0,0,1,5.986-2.967,15.39,15.39,0,0,1,1.771-.478,3.368,3.368,0,0,1,.593-.168Z" transform="translate(-32.461 -190.445)" fill="#344154"/>
    <path id="Trazado_112914" data-name="Trazado 112914" d="M65.408,309.748a3.737,3.737,0,0,1-.062-.7c0-.5-.044-1.16-.071-1.984-.053-1.771-.115-4.233-.115-7.332s.089-6.774.46-10.857a69.959,69.959,0,0,1,2.418-13.1,47.332,47.332,0,0,1,5.543-12.114,36.678,36.678,0,0,1,7.155-8.182,29.312,29.312,0,0,1,6.146-4,19.786,19.786,0,0,1,1.842-.779,3.383,3.383,0,0,1,.655-.23,5.784,5.784,0,0,1-.62.31,17.944,17.944,0,0,0-1.771.886,30.108,30.108,0,0,0-6.031,4.065,37.253,37.253,0,0,0-7.014,8.165A47.128,47.128,0,0,0,68.49,275.9a71.373,71.373,0,0,0-2.435,13.009c-.4,4.065-.514,7.74-.558,10.83s0,5.588,0,7.315v1.992a3.692,3.692,0,0,1-.089.7Z" transform="translate(-32.005 -189.518)" fill="#344154"/>
    <path id="Trazado_112915" data-name="Trazado 112915" d="M180.476,193.232c-.275.531,1.381,31.056,1.381,31.056l3.87-.062.124-31.136Z" transform="translate(-45.2 -182.95)" fill="#344154"/>
    <path id="Trazado_112916" data-name="Trazado 112916" d="M186.137,209.82l-9.165.726.443,13.85-10.255,5.712.3,9.1,7.049,9.227-.062-13.115,8.368-4.658,7.35,3.586L190.1,248.4l7.261-9.387-.638-8.4-9.83-6.916Z" transform="translate(-43.68 -184.865)" fill="#344154"/>
    <path id="Trazado_112917" data-name="Trazado 112917" d="M150.393,199.935l-37.565,45.3A11.167,11.167,0,0,1,97.1,246.71h0a11.167,11.167,0,0,1-1.435-15.718l37.565-45.313a11.176,11.176,0,0,1,15.727-1.47h0A11.176,11.176,0,0,1,150.393,199.935Z" transform="translate(-35.201 -181.64)" fill="#5e6178"/>
    <rect id="Rectángulo_8737" data-name="Rectángulo 8737" width="47.439" height="14.018" rx="7.009" transform="translate(97.428 4.03)" fill="#5e6178"/>
    <path id="Trazado_112918" data-name="Trazado 112918" d="M106.072,329.661h0A15.7,15.7,0,0,1,90.38,313.978V246.623a15.7,15.7,0,0,1,15.692-15.683h0a15.683,15.683,0,0,1,15.683,15.683v67.355A15.683,15.683,0,0,1,106.072,329.661Z" transform="translate(-34.892 -187.282)" fill="#5e6178"/>
    <circle id="Elipse_4356" data-name="Elipse 4356" cx="7.731" cy="7.731" r="7.731" transform="translate(60.564 127.396) rotate(-45)" fill="#344154"/>
    <ellipse id="Elipse_4357" data-name="Elipse 4357" cx="7.731" cy="7.731" rx="7.731" ry="7.731" transform="translate(63.458 49.485)" fill="#344154"/>
    <ellipse id="Elipse_4358" data-name="Elipse 4358" cx="4.693" cy="4.693" rx="4.693" ry="4.693" transform="translate(100.704 6.35)" fill="#344154"/>
    <path id="Trazado_112919" data-name="Trazado 112919" d="M186.057,191.44a3.188,3.188,0,1,1-4.507,0h0A3.2,3.2,0,0,1,186.057,191.44Z" transform="translate(-45.22 -182.655)" fill="#344154"/>
    <path id="Trazado_112920" data-name="Trazado 112920" d="M121.975,247.873a19.314,19.314,0,0,0-.974-5.889,17.162,17.162,0,0,0-3.259-5.561,15.054,15.054,0,0,0-14.257-5.048,16.922,16.922,0,0,0-6.057,2.24A19.853,19.853,0,0,0,93,237.574a1.478,1.478,0,0,1,.221-.354,9.476,9.476,0,0,1,.726-.965,14.9,14.9,0,0,1,3.356-2.922,16.666,16.666,0,0,1,6.128-2.4,15.231,15.231,0,0,1,14.647,5.189,16.666,16.666,0,0,1,3.259,5.729,14.983,14.983,0,0,1,.762,4.375,9.113,9.113,0,0,1,0,1.2A1.31,1.31,0,0,1,121.975,247.873Z" transform="translate(-35.192 -187.248)" fill="#344154"/>
    <path id="Trazado_112921" data-name="Trazado 112921" d="M157.14,185a5.633,5.633,0,0,1,.443.558,10.336,10.336,0,0,1,.886,1.7,12.992,12.992,0,0,1,.886,2.736,14.875,14.875,0,0,1,.275,3.542,15.459,15.459,0,0,1-.584,3.48,13.679,13.679,0,0,1-1.107,2.657,9.74,9.74,0,0,1-1.072,1.6c-.292.354-.469.54-.5.514s.567-.832,1.275-2.267a15.711,15.711,0,0,0,.992-2.657,16.826,16.826,0,0,0,.531-3.383,16.364,16.364,0,0,0-.23-3.418,14.648,14.648,0,0,0-.753-2.657C157.627,185.886,157.061,185.089,157.14,185Z" transform="translate(-42.445 -182.024)" fill="#344154"/>
    <rect id="Rectángulo_8738" data-name="Rectángulo 8738" width="401.922" height="27.868" rx="13.934" transform="translate(0 117.131)" fill="#5e6178"/>
    <ellipse id="Elipse_4359" data-name="Elipse 4359" cx="6.925" cy="6.925" rx="6.925" ry="6.925" transform="translate(357.344 124.969)" fill="#344154"/>
    <ellipse id="Elipse_4360" data-name="Elipse 4360" cx="6.925" cy="6.925" rx="6.925" ry="6.925" transform="translate(294.302 124.942)" fill="#344154"/>
    <ellipse id="Elipse_4361" data-name="Elipse 4361" cx="6.925" cy="6.925" rx="6.925" ry="6.925" transform="translate(231.251 124.977)" fill="#344154"/>
    <ellipse id="Elipse_4362" data-name="Elipse 4362" cx="6.925" cy="6.925" rx="6.925" ry="6.925" transform="translate(168.191 124.977)" fill="#344154"/>
    <ellipse id="Elipse_4363" data-name="Elipse 4363" cx="6.89" cy="6.89" rx="6.89" ry="6.89" transform="translate(103.865 124.234)" fill="#344154"/>
    <ellipse id="Elipse_4364" data-name="Elipse 4364" cx="6.925" cy="6.925" rx="6.925" ry="6.925" transform="translate(19.181 124.96)" fill="#344154"/>
    <path id="Trazado_112922" data-name="Trazado 112922" d="M122.532,313.88c0,.124-7.235.23-16.161.23S90.21,314,90.21,313.88s7.235-.23,16.161-.23S122.532,313.747,122.532,313.88Z" transform="translate(-34.872 -196.749)" fill="#344154"/>
    <rect id="Rectángulo_8739" data-name="Rectángulo 8739" width="45.606" height="29.312" transform="translate(350.171 87.82)" fill="#d9a171"/>
    <path id="Trazado_112923" data-name="Trazado 112923" d="M478.535,280.774a4.428,4.428,0,1,1,0-.062Z" transform="translate(-78.305 -192.476)" fill="#5e6178"/>
    <path id="Trazado_112924" data-name="Trazado 112924" d="M473.92,283.174l-2.09-2.1.629-.629,1.452,1.461,2.426-2.5.638.611Z" transform="translate(-78.551 -192.83)" fill="#fff"/>
    <path id="Trazado_112925" data-name="Trazado 112925" d="M459.2,310.56c-.124,0-.23-6.6-.23-14.736s.106-14.744.23-14.744.23,6.6.23,14.744S459.333,310.56,459.2,310.56Z" transform="translate(-77.079 -193.021)" fill="#344154"/>
    <rect id="Rectángulo_8740" data-name="Rectángulo 8740" width="41.497" height="26.673" transform="translate(227.842 90.68)" fill="#d9a171"/>
    <path id="Trazado_112926" data-name="Trazado 112926" d="M313.79,310.7c-.124,0-.23-5.977-.23-13.345s.106-13.345.23-13.345.23,5.977.23,13.345S313.95,310.7,313.79,310.7Z" transform="translate(-60.436 -193.356)" fill="#344154"/>
    <rect id="Rectángulo_8741" data-name="Rectángulo 8741" width="29.365" height="49.006" transform="translate(92.761 68.125)" fill="#d9a171"/>
    <path id="Trazado_112927" data-name="Trazado 112927" d="M158.39,307.469c-.124,0-.23-10.875-.23-24.3s.106-24.3.23-24.3.23,10.883.23,24.3S158.514,307.469,158.39,307.469Z" transform="translate(-42.65 -190.479)" fill="#344154"/>
  </g>
</svg>
