<svg xmlns="http://www.w3.org/2000/svg" width="120" height="120" viewBox="0 0 120 120">
  <g id="Grupo_60441" data-name="Grupo 60441" transform="translate(0.44 0.012)">
    <g id="Grupo_60437" data-name="Grupo 60437" transform="translate(-0.44 -0.012)">
      <rect id="Rectángulo_8744" data-name="Rectángulo 8744" width="120" height="120" fill="#344154" opacity="0"/>
      <path id="Trazado_112948" data-name="Trazado 112948" d="M1198.508,5846.775a49.407,49.407,0,1,1-49.408-49.407A49.406,49.406,0,0,1,1198.508,5846.775Z" transform="translate(-1088.604 -5785.758)" fill="#344154"/>
    </g>
    <g id="Grupo_60440" data-name="Grupo 60440" transform="translate(6.07 10.95)">
      <g id="Grupo_60439" data-name="Grupo 60439" transform="translate(1.466 1.448)">
        <path id="Trazado_112949" data-name="Trazado 112949" d="M1185.581,5810.386l5.243,18.481a5.486,5.486,0,0,1-.9,4.8c-3.544,4.74-14.017,15.279-40.366,22.148s-40.947,2.865-46.506.5a5.758,5.758,0,0,1-3.315-3.7l-5.242-18.481a5.657,5.657,0,0,1,4.162-6.971l79.656-20.766a5.957,5.957,0,0,1,7.271,3.99Z" transform="translate(-1094.282 -5801.916)" fill="#9c8f9a"/>
        <path id="Trazado_112950" data-name="Trazado 112950" d="M1185.581,5810.386l5.243,18.481a5.486,5.486,0,0,1-.9,4.8c-3.544,4.74-14.017,15.279-40.366,22.148s-40.947,2.865-46.506.5a5.758,5.758,0,0,1-3.315-3.7l-5.242-18.481a5.657,5.657,0,0,1,4.162-6.971l79.656-20.766a5.957,5.957,0,0,1,7.271,3.99Z" transform="translate(-1094.282 -5801.916)" fill="#9c8f9a"/>
        <path id="Trazado_112951" data-name="Trazado 112951" d="M1185.581,5810.386l5.243,18.481a5.486,5.486,0,0,1-.9,4.8c-3.544,4.74-14.017,15.279-40.366,22.148s-40.947,2.865-46.506.5a5.758,5.758,0,0,1-3.315-3.7l-5.242-18.481a5.657,5.657,0,0,1,4.162-6.971l79.656-20.766a5.957,5.957,0,0,1,7.271,3.99Z" transform="translate(-1094.282 -5801.916)" fill="#d9a171"/>
        <path id="Trazado_112952" data-name="Trazado 112952" d="M1192.238,5844.892c-3.551,4.738-14.045,15.278-40.448,22.147s-41.031,2.865-46.6.5a5.759,5.759,0,0,1-3.322-3.7l.9,3.168a5.764,5.764,0,0,0,3.322,3.7c5.571,2.364,20.2,6.369,46.6-.5s36.9-17.407,40.449-22.147a5.481,5.481,0,0,0,.9-4.8l-.9-3.169a5.482,5.482,0,0,1-.9,4.8Z" transform="translate(-1097.503 -5814.528)" fill="#a66d58"/>
        <path id="Trazado_112953" data-name="Trazado 112953" d="M1155.636,5876.278c-25.909,6.749-40.465,3-46.245.626l8.139,28.665a5.963,5.963,0,0,0,7.279,3.991l75.009-19.537a5.659,5.659,0,0,0,4.166-6.972l-8.139-28.665c-3.728,4.854-14.3,15.143-40.208,21.892Z" transform="translate(-1100.698 -5818.379)" fill="#a37955"/>
        <path id="Trazado_112954" data-name="Trazado 112954" d="M1109.391,5876.9l.9,3.168c5.8,2.377,20.41,6.124,46.412-.625s36.611-17.04,40.352-21.893l-.9-3.168c-3.741,4.854-14.35,15.143-40.353,21.892s-40.611,3-46.412.626Z" transform="translate(-1100.698 -5820.19)" fill="#a66d58"/>
        <path id="Trazado_112955" data-name="Trazado 112955" d="M1183.509,5893.955a5.32,5.32,0,0,1-6.53-3.737l-1.708-6.282a1.894,1.894,0,0,1,1.33-2.324l6.614-1.8a1.892,1.892,0,0,1,2.323,1.331l1.708,6.282a5.32,5.32,0,0,1-3.737,6.529Z" transform="translate(-1126.509 -5830.593)" fill="#f2e9e4"/>
        <path id="Trazado_112956" data-name="Trazado 112956" d="M1183.321,5894.114a5.32,5.32,0,0,1-6.53-3.738l.862,3.169a5.32,5.32,0,0,0,10.268-2.793l-.862-3.167a5.32,5.32,0,0,1-3.738,6.529Z" transform="translate(-1127.163 -5833.837)" fill="#f9cf58"/>
        <path id="Trazado_112957" data-name="Trazado 112957" d="M1146.12,5816.116l-1.644-6.046a22.425,22.425,0,0,1,18.355-4.991l1.645,6.047,5.74-1.562-2.086-7.672a2.974,2.974,0,0,0-1.75-1.975,17.81,17.81,0,0,0-4.343-.993,28.933,28.933,0,0,0-19.99,5.437,17.755,17.755,0,0,0-3.242,3.056,2.972,2.972,0,0,0-.509,2.589l2.086,7.672,5.74-1.561Z" transform="translate(-1111.428 -5798.757)" fill="#6595bf"/>
        <g id="Grupo_60438" data-name="Grupo 60438" transform="translate(28.138 7.638)">
          <path id="Trazado_112958" data-name="Trazado 112958" d="M1140.5,5824.98l5.74-1.561.862,3.168-5.74,1.561Z" transform="translate(-1140.499 -5816.867)" fill="#d66e41"/>
          <path id="Trazado_112959" data-name="Trazado 112959" d="M1182.375,5813.593l5.74-1.561.862,3.168-5.74,1.561Z" transform="translate(-1158.28 -5812.032)" fill="#d66e41"/>
        </g>
      </g>
      <path id="Trazado_112960" data-name="Trazado 112960" d="M1176.647,5800.979l-22.846,6.244-1.8-6.645a4.562,4.562,0,0,0-2.661-3.018,19.7,19.7,0,0,0-4.892-1.134,27.736,27.736,0,0,0-3.692-.18,1.432,1.432,0,0,0,.048,2.863,24.6,24.6,0,0,1,3.313.162,17.27,17.27,0,0,1,4.151.943,1.689,1.689,0,0,1,.984,1.115l1.8,6.646-3.226.882-1.338-4.945a1.427,1.427,0,0,0-1.083-1.024,24.678,24.678,0,0,0-20.358,5.563,1.437,1.437,0,0,0-.417,1.436l1.338,4.945-3.227.881-1.8-6.646a1.7,1.7,0,0,1,.287-1.463,17.327,17.327,0,0,1,3.1-2.926,27.691,27.691,0,0,1,9.4-4.541c.584-.159,1.181-.3,1.774-.427a1.431,1.431,0,0,0-.579-2.8c-.649.134-1.3.292-1.942.467a30.565,30.565,0,0,0-10.368,5.019,19.788,19.788,0,0,0-3.646,3.469,4.587,4.587,0,0,0-.774,3.956l1.8,6.646-22.844,6.244a7.387,7.387,0,0,0-5.155,9.051l5.232,19.336a7.337,7.337,0,0,0,3.785,4.655l7.94,29.347a7.341,7.341,0,0,0,9.006,5.18l54.314-14.844a1.432,1.432,0,0,0-.747-2.764l-54.315,14.845a4.49,4.49,0,0,1-5.509-3.168l-7.385-27.292a47.391,47.391,0,0,0,9.416,2.022,1.432,1.432,0,0,0,.331-2.844,39.962,39.962,0,0,1-11.577-2.945,4.487,4.487,0,0,1-2.511-2.94l-5.232-19.337a4.52,4.52,0,0,1,3.154-5.537l79.5-21.729a4.492,4.492,0,0,1,5.508,3.171l5.233,19.335a4.514,4.514,0,0,1-.685,3.814,41.912,41.912,0,0,1-9.978,9.519,86.431,86.431,0,0,1-22.855,11.093l-.853-3.155a3.4,3.4,0,0,0-4.168-2.4l-6.885,1.883a3.419,3.419,0,0,0-2.386,4.188l.854,3.158a92.349,92.349,0,0,1-20.929,2.284,1.432,1.432,0,0,0-.048,2.864,95.331,95.331,0,0,0,21.725-2.382l.176.65a6.966,6.966,0,1,0,13.438-3.673l-.176-.649c18.326-6.054,27.768-13.863,32.406-19.195l7.383,27.286a4.52,4.52,0,0,1-3.153,5.538l-14.983,4.1a1.431,1.431,0,0,0,.748,2.763l14.982-4.1a7.386,7.386,0,0,0,5.155-9.051l-7.941-29.347a7.374,7.374,0,0,0,.92-5.939l-5.232-19.336a7.343,7.343,0,0,0-9.006-5.181Zm-49.032,9.028a22.147,22.147,0,0,1,16.359-4.471l1.1,4.071-16.359,4.47-1.1-4.071Zm25.179,44.835a4.116,4.116,0,1,1-7.94,2.169l-1.779-6.572a.55.55,0,0,1,.384-.674l6.885-1.883a.548.548,0,0,1,.671.386Z" transform="translate(-1091.734 -5796.241)" fill="#d9a171"/>
    </g>
  </g>
</svg>
