<svg xmlns="http://www.w3.org/2000/svg" width="400" height="130" viewBox="0 0 400 130">
  <g id="Grupo_60539" data-name="Grupo 60539" transform="translate(-600 -7800)">
    <path id="Trazado_113206" data-name="Trazado 113206" d="M0,0H400V130H0Z" transform="translate(600 7800)" fill="#6595bf" opacity="0.25"/>
    <path id="Trazado_113207" data-name="Trazado 113207" d="M20.678,19h-8.93V17.066l4.113-4.324a4.909,4.909,0,0,0,1.521-2.751,1.913,1.913,0,0,0-.36-1.257A1.287,1.287,0,0,0,15.976,8.3a1.3,1.3,0,0,0-1.1.576,2.366,2.366,0,0,0-.422,1.437H11.485a4.2,4.2,0,0,1,.589-2.175,4.129,4.129,0,0,1,1.635-1.56,4.856,4.856,0,0,1,2.338-.562,4.777,4.777,0,0,1,3.195.958,3.42,3.42,0,0,1,1.121,2.751,4,4,0,0,1-.281,1.472,6.456,6.456,0,0,1-.875,1.5,22.029,22.029,0,0,1-1.912,2.1l-1.652,1.907h5.036Zm10.38-5.229a6.11,6.11,0,0,1-1.165,4,4.024,4.024,0,0,1-3.283,1.406,4.046,4.046,0,0,1-3.3-1.415,6.1,6.1,0,0,1-1.169-3.99V11.433a6.11,6.11,0,0,1,1.165-4,4.034,4.034,0,0,1,3.292-1.406,4.036,4.036,0,0,1,3.3,1.415,6.116,6.116,0,0,1,1.169,4ZM28.1,11.055a4.564,4.564,0,0,0-.36-2.061,1.2,1.2,0,0,0-1.143-.681,1.176,1.176,0,0,0-1.112.633,4.3,4.3,0,0,0-.374,1.916v3.27a4.6,4.6,0,0,0,.36,2.1,1.209,1.209,0,0,0,1.143.664,1.193,1.193,0,0,0,1.116-.646,4.39,4.39,0,0,0,.369-2.026Zm6.381,5.071a1.686,1.686,0,0,1,1.169.417,1.457,1.457,0,0,1,0,2.136,1.844,1.844,0,0,1-2.342,0,1.456,1.456,0,0,1,0-2.127A1.672,1.672,0,0,1,34.477,16.126Zm12.19-6.5a2.954,2.954,0,0,1-.461,1.644,3.361,3.361,0,0,1-1.27,1.143,3.7,3.7,0,0,1,1.45,1.226,3.164,3.164,0,0,1,.536,1.841,3.349,3.349,0,0,1-1.182,2.707,4.909,4.909,0,0,1-3.256.993,5,5,0,0,1-3.287-1,3.325,3.325,0,0,1-1.2-2.7,3.2,3.2,0,0,1,.527-1.819,3.586,3.586,0,0,1,1.494-1.248,3.38,3.38,0,0,1-1.283-1.143,2.934,2.934,0,0,1-.466-1.644A3.284,3.284,0,0,1,39.4,6.985a4.558,4.558,0,0,1,3.059-.967,4.586,4.586,0,0,1,3.076.967A3.284,3.284,0,0,1,46.667,9.622Zm-2.716,5.616a1.69,1.69,0,0,0-.409-1.217,1.423,1.423,0,0,0-1.077-.426,1.438,1.438,0,0,0-1.081.426,1.678,1.678,0,0,0-.413,1.217,1.693,1.693,0,0,0,.417,1.208,1.433,1.433,0,0,0,1.094.444,1.377,1.377,0,0,0,1.063-.439A1.723,1.723,0,0,0,43.952,15.238ZM42.458,8.3a1.1,1.1,0,0,0-.91.391,1.7,1.7,0,0,0-.312,1.085,1.8,1.8,0,0,0,.316,1.107,1.092,1.092,0,0,0,.932.422,1.047,1.047,0,0,0,.91-.422,1.856,1.856,0,0,0,.3-1.107A1.7,1.7,0,0,0,43.385,8.7,1.109,1.109,0,0,0,42.458,8.3Zm8.71,3.059h1.4a1.453,1.453,0,0,0,1.661-1.626,1.406,1.406,0,0,0-.4-1.033,1.5,1.5,0,0,0-1.116-.4,1.606,1.606,0,0,0-1.024.343,1.046,1.046,0,0,0-.435.853H48.293a3.032,3.032,0,0,1,.563-1.8,3.715,3.715,0,0,1,1.56-1.235,5.334,5.334,0,0,1,2.193-.444,5.241,5.241,0,0,1,3.357.976,3.243,3.243,0,0,1,1.222,2.681,2.7,2.7,0,0,1-.505,1.56,3.6,3.6,0,0,1-1.472,1.191,3.441,3.441,0,0,1,1.6,1.121,2.951,2.951,0,0,1,.58,1.859,3.3,3.3,0,0,1-1.318,2.742,5.472,5.472,0,0,1-3.463,1.028,5.675,5.675,0,0,1-2.333-.479,3.656,3.656,0,0,1-1.63-1.327,3.45,3.45,0,0,1-.554-1.929h2.979a1.334,1.334,0,0,0,.475,1.02,1.676,1.676,0,0,0,1.169.431,1.755,1.755,0,0,0,1.248-.435,1.454,1.454,0,0,0,.466-1.112,1.7,1.7,0,0,0-.483-1.371,2.021,2.021,0,0,0-1.336-.4H51.167Zm10.424,0h1.4A1.453,1.453,0,0,0,64.65,9.736a1.406,1.406,0,0,0-.4-1.033,1.5,1.5,0,0,0-1.116-.4,1.606,1.606,0,0,0-1.024.343,1.046,1.046,0,0,0-.435.853H58.717a3.032,3.032,0,0,1,.563-1.8,3.715,3.715,0,0,1,1.56-1.235,5.334,5.334,0,0,1,2.193-.444,5.241,5.241,0,0,1,3.357.976,3.243,3.243,0,0,1,1.222,2.681,2.7,2.7,0,0,1-.505,1.56,3.6,3.6,0,0,1-1.472,1.191,3.441,3.441,0,0,1,1.6,1.121,2.951,2.951,0,0,1,.58,1.859A3.3,3.3,0,0,1,66.5,18.147a5.472,5.472,0,0,1-3.463,1.028A5.675,5.675,0,0,1,60.7,18.7a3.656,3.656,0,0,1-1.63-1.327,3.45,3.45,0,0,1-.554-1.929h2.979a1.334,1.334,0,0,0,.475,1.02,1.676,1.676,0,0,0,1.169.431,1.755,1.755,0,0,0,1.248-.435,1.454,1.454,0,0,0,.466-1.112,1.7,1.7,0,0,0-.483-1.371,2.021,2.021,0,0,0-1.336-.4H61.591ZM70.4,22.445l-1.494-.7.3-.6a4.874,4.874,0,0,0,.642-2.18v-2.2h2.373l-.009,1.907a4.767,4.767,0,0,1-.519,2.057A5.226,5.226,0,0,1,70.4,22.445ZM80,14.052a3.128,3.128,0,0,1-2.145.861,3.463,3.463,0,0,1-2.76-1.178,4.64,4.64,0,0,1-1.02-3.146A4.722,4.722,0,0,1,74.643,8.3a4.287,4.287,0,0,1,1.6-1.67,4.373,4.373,0,0,1,2.281-.615,4.245,4.245,0,0,1,2.29.637,4.29,4.29,0,0,1,1.6,1.8A6.189,6.189,0,0,1,83,11.143v1.134a7.693,7.693,0,0,1-.831,3.674A5.734,5.734,0,0,1,79.8,18.341a7.4,7.4,0,0,1-3.586.835h-.185V16.8l.563-.009Q79.653,16.645,80,14.052Zm-1.345-1.274a1.442,1.442,0,0,0,1.389-.835v-1.23a3.2,3.2,0,0,0-.413-1.819A1.3,1.3,0,0,0,78.51,8.3a1.225,1.225,0,0,0-1.046.668,2.968,2.968,0,0,0-.422,1.617,2.661,2.661,0,0,0,.431,1.6A1.378,1.378,0,0,0,78.651,12.777ZM93.214,9.622a2.954,2.954,0,0,1-.461,1.644,3.361,3.361,0,0,1-1.27,1.143,3.7,3.7,0,0,1,1.45,1.226,3.164,3.164,0,0,1,.536,1.841,3.349,3.349,0,0,1-1.182,2.707,4.909,4.909,0,0,1-3.256.993,5,5,0,0,1-3.287-1,3.325,3.325,0,0,1-1.2-2.7,3.2,3.2,0,0,1,.527-1.819,3.586,3.586,0,0,1,1.494-1.248,3.38,3.38,0,0,1-1.283-1.143,2.934,2.934,0,0,1-.466-1.644,3.284,3.284,0,0,1,1.134-2.637,5.349,5.349,0,0,1,6.135,0A3.284,3.284,0,0,1,93.214,9.622ZM90.5,15.238a1.69,1.69,0,0,0-.409-1.217,1.423,1.423,0,0,0-1.077-.426,1.438,1.438,0,0,0-1.081.426,1.678,1.678,0,0,0-.413,1.217,1.693,1.693,0,0,0,.417,1.208,1.433,1.433,0,0,0,1.094.444,1.377,1.377,0,0,0,1.063-.439A1.723,1.723,0,0,0,90.5,15.238ZM89,8.3a1.1,1.1,0,0,0-.91.391,1.7,1.7,0,0,0-.312,1.085,1.8,1.8,0,0,0,.316,1.107,1.092,1.092,0,0,0,.932.422,1.047,1.047,0,0,0,.91-.422,1.856,1.856,0,0,0,.3-1.107A1.7,1.7,0,0,0,89.932,8.7,1.109,1.109,0,0,0,89,8.3Zm15.442,2.153L106.539,6.2h3.524l-3.577,6.346L110.16,19H106.6l-2.153-4.333L102.293,19H98.743l3.665-6.451L98.839,6.2h3.516ZM122.025,19h-2.971V9.543l-2.918.853V8.146L121.752,6.2h.272Zm4.034-6.251.782-6.546h7.479v2.3H129.25l-.29,2.542a3.493,3.493,0,0,1,.831-.327,4.179,4.179,0,0,1,3.938.988,4.549,4.549,0,0,1,1.024,3.168,4.541,4.541,0,0,1-.549,2.228,3.776,3.776,0,0,1-1.542,1.534,4.87,4.87,0,0,1-2.347.536,5.24,5.24,0,0,1-2.259-.5,4.052,4.052,0,0,1-1.652-1.361,3.308,3.308,0,0,1-.589-1.954h2.971a1.68,1.68,0,0,0,.448,1.114,1.423,1.423,0,0,0,1.063.412q1.494,0,1.494-2.21,0-2.044-1.828-2.044a1.824,1.824,0,0,0-1.547.667Zm19.134,1.021a6.11,6.11,0,0,1-1.165,4,4.551,4.551,0,0,1-6.587-.009,6.1,6.1,0,0,1-1.169-3.99V11.433a6.11,6.11,0,0,1,1.165-4,4.551,4.551,0,0,1,6.587.009,6.116,6.116,0,0,1,1.169,4Zm-2.962-2.716a4.564,4.564,0,0,0-.36-2.061,1.2,1.2,0,0,0-1.143-.681,1.176,1.176,0,0,0-1.112.633,4.3,4.3,0,0,0-.374,1.916v3.27a4.6,4.6,0,0,0,.36,2.1,1.209,1.209,0,0,0,1.143.664,1.193,1.193,0,0,0,1.116-.646,4.39,4.39,0,0,0,.369-2.026Zm5.59,11.391-1.494-.7.3-.6a4.874,4.874,0,0,0,.642-2.18v-2.2h2.373l-.009,1.907a4.767,4.767,0,0,1-.519,2.057A5.226,5.226,0,0,1,147.821,22.445Zm9.6-8.394a3.128,3.128,0,0,1-2.145.861,3.463,3.463,0,0,1-2.76-1.178,4.64,4.64,0,0,1-1.02-3.146,4.722,4.722,0,0,1,.571-2.285,4.287,4.287,0,0,1,1.6-1.67,4.373,4.373,0,0,1,2.281-.615,4.245,4.245,0,0,1,2.29.637,4.29,4.29,0,0,1,1.6,1.8,6.189,6.189,0,0,1,.589,2.685v1.134a7.693,7.693,0,0,1-.831,3.674,5.734,5.734,0,0,1-2.369,2.391,7.4,7.4,0,0,1-3.586.835h-.185V16.8l.563-.009Q157.076,16.645,157.418,14.052Zm-1.345-1.274a1.442,1.442,0,0,0,1.389-.835v-1.23a3.2,3.2,0,0,0-.413-1.819,1.3,1.3,0,0,0-1.116-.589,1.225,1.225,0,0,0-1.046.668,2.968,2.968,0,0,0-.422,1.617,2.661,2.661,0,0,0,.431,1.6A1.378,1.378,0,0,0,156.074,12.777Zm14.563-3.155a2.954,2.954,0,0,1-.461,1.644,3.361,3.361,0,0,1-1.27,1.143,3.7,3.7,0,0,1,1.45,1.226,3.164,3.164,0,0,1,.536,1.841,3.349,3.349,0,0,1-1.182,2.707,4.909,4.909,0,0,1-3.256.993,5,5,0,0,1-3.287-1,3.325,3.325,0,0,1-1.2-2.7,3.2,3.2,0,0,1,.527-1.819,3.586,3.586,0,0,1,1.494-1.248,3.38,3.38,0,0,1-1.283-1.143,2.934,2.934,0,0,1-.466-1.644,3.284,3.284,0,0,1,1.134-2.637,5.349,5.349,0,0,1,6.135,0A3.284,3.284,0,0,1,170.637,9.622Zm-2.716,5.616a1.69,1.69,0,0,0-.409-1.217,1.423,1.423,0,0,0-1.077-.426,1.438,1.438,0,0,0-1.081.426,1.678,1.678,0,0,0-.413,1.217,1.693,1.693,0,0,0,.417,1.208,1.433,1.433,0,0,0,1.094.444,1.377,1.377,0,0,0,1.063-.439A1.723,1.723,0,0,0,167.921,15.238ZM166.427,8.3a1.1,1.1,0,0,0-.91.391,1.7,1.7,0,0,0-.312,1.085,1.8,1.8,0,0,0,.316,1.107,1.092,1.092,0,0,0,.932.422,1.047,1.047,0,0,0,.91-.422,1.856,1.856,0,0,0,.3-1.107,1.7,1.7,0,0,0-.312-1.081A1.109,1.109,0,0,0,166.427,8.3Zm14.484,4.351h-8.139V10.369h8.139Zm0,3.858h-8.139V14.228h8.139Zm4.764-5.15h1.4a1.453,1.453,0,0,0,1.661-1.626,1.406,1.406,0,0,0-.4-1.033,1.5,1.5,0,0,0-1.116-.4,1.606,1.606,0,0,0-1.024.343,1.046,1.046,0,0,0-.435.853H182.8a3.032,3.032,0,0,1,.563-1.8,3.715,3.715,0,0,1,1.56-1.235,5.334,5.334,0,0,1,2.193-.444,5.241,5.241,0,0,1,3.357.976A3.243,3.243,0,0,1,191.7,9.675a2.7,2.7,0,0,1-.505,1.56,3.6,3.6,0,0,1-1.472,1.191,3.441,3.441,0,0,1,1.6,1.121,2.951,2.951,0,0,1,.58,1.859,3.3,3.3,0,0,1-1.318,2.742,5.472,5.472,0,0,1-3.463,1.028,5.675,5.675,0,0,1-2.333-.479,3.656,3.656,0,0,1-1.63-1.327,3.45,3.45,0,0,1-.554-1.929h2.979a1.334,1.334,0,0,0,.475,1.02,1.676,1.676,0,0,0,1.169.431,1.755,1.755,0,0,0,1.248-.435,1.454,1.454,0,0,0,.466-1.112,1.7,1.7,0,0,0-.483-1.371,2.021,2.021,0,0,0-1.336-.4h-1.441Zm9.6,4.764a1.686,1.686,0,0,1,1.169.417,1.457,1.457,0,0,1,0,2.136,1.844,1.844,0,0,1-2.342,0,1.456,1.456,0,0,1,0-2.127A1.672,1.672,0,0,1,195.273,16.126ZM205.4,19h-2.971V9.543l-2.918.853V8.146L205.125,6.2h.272Zm11.681-5h1.3v2.285h-1.3V19h-2.962V16.284h-4.948l-.176-1.811,5.124-8.244V6.2h2.962Zm-5.265,0h2.3V10.062l-.185.3Zm8.042-1.25.782-6.546h7.479v2.3h-5.071l-.29,2.542a3.493,3.493,0,0,1,.831-.327,4.179,4.179,0,0,1,3.938.988,4.549,4.549,0,0,1,1.024,3.168A4.541,4.541,0,0,1,228,17.106a3.776,3.776,0,0,1-1.542,1.534,4.87,4.87,0,0,1-2.347.536,5.24,5.24,0,0,1-2.259-.5,4.052,4.052,0,0,1-1.652-1.361,3.308,3.308,0,0,1-.589-1.954h2.971a1.68,1.68,0,0,0,.448,1.114,1.423,1.423,0,0,0,1.063.412q1.494,0,1.494-2.21,0-2.044-1.828-2.044a1.824,1.824,0,0,0-1.547.667Zm12.129,3.377a1.686,1.686,0,0,1,1.169.417,1.457,1.457,0,0,1,0,2.136,1.844,1.844,0,0,1-2.342,0,1.456,1.456,0,0,1,0-2.127A1.672,1.672,0,0,1,231.985,16.126Zm6.267-4.764h1.4a1.453,1.453,0,0,0,1.661-1.626,1.406,1.406,0,0,0-.4-1.033,1.5,1.5,0,0,0-1.116-.4,1.606,1.606,0,0,0-1.024.343,1.046,1.046,0,0,0-.435.853h-2.962a3.032,3.032,0,0,1,.563-1.8,3.715,3.715,0,0,1,1.56-1.235,5.334,5.334,0,0,1,2.193-.444,5.241,5.241,0,0,1,3.357.976,3.243,3.243,0,0,1,1.222,2.681,2.7,2.7,0,0,1-.505,1.56,3.6,3.6,0,0,1-1.472,1.191,3.441,3.441,0,0,1,1.6,1.121,2.951,2.951,0,0,1,.58,1.859,3.3,3.3,0,0,1-1.318,2.742,5.472,5.472,0,0,1-3.463,1.028,5.675,5.675,0,0,1-2.333-.479,3.656,3.656,0,0,1-1.63-1.327,3.45,3.45,0,0,1-.554-1.929h2.979a1.334,1.334,0,0,0,.475,1.02,1.676,1.676,0,0,0,1.169.431,1.755,1.755,0,0,0,1.248-.435,1.454,1.454,0,0,0,.466-1.112,1.7,1.7,0,0,0-.483-1.371,2.021,2.021,0,0,0-1.336-.4h-1.441ZM254.6,9.622a2.954,2.954,0,0,1-.461,1.644,3.361,3.361,0,0,1-1.27,1.143,3.7,3.7,0,0,1,1.45,1.226,3.164,3.164,0,0,1,.536,1.841,3.349,3.349,0,0,1-1.182,2.707,4.909,4.909,0,0,1-3.256.993,5,5,0,0,1-3.287-1,3.325,3.325,0,0,1-1.2-2.7,3.2,3.2,0,0,1,.527-1.819,3.586,3.586,0,0,1,1.494-1.248,3.38,3.38,0,0,1-1.283-1.143,2.934,2.934,0,0,1-.466-1.644,3.284,3.284,0,0,1,1.134-2.637,5.349,5.349,0,0,1,6.135,0A3.284,3.284,0,0,1,254.6,9.622Zm-2.716,5.616a1.69,1.69,0,0,0-.409-1.217,1.423,1.423,0,0,0-1.077-.426,1.438,1.438,0,0,0-1.081.426,1.678,1.678,0,0,0-.413,1.217,1.693,1.693,0,0,0,.417,1.208,1.433,1.433,0,0,0,1.094.444,1.377,1.377,0,0,0,1.063-.439A1.723,1.723,0,0,0,251.883,15.238ZM250.389,8.3a1.1,1.1,0,0,0-.91.391,1.7,1.7,0,0,0-.312,1.085,1.8,1.8,0,0,0,.316,1.107,1.092,1.092,0,0,0,.932.422,1.047,1.047,0,0,0,.91-.422,1.856,1.856,0,0,0,.3-1.107,1.7,1.7,0,0,0-.312-1.081A1.109,1.109,0,0,0,250.389,8.3Zm8.71,3.059h1.4a1.453,1.453,0,0,0,1.661-1.626,1.406,1.406,0,0,0-.4-1.033,1.5,1.5,0,0,0-1.116-.4,1.606,1.606,0,0,0-1.024.343,1.046,1.046,0,0,0-.435.853h-2.962a3.032,3.032,0,0,1,.563-1.8,3.715,3.715,0,0,1,1.56-1.235,5.334,5.334,0,0,1,2.193-.444,5.241,5.241,0,0,1,3.357.976,3.243,3.243,0,0,1,1.222,2.681,2.7,2.7,0,0,1-.505,1.56,3.6,3.6,0,0,1-1.472,1.191,3.441,3.441,0,0,1,1.6,1.121,2.951,2.951,0,0,1,.58,1.859A3.3,3.3,0,0,1,264,18.147a5.472,5.472,0,0,1-3.463,1.028,5.675,5.675,0,0,1-2.333-.479,3.656,3.656,0,0,1-1.63-1.327,3.45,3.45,0,0,1-.554-1.929H259a1.334,1.334,0,0,0,.475,1.02,1.676,1.676,0,0,0,1.169.431,1.755,1.755,0,0,0,1.248-.435,1.454,1.454,0,0,0,.466-1.112,1.7,1.7,0,0,0-.483-1.371,2.021,2.021,0,0,0-1.336-.4H259.1Z" transform="translate(674 7850)" fill="#12263f"/>
  </g>
</svg>
