<svg xmlns="http://www.w3.org/2000/svg" width="145" height="145" viewBox="0 0 145 145">
  <g id="Grupo_60536" data-name="Grupo 60536" transform="translate(0 0.235)">
    <g id="Grupo_60534" data-name="Grupo 60534" transform="translate(0)">
      <rect id="Rectángulo_8774" data-name="Rectángulo 8774" width="145" height="145" transform="translate(0 -0.235)" fill="#344154" opacity="0"/>
      <path id="Trazado_113161" data-name="Trazado 113161" d="M789.927,6032.246a59.759,59.759,0,1,1-59.759-59.759A59.759,59.759,0,0,1,789.927,6032.246Z" transform="translate(-657.639 -5958.478)" fill="#344154"/>
    </g>
    <path id="Trazado_113162" data-name="Trazado 113162" d="M676.865,5994.957H787.018v47.208H676.865Z" transform="translate(-659.412 -5964.65)" fill="#c3c6c7"/>
    <path id="Trazado_113163" data-name="Trazado 113163" d="M687.713,5967.836h39.34v11.8h-39.34Z" transform="translate(-662.393 -5957.2)" fill="#c3c6c7"/>
    <path id="Trazado_113164" data-name="Trazado 113164" d="M709.41,5984.108h7.868v7.868H709.41Z" transform="translate(-668.353 -5961.67)" fill="#7e8589"/>
    <path id="Trazado_113165" data-name="Trazado 113165" d="M695.849,6008.517h3.934v3.934h-3.934Z" transform="translate(-664.628 -5968.375)" fill="#c3c6c7"/>
    <path id="Trazado_113166" data-name="Trazado 113166" d="M723.865,6003.093H692.392a1.967,1.967,0,0,0-1.967,1.968v23.6a1.966,1.966,0,0,0,1.967,1.967h31.472a1.966,1.966,0,0,0,1.967-1.967v-23.6A1.967,1.967,0,0,0,723.865,6003.093Zm-21.638,3.935h3.935v3.934h-3.935Zm-3.934,19.67h-3.934v-3.935h3.934Zm0-7.868h-3.934V6014.9h3.934Zm0-7.868h-3.934v-3.934h3.934Zm7.869,15.736h-3.935v-3.935h3.935Zm-3.935-7.868V6014.9h3.935v3.934Zm11.8,7.868H710.1v-3.935h3.934Zm0-7.868H710.1V6014.9h3.934Zm0-7.868H710.1v-3.934h3.934ZM721.9,6026.7h-3.934v-3.935H721.9Zm0-7.868h-3.934V6014.9H721.9Zm0-7.868h-3.934v-3.934H721.9Z" transform="translate(-663.138 -5966.885)" fill="#9aa3a8"/>
    <g id="Grupo_60535" data-name="Grupo 60535" transform="translate(31.221 40.142)">
      <path id="Trazado_113167" data-name="Trazado 113167" d="M706.7,6008.517h3.935v3.934H706.7Z" transform="translate(-698.829 -6008.517)" fill="#c3c6c7"/>
      <path id="Trazado_113168" data-name="Trazado 113168" d="M717.546,6008.517h3.934v3.934h-3.934Z" transform="translate(-701.809 -6008.517)" fill="#c3c6c7"/>
      <path id="Trazado_113169" data-name="Trazado 113169" d="M728.394,6008.517h3.934v3.934h-3.934Z" transform="translate(-704.789 -6008.517)" fill="#c3c6c7"/>
      <path id="Trazado_113170" data-name="Trazado 113170" d="M695.849,6019.365h3.934v3.934h-3.934Z" transform="translate(-695.849 -6011.497)" fill="#c3c6c7"/>
      <path id="Trazado_113171" data-name="Trazado 113171" d="M706.7,6019.365h3.935v3.934H706.7Z" transform="translate(-698.829 -6011.497)" fill="#c3c6c7"/>
      <path id="Trazado_113172" data-name="Trazado 113172" d="M717.546,6019.365h3.934v3.934h-3.934Z" transform="translate(-701.809 -6011.497)" fill="#c3c6c7"/>
      <path id="Trazado_113173" data-name="Trazado 113173" d="M728.394,6019.365h3.934v3.934h-3.934Z" transform="translate(-704.789 -6011.497)" fill="#c3c6c7"/>
      <path id="Trazado_113174" data-name="Trazado 113174" d="M695.849,6030.213h3.934v3.934h-3.934Z" transform="translate(-695.849 -6014.477)" fill="#c3c6c7"/>
      <path id="Trazado_113175" data-name="Trazado 113175" d="M706.7,6030.213h3.935v3.934H706.7Z" transform="translate(-698.829 -6014.477)" fill="#c3c6c7"/>
      <path id="Trazado_113176" data-name="Trazado 113176" d="M717.546,6030.213h3.934v3.934h-3.934Z" transform="translate(-701.809 -6014.477)" fill="#c3c6c7"/>
      <path id="Trazado_113177" data-name="Trazado 113177" d="M728.394,6030.213h3.934v3.934h-3.934Z" transform="translate(-704.789 -6014.477)" fill="#c3c6c7"/>
    </g>
    <path id="Trazado_113178" data-name="Trazado 113178" d="M758.226,6038.349H789.7v7.868H758.226Z" transform="translate(-681.763 -5976.57)" fill="#9aa3a8"/>
    <path id="Trazado_113179" data-name="Trazado 113179" d="M763.65,6016.653h7.869v7.868H763.65Z" transform="translate(-683.253 -5970.61)" fill="#9aa3a8"/>
    <path id="Trazado_113180" data-name="Trazado 113180" d="M774.5,6016.653h7.868v7.868H774.5Z" transform="translate(-686.233 -5970.61)" fill="#dadcde"/>
    <path id="Trazado_113181" data-name="Trazado 113181" d="M785.347,6016.653h7.868v7.868h-7.868Z" transform="translate(-689.214 -5970.61)" fill="#9aa3a8"/>
    <path id="Trazado_113182" data-name="Trazado 113182" d="M763.65,5967.836h23.6v27.539h-23.6Z" transform="translate(-683.253 -5957.2)" fill="#e9eef2"/>
    <path id="Trazado_113183" data-name="Trazado 113183" d="M788.953,6007.027H757.481a1.967,1.967,0,0,1,0-3.935h31.473a1.967,1.967,0,0,1,0,3.935Z" transform="translate(-681.018 -5966.885)" fill="#9aa3a8"/>
    <path id="Trazado_113184" data-name="Trazado 113184" d="M676.865,6060.046H787.018v11.8H676.865Z" transform="translate(-659.412 -5982.53)" fill="#7e8589"/>
    <path id="Trazado_113185" data-name="Trazado 113185" d="M693.137,6070.895h86.549v39.34H693.137Z" transform="translate(-663.883 -5985.511)" fill="#606669"/>
    <path id="Trazado_113186" data-name="Trazado 113186" d="M682.289,6070.895H784.574v39.34H682.289Z" transform="translate(-660.902 -5985.511)" fill="#606669"/>
    <path id="Trazado_113187" data-name="Trazado 113187" d="M693.137,6070.895h21.638v39.34H693.137Z" transform="translate(-663.883 -5985.511)" fill="#606669"/>
    <path id="Trazado_113188" data-name="Trazado 113188" d="M728.394,6070.895h19.67v39.34h-19.67Z" transform="translate(-673.568 -5985.511)" fill="#e9eef2"/>
    <path id="Trazado_113189" data-name="Trazado 113189" d="M755.514,6070.895h19.671v39.34H755.514Z" transform="translate(-681.018 -5985.511)" fill="#3dc285"/>
    <path id="Trazado_113190" data-name="Trazado 113190" d="M782.635,6070.895H802.3v39.34h-19.67Z" transform="translate(-688.469 -5985.511)" fill="#e9eef2"/>
    <path id="Trazado_113191" data-name="Trazado 113191" d="M676.865,6103.438H787.018v15.737H676.865Z" transform="translate(-659.412 -5994.451)" fill="#c3c6c7"/>
    <path id="Trazado_113192" data-name="Trazado 113192" d="M695.849,6070.895h23.6v7.868h-23.6Z" transform="translate(-664.628 -5985.511)" fill="#ffd33a"/>
    <path id="Trazado_113193" data-name="Trazado 113193" d="M695.849,6081.742h23.6v7.868h-23.6Z" transform="translate(-664.628 -5988.491)" fill="#ffb632"/>
    <path id="Trazado_113194" data-name="Trazado 113194" d="M695.849,6092.59h23.6v7.868h-23.6Z" transform="translate(-664.628 -5991.47)" fill="#ffd33a"/>
    <path id="Trazado_113195" data-name="Trazado 113195" d="M743.176,6070.895v13.769a1.967,1.967,0,0,1-3.934,0v-13.769Z" transform="translate(-676.548 -5985.511)" fill="#7e8589"/>
    <path id="Trazado_113196" data-name="Trazado 113196" d="M770.3,6070.895v13.769a1.967,1.967,0,0,1-3.934,0v-13.769Z" transform="translate(-683.998 -5985.511)" fill="#7e8589"/>
    <path id="Trazado_113197" data-name="Trazado 113197" d="M797.417,6070.895v13.769a1.967,1.967,0,0,1-3.934,0v-13.769Z" transform="translate(-691.449 -5985.511)" fill="#7e8589"/>
  </g>
</svg>
