<svg xmlns="http://www.w3.org/2000/svg" xmlns:xlink="http://www.w3.org/1999/xlink" width="219.648" height="227.99" viewBox="0 0 219.648 227.99">
  <defs>
    <clipPath id="clip-path">
      <path id="Trazado_111897" data-name="Trazado 111897" d="M154.585,115.438c1.355,4.578,5.18,3.881,9.758,2.526a8.645,8.645,0,0,0-4.9-16.582C154.866,102.7,153.222,110.819,154.585,115.438Z" transform="translate(-154.121 -101.025)" fill="#ffb685"/>
    </clipPath>
    <clipPath id="clip-path-2">
      <path id="Trazado_111900" data-name="Trazado 111900" d="M172.666,164.445H151.017l-2.71-32.129A4.939,4.939,0,0,1,153.189,127h17.271a4.939,4.939,0,0,1,4.915,5.348Z" transform="translate(-148.292 -127)" fill="none"/>
    </clipPath>
  </defs>
  <g id="Capa_2" data-name="Capa 2" transform="translate(0)">
    <g id="Grupo_60397" data-name="Grupo 60397" transform="translate(0 0)">
      <g id="Grupo_60389" data-name="Grupo 60389" transform="translate(0.004 8.7)">
        <path id="Trazado_111883" data-name="Trazado 111883" d="M93.848,141.312a56.609,56.609,0,0,0,0-8.692s-2.526-2.237-2.526-5.076a38.728,38.728,0,0,1,31.006-37.95V18A109.849,109.849,0,0,0,31.972,177.041Z" transform="translate(-20.205 -18)" fill="#a37955"/>
        <path id="Trazado_111884" data-name="Trazado 111884" d="M166.79,89.595a38.728,38.728,0,0,1,21.97,13.086l61.916-35.769c.593-2.333,0-8.692,0-8.692S195.3,19.964,166.79,18Z" transform="translate(-49.255 -18)" fill="#27313f"/>
        <path id="Trazado_111885" data-name="Trazado 111885" d="M171.243,133.476c1.09,3.576,2.405,5.541,2.405,9.478a38.712,38.712,0,0,1-66.679,26.765L44.74,196.98v8.692A109.849,109.849,0,0,0,234.09,95.75l-62.165,27.19Z" transform="translate(-25.067 -33.408)" fill="#aed3f2"/>
      </g>
      <g id="Grupo_60390" data-name="Grupo 60390">
        <path id="Trazado_111886" data-name="Trazado 111886" d="M93.847,130.51a38.736,38.736,0,0,1,28.481-51.717V7.15A109.849,109.849,0,0,0,31.971,166.2Z" transform="translate(-20.2 -7.15)" fill="#aed3f2"/>
        <path id="Trazado_111887" data-name="Trazado 111887" d="M166.79,78.76a38.728,38.728,0,0,1,21.97,13.086L250.676,56.1A109.753,109.753,0,0,0,166.79,7.19Z" transform="translate(-49.251 -7.158)" fill="#aed3f2"/>
        <path id="Trazado_111888" data-name="Trazado 111888" d="M171.925,120.791a38.7,38.7,0,0,1-64.947,38.119L44.74,194.832A109.849,109.849,0,0,0,234.09,84.91Z" transform="translate(-25.064 -22.56)" fill="#aed3f2"/>
      </g>
      <g id="Grupo_60391" data-name="Grupo 60391">
        <path id="Trazado_111889" data-name="Trazado 111889" d="M93.847,130.51a38.736,38.736,0,0,1,28.481-51.717V7.15A109.849,109.849,0,0,0,31.971,166.2Z" transform="translate(-20.2 -7.15)" fill="#d9a171"/>
        <path id="Trazado_111890" data-name="Trazado 111890" d="M166.79,78.76a38.728,38.728,0,0,1,21.97,13.086L250.676,56.1A109.753,109.753,0,0,0,166.79,7.19Z" transform="translate(-49.251 -7.158)" fill="#344154"/>
        <path id="Trazado_111891" data-name="Trazado 111891" d="M171.925,120.791a38.7,38.7,0,0,1-64.947,38.119L44.74,194.832A109.849,109.849,0,0,0,234.09,84.91Z" transform="translate(-25.064 -22.56)" fill="#6595bf"/>
      </g>
      <g id="Grupo_60396" data-name="Grupo 60396" transform="translate(82.338 75.271)">
        <path id="Trazado_111892" data-name="Trazado 111892" d="M140.761,173.81h29.058v6.968a6.831,6.831,0,0,1-6.831,6.84H140.761a6.831,6.831,0,0,1-6.831-6.84v-.136a6.823,6.823,0,0,1,6.832-6.831Z" transform="translate(-125.077 -115.45)" fill="#6486ce"/>
        <path id="Trazado_111893" data-name="Trazado 111893" d="M172.666,164.445H151.017l-2.71-32.129A4.939,4.939,0,0,1,153.189,127h17.271a4.939,4.939,0,0,1,4.915,5.348Z" transform="translate(-127.923 -106.173)" fill="#d9a171"/>
        <path id="Trazado_111894" data-name="Trazado 111894" d="M165.577,127.379H162.2a2.029,2.029,0,0,1-1.892-2.133v-4.153a2.029,2.029,0,0,1,1.892-2.133h3.376a2.029,2.029,0,0,1,1.892,2.133v4.153a2.029,2.029,0,0,1-1.892,2.133Z" transform="translate(-130.304 -104.58)" fill="#f9a369"/>
        <g id="Grupo_60393" data-name="Grupo 60393" transform="translate(25.042)">
          <path id="Trazado_111895" data-name="Trazado 111895" d="M154.585,115.438c1.355,4.578,5.18,3.881,9.758,2.526a8.645,8.645,0,0,0-4.9-16.582C154.866,102.7,153.222,110.819,154.585,115.438Z" transform="translate(-154.121 -101.025)" fill="#ffb685"/>
          <g id="Grupo_60392" data-name="Grupo 60392" clip-path="url(#clip-path)">
            <path id="Trazado_111896" data-name="Trazado 111896" d="M161.824,105.058s0,3.055.425,3.055,2-.633,3.159.8-.1,2.943-1.475,3.263-.425,3.889,2.838,3.255,4.426-8.307,2.742-11.225-7.056-6.166-8.948-5.99-17.945,5.059-17.945,5.059Z" transform="translate(-151.842 -100.468)" fill="#aed3f2"/>
          </g>
        </g>
        <path id="Trazado_111898" data-name="Trazado 111898" d="M146.347,130.64l-10.287,17.7,8,3.4,6.374-10.472Z" transform="translate(-125.499 -106.894)" fill="#d9a171"/>
        <path id="Trazado_111899" data-name="Trazado 111899" d="M177.969,129l13.583,19.58c.625,1.339.144,3.48-1.267,3.945l-19.653,9.814-2.742-4.635,13.4-10.424L170.7,136.705Z" transform="translate(-131.807 -106.569)" fill="#d9a171"/>
        <g id="Grupo_60394" data-name="Grupo 60394" transform="translate(20.369 20.827)" clip-path="url(#clip-path-2)">
          <rect id="Rectángulo_8577" data-name="Rectángulo 8577" width="16.101" height="0.457" transform="matrix(0.717, -0.697, 0.697, 0.717, 15.334, 31.808)" fill="#ffba57"/>
          <rect id="Rectángulo_8578" data-name="Rectángulo 8578" width="14.922" height="0.457" transform="matrix(0.885, -0.466, 0.466, 0.885, 17.216, 35.638)" fill="#ffba57"/>
        </g>
        <rect id="Rectángulo_8579" data-name="Rectángulo 8579" width="33.845" height="2.871" transform="translate(5.654 55.626)" fill="#344154"/>
        <g id="Grupo_60395" data-name="Grupo 60395" transform="translate(20.369 20.827)" clip-path="url(#clip-path-2)">
          <path id="Trazado_111901" data-name="Trazado 111901" d="M156.19,127.236a7.136,7.136,0,1,0,7.136-7.136A7.136,7.136,0,0,0,156.19,127.236Z" transform="translate(-149.857 -125.633)" fill="#f9a369"/>
        </g>
        <path id="Trazado_111903" data-name="Trazado 111903" d="M169.473,169.573h-8.628l-.625-3.793h6.511a2.494,2.494,0,0,1,2.462,2.085Z" transform="translate(-130.287 -113.858)" fill="#f9a369"/>
        <path id="Trazado_111904" data-name="Trazado 111904" d="M156.222,166.392H129.048L125.32,149.57h27.174Z" transform="translate(-123.371 -110.646)" fill="#344154"/>
        <path id="Trazado_111905" data-name="Trazado 111905" d="M145.272,160.178a1.8,1.8,0,1,1-1.788-1.788A1.8,1.8,0,0,1,145.272,160.178Z" transform="translate(-126.613 -112.394)" fill="#ab25fe"/>
        <path id="Trazado_111906" data-name="Trazado 111906" d="M133.568,180.133,130,219.967h5.26s8.427-25.939,9.269-34.358-5.268-6.944-5.268-6.944Z" transform="translate(-124.298 -116.392)" fill="#f9a369"/>
        <path id="Trazado_111907" data-name="Trazado 111907" d="M154.306,180.133l-3.576,39.834h5.26s8.427-25.939,9.261-34.358-5.26-6.944-5.26-6.944Z" transform="translate(-128.407 -116.392)" fill="#f9a369"/>
        <path id="Trazado_111908" data-name="Trazado 111908" d="M149.262,230.2h5.156v3.961H143.994c-.69,0-.93-1.556-.329-1.892Z" transform="translate(-126.939 -126.625)" fill="#ff7bad"/>
        <path id="Trazado_111909" data-name="Trazado 111909" d="M128.823,230.2h5.156v3.961H123.555c-.69,0-.922-1.556-.321-1.892Z" transform="translate(-122.889 -126.625)" fill="#ff7bad"/>
        <path id="Trazado_111910" data-name="Trazado 111910" d="M164.759,175.21l-27.013.152s-3.207.914-4.1,3.64-3.039,15.635-3.039,15.635h29.6l1.988-9.71Z" transform="translate(-124.419 -115.727)" fill="#6486ce"/>
      </g>
      <path id="Trazado_111911" data-name="Trazado 111911" d="M170.474,103.168c-4.6-2.141-1.339-14.152,5.925-15.6,5.925-1.187,11.225,3.56,8.892,9.486S173.417,104.555,170.474,103.168Z" transform="translate(-49.56 -23.05)" fill="#aed3f2"/>
    </g>
  </g>
</svg>
