<svg xmlns="http://www.w3.org/2000/svg" width="204.301" height="71.008" viewBox="0 0 204.301 71.008">
  <g id="Grupo_60537" data-name="Grupo 60537" transform="translate(-676 -5225)">
    <path id="Trazado_108593" data-name="Trazado 108593" d="M437.825,2511.215l-.211,1.116a3.629,3.629,0,0,1,2.821-1.283,2.3,2.3,0,0,1,1.978.954,3.806,3.806,0,0,1,.475,2.588l-1.029,6.144h-2.083l1.037-6.17a3.081,3.081,0,0,0,.009-.7,1.121,1.121,0,0,0-1.248-1.073,2.534,2.534,0,0,0-2.083,1.169l-1.186,6.777h-2.083l1.643-9.51Z" transform="translate(289.12 2721.688)" fill="#344154"/>
    <path id="Trazado_108594" data-name="Trazado 108594" d="M475.029,2514.335l2.241-3.111H479.7L476.066,2516l2.119,4.729h-2.18l-1.327-3.244-2.338,3.244h-2.426l3.753-4.922-2.048-4.588h2.18Z" transform="translate(289.12 2721.688)" fill="#344154"/>
    <path id="Trazado_108595" data-name="Trazado 108595" d="M483.273,2517.657l2.989-6.433h2.3l-5.633,11.153q-1.179,2.25-3.1,2.224a5.138,5.138,0,0,1-1.081-.176l.176-1.652.378.035a2.16,2.16,0,0,0,1.248-.285,2.4,2.4,0,0,0,.826-.972l.5-.984-1.591-9.343h2.162Z" transform="translate(289.12 2721.688)" fill="#344154"/>
    <path id="Trazado_108596" data-name="Trazado 108596" d="M492.959,2516.154h-4.491l.307-1.722h4.492Z" transform="translate(289.12 2721.688)" fill="#344154"/>
    <path id="Trazado_108597" data-name="Trazado 108597" d="M494.936,2515.566a15.547,15.547,0,0,1,1.938-5.709,8.1,8.1,0,0,1,3.652-3.467l.317,1.265q-3.006,2.32-3.9,7.278a20.432,20.432,0,0,0-.334,3.489,9.671,9.671,0,0,0,.422,3.116,4.706,4.706,0,0,0,1.3,2.1l-.492,1.169a5.888,5.888,0,0,1-2.307-2.9,11.245,11.245,0,0,1-.734-4.588,13.769,13.769,0,0,1,.123-1.6Z" transform="translate(289.12 2721.688)" fill="#344154"/>
    <path id="Trazado_108598" data-name="Trazado 108598" d="M531.112,2514.335l2.241-3.111h2.435L532.149,2516l2.119,4.729h-2.18l-1.327-3.244-2.338,3.244H526l3.753-4.922-2.048-4.588h2.18Z" transform="translate(289.12 2721.688)" fill="#344154"/>
    <path id="Trazado_108599" data-name="Trazado 108599" d="M534.865,2524.821l-.325-1.213a9.663,9.663,0,0,0,2.918-3.907,17.791,17.791,0,0,0,1.283-5.823l.035-1.09q0-3.7-1.722-5.212l.5-1.177a5.4,5.4,0,0,1,1.727,1.727,8.2,8.2,0,0,1,1.063,2.641,12.75,12.75,0,0,1,.312,3.12,16.248,16.248,0,0,1-.865,4.75,12.734,12.734,0,0,1-2.062,3.886A7.772,7.772,0,0,1,534.865,2524.821Z" transform="translate(289.12 2721.688)" fill="#344154"/>
    <path id="Trazado_108600" data-name="Trazado 108600" d="M542.854,2515.566a15.528,15.528,0,0,1,1.938-5.709,8.1,8.1,0,0,1,3.652-3.467l.317,1.265q-3.006,2.32-3.9,7.278a20.441,20.441,0,0,0-.334,3.489,9.673,9.673,0,0,0,.422,3.116,4.706,4.706,0,0,0,1.3,2.1l-.492,1.169a5.888,5.888,0,0,1-2.307-2.9,11.245,11.245,0,0,1-.734-4.588,13.783,13.783,0,0,1,.123-1.6Z" transform="translate(289.12 2721.688)" fill="#344154"/>
    <path id="Trazado_108601" data-name="Trazado 108601" d="M573.968,2517.657l2.988-6.433h2.3l-5.634,11.153q-1.177,2.25-3.1,2.224a5.149,5.149,0,0,1-1.081-.176l.176-1.652.378.035a2.16,2.16,0,0,0,1.248-.285,2.4,2.4,0,0,0,.826-.972l.5-.984-1.591-9.343h2.163Z" transform="translate(289.12 2721.688)" fill="#344154"/>
    <path id="Trazado_108602" data-name="Trazado 108602" d="M578.063,2524.821l-.325-1.213a9.663,9.663,0,0,0,2.918-3.907,17.791,17.791,0,0,0,1.283-5.823l.036-1.09q0-3.7-1.723-5.212l.5-1.177a5.393,5.393,0,0,1,1.727,1.727,8.2,8.2,0,0,1,1.063,2.641,12.752,12.752,0,0,1,.312,3.12,16.184,16.184,0,0,1-.865,4.75,12.755,12.755,0,0,1-2.061,3.886A7.783,7.783,0,0,1,578.063,2524.821Z" transform="translate(289.12 2721.688)" fill="#344154"/>
    <path id="Trazado_108603" data-name="Trazado 108603" d="M459.2,2560.326l-.211,1.117a3.632,3.632,0,0,1,2.822-1.284,2.3,2.3,0,0,1,1.977.954,3.805,3.805,0,0,1,.475,2.588l-1.029,6.144h-2.083l1.037-6.17a3.084,3.084,0,0,0,.009-.7,1.12,1.12,0,0,0-1.248-1.072,2.532,2.532,0,0,0-2.083,1.169l-1.186,6.776H455.6l1.643-9.51Z" transform="translate(289.12 2721.688)" fill="#344154"/>
    <path id="Trazado_108604" data-name="Trazado 108604" d="M491.964,2563.446l2.241-3.111h2.435L493,2565.116l2.118,4.729h-2.18l-1.327-3.243-2.338,3.243h-2.425l3.753-4.922-2.048-4.588h2.179Z" transform="translate(289.12 2721.688)" fill="#344154"/>
    <path id="Trazado_108605" data-name="Trazado 108605" d="M502.326,2563.983H497.1l.211-1.187,3-2.47a2.532,2.532,0,0,0,.958-1.318.639.639,0,0,0-.128-.567.728.728,0,0,0-.548-.215,1.054,1.054,0,0,0-.8.312,1.627,1.627,0,0,0-.4.769l-1.6.009a2.476,2.476,0,0,1,.856-1.732,2.747,2.747,0,0,1,1.913-.65,2.6,2.6,0,0,1,1.757.593,1.785,1.785,0,0,1,.6,1.49,3.021,3.021,0,0,1-1.362,2.153l-.7.527-1.38.967,3.085.018Z" transform="translate(289.12 2721.688)" fill="#344154"/>
    <path id="Trazado_108606" data-name="Trazado 108606" d="M507.854,2565.266h-4.491l.308-1.723h4.491Z" transform="translate(289.12 2721.688)" fill="#344154"/>
    <path id="Trazado_108607" data-name="Trazado 108607" d="M509.832,2564.677a15.546,15.546,0,0,1,1.937-5.709,8.113,8.113,0,0,1,3.653-3.467l.316,1.266q-3.006,2.32-3.9,7.277a20.332,20.332,0,0,0-.334,3.489,9.653,9.653,0,0,0,.422,3.117,4.7,4.7,0,0,0,1.3,2.1l-.493,1.169a5.888,5.888,0,0,1-2.306-2.9,11.244,11.244,0,0,1-.735-4.588,13.771,13.771,0,0,1,.123-1.6Z" transform="translate(289.12 2721.688)" fill="#344154"/>
    <path id="Trazado_108608" data-name="Trazado 108608" d="M546.008,2563.446l2.241-3.111h2.435l-3.639,4.781,2.118,4.729h-2.18l-1.327-3.243-2.338,3.243h-2.425l3.752-4.922-2.047-4.588h2.179Z" transform="translate(289.12 2721.688)" fill="#344154"/>
    <path id="Trazado_108609" data-name="Trazado 108609" d="M549.761,2573.932l-.326-1.213a9.656,9.656,0,0,0,2.918-3.907,17.781,17.781,0,0,0,1.284-5.823l.035-1.089q0-3.7-1.723-5.212l.5-1.178a5.413,5.413,0,0,1,1.728,1.727,8.2,8.2,0,0,1,1.062,2.641,12.766,12.766,0,0,1,.313,3.12,16.224,16.224,0,0,1-.866,4.751,12.743,12.743,0,0,1-2.061,3.885A7.777,7.777,0,0,1,549.761,2573.932Z" transform="translate(289.12 2721.688)" fill="#344154"/>
    <path id="Trazado_108610" data-name="Trazado 108610" d="M562.61,2551.983h-5.229l.211-1.187,3.006-2.47a2.544,2.544,0,0,0,.958-1.318.639.639,0,0,0-.128-.567.731.731,0,0,0-.549-.215,1.054,1.054,0,0,0-.805.312,1.627,1.627,0,0,0-.4.769l-1.6.009a2.473,2.473,0,0,1,.857-1.732,2.742,2.742,0,0,1,1.912-.65,2.6,2.6,0,0,1,1.758.593,1.787,1.787,0,0,1,.6,1.49,3.021,3.021,0,0,1-1.362,2.153l-.694.527-1.38.967,3.085.018Z" transform="translate(289.12 2721.688)" fill="#344154"/>
    <path id="Trazado_108611" data-name="Trazado 108611" d="M390.475,2536.883l-.185,1.011a3.668,3.668,0,0,1,2.813-1.178,2.731,2.731,0,0,1,1.49.413,1.96,1.96,0,0,1,.8,1.046,3.833,3.833,0,0,1,3.023-1.459,2.465,2.465,0,0,1,2.061.954,3.635,3.635,0,0,1,.506,2.57l-1.029,6.162h-2.083l1.037-6.179a3.163,3.163,0,0,0,.009-.712,1.163,1.163,0,0,0-1.3-1.055,2.193,2.193,0,0,0-2.039,1.415l-.026.194-1.09,6.337h-2.092l1.037-6.153a3.084,3.084,0,0,0,.009-.7,1.174,1.174,0,0,0-1.3-1.09,2.3,2.3,0,0,0-1.951,1.046l-1.2,6.9H386.88l1.644-9.51Z" transform="translate(289.12 2721.688)" fill="#344154"/>
    <path id="Trazado_108612" data-name="Trazado 108612" d="M410.242,2543.273h-7.357l.308-1.767h7.365Zm.65-3.727h-7.365l.316-1.775H411.2Z" transform="translate(289.12 2721.688)" fill="#344154"/>
    <path id="Trazado_113198" data-name="Trazado 113198" d="M0,0H168.441" transform="translate(711.86 5262.089)" fill="none" stroke="#344154" stroke-width="2"/>
    <path id="Trazado_108613" data-name="Trazado 108613" d="M464.157,2515.156l-7.492,8.363h10.8l-.564,3.255h-16.13l.451-2.61,8.766-9.33-5.543-9.249.4-2.272h15.565l-.58,3.287H459.356l4.818,8.234Z" transform="translate(289.12 2721.688)" fill="#344154"/>
    <path id="Trazado_108614" data-name="Trazado 108614" d="M520.613,2515.156l-7.493,8.363h10.8l-.564,3.255H507.223l.451-2.61,8.766-9.33-5.543-9.249.4-2.272h15.565l-.58,3.287H515.811l4.818,8.234Z" transform="translate(289.12 2721.688)" fill="#344154"/>
    <path id="Trazado_108615" data-name="Trazado 108615" d="M566.8,2515.156l-7.493,8.363h10.8l-.564,3.255H553.412l.451-2.61,8.765-9.33-5.542-9.249.4-2.272h15.566l-.58,3.287H562l4.818,8.234Z" transform="translate(289.12 2721.688)" fill="#344154"/>
    <path id="Trazado_108616" data-name="Trazado 108616" d="M532.84,2562.7l-7.493,8.362h10.8l-.564,3.255h-16.13l.452-2.61,8.765-9.33-5.543-9.249.4-2.272h15.565l-.58,3.287H528.038l4.818,8.234Z" transform="translate(289.12 2721.688)" fill="#344154"/>
    <path id="Trazado_108617" data-name="Trazado 108617" d="M483.09,2562.7l-7.492,8.362h10.8l-.564,3.255H469.7l.451-2.61,8.766-9.33-5.543-9.249.4-2.272h15.565l-.58,3.287H478.288l4.818,8.234Z" transform="translate(289.12 2721.688)" fill="#344154"/>
  </g>
</svg>
