<svg id="Capa_2" data-name="Capa 2" xmlns="http://www.w3.org/2000/svg" width="362.425" height="312.539" viewBox="0 0 362.425 312.539">
  <g id="Grupo_60416" data-name="Grupo 60416" transform="translate(0 0)">
    <ellipse id="Elipse_4348" data-name="Elipse 4348" cx="156.269" cy="156.27" rx="156.269" ry="156.27" transform="translate(18.66)" fill="#f2e9e4"/>
    <g id="freepik--background-complete--inject-14" transform="translate(0.27 51.96)">
      <path id="Trazado_112482" data-name="Trazado 112482" d="M47.86,368.9l4.048,26.619h23.53L80.9,369.29Z" transform="translate(-44.6 -163.698)" fill="#aed3f2"/>
      <path id="Trazado_112483" data-name="Trazado 112483" d="M78.189,388.976c0,.076-6.033.136-13.467.136s-13.492,0-13.492-.136,6.033-.136,13.467-.136S78.189,388.908,78.189,388.976Z" transform="translate(-45.11 -166.717)" fill="#fafafa"/>
      <path id="Trazado_112484" data-name="Trazado 112484" d="M78.154,387.436c0,.076-6.067.144-13.577.144S51,387.512,51,387.436s6.076-.136,13.577-.136S78.154,387.359,78.154,387.436Z" transform="translate(-45.075 -166.484)" fill="#fafafa"/>
      <path id="Trazado_112485" data-name="Trazado 112485" d="M78.154,385.7c0,.076-6.067.136-13.577.136S51,385.772,51,385.7s6.067-.136,13.577-.136S78.154,385.619,78.154,385.7Z" transform="translate(-45.075 -166.221)" fill="#fafafa"/>
      <path id="Trazado_112486" data-name="Trazado 112486" d="M55.6,397.268a22.419,22.419,0,0,1-.713-3.394,22.674,22.674,0,0,1-.458-3.394,20.526,20.526,0,0,1,.73,3.394,20.764,20.764,0,0,1,.441,3.394Z" transform="translate(-45.595 -166.966)" fill="#fafafa"/>
      <path id="Trazado_112487" data-name="Trazado 112487" d="M57.621,396.984a28.136,28.136,0,0,1-.289-3.267,26.3,26.3,0,0,1-.153-3.267,26.483,26.483,0,0,1,.441,6.534Z" transform="translate(-46.011 -166.961)" fill="#fafafa"/>
      <path id="Trazado_112488" data-name="Trazado 112488" d="M60.989,396.938a26.763,26.763,0,0,1-.789-6.788,30.421,30.421,0,0,1,.45,3.394,30.1,30.1,0,0,1,.339,3.394Z" transform="translate(-46.468 -166.916)" fill="#fafafa"/>
      <path id="Trazado_112489" data-name="Trazado 112489" d="M63.485,397.1a17.581,17.581,0,0,1-.322-3.394,16.436,16.436,0,0,1,.11-3.394,30.545,30.545,0,0,1,.17,3.394,26.926,26.926,0,0,1,.042,3.394Z" transform="translate(-46.911 -166.94)" fill="#fafafa"/>
      <path id="Trazado_112490" data-name="Trazado 112490" d="M67.774,396.99a18.729,18.729,0,0,1-.246-3.233,19.091,19.091,0,0,1,0-3.267,38.4,38.4,0,0,1,.221,6.475Z" transform="translate(-47.568 -166.967)" fill="#fafafa"/>
      <path id="Trazado_112491" data-name="Trazado 112491" d="M70.976,397.117a19.965,19.965,0,0,1-.11-3.343,21.019,21.019,0,0,1,.161-3.343,20.035,20.035,0,0,1,.119,3.343,20.927,20.927,0,0,1-.17,3.343Z" transform="translate(-48.08 -166.958)" fill="#fafafa"/>
      <path id="Trazado_112492" data-name="Trazado 112492" d="M73.87,396.657a43.548,43.548,0,0,1,.687-6.967,24.09,24.09,0,0,1-.2,3.5,21.894,21.894,0,0,1-.484,3.471Z" transform="translate(-48.539 -166.846)" fill="#fafafa"/>
      <path id="Trazado_112493" data-name="Trazado 112493" d="M77.65,396.447a18.413,18.413,0,0,1,1.273-5.847,28.358,28.358,0,0,1-.586,2.927,28.578,28.578,0,0,1-.687,2.919Z" transform="translate(-49.111 -166.984)" fill="#fafafa"/>
      <path id="Trazado_112494" data-name="Trazado 112494" d="M73.9,307a.365.365,0,0,1,0,.136,1.9,1.9,0,0,1-.11.373l-.45,1.434c-.178.611-.441,1.383-.687,2.283s-.543,1.9-.849,3.029-.619,2.367-.925,3.708-.594,2.775-.9,4.285c-.543,3.038-1.095,6.4-1.443,9.937s-.5,6.941-.552,10.021c0,1.553,0,3.012.051,4.362s.093,2.647.161,3.81.161,2.223.229,3.148.153,1.7.229,2.367.119,1.129.153,1.493a2.3,2.3,0,0,0,0,.39.365.365,0,0,1,0,.136.705.705,0,0,1,0-.127,1.986,1.986,0,0,0-.059-.39c0-.365-.119-.849-.2-1.493s-.2-1.443-.272-2.367-.212-1.977-.272-3.14-.17-2.444-.2-3.81-.059-2.843-.068-4.4a99.428,99.428,0,0,1,.543-10.047c.365-3.555.849-6.916,1.46-9.954.322-1.519.6-2.953.942-4.294s.636-2.546.95-3.708.619-2.138.849-3.021.543-1.638.73-2.266.382-1.095.5-1.426c.051-.144.093-.272.136-.373A.425.425,0,0,1,73.9,307Z" transform="translate(-47.609 -154.323)" fill="#aed3f2"/>
      <path id="Trazado_112495" data-name="Trazado 112495" d="M69.92,325.528a8.834,8.834,0,0,1,3.632-4.608,2.087,2.087,0,0,1,1.935-.348c.849.4.849,1.553.645,2.427a6.39,6.39,0,0,1-2.664,3.632,5.431,5.431,0,0,1-4,1.027" transform="translate(-47.873 -156.363)" fill="#aed3f2"/>
      <path id="Trazado_112496" data-name="Trazado 112496" d="M68.246,338.218a14.62,14.62,0,0,1,4.353-6.984,2.843,2.843,0,0,1,.993-.543,1.12,1.12,0,0,1,1.061.229,1.621,1.621,0,0,1,.229,1.519A9.258,9.258,0,0,1,68,339.355" transform="translate(-47.65 -157.904)" fill="#aed3f2"/>
      <path id="Trazado_112497" data-name="Trazado 112497" d="M67.82,350.04a13.449,13.449,0,0,1,4.4-5.507,2.07,2.07,0,0,1,1.527-.543c.849.153,1.2,1.171,1.129,2.011-.144,1.7-1.468,3.114-2.834,4.192a17.48,17.48,0,0,1-4.065,2.087" transform="translate(-47.623 -159.924)" fill="#aed3f2"/>
      <path id="Trazado_112498" data-name="Trazado 112498" d="M68.09,358.541a12.889,12.889,0,0,1,3.725-4.243,2.759,2.759,0,0,1,1.086-.5,1.154,1.154,0,0,1,1.095.424c.365.543,0,1.29-.39,1.816a10.615,10.615,0,0,1-5.32,3.9" transform="translate(-47.664 -161.408)" fill="#aed3f2"/>
      <path id="Trazado_112499" data-name="Trazado 112499" d="M66.64,354.949A41.52,41.52,0,0,0,61.3,349.5c-.305-.255-.679-.543-1.061-.407a.848.848,0,0,0-.492.721,2.172,2.172,0,0,0,.2.849,10.335,10.335,0,0,0,6.873,5.77" transform="translate(-46.401 -160.693)" fill="#aed3f2"/>
      <path id="Trazado_112500" data-name="Trazado 112500" d="M66.651,344.026l-4.192-5.091a4.913,4.913,0,0,0-1.358-1.29,1.535,1.535,0,0,0-2.359,1.7,4.616,4.616,0,0,0,.849,1.7,12.44,12.44,0,0,0,3.055,3.233,5.091,5.091,0,0,0,3.81,1.188" transform="translate(-46.241 -158.926)" fill="#aed3f2"/>
      <path id="Trazado_112501" data-name="Trazado 112501" d="M67.43,331.814a14.561,14.561,0,0,0-4.243-6.33,2.546,2.546,0,0,0-1.095-.645,1.867,1.867,0,0,0-1.918,1.358,3.394,3.394,0,0,0,.382,2.766,7.077,7.077,0,0,0,1.994,2.079,16.521,16.521,0,0,0,4.659,2.546" transform="translate(-46.444 -157.024)" fill="#aed3f2"/>
      <path id="Trazado_112502" data-name="Trazado 112502" d="M69.638,320.674A17.075,17.075,0,0,0,65.9,312.85c-.373-.5-.9-1.035-1.519-.942a1.214,1.214,0,0,0-.849.755,2.664,2.664,0,0,0-.17,1.18,9.156,9.156,0,0,0,5.94,8.172" transform="translate(-46.946 -155.065)" fill="#aed3f2"/>
      <path id="Trazado_112503" data-name="Trazado 112503" d="M72.075,314.864a24.327,24.327,0,0,1-.153-4.582,8.2,8.2,0,0,1,1.519-4.243,3.488,3.488,0,0,1,1.519-1.213,1.935,1.935,0,0,1,1.867.246,2.019,2.019,0,0,1,.636,1.638,5.091,5.091,0,0,1-.475,1.748c-1.086,2.69-2.97,5.66-4.9,6.415" transform="translate(-48.237 -153.973)" fill="#aed3f2"/>
      <path id="Trazado_112504" data-name="Trazado 112504" d="M50.588,320.83a1.434,1.434,0,0,1,0,.382V324a21.474,21.474,0,0,0,.085,2.249c.076,1.7.238,3.649.492,5.83s.636,4.582,1.154,7.077,1.154,4.828,1.782,6.941,1.29,3.988,1.9,5.541c.28.789.577,1.477.849,2.1s.467,1.137.662,1.561.305.738.416.993a1.739,1.739,0,0,1,.136.348,1.588,1.588,0,0,1-.187-.331c-.119-.246-.272-.543-.467-.967s-.441-.933-.7-1.544-.569-1.307-.849-2.079c-.628-1.553-1.3-3.394-1.96-5.541s-1.273-4.463-1.807-6.958-.849-4.9-1.137-7.077a57.391,57.391,0,0,1-.433-5.855v-5.04a1.638,1.638,0,0,1,.068-.407Z" transform="translate(-45.003 -156.418)" fill="#aed3f2"/>
      <path id="Trazado_112505" data-name="Trazado 112505" d="M51.38,334.321a6.228,6.228,0,0,1,1.493-3.937,1.468,1.468,0,0,1,1.239-.653c.653.093.942.849.967,1.51a4.591,4.591,0,0,1-1.035,3.021,3.886,3.886,0,0,1-2.546,1.553" transform="translate(-45.133 -157.765)" fill="#aed3f2"/>
      <path id="Trazado_112506" data-name="Trazado 112506" d="M53.049,343.288a10.548,10.548,0,0,1,1.46-5.694,1.926,1.926,0,0,1,.543-.569.789.789,0,0,1,.764-.068,1.137,1.137,0,0,1,.492.984,6.6,6.6,0,0,1-3.182,6.186" transform="translate(-45.385 -158.85)" fill="#aed3f2"/>
      <path id="Trazado_112507" data-name="Trazado 112507" d="M55.22,351.437a9.69,9.69,0,0,1,1.8-4.693,1.477,1.477,0,0,1,.925-.7c.594-.076,1.086.543,1.2,1.12a4.616,4.616,0,0,1-1.035,3.471,12.82,12.82,0,0,1-2.308,2.291" transform="translate(-45.715 -160.236)" fill="#aed3f2"/>
      <path id="Trazado_112508" data-name="Trazado 112508" d="M57.19,357.219a9.249,9.249,0,0,1,1.629-3.7,1.934,1.934,0,0,1,.653-.577.789.789,0,0,1,.849.051c.373.289.288.849.136,1.315a7.637,7.637,0,0,1-2.783,3.818" transform="translate(-46.013 -161.266)" fill="#aed3f2"/>
      <path id="Trazado_112509" data-name="Trazado 112509" d="M55.273,355.263a29.25,29.25,0,0,0-4.8-2.546.849.849,0,0,0-.806-.042.56.56,0,0,0-.178.594,1.384,1.384,0,0,0,.331.543,7.357,7.357,0,0,0,5.94,2.452" transform="translate(-44.842 -161.228)" fill="#aed3f2"/>
      <path id="Trazado_112510" data-name="Trazado 112510" d="M52.959,347.775,49,345.23a3.59,3.59,0,0,0-1.2-.577,1.222,1.222,0,0,0-1.222.365,1.2,1.2,0,0,0,0,1.273,3.191,3.191,0,0,0,.908.967A8.75,8.75,0,0,0,50.26,348.8a3.674,3.674,0,0,0,2.86,0" transform="translate(-44.378 -160.019)" fill="#aed3f2"/>
      <path id="Trazado_112511" data-name="Trazado 112511" d="M50.909,339.268a10.421,10.421,0,0,0-4.243-3.394,1.7,1.7,0,0,0-.849-.2A1.324,1.324,0,0,0,44.8,337a2.546,2.546,0,0,0,.849,1.807,5.293,5.293,0,0,0,1.79.993,12.023,12.023,0,0,0,3.708.713" transform="translate(-44.136 -158.665)" fill="#aed3f2"/>
      <path id="Trazado_112512" data-name="Trazado 112512" d="M49.943,331.238a12.372,12.372,0,0,0-4.243-4.523,1.281,1.281,0,0,0-1.247-.314.848.848,0,0,0-.433.7,2.079,2.079,0,0,0,.144.849,6.525,6.525,0,0,0,5.8,4.243" transform="translate(-44.018 -157.254)" fill="#aed3f2"/>
      <path id="Trazado_112513" data-name="Trazado 112513" d="M50.5,326.613a17.011,17.011,0,0,1-1.086-3.08,5.719,5.719,0,0,1,.119-3.225,2.4,2.4,0,0,1,.772-1.154,1.366,1.366,0,0,1,1.324-.238,1.468,1.468,0,0,1,.789.976,3.717,3.717,0,0,1,.051,1.3c-.178,2.07-.806,4.5-1.969,5.448" transform="translate(-44.809 -156.116)" fill="#aed3f2"/>
      <path id="Trazado_112514" data-name="Trazado 112514" d="M84.325,320.53V322a12.6,12.6,0,0,1,0,1.7v2.249c-.051,1.7-.187,3.657-.424,5.855s-.628,4.6-1.146,7.077-1.154,4.837-1.807,6.95-1.324,3.988-1.96,5.541c-.289.781-.6,1.468-.849,2.079s-.5,1.129-.7,1.553l-.467.976a2.393,2.393,0,0,1-.178.322,1.7,1.7,0,0,1,.127-.348l.424-.993c.17-.407.416-.95.662-1.561s.543-1.307.849-2.1c.6-1.553,1.247-3.394,1.892-5.533s1.256-4.455,1.782-6.941.849-4.9,1.163-7.077a55.893,55.893,0,0,0,.484-5.838c.059-.849.059-1.587.085-2.249s0-1.23,0-1.7v-1.086A1.6,1.6,0,0,1,84.325,320.53Z" transform="translate(-48.981 -156.372)" fill="#aed3f2"/>
      <path id="Trazado_112515" data-name="Trazado 112515" d="M84.211,334.019a6.194,6.194,0,0,0-1.493-3.937,1.493,1.493,0,0,0-1.239-.662c-.645.093-.942.849-.959,1.519a4.582,4.582,0,0,0,1.035,3.046,3.87,3.87,0,0,0,2.495,1.544" transform="translate(-49.546 -157.718)" fill="#aed3f2"/>
      <path id="Trazado_112516" data-name="Trazado 112516" d="M82.635,342.983a10.522,10.522,0,0,0-1.46-5.685,1.867,1.867,0,0,0-.543-.552.849.849,0,0,0-.764-.076,1.18,1.18,0,0,0-.492.993,6.636,6.636,0,0,0,3.191,6.186" transform="translate(-49.37 -158.808)" fill="#aed3f2"/>
      <path id="Trazado_112517" data-name="Trazado 112517" d="M80.295,351.126a9.6,9.6,0,0,0-1.79-4.693,1.451,1.451,0,0,0-.933-.7c-.594-.076-1.086.543-1.2,1.12A4.633,4.633,0,0,0,77.4,350.32a12.338,12.338,0,0,0,2.317,2.291" transform="translate(-48.914 -160.187)" fill="#aed3f2"/>
      <path id="Trazado_112518" data-name="Trazado 112518" d="M78.492,356.9a9.283,9.283,0,0,0-1.638-3.691,1.934,1.934,0,0,0-.653-.577.848.848,0,0,0-.849.042c-.373.289-.289.849-.127,1.324a7.637,7.637,0,0,0,2.783,3.81" transform="translate(-48.724 -161.22)" fill="#aed3f2"/>
      <path id="Trazado_112519" data-name="Trazado 112519" d="M79.92,354.951a30.144,30.144,0,0,1,4.794-2.546.849.849,0,0,1,.849-.042.543.543,0,0,1,.178.594,1.561,1.561,0,0,1-.331.543,7.382,7.382,0,0,1-5.94,2.452" transform="translate(-49.387 -161.179)" fill="#aed3f2"/>
      <path id="Trazado_112520" data-name="Trazado 112520" d="M82.118,347.435l3.954-2.546a3.657,3.657,0,0,1,1.2-.586,1.247,1.247,0,0,1,1.222.373,1.2,1.2,0,0,1,0,1.273,3.088,3.088,0,0,1-.916.959,8.612,8.612,0,0,1-2.775,1.553,3.708,3.708,0,0,1-2.86,0" transform="translate(-49.761 -159.967)" fill="#aed3f2"/>
      <path id="Trazado_112521" data-name="Trazado 112521" d="M84.256,338.968a10.462,10.462,0,0,1,4.243-3.394,1.833,1.833,0,0,1,.849-.2,1.324,1.324,0,0,1,1.018,1.332,2.546,2.546,0,0,1-.849,1.816,5.209,5.209,0,0,1-1.79.984,12.075,12.075,0,0,1-3.717.713" transform="translate(-50.075 -158.62)" fill="#aed3f2"/>
      <path id="Trazado_112522" data-name="Trazado 112522" d="M85.274,330.929a12.278,12.278,0,0,1,4.243-4.523,1.3,1.3,0,0,1,1.239-.314.849.849,0,0,1,.433.7,2.036,2.036,0,0,1-.136.849,6.542,6.542,0,0,1-5.813,4.3" transform="translate(-50.261 -157.207)" fill="#aed3f2"/>
      <path id="Trazado_112523" data-name="Trazado 112523" d="M85.162,326.351a18.781,18.781,0,0,0,1.086-3.089,5.94,5.94,0,0,0-.119-3.233,2.486,2.486,0,0,0-.772-1.146,1.366,1.366,0,0,0-1.324-.238,1.442,1.442,0,0,0-.789.984,3.708,3.708,0,0,0-.059,1.3c.178,2.062.849,4.489,1.977,5.439" transform="translate(-49.945 -156.075)" fill="#aed3f2"/>
      <path id="Trazado_112524" data-name="Trazado 112524" d="M44.67,362.67v4.981a1.96,1.96,0,0,0,1.977,1.96H80.717a1.96,1.96,0,0,0,1.96-1.96h0V362.67Z" transform="translate(-44.117 -162.754)" fill="#aed3f2"/>
      <path id="Trazado_112525" data-name="Trazado 112525" d="M48.16,370.87l.28,1.587,31.447,2.24.789-3.827Z" transform="translate(-44.645 -163.996)" fill="#aed3f2"/>
      <path id="Trazado_112526" data-name="Trazado 112526" d="M138.077,307.214a5.94,5.94,0,0,0-4.981-6.788h-.042a.535.535,0,0,0-.424.051.611.611,0,0,0-.153.577,7.179,7.179,0,0,0,5.592,6.339" transform="translate(-57.412 -153.324)" fill="#aed3f2"/>
      <path id="Trazado_112527" data-name="Trazado 112527" d="M129.017,319.311c1.493,3.1,3.657,5.185,6.33,5.287.543,0,.933-.331,1.451-.365a3.184,3.184,0,0,1,.849.322,1.289,1.289,0,0,0,.441.1c2.766-.144,5.091-2.087,6.7-5.346,2.215-4.548,1.527-9.436-1.519-10.929a7.432,7.432,0,0,0-1.247-.484,5.091,5.091,0,0,0-1.519-.178,11.031,11.031,0,0,0-3.462.789.416.416,0,0,0-.144.051,7.207,7.207,0,0,0-6.381-.178C127.482,309.875,126.8,314.746,129.017,319.311Z" transform="translate(-56.694 -154.432)" fill="#aed3f2"/>
      <path id="Trazado_112528" data-name="Trazado 112528" d="M129.25,314.991a2.623,2.623,0,0,1-.246-.916,4.93,4.93,0,0,1,1.544-4.183,2.547,2.547,0,0,1,.789-.552,8.31,8.31,0,0,0-.687.636,5.567,5.567,0,0,0-1.179,1.875,5.456,5.456,0,0,0-.322,2.181A8.315,8.315,0,0,1,129.25,314.991Z" transform="translate(-56.884 -154.677)" fill="#fafafa"/>
      <path id="Trazado_112529" data-name="Trazado 112529" d="M129.952,318.316c-.059,0-.153-.2-.221-.484s-.068-.509,0-.543.153.2.221.484A1.274,1.274,0,0,1,129.952,318.316Z" transform="translate(-56.991 -155.881)" fill="#fafafa"/>
      <path id="Trazado_112530" data-name="Trazado 112530" d="M145.281,299.65c0,.042-.577.263-1.434.772a11.3,11.3,0,0,0-4.862,5.94c-.339.942-.441,1.561-.475,1.553a1.537,1.537,0,0,1,.051-.441,3.258,3.258,0,0,1,.093-.5c.059-.2.1-.424.187-.662a9.843,9.843,0,0,1,.687-1.638,11.31,11.31,0,0,1,1.2-1.824,12.005,12.005,0,0,1,1.587-1.544,11.576,11.576,0,0,1,1.476-1c.221-.127.433-.212.611-.305a3.285,3.285,0,0,1,.475-.2,2.1,2.1,0,0,1,.4-.153Z" transform="translate(-58.328 -153.21)" fill="#aed3f2"/>
      <path id="Trazado_112531" data-name="Trazado 112531" d="M175.112,307.214a5.94,5.94,0,0,0-4.99-6.788h0a.552.552,0,0,0-.433.051.636.636,0,0,0-.153.577,7.17,7.17,0,0,0,5.6,6.339" transform="translate(-63.025 -153.324)" fill="#aed3f2"/>
      <path id="Trazado_112532" data-name="Trazado 112532" d="M166.047,319.311c1.5,3.1,3.657,5.185,6.33,5.287.543,0,.942-.331,1.451-.365a3.183,3.183,0,0,1,.849.322,1.289,1.289,0,0,0,.441.1c2.766-.144,5.091-2.087,6.7-5.346,2.215-4.548,1.536-9.436-1.519-10.929a7.161,7.161,0,0,0-1.247-.484,5.091,5.091,0,0,0-1.519-.178,11.032,11.032,0,0,0-3.462.789l-.144.051a7.207,7.207,0,0,0-6.381-.178C164.5,309.875,163.832,314.746,166.047,319.311Z" transform="translate(-62.301 -154.432)" fill="#aed3f2"/>
      <path id="Trazado_112533" data-name="Trazado 112533" d="M166.289,314.991a2.46,2.46,0,0,1-.255-.916,4.93,4.93,0,0,1,1.544-4.183,2.41,2.41,0,0,1,.789-.552s-.28.229-.679.636a5.423,5.423,0,0,0-1.51,4.056C166.221,314.584,166.323,314.94,166.289,314.991Z" transform="translate(-62.492 -154.677)" fill="#fafafa"/>
      <path id="Trazado_112534" data-name="Trazado 112534" d="M166.952,318.316c-.059,0-.153-.2-.221-.484s-.068-.509,0-.543.153.2.221.484A.848.848,0,0,1,166.952,318.316Z" transform="translate(-62.595 -155.881)" fill="#fafafa"/>
      <path id="Trazado_112535" data-name="Trazado 112535" d="M182.331,299.65c0,.042-.577.263-1.434.772a11.3,11.3,0,0,0-4.862,5.94c-.331.942-.433,1.561-.475,1.553a1.9,1.9,0,0,1,.051-.441,3.274,3.274,0,0,1,.1-.5,4.243,4.243,0,0,1,.178-.662,9.841,9.841,0,0,1,.687-1.638,11.31,11.31,0,0,1,1.2-1.824,12,12,0,0,1,1.544-1.544,11.088,11.088,0,0,1,1.51-1,5.072,5.072,0,0,1,.611-.305,2.543,2.543,0,0,1,.475-.2A2.1,2.1,0,0,1,182.331,299.65Z" transform="translate(-63.94 -153.21)" fill="#aed3f2"/>
      <path id="Trazado_112536" data-name="Trazado 112536" d="M119.173,307.214a5.94,5.94,0,0,0-4.981-6.788h0a.526.526,0,0,0-.424.051.594.594,0,0,0-.161.577,7.187,7.187,0,0,0,5.609,6.339" transform="translate(-54.554 -153.324)" fill="#aed3f2"/>
      <path id="Trazado_112537" data-name="Trazado 112537" d="M110.1,319.311c1.5,3.1,3.666,5.185,6.339,5.287.543,0,.933-.331,1.443-.365a2.978,2.978,0,0,1,.849.322,1.383,1.383,0,0,0,.45.1c2.758-.144,5.091-2.087,6.7-5.346,2.206-4.548,1.527-9.436-1.519-10.929a7.511,7.511,0,0,0-1.256-.484,5.09,5.09,0,0,0-1.51-.178,11.031,11.031,0,0,0-3.462.789l-.153.051a7.189,7.189,0,0,0-6.373-.178C108.562,309.875,107.883,314.746,110.1,319.311Z" transform="translate(-53.828 -154.432)" fill="#e0eaf2"/>
      <path id="Trazado_112538" data-name="Trazado 112538" d="M110.34,314.991a2.3,2.3,0,0,1-.246-.916,4.913,4.913,0,0,1,1.544-4.183,2.545,2.545,0,0,1,.781-.552s-.28.229-.679.636a5.566,5.566,0,0,0-1.179,1.875,5.457,5.457,0,0,0-.322,2.181C110.272,314.584,110.382,314.94,110.34,314.991Z" transform="translate(-54.02 -154.677)" fill="#fafafa"/>
      <path id="Trazado_112539" data-name="Trazado 112539" d="M111,318.316c-.051,0-.153-.2-.212-.484s-.076-.509,0-.543.153.2.221.484S111.062,318.3,111,318.316Z" transform="translate(-54.123 -155.881)" fill="#fafafa"/>
      <path id="Trazado_112540" data-name="Trazado 112540" d="M126.381,299.65c0,.042-.569.263-1.434.772a11.24,11.24,0,0,0-1.426,1.027,11.5,11.5,0,0,0-2.724,3.3,11.264,11.264,0,0,0-.713,1.6c-.331.942-.433,1.561-.475,1.553a1.9,1.9,0,0,1,.051-.441,4.759,4.759,0,0,1,.1-.5,5.363,5.363,0,0,1,.187-.662,10.572,10.572,0,0,1,.679-1.638,11.883,11.883,0,0,1,1.2-1.824,11.551,11.551,0,0,1,1.553-1.536,10.922,10.922,0,0,1,1.468-1c.221-.127.433-.212.611-.305a3.027,3.027,0,0,1,.484-.2,1.876,1.876,0,0,1,.433-.153Z" transform="translate(-55.466 -153.21)" fill="#aed3f2"/>
      <path id="Trazado_112541" data-name="Trazado 112541" d="M156.047,307.214a5.94,5.94,0,0,0-4.973-6.788h-.042a.526.526,0,0,0-.424.051.594.594,0,0,0-.161.577,7.187,7.187,0,0,0,5.592,6.339" transform="translate(-60.133 -153.324)" fill="#aed3f2"/>
      <path id="Trazado_112542" data-name="Trazado 112542" d="M146.988,319.311c1.5,3.1,3.666,5.185,6.339,5.287.543,0,.933-.331,1.443-.365a3.251,3.251,0,0,1,.849.322,1.383,1.383,0,0,0,.45.1c2.758-.144,5.091-2.087,6.7-5.346,2.206-4.548,1.527-9.436-1.527-10.929A7.161,7.161,0,0,0,160,307.9a5.091,5.091,0,0,0-1.51-.178,11.032,11.032,0,0,0-3.462.789l-.153.051a7.189,7.189,0,0,0-6.373-.178C145.452,309.875,144.773,314.746,146.988,319.311Z" transform="translate(-59.415 -154.432)" fill="#e0eaf2"/>
      <path id="Trazado_112543" data-name="Trazado 112543" d="M147.23,314.991a2.3,2.3,0,0,1-.246-.916,4.913,4.913,0,0,1,1.544-4.183,2.547,2.547,0,0,1,.781-.552s-.28.229-.679.636a5.363,5.363,0,0,0-1.5,4.065C147.162,314.584,147.272,314.94,147.23,314.991Z" transform="translate(-59.607 -154.677)" fill="#fafafa"/>
      <path id="Trazado_112544" data-name="Trazado 112544" d="M147.893,318.316c-.051,0-.153-.2-.212-.484s-.076-.509,0-.543.153.2.212.484S147.944,318.3,147.893,318.316Z" transform="translate(-59.71 -155.881)" fill="#fafafa"/>
      <path id="Trazado_112545" data-name="Trazado 112545" d="M163.251,299.65c0,.042-.577.263-1.434.772a11.3,11.3,0,0,0-4.862,5.94c-.339.942-.441,1.561-.475,1.553a1.528,1.528,0,0,1,.042-.441,2.274,2.274,0,0,1,.1-.5,5.424,5.424,0,0,1,.187-.662,10.572,10.572,0,0,1,.679-1.638,11.031,11.031,0,0,1,2.758-3.394,11.571,11.571,0,0,1,1.477-1c.221-.127.433-.212.611-.305a2.936,2.936,0,0,1,.475-.2,1.933,1.933,0,0,1,.441-.127Z" transform="translate(-61.05 -153.21)" fill="#aed3f2"/>
      <path id="Trazado_112546" data-name="Trazado 112546" d="M214.281,307.214a5.94,5.94,0,0,0-4.964-6.788h-.042a.526.526,0,0,0-.424.051c-.178.119-.178.365-.161.577a7.187,7.187,0,0,0,5.592,6.339" transform="translate(-68.956 -153.324)" fill="#aed3f2"/>
      <path id="Trazado_112547" data-name="Trazado 112547" d="M205.219,319.311c1.5,3.1,3.666,5.185,6.339,5.287.543,0,.942-.331,1.451-.365a3.488,3.488,0,0,1,.849.322,1.289,1.289,0,0,0,.441.1c2.766-.144,5.091-2.087,6.7-5.346,2.206-4.548,1.527-9.436-1.519-10.929a7.431,7.431,0,0,0-1.247-.484,5.091,5.091,0,0,0-1.519-.178,11.031,11.031,0,0,0-3.462.789l-.153.051a7.189,7.189,0,0,0-6.373-.178C203.691,309.875,203.012,314.746,205.219,319.311Z" transform="translate(-68.235 -154.432)" fill="#aed3f2"/>
      <path id="Trazado_112548" data-name="Trazado 112548" d="M205.479,314.991a2.46,2.46,0,0,1-.255-.916,4.93,4.93,0,0,1,.28-2.274,4.828,4.828,0,0,1,1.264-1.909,2.41,2.41,0,0,1,.789-.552s-.28.229-.679.636a5.363,5.363,0,0,0-1.5,4.065C205.4,314.584,205.5,314.94,205.479,314.991Z" transform="translate(-68.428 -154.677)" fill="#fafafa"/>
      <path id="Trazado_112549" data-name="Trazado 112549" d="M206.122,318.316c-.059,0-.153-.2-.221-.484s-.068-.509,0-.543.161.2.221.484S206.181,318.3,206.122,318.316Z" transform="translate(-68.527 -155.881)" fill="#fafafa"/>
      <path id="Trazado_112550" data-name="Trazado 112550" d="M221.506,299.65c0,.042-.543.263-1.426.772a11.33,11.33,0,0,0-1.434,1.027,12.16,12.16,0,0,0-1.51,1.519,13.285,13.285,0,0,0-1.188,1.782,11.257,11.257,0,0,0-.713,1.6c-.339.942-.441,1.561-.475,1.553a1.528,1.528,0,0,1,.042-.441,4.751,4.751,0,0,1,.1-.5,6.074,6.074,0,0,1,.2-.67,10.238,10.238,0,0,1,.679-1.638,11.881,11.881,0,0,1,1.2-1.824,11.03,11.03,0,0,1,1.553-1.536A10.53,10.53,0,0,1,220,300.3a5.849,5.849,0,0,1,.611-.305,3.33,3.33,0,0,1,.475-.2A2.547,2.547,0,0,1,221.506,299.65Z" transform="translate(-69.876 -153.21)" fill="#aed3f2"/>
      <path id="Trazado_112551" data-name="Trazado 112551" d="M195.227,307.214a5.94,5.94,0,0,0-4.981-6.788H190.2a.535.535,0,0,0-.424.051.611.611,0,0,0-.153.577,7.162,7.162,0,0,0,5.592,6.339" transform="translate(-66.067 -153.324)" fill="#aed3f2"/>
      <path id="Trazado_112552" data-name="Trazado 112552" d="M186.167,319.311c1.5,3.1,3.657,5.185,6.33,5.287.543,0,.942-.331,1.451-.365a3.184,3.184,0,0,1,.849.322,1.289,1.289,0,0,0,.441.1c2.766-.144,5.091-2.087,6.7-5.346,2.215-4.548,1.536-9.436-1.519-10.929a7.161,7.161,0,0,0-1.247-.484,5.091,5.091,0,0,0-1.519-.178,11.032,11.032,0,0,0-3.462.789.416.416,0,0,0-.144.051,7.207,7.207,0,0,0-6.381-.178C184.632,309.875,183.953,314.746,186.167,319.311Z" transform="translate(-65.349 -154.432)" fill="#e0eaf2"/>
      <path id="Trazado_112553" data-name="Trazado 112553" d="M186.409,314.991a2.461,2.461,0,0,1-.255-.916,4.93,4.93,0,0,1,1.544-4.183,2.41,2.41,0,0,1,.789-.552s-.28.229-.679.636a5.466,5.466,0,0,0-1.188,1.875,5.609,5.609,0,0,0-.322,2.181C186.341,314.584,186.443,314.94,186.409,314.991Z" transform="translate(-65.539 -154.677)" fill="#fafafa"/>
      <path id="Trazado_112554" data-name="Trazado 112554" d="M187.072,318.316c-.059,0-.153-.2-.221-.484s-.068-.509,0-.543.153.2.221.484S187.131,318.3,187.072,318.316Z" transform="translate(-65.642 -155.881)" fill="#fafafa"/>
      <path id="Trazado_112555" data-name="Trazado 112555" d="M202.451,299.65c0,.042-.577.263-1.434.772a11.3,11.3,0,0,0-4.862,5.94c-.339.942-.433,1.561-.475,1.553a1.535,1.535,0,0,1,.051-.441,2.5,2.5,0,0,1,.1-.5,4.247,4.247,0,0,1,.178-.662,9.845,9.845,0,0,1,.687-1.638,11.311,11.311,0,0,1,1.2-1.824,12.012,12.012,0,0,1,1.544-1.536,11.576,11.576,0,0,1,1.476-1c.221-.127.433-.212.611-.305a3.279,3.279,0,0,1,.475-.2,2.1,2.1,0,0,1,.441-.161Z" transform="translate(-66.987 -153.21)" fill="#aed3f2"/>
      <rect id="Rectángulo_8722" data-name="Rectángulo 8722" width="128.929" height="6.288" transform="translate(31.466 169.054)" fill="#aed3f2"/>
      <rect id="Rectángulo_8723" data-name="Rectángulo 8723" width="83.515" height="131.976" transform="translate(252.37 11.876)" fill="#aed3f2"/>
      <rect id="Rectángulo_8724" data-name="Rectángulo 8724" width="78.729" height="127.325" transform="translate(254.618 14.363)" fill="#e0eaf2"/>
      <rect id="Rectángulo_8725" data-name="Rectángulo 8725" width="31.388" height="48.715" transform="translate(293.983 21.779)" fill="#ffbf9d"/>
      <path id="Trazado_112556" data-name="Trazado 112556" d="M410.522,157.6a1.171,1.171,0,1,1-1.171-1.171,1.171,1.171,0,0,1,1.171,1.171Z" transform="translate(-99.169 -131.52)" fill="#aed3f2"/>
      <rect id="Rectángulo_8726" data-name="Rectángulo 8726" width="31.388" height="48.715" transform="translate(262.349 84.046)" fill="#ffbf9d"/>
      <path id="Trazado_112557" data-name="Trazado 112557" d="M373.262,230.981a1.171,1.171,0,1,1-1.171-1.171A1.171,1.171,0,0,1,373.262,230.981Z" transform="translate(-93.526 -142.633)" fill="#aed3f2"/>
      <rect id="Rectángulo_8727" data-name="Rectángulo 8727" width="26.806" height="38.041" transform="translate(261.924 21.779)" fill="#ffbf9d"/>
      <path id="Trazado_112558" data-name="Trazado 112558" d="M369.282,156.636a.976.976,0,1,1-.976-.976h0a.967.967,0,0,1,.976.976Z" transform="translate(-92.983 -131.403)" fill="#aed3f2"/>
      <rect id="Rectángulo_8728" data-name="Rectángulo 8728" width="28.851" height="15.987" transform="translate(297.738 87.922) rotate(-6.44)" fill="#ffbf9d"/>
      <path id="Trazado_112559" data-name="Trazado 112559" d="M413.006,232.211a.993.993,0,1,1-.288-.708.993.993,0,0,1,.288.708Z" transform="translate(-99.599 -142.845)" fill="#aed3f2"/>
      <path id="Trazado_112560" data-name="Trazado 112560" d="M381.292,239.168c0,.127-4.9.238-11.031.238s-11.031-.11-11.031-.238,4.9-.238,11.031-.238S381.292,239.04,381.292,239.168Z" transform="translate(-91.756 -144.014)" fill="#aed3f2"/>
      <path id="Trazado_112561" data-name="Trazado 112561" d="M381.292,243.258c0,.127-4.9.229-11.031.229s-11.031-.1-11.031-.229,4.9-.238,11.031-.238S381.292,243.139,381.292,243.258Z" transform="translate(-91.756 -144.633)" fill="#aed3f2"/>
      <path id="Trazado_112562" data-name="Trazado 112562" d="M381.292,247.388c0,.119-4.9.229-11.031.229s-11.031-.11-11.031-.229,4.9-.238,11.031-.238S381.292,247.252,381.292,247.388Z" transform="translate(-91.756 -145.259)" fill="#aed3f2"/>
      <path id="Trazado_112563" data-name="Trazado 112563" d="M381.292,251.489c0,.127-4.9.238-11.031.238s-11.031-.11-11.031-.238,4.9-.229,11.031-.229S381.292,251.362,381.292,251.489Z" transform="translate(-91.756 -145.881)" fill="#aed3f2"/>
      <path id="Trazado_112564" data-name="Trazado 112564" d="M381.292,255.6c0,.127-4.9.238-11.031.238s-11.031-.11-11.031-.238,4.9-.238,11.031-.238S381.292,255.47,381.292,255.6Z" transform="translate(-91.756 -146.502)" fill="#aed3f2"/>
      <path id="Trazado_112565" data-name="Trazado 112565" d="M381.292,259.708c0,.127-4.9.229-11.031.229s-11.031-.1-11.031-.229,4.9-.238,11.031-.238S381.292,259.572,381.292,259.708Z" transform="translate(-91.756 -147.125)" fill="#aed3f2"/>
      <path id="Trazado_112566" data-name="Trazado 112566" d="M381.292,263.8c0,.119-4.9.229-11.031.229s-11.031-.11-11.031-.229,4.9-.238,11.031-.238S381.292,263.679,381.292,263.8Z" transform="translate(-91.756 -147.744)" fill="#aed3f2"/>
      <path id="Trazado_112567" data-name="Trazado 112567" d="M421.625,234.807c0,.127-4.845.916-10.9,1.765s-10.887,1.443-10.929,1.307,4.845-.916,10.887-1.765S421.608,234.68,421.625,234.807Z" transform="translate(-97.9 -143.387)" fill="#aed3f2"/>
      <path id="Trazado_112568" data-name="Trazado 112568" d="M422.1,237.377c0,.127-4.845.916-10.887,1.765s-10.9,1.443-10.938,1.307,4.845-.916,10.9-1.765S422.1,237.25,422.1,237.377Z" transform="translate(-97.973 -143.776)" fill="#aed3f2"/>
      <path id="Trazado_112569" data-name="Trazado 112569" d="M422.615,239.747c0,.127-4.854.916-10.9,1.773s-10.921,1.434-10.929,1.307,4.845-.925,10.887-1.773S422.589,239.62,422.615,239.747Z" transform="translate(-98.05 -144.135)" fill="#aed3f2"/>
      <path id="Trazado_112570" data-name="Trazado 112570" d="M419.78,164.7c0,.127-5.575.238-12.44.238s-12.44-.11-12.44-.238,5.575-.229,12.44-.229S419.78,164.572,419.78,164.7Z" transform="translate(-97.158 -132.737)" fill="#aed3f2"/>
      <path id="Trazado_112571" data-name="Trazado 112571" d="M419.78,167.142c0,.136-5.575.238-12.44.238s-12.44-.1-12.44-.238,5.575-.212,12.44-.212S419.78,166.989,419.78,167.142Z" transform="translate(-97.158 -133.11)" fill="#aed3f2"/>
      <path id="Trazado_112572" data-name="Trazado 112572" d="M419.78,169.588c0,.127-5.575.229-12.44.229s-12.44-.1-12.44-.229,5.575-.238,12.44-.238S419.78,169.469,419.78,169.588Z" transform="translate(-97.158 -133.476)" fill="#aed3f2"/>
      <path id="Trazado_112573" data-name="Trazado 112573" d="M419.78,172.018c0,.127-5.575.238-12.44.238s-12.44-.11-12.44-.238,5.575-.238,12.44-.238S419.78,171.9,419.78,172.018Z" transform="translate(-97.158 -133.844)" fill="#aed3f2"/>
      <path id="Trazado_112574" data-name="Trazado 112574" d="M419.78,174.469c0,.136-5.575.238-12.44.238s-12.44-.1-12.44-.238,5.575-.229,12.44-.229S419.78,174.342,419.78,174.469Z" transform="translate(-97.158 -134.217)" fill="#aed3f2"/>
      <path id="Trazado_112575" data-name="Trazado 112575" d="M419.78,176.959c0,.136-5.575.238-12.44.238s-12.44-.1-12.44-.238,5.575-.229,12.44-.229S419.78,176.789,419.78,176.959Z" transform="translate(-97.158 -134.594)" fill="#aed3f2"/>
      <path id="Trazado_112576" data-name="Trazado 112576" d="M419.78,179.358c0,.127-5.575.229-12.44.229s-12.44-.1-12.44-.229,5.575-.238,12.44-.238S419.78,179.222,419.78,179.358Z" transform="translate(-97.158 -134.956)" fill="#aed3f2"/>
      <path id="Trazado_112577" data-name="Trazado 112577" d="M419.78,186.6c0,.136-5.575.238-12.44.238s-12.44-.1-12.44-.238,5.575-.229,12.44-.229S419.78,186.472,419.78,186.6Z" transform="translate(-97.158 -136.054)" fill="#aed3f2"/>
      <path id="Trazado_112578" data-name="Trazado 112578" d="M419.981,189.179c0,.136-5.566.238-12.44.238s-12.431-.1-12.431-.238,5.567-.229,12.431-.229S419.981,189.052,419.981,189.179Z" transform="translate(-97.19 -136.445)" fill="#aed3f2"/>
      <path id="Trazado_112579" data-name="Trazado 112579" d="M420.191,191.759c0,.136-5.566.238-12.44.238s-12.431-.1-12.431-.238,5.566-.229,12.431-.229S420.191,191.632,420.191,191.759Z" transform="translate(-97.222 -136.836)" fill="#aed3f2"/>
      <path id="Trazado_112580" data-name="Trazado 112580" d="M420.388,194.339c0,.136-5.566.238-12.431.238s-12.457-.119-12.457-.238,5.566-.229,12.44-.229S420.388,194.212,420.388,194.339Z" transform="translate(-97.249 -137.226)" fill="#aed3f2"/>
      <path id="Trazado_112581" data-name="Trazado 112581" d="M420.56,196.959c0,.127-5.575.238-12.44.238s-12.44-.11-12.44-.238,5.566-.229,12.44-.229S420.56,196.8,420.56,196.959Z" transform="translate(-97.276 -137.623)" fill="#aed3f2"/>
      <path id="Trazado_112582" data-name="Trazado 112582" d="M420.81,199.5c0,.127-5.575.238-12.44.238s-12.44-.11-12.44-.238,5.566-.229,12.44-.229S420.81,199.372,420.81,199.5Z" transform="translate(-97.314 -138.008)" fill="#aed3f2"/>
      <ellipse id="Elipse_4349" data-name="Elipse 4349" cx="23.768" cy="23.768" rx="23.768" ry="23.768" transform="matrix(0.159, -0.987, 0.987, 0.159, 178.719, 46.931)" fill="#aed3f2"/>
      <ellipse id="Elipse_4350" data-name="Elipse 4350" cx="21.511" cy="21.511" rx="21.511" ry="21.511" transform="translate(184.723 5.495)" fill="#e0eaf2"/>
      <path id="Trazado_112583" data-name="Trazado 112583" d="M261.439,153.781v2.138c0,.272.051.577.076.908s.059.687.093,1.095a11.218,11.218,0,0,0,.212,1.188,20.554,20.554,0,0,0,2.011,5.94,21.536,21.536,0,0,0,5.091,6.457l.891.755c.305.238.636.45.967.687a9.474,9.474,0,0,0,1.01.67l1.086.611.543.305.585.255,1.18.552c.407.161.849.272,1.247.416a11.119,11.119,0,0,0,1.281.382,20.667,20.667,0,0,0,2.7.492c.458.051.925.127,1.4.144h2.155l.73-.059c.484-.051.976-.076,1.46-.144a21.628,21.628,0,0,0,2.919-.653l.73-.212.365-.11.356-.144,1.434-.577c.467-.221.916-.475,1.392-.713.221-.127.467-.229.687-.373l.662-.433a24.611,24.611,0,0,0,2.546-1.909l1.171-1.129.3-.288.263-.314.552-.619.543-.628.475-.679.484-.687.238-.339a3.079,3.079,0,0,0,.2-.365l.849-1.468q.348-.764.687-1.553a21.154,21.154,0,0,0,.849-13.577l-.467-1.629c-.212-.543-.433-1.044-.636-1.561l-.161-.39-.2-.373-.382-.738-.382-.738-.45-.687-.45-.7-.229-.339-.255-.322-1.018-1.273a24.754,24.754,0,0,0-2.291-2.232l-.611-.543c-.2-.17-.424-.305-.628-.458-.433-.3-.849-.611-1.281-.891l-1.349-.764-.331-.187-.348-.153-.7-.314a23.753,23.753,0,0,0-2.817-1.027c-.467-.127-.95-.221-1.426-.331l-.713-.153c-.229-.051-.475-.059-.713-.093l-1.417-.17h-1.4a19.468,19.468,0,0,0-2.724.136,9.774,9.774,0,0,0-1.324.212c-.433.085-.849.144-1.29.255l-1.247.382-.6.178-.585.238-1.154.45c-.382.153-.73.365-1.095.552s-.7.356-1.044.543l-.976.628a21.494,21.494,0,0,0-5.872,5.745,20.467,20.467,0,0,0-2.758,5.575,10.88,10.88,0,0,0-.365,1.163c-.085.365-.161.713-.229,1.035s-.153.619-.2.891-.059.552-.085.755l-.136,1.027-.051.348v-.356c0-.238.059-.577.11-1.027,0-.221.051-.475.076-.755s.127-.543.187-.891.144-.679.229-1.052a11.405,11.405,0,0,1,.348-1.163,20.366,20.366,0,0,1,2.715-5.626,21.537,21.537,0,0,1,5.889-5.8l.984-.645c.339-.2.7-.373,1.052-.543s.713-.4,1.095-.552l1.154-.467.594-.238.611-.178,1.247-.373c.424-.11.849-.17,1.307-.263a11.325,11.325,0,0,1,1.324-.212,21.5,21.5,0,0,1,2.766-.144c.467,0,.942,0,1.417.042l1.434.161a4.2,4.2,0,0,1,.721.093l.713.153c.484.119.967.2,1.451.331a23.547,23.547,0,0,1,2.834,1.035l.7.314.356.161.339.187,1.358.772c.441.272.849.585,1.3.849.212.153.441.289.645.467l.6.543a24.43,24.43,0,0,1,2.334,2.257c.339.433.679.849,1.027,1.281l.255.331.229.348.45.7.458.7.39.747.39.747.2.373.161.4.636,1.578c.17.543.322,1.086.484,1.629a21.57,21.57,0,0,1-.9,13.7l-.7,1.57-.789,1.46c-.076.127-.136.255-.212.373l-.246.339-.484.7-.484.687-.552.628-.543.636-.272.314-.3.289-1.188,1.137a23.092,23.092,0,0,1-2.6,1.926l-.67.441c-.229.144-.467.255-.7.382-.475.238-.933.5-1.409.713l-1.451.586-.356.144-.373.11-.73.212a23.521,23.521,0,0,1-2.953.653c-.5.068-.984.093-1.477.144l-.73.059H281.77a13,13,0,0,1-1.409-.153,19.981,19.981,0,0,1-2.724-.509,11.786,11.786,0,0,1-1.29-.382c-.424-.144-.849-.263-1.256-.424l-1.188-.552-.586-.255-.543-.314-1.095-.619c-.356-.2-.67-.458-1.01-.679s-.662-.458-.976-.7l-.891-.764a21.638,21.638,0,0,1-5.091-6.534,20.423,20.423,0,0,1-1.986-5.94,11.683,11.683,0,0,1-.2-1.2c0-.382-.059-.738-.085-1.095s-.059-.636-.068-.908,0-.552,0-.764v-1.035a1.256,1.256,0,0,0,.059-.356Z" transform="translate(-76.936 -128.056)" fill="#aed3f2"/>
      <path id="Trazado_112584" data-name="Trazado 112584" d="M296.789,157.316a3.853,3.853,0,0,1-.764.051l-2.1.042H286.7v-1.544c0-3.131,0-5.991.042-8.027,0-.984,0-1.807.042-2.427a6.291,6.291,0,0,1,.059-.891,5.238,5.238,0,0,1,.051.891c0,.619,0,1.443.042,2.427,0,2.062.051,4.9.051,8.027v1.409l-.144-.144c2.8,0,5.295,0,7.077.051h2.1A3.851,3.851,0,0,1,296.789,157.316Z" transform="translate(-80.772 -129.716)" fill="#aed3f2"/>
      <path id="Trazado_112585" data-name="Trazado 112585" d="M286.971,137.51a6.179,6.179,0,0,1,.144,1.807,6.271,6.271,0,0,1-.144,1.824,11.5,11.5,0,0,1,0-3.632Z" transform="translate(-80.788 -128.654)" fill="#aed3f2"/>
      <path id="Trazado_112586" data-name="Trazado 112586" d="M298.136,141a5.94,5.94,0,0,1-1.179,1.349,5.609,5.609,0,0,1-1.366,1.163,6.016,6.016,0,0,1,1.2-1.409,5.745,5.745,0,0,1,1.349-1.1Z" transform="translate(-82.118 -129.183)" fill="#aed3f2"/>
      <path id="Trazado_112587" data-name="Trazado 112587" d="M304.829,148.37a22.658,22.658,0,0,1-3.029,1.858,8.842,8.842,0,0,1,3.029-1.858Z" transform="translate(-83.058 -130.299)" fill="#aed3f2"/>
      <path id="Trazado_112588" data-name="Trazado 112588" d="M308.474,159.356a22.059,22.059,0,0,1-4.964,0,23.113,23.113,0,0,1,4.964,0Z" transform="translate(-83.317 -131.943)" fill="#aed3f2"/>
      <path id="Trazado_112589" data-name="Trazado 112589" d="M268.014,158.975a19.661,19.661,0,0,1-4.684,0A19.66,19.66,0,0,1,268.014,158.975Z" transform="translate(-77.232 -131.884)" fill="#aed3f2"/>
      <path id="Trazado_112590" data-name="Trazado 112590" d="M271.057,167.19a10.089,10.089,0,0,1-1.773,1.629,10.412,10.412,0,0,1-1.943,1.392,9.749,9.749,0,0,1,1.765-1.629A10.589,10.589,0,0,1,271.057,167.19Z" transform="translate(-77.84 -133.149)" fill="#aed3f2"/>
      <path id="Trazado_112591" data-name="Trazado 112591" d="M278.338,173.53a14.973,14.973,0,0,1-1.2,2.087,15.838,15.838,0,0,1-1.273,2.045,8.044,8.044,0,0,1,1.035-2.181A8.138,8.138,0,0,1,278.338,173.53Z" transform="translate(-79.13 -134.109)" fill="#aed3f2"/>
      <path id="Trazado_112592" data-name="Trazado 112592" d="M286.974,180.806a21.35,21.35,0,0,1,0-4.956,21.349,21.349,0,0,1,0,4.956Z" transform="translate(-80.791 -134.461)" fill="#aed3f2"/>
      <path id="Trazado_112593" data-name="Trazado 112593" d="M298.888,177.263a10.632,10.632,0,0,1-3.708-3.233,22.57,22.57,0,0,1,1.85,1.638A20.7,20.7,0,0,1,298.888,177.263Z" transform="translate(-82.056 -134.185)" fill="#aed3f2"/>
      <path id="Trazado_112594" data-name="Trazado 112594" d="M304.91,170.91a18.029,18.029,0,0,1-3.08-3.08,8.487,8.487,0,0,1,1.629,1.443,8.875,8.875,0,0,1,1.451,1.638Z" transform="translate(-83.063 -133.246)" fill="#aed3f2"/>
      <path id="Trazado_112595" data-name="Trazado 112595" d="M270.967,150.658a13.575,13.575,0,0,1-2.707-2.7,6.381,6.381,0,0,1,1.451,1.247,6.841,6.841,0,0,1,1.256,1.451Z" transform="translate(-77.979 -130.237)" fill="#aed3f2"/>
      <path id="Trazado_112596" data-name="Trazado 112596" d="M278.266,142.987a6.549,6.549,0,0,1-1.426-1.222,6.388,6.388,0,0,1-1.23-1.426,6.355,6.355,0,0,1,1.426,1.222,6.587,6.587,0,0,1,1.23,1.426Z" transform="translate(-79.092 -129.083)" fill="#aed3f2"/>
      <path id="Trazado_112597" data-name="Trazado 112597" d="M264.009,155.311a21.5,21.5,0,0,1,20.233-21.46c-.428,0-.852-.051-1.285-.051a21.519,21.519,0,0,0,0,43.022c.433,0,.849,0,1.281-.042A21.5,21.5,0,0,1,264.009,155.311Z" transform="translate(-77.037 -128.092)" fill="#aed3f2"/>
    </g>
    <g id="freepik--character-1--inject-14" transform="translate(23.473 97.359)">
      <path id="Trazado_112598" data-name="Trazado 112598" d="M133.523,209.283a6.865,6.865,0,0,0-.492-11.948l-8.231-1.6q.331,15.478.45,30.964a11.617,11.617,0,0,0,5.821-2.478c1.578-1.443,2.427-3.861,1.5-5.8a5.439,5.439,0,0,0,.95-9.147Z" transform="translate(-79.456 -182.872)" fill="#344154"/>
      <path id="Trazado_112599" data-name="Trazado 112599" d="M88.587,209.212l-.187-3.666,21.867-4.862c6.788-.925,14.3,5.643,14.943,12.44.713,7.544,1.281,16.784.543,22.453-1.443,11.4-10.1,13.119-10.1,13.119l.7,11.192c.272,6.534-5.193,8.172-11.735,8.486h0A11.88,11.88,0,0,1,92.3,257.385Z" transform="translate(-73.943 -183.608)" fill="#966960"/>
      <path id="Trazado_112600" data-name="Trazado 112600" d="M127.7,223.9a1.46,1.46,0,0,1-1.358,1.51,1.383,1.383,0,0,1-1.536-1.222v-.042a1.46,1.46,0,0,1,1.349-1.519,1.409,1.409,0,0,1,1.544,1.247Z" transform="translate(-79.457 -186.943)" fill="#344154"/>
      <path id="Trazado_112601" data-name="Trazado 112601" d="M128.126,220.855c-.178.2-1.307-.586-2.868-.543s-2.69.849-2.868.687.085-.433.577-.849a3.963,3.963,0,0,1,2.291-.781,3.844,3.844,0,0,1,2.283.662C127.99,220.43,128.186,220.753,128.126,220.855Z" transform="translate(-79.082 -186.45)" fill="#344154"/>
      <path id="Trazado_112602" data-name="Trazado 112602" d="M110.533,225.021a1.46,1.46,0,0,1-1.358,1.5,1.383,1.383,0,0,1-1.536-1.222v-.042a1.451,1.451,0,0,1,1.358-1.51A1.392,1.392,0,0,1,110.533,225Z" transform="translate(-76.857 -187.112)" fill="#344154"/>
      <path id="Trazado_112603" data-name="Trazado 112603" d="M109.966,221.734c-.178.2-1.307-.586-2.868-.543s-2.69.849-2.868.687.085-.433.577-.849a3.963,3.963,0,0,1,2.283-.781,3.784,3.784,0,0,1,2.291.653C109.881,221.336,110.051,221.675,109.966,221.734Z" transform="translate(-76.332 -186.583)" fill="#344154"/>
      <path id="Trazado_112604" data-name="Trazado 112604" d="M117.933,233.174a11.243,11.243,0,0,1,2.546-.543c.4-.051.781-.144.849-.416a1.977,1.977,0,0,0-.3-1.179l-1.281-3.012c-1.773-4.243-3.072-7.807-2.9-7.883s1.757,3.343,3.53,7.637l1.23,3.029a2.274,2.274,0,0,1,.255,1.561,1.018,1.018,0,0,1-.636.6,2.647,2.647,0,0,1-.679.119,8.485,8.485,0,0,1-2.614.085Z" transform="translate(-78.249 -186.567)" fill="#344154"/>
      <path id="Trazado_112605" data-name="Trazado 112605" d="M117.724,256.668A30.055,30.055,0,0,1,102,253.07s4.082,7.832,15.792,6.432Z" transform="translate(-76.003 -191.554)" fill="#77544d"/>
      <path id="Trazado_112606" data-name="Trazado 112606" d="M116.652,239.823a2.834,2.834,0,0,0-2.546-.967,2.546,2.546,0,0,0-1.765.967,1.638,1.638,0,0,0-.068,1.875,1.918,1.918,0,0,0,2.07.45,6.092,6.092,0,0,0,1.969-1.256,1.7,1.7,0,0,0,.45-.467.56.56,0,0,0,0-.586" transform="translate(-77.519 -189.398)" fill="#77544d"/>
      <path id="Trazado_112607" data-name="Trazado 112607" d="M112.69,237c.263,0,.314,1.7,1.807,2.843s3.292.908,3.318,1.154c0,.1-.4.339-1.163.382a4.243,4.243,0,0,1-2.758-.849,3.674,3.674,0,0,1-1.409-2.376C112.4,237.381,112.579,236.948,112.69,237Z" transform="translate(-77.588 -189.12)" fill="#344154"/>
      <path id="Trazado_112608" data-name="Trazado 112608" d="M109.989,216.615c-.144.424-1.7.272-3.538.543s-3.3.849-3.555.45c-.119-.178.127-.585.713-1.018a6.2,6.2,0,0,1,5.405-.764C109.7,216.08,110.048,216.4,109.989,216.615Z" transform="translate(-76.134 -185.868)" fill="#344154"/>
      <path id="Trazado_112609" data-name="Trazado 112609" d="M127.918,214.526c-.255.365-1.349,0-2.647,0s-2.384.322-2.656,0c-.11-.178.051-.543.552-.9a3.861,3.861,0,0,1,4.243,0C127.875,213.983,128.028,214.348,127.918,214.526Z" transform="translate(-79.12 -185.485)" fill="#344154"/>
      <path id="Trazado_112610" data-name="Trazado 112610" d="M88.425,262.958s-11.88,12.983-11.88,28.257,9.69,34.434,8.783,45.381-9.334,25.541-11.88,32.839-2.045,9.58-2.045,9.58h62.47l-1.256-41.825-.11-22.062.373-19.933-17.7-23.921v-4.9l-26-6.839Z" transform="translate(-71.363 -192.533)" fill="#d9a171"/>
      <path id="Trazado_112611" data-name="Trazado 112611" d="M144.25,362.67s21.63,22.911,22.062,23.284,17.081,0,17.081,0l10.183,5.7s-.6,1.943-4,.976a1.4,1.4,0,0,1-.518,2.045h-5.821l-5.193-.059h-17.09L144.7,383.366Z" transform="translate(-82.402 -208.153)" fill="#966960"/>
      <g id="Grupo_60411" data-name="Grupo 60411" transform="translate(10.71 88.016)" opacity="0.3">
        <path id="Trazado_112612" data-name="Trazado 112612" d="M84,284.3a35.41,35.41,0,0,0,6.593,21.562,29,29,0,0,0,19.058,11.625c2.546.348,5.159.314,7.637,1.01,2.215.619,4.243,1.8,6.415,2.546a17.225,17.225,0,0,0,7.875.772,2.946,2.946,0,0,0,2.546-1.451c.543-1.434-1.035-2.724-2.384-3.454C115.19,307.915,97.871,297.079,84,284.3" transform="translate(-83.984 -284.3)" fill="#344154"/>
      </g>
      <path id="Trazado_112613" data-name="Trazado 112613" d="M115.15,309.28S154.616,326.7,160.123,326.7s36.488-28.121,36.488-28.121l-7.365-8.867L159.4,307.176l-34.2-18.736Z" transform="translate(-77.994 -196.911)" fill="#966960"/>
      <path id="Trazado_112614" data-name="Trazado 112614" d="M196.45,290.822l7.255-4.531s3.182-6.237,4.862-6.967,11.192-4.243,11.192-4.243l9.64-.891s.849,1.23-1.816,3.046a19.651,19.651,0,0,1-5.863,2.07l-2.384,1.086s1.79,2.02,3.225,1.96c1.273-.042,5.728-2.656,7.128-2.1s-.416,4.192-.416,4.192h0a87.406,87.406,0,0,1-6.322,9.945c-.849.984-6.687.984-6.687.984l-6.279.781-7.009,5.439Z" transform="translate(-90.307 -194.753)" fill="#966960"/>
      <path id="Trazado_112615" data-name="Trazado 112615" d="M96.063,265.91a14.077,14.077,0,0,0-10,6.788c-3.012,4.845-2.181,9.5-.178,15.741a20.917,20.917,0,0,0,5.346,7.892c5.329,5.151,16.793,12.262,16.793,12.262l17.82-20.23S106.212,268.659,96.063,265.91Z" transform="translate(-73.29 -193.499)" fill="#d9a171"/>
      <path id="Trazado_112616" data-name="Trazado 112616" d="M103.368,269.145l.11.085.322.263,1.222,1.018,4.608,3.9,16.343,13.942.085.076-.076.1-17.429,19.771-.416.467-.076.093-.11-.059c-3.267-1.977-6.424-4.005-9.385-6.084a40.1,40.1,0,0,1-7.909-6.788,27.069,27.069,0,0,1-5.091-7.909,18.753,18.753,0,0,1-.806-11.608,19.076,19.076,0,0,1,1.095-3.012,15.274,15.274,0,0,1,2.817-4.243,14.076,14.076,0,0,1,2.469-2.07l.721-.424.255-.127-.238.161-.7.441a14.993,14.993,0,0,0-2.418,2.1A15.494,15.494,0,0,0,86,273.481a17.769,17.769,0,0,0-1.035,2.987,18.966,18.966,0,0,0-.509,3.513,19.517,19.517,0,0,0,1.375,7.968,27.273,27.273,0,0,0,5.091,7.824,41.094,41.094,0,0,0,7.875,6.7c2.936,2.087,6.1,4.09,9.334,6.059h-.178l.416-.484L125.8,288.314v.178l-16.25-13.925-4.565-3.954-1.2-1.137-.305-.272Z" transform="translate(-73.306 -193.594)" fill="#344154"/>
      <path id="Trazado_112617" data-name="Trazado 112617" d="M118.22,266.9a2.478,2.478,0,0,1,0,.433,6.843,6.843,0,0,1-.229,1.213,16.419,16.419,0,0,1-1.638,4.243l-.059.1-.1-.076a47.662,47.662,0,0,0-9.079-4.65,94.283,94.283,0,0,0-11.031-3.488c-1.434-.382-2.605-.636-3.394-.849l-.933-.229a1.342,1.342,0,0,1-.314-.093,1.017,1.017,0,0,1,.322.042l.95.17c.849.161,1.986.382,3.394.738a82.728,82.728,0,0,1,11.031,3.394,44.128,44.128,0,0,1,9.147,4.676h-.161a17.285,17.285,0,0,0,1.7-4.124c.136-.509.221-.925.28-1.2Q118.154,267.054,118.22,266.9Z" transform="translate(-74.404 -193.135)" fill="#344154"/>
      <path id="Trazado_112618" data-name="Trazado 112618" d="M127.437,199.808a7.06,7.06,0,0,0,2.546-7.365,8.061,8.061,0,0,0-5.643-5.524,8.892,8.892,0,0,0-1.638-.255,7.4,7.4,0,0,0-3.555-.9,3.818,3.818,0,0,0-3-2.885,9.02,9.02,0,0,0-4.353.305,7.408,7.408,0,0,0-10.437-.849,7.637,7.637,0,0,0-1.468,1.7,6.059,6.059,0,0,0-8.239,2.384,5.83,5.83,0,0,0-.6,1.621,6.033,6.033,0,0,0-4.243,2.181,19.693,19.693,0,0,0-1.935,3.861,6.788,6.788,0,0,0-2.724,12.533,6.237,6.237,0,0,0,.187,8.816,6.534,6.534,0,0,0,1.451,1.035,7.959,7.959,0,0,0,.849,6.211,3.81,3.81,0,0,0,1.986,1.841,1.468,1.468,0,0,0,.187.424c.713,1.044,2.367.552,3.326-.289,2.342-1.977,3.538-5.006,4.124-8.019s.662-6.093,1.222-9.1a.484.484,0,0,1,0-.212,8.486,8.486,0,0,1,1.553-3.471,21.824,21.824,0,0,0,2.775,1.7,9.02,9.02,0,0,0,10.437-2.418,13.2,13.2,0,0,0,8.528,2.817c3.055-.085,6.05-.747,8.333-2.783a4.107,4.107,0,0,0,1.273-1.943A1.3,1.3,0,0,0,127.437,199.808Z" transform="translate(-72.504 -180.575)" fill="#344154"/>
      <path id="Trazado_112619" data-name="Trazado 112619" d="M90.2,228.29c-.153-.076-6.152-2.147-6.254,4.082s6.177,5.04,6.194,4.862S90.2,228.29,90.2,228.29Z" transform="translate(-73.269 -187.742)" fill="#966960"/>
      <path id="Trazado_112620" data-name="Trazado 112620" d="M88.556,235.2a2.97,2.97,0,0,1-.3.153,1.129,1.129,0,0,1-.849,0,2.673,2.673,0,0,1-1.2-2.418,3.6,3.6,0,0,1,.331-1.553,1.23,1.23,0,0,1,.849-.849.543.543,0,0,1,.636.305c.076.178,0,.305.068.314s.136-.1.085-.356a.662.662,0,0,0-.229-.4.908.908,0,0,0-.6-.17,1.51,1.51,0,0,0-1.146.95,3.717,3.717,0,0,0-.407,1.7,2.781,2.781,0,0,0,1.544,2.715,1.12,1.12,0,0,0,.993-.153C88.514,235.329,88.573,235.211,88.556,235.2Z" transform="translate(-73.548 -188.095)" fill="#77544d"/>
      <path id="Trazado_112621" data-name="Trazado 112621" d="M132.835,193.37a.306.306,0,0,0,.059.136,2.9,2.9,0,0,1,.11.45,4.769,4.769,0,0,1-1.281,4.2,4.871,4.871,0,0,1-3.3,1.434l.119-.093a10.751,10.751,0,0,1-2.495,5.448,8.485,8.485,0,0,1-2.724,2.1,6.9,6.9,0,0,1-3.572.585,12.253,12.253,0,0,1-3.471-.849,9.232,9.232,0,0,1-2.9-1.7h.229a11.252,11.252,0,0,1-5.176,2.978,8.833,8.833,0,0,1-4.692-.314,9.529,9.529,0,0,1-2.724-1.476,7.581,7.581,0,0,1-.619-.552,1.484,1.484,0,0,1-.2-.2s.3.255.849.679a9.589,9.589,0,0,0,2.724,1.383,8.757,8.757,0,0,0,4.582.263,11.082,11.082,0,0,0,5.032-2.953l.093-.085.093.085a9.258,9.258,0,0,0,2.817,1.629,11.931,11.931,0,0,0,3.394.8,6.61,6.61,0,0,0,3.394-.543,7.959,7.959,0,0,0,2.622-2.037,10.505,10.505,0,0,0,2.469-5.3v-.093h.1A4.726,4.726,0,0,0,131.537,198a4.514,4.514,0,0,0,1.281-2.334,5.091,5.091,0,0,0,.068-1.7A5.521,5.521,0,0,0,132.835,193.37Z" transform="translate(-75.73 -182.513)" fill="#5e6178"/>
      <path id="Trazado_112622" data-name="Trazado 112622" d="M86.577,196.11a14.424,14.424,0,0,0-.543,2.147,8.91,8.91,0,0,0,1.035,5.533l.051.093-.076.059a5.813,5.813,0,0,0-1.638,2.546,5.507,5.507,0,0,0,0,3.309,5.736,5.736,0,0,0,2.673,3.267l.119.059-.059.127a7.128,7.128,0,0,0-.7,3.886,7.722,7.722,0,0,0,.933,3.012,8.842,8.842,0,0,0,1.782,2.181.679.679,0,0,1-.161-.11,4.5,4.5,0,0,1-.441-.356,6.636,6.636,0,0,1-1.324-1.629,7.586,7.586,0,0,1-1-3.072,7.3,7.3,0,0,1,.687-4.039l.059.187a6.016,6.016,0,0,1-2.826-3.445,5.753,5.753,0,0,1,0-3.488,6.008,6.008,0,0,1,1.7-2.647v.161a8.859,8.859,0,0,1-.967-5.677,7.918,7.918,0,0,1,.433-1.6,3.4,3.4,0,0,1,.178-.4.305.305,0,0,1,.085-.11Z" transform="translate(-73.41 -182.928)" fill="#5e6178"/>
      <path id="Trazado_112623" data-name="Trazado 112623" d="M87.3,238.536a5.04,5.04,0,0,0-.127,1.146,1.7,1.7,0,0,0,.458,1.052,1.383,1.383,0,0,0,1.273.365,1.154,1.154,0,0,0,.781-1.035,2.181,2.181,0,0,0-.221-1.154c-.305-.628-.577-.984-.543-1.01a2.936,2.936,0,0,1,.713.933,2.283,2.283,0,0,1,.3,1.273,1.638,1.638,0,0,1-.255.755,1.307,1.307,0,0,1-.7.518,1.57,1.57,0,0,1-1.536-.458A1.79,1.79,0,0,1,87,239.682,1.7,1.7,0,0,1,87.3,238.536Z" transform="translate(-73.73 -189.257)" fill="#344154"/>
      <path id="Trazado_112624" data-name="Trazado 112624" d="M125.806,288.73a1.8,1.8,0,0,1-.187.212l-.543.569-2.087,2.054c-1.757,1.765-4.141,4.243-6.678,7.009s-4.769,5.414-6.356,7.315l-1.867,2.266-.552.611a1.341,1.341,0,0,1-.187.2,2,2,0,0,1,.144-.229l.475-.645c.416-.543,1.027-1.349,1.807-2.325,1.544-1.943,3.742-4.574,6.288-7.374s4.964-5.236,6.788-6.958c.849-.849,1.629-1.553,2.138-2.02l.594-.543A.917.917,0,0,1,125.806,288.73Z" transform="translate(-76.813 -196.955)" fill="#344154"/>
    </g>
    <g id="freepik--character-2--inject-14" transform="translate(154.53 81.588)">
      <path id="Trazado_112625" data-name="Trazado 112625" d="M239.773,280.66l4.973-4.9,5.94-1.035,20.84,8.129s3.275,5.753.747,9.979-4.9,4.073-4.9,4.073l-4.429-2.809-15.8,1.757s-6.653-4.582-6.788-5.473-.144-6.2-.144-6.2l-.628-.849a2.036,2.036,0,0,1,.2-2.664Z" transform="translate(-227.834 -179.063)" fill="#ffbe9d"/>
      <path id="Trazado_112626" data-name="Trazado 112626" d="M240.74,290.607a61.628,61.628,0,0,0,9.987,4.777,5.727,5.727,0,0,0,2.4.5,2.749,2.749,0,0,0,2.062-1.112,2.249,2.249,0,0,0,.2-2.291,4.142,4.142,0,0,0-1.782-1.544l-6.322-3.6" transform="translate(-228.071 -180.974)" fill="#ffbe9d"/>
      <path id="Trazado_112627" data-name="Trazado 112627" d="M240.69,290.661a61.762,61.762,0,0,0,5.55,2.928,30.868,30.868,0,0,0,5.617,2.232,3,3,0,0,0,3.606-1.485c.594-1.434-.382-2.6-1.6-3.318-2.181-1.281-4.4-2.5-6.585-3.751a.076.076,0,0,0-.093,0,.068.068,0,0,0,0,.093h0l6.1,3.471c.95.543,2.087,1.146,2.181,2.376a2.461,2.461,0,0,1-2.223,2.546,6.933,6.933,0,0,1-3.394-.789c-1.061-.407-2.181-.849-3.233-1.358a61.167,61.167,0,0,1-5.94-3.1c-.076-.042-.144.076-.068.127Z" transform="translate(-228.047 -180.96)" fill="#eb996e"/>
      <path id="Trazado_112628" data-name="Trazado 112628" d="M240.59,293.36c2.724,3.029,6.441,5.83,9.572,9.02a4.523,4.523,0,0,0,.755-5.346" transform="translate(-228.048 -181.885)" fill="#ffbe9d"/>
      <path id="Trazado_112629" data-name="Trazado 112629" d="M240.527,293.374c2.953,3.267,6.5,5.94,9.572,9.02a.076.076,0,0,0,.1,0,4.642,4.642,0,0,0,.772-5.448c-.051-.076-.161,0-.119.076a4.531,4.531,0,0,1,.085,4.1,2.877,2.877,0,0,1-.636.95c-.187.136-.17.1-.365-.068a4.624,4.624,0,0,1-.407-.4c-.611-.594-1.239-1.179-1.867-1.756-2.376-2.172-4.871-4.243-7.043-6.593-.051-.068-.153,0-.093.1Z" transform="translate(-228.036 -181.865)" fill="#eb996e"/>
      <path id="Trazado_112630" data-name="Trazado 112630" d="M248.034,278.765c-3.649-2.121-9.47-2.987-15.919-4.065l-6.3,11.515s11.379,1.7,16.216,3.81c6.916,3,10.649,12.049,10.649,12.049l9.13-11.311S259.438,284.289,248.034,278.765Z" transform="translate(-225.81 -179.06)" fill="#5e6178"/>
      <path id="Trazado_112631" data-name="Trazado 112631" d="M250.037,282.856,248.891,285c.738.484,1.493,1.01,1.2,1.943-.348,1.12-1.493,1.46-2.851,1.095l-.492.908-.416-.127.492-.916a3.148,3.148,0,0,1-1.629-1.332l.458-.4a2.741,2.741,0,0,0,1.46,1.23l1.137-2.113c-.7-.475-1.392-1-1.095-1.943.339-1.095,1.46-1.46,2.766-1.12l.492-.908.416.127-.492.916a3.394,3.394,0,0,1,1.443.993l-.424.433a2.715,2.715,0,0,0-1.324-.933Zm-1.426,2.647-1.095,2c.959.246,1.7,0,1.926-.679S249.163,285.885,248.611,285.5Zm-.076-.764,1.095-2.02c-.925-.2-1.638.059-1.858.73S248.026,284.375,248.535,284.74Z" transform="translate(-228.747 -180.062)" fill="#ffbf9d"/>
      <path id="Trazado_112632" data-name="Trazado 112632" d="M247.908,279.817l.288.127.849.4c.356.178.806.4,1.307.687s1.086.6,1.7,1.018a32.9,32.9,0,0,1,4.412,3.233,23.758,23.758,0,0,1,4.692,5.4l.042.068-.051.059-7.637,9.631-.136.17-.093-.2a26.9,26.9,0,0,0-3.267-5.482,19.229,19.229,0,0,0-4.989-4.565,17.15,17.15,0,0,0-4.243-1.765c-1.451-.441-2.894-.849-4.311-1.188-2.834-.713-5.583-1.341-8.172-1.892h-.178l.093-.153c1.96-3.394,3.751-6.483,5.329-9.19V276.1h.068a91.079,91.079,0,0,1,10.581,2.181,17.987,17.987,0,0,1,2.749,1.052,7.157,7.157,0,0,1,.9.5l-.238-.11c-.153-.076-.382-.2-.687-.331a19.923,19.923,0,0,0-2.766-1,95.032,95.032,0,0,0-10.573-2.087l.11-.051L228.4,285.46l-.085-.2c2.605.543,5.346,1.171,8.172,1.884,1.417.356,2.868.738,4.319,1.188a17.105,17.105,0,0,1,4.243,1.79,19.2,19.2,0,0,1,5.091,4.642,26.206,26.206,0,0,1,3.318,5.541h-.229l7.637-9.6v.119a24.09,24.09,0,0,0-4.625-5.363,34.148,34.148,0,0,0-4.353-3.275c-.628-.416-1.213-.738-1.7-1.035a14.424,14.424,0,0,0-1.29-.713l-.806-.424A1.842,1.842,0,0,1,247.908,279.817Z" transform="translate(-226.16 -179.272)" fill="#ffbf9d"/>
      <path id="Trazado_112633" data-name="Trazado 112633" d="M254.852,278.22c-.119.093-12.117,3.861-12.117,3.861l-3.954,1.7s1.7,2.673,4.3,2.13a9.87,9.87,0,0,0,3.394-1.086l4.2.2s1.765,7.425,15.011,3.861" transform="translate(-227.774 -179.593)" fill="#ffbe9d"/>
      <path id="Trazado_112634" data-name="Trazado 112634" d="M265.608,288.9a1.938,1.938,0,0,1-.314.1l-.925.229a23.518,23.518,0,0,1-3.5.628,16.455,16.455,0,0,1-2.5.068h-.7l-.713-.1-.738-.11-.747-.2a10.577,10.577,0,0,1-1.5-.543,8.719,8.719,0,0,1-1.426-.925,6.126,6.126,0,0,1-2.07-2.936l.127.1-4.243-.2h.093a8.42,8.42,0,0,1-2.087.8,13.392,13.392,0,0,1-1.638.356,3.52,3.52,0,0,1-1.7-.2,5.473,5.473,0,0,1-2.461-2.028l-.085-.136.153-.068,3.954-1.7h0l8.791-2.715,2.478-.764.662-.2a.764.764,0,0,1,.229-.059l-.221.093-.636.238-2.469.849-8.7,2.809h0l-3.946,1.7.059-.2a5.159,5.159,0,0,0,2.325,1.909,3.3,3.3,0,0,0,1.544.2,12.861,12.861,0,0,0,1.6-.356,8.306,8.306,0,0,0,1.994-.747h.051l4.243.2h.093v.1a5.94,5.94,0,0,0,.789,1.57,6.789,6.789,0,0,0,1.188,1.23,8.163,8.163,0,0,0,1.417.849,9.335,9.335,0,0,0,1.468.552l.713.212.721.119.7.11h.687a18.55,18.55,0,0,0,2.478,0,27.141,27.141,0,0,0,3.5-.552l.933-.2A1.98,1.98,0,0,1,265.608,288.9Z" transform="translate(-227.729 -179.605)" fill="#eb996e"/>
      <path id="Trazado_112635" data-name="Trazado 112635" d="M237,278.159c0,.475-.543.849-1.163.849s-1.171-.382-1.171-.849.543-.849,1.171-.849S237,277.675,237,278.159Z" transform="translate(-227.152 -179.455)" fill="#ffbf9d"/>
      <path id="Trazado_112636" data-name="Trazado 112636" d="M257.38,300.9c0,.628.373,1.129.849,1.129s.849-.5.849-1.129-.382-1.12-.849-1.12S257.38,300.289,257.38,300.9Z" transform="translate(-230.591 -182.858)" fill="#ffbf9d"/>
      <path id="Trazado_112637" data-name="Trazado 112637" d="M412.985,364.84l-1.8.458-73.485,2.07L335.3,394.9l79.178.119,1.5-1.943Z" transform="translate(-242.392 -192.711)" fill="#344154"/>
      <path id="Trazado_112638" data-name="Trazado 112638" d="M359.579,239.52l9.1-4.149,4.243-5.4,28-3.734,3.929,5.091,21.867,14.222s-6.746,78.466-7.637,85.381-5.524,12.9-5.524,12.9-47.6,12.686-64.4,6.245c0,0-11.371-7.085-10.183-18.626s7.3-43.4,7.3-43.4Z" transform="translate(-242.937 -171.72)" fill="#d9a171"/>
      <path id="Trazado_112639" data-name="Trazado 112639" d="M274.847,275.7l38.524,10.734s-.229-4.243,3.394-5.091c0,0,22.639-32.067,25.134-34.791s7.221-4.7,7.221-4.7l-16.25,64.261s-14.111,7.493-19.865,6.356-20.7-6.339-29.53-12.448L269.9,291.533Z" transform="translate(-232.487 -174.084)" fill="#d9a171"/>
      <path id="Trazado_112640" data-name="Trazado 112640" d="M326.6,308.558a2.325,2.325,0,0,1-.136-.594c-.093-.441-.2-.976-.322-1.629a41.474,41.474,0,0,0-1.417-5.236,27.651,27.651,0,0,0-1.146-2.749,22.5,22.5,0,0,0-1.179-2.121c-.738-1.171-1.307-1.816-1.273-1.858a2.1,2.1,0,0,1,.424.441,3.979,3.979,0,0,1,.458.543,8.219,8.219,0,0,1,.552.764,18.115,18.115,0,0,1,1.239,2.113,24.983,24.983,0,0,1,1.179,2.775,31.58,31.58,0,0,1,1.349,5.287c.11.687.2,1.247.229,1.638a2.215,2.215,0,0,1,.043.628Z" transform="translate(-240.246 -182.038)" fill="#344154"/>
      <path id="Trazado_112641" data-name="Trazado 112641" d="M427.371,248.209s-16.64-1.7-23.064,12.728-6.907,54.808-6.907,54.808c-.755-1.493-14.425,9.835-17.158,12.482l-28,7.756,4.888,17.938s34.434-3.521,43.446-7.993c10.183-5.091,17.548-6.636,20.484-12.236s10.183-39.263,10.955-50.158S435.839,250.958,427.371,248.209Z" transform="translate(-244.958 -175.038)" fill="#d9a171"/>
      <path id="Trazado_112642" data-name="Trazado 112642" d="M388.125,240.24a1.144,1.144,0,0,1-.127.221c-.085.136-.212.339-.382.594-.348.552-.849,1.256-1.527,2.181-1.307,1.807-3.267,4.243-5.227,7.077l-.136.2-.11-.212c-.178-.356-.365-.721-.543-1.095-1.7-3.352-3.267-6.407-4.353-8.613-.552-1.095-.967-1.969-1.3-2.622l-.331-.73a.967.967,0,0,1-.11-.255,1.3,1.3,0,0,1,.153.238c.093.153.238.407.39.7l1.375,2.546c1.146,2.181,2.724,5.219,4.429,8.579l.543,1.086h-.238c1.986-2.877,3.963-5.278,5.312-7.077l1.587-2.1A6.277,6.277,0,0,1,388.125,240.24Z" transform="translate(-248.25 -173.348)" fill="#344154"/>
      <path id="Trazado_112643" data-name="Trazado 112643" d="M411.673,233.48a3.391,3.391,0,0,1-.246.246l-.738.653c-.628.577-1.553,1.4-2.664,2.461a95.593,95.593,0,0,0-8.138,8.749c-1.273,1.561-2.435,3.1-3.471,4.523l-.136.187-.093-.212-3.267-7.374-.925-2.13c-.093-.229-.17-.424-.238-.577a1.316,1.316,0,0,1-.068-.2.679.679,0,0,1,.11.187c.076.144.161.331.28.543.246.543.577,1.23.993,2.1l3.394,7.348h-.229c1.018-1.434,2.172-2.978,3.462-4.54a84.937,84.937,0,0,1,8.223-8.715c1.129-1.044,2.07-1.841,2.724-2.393l.772-.619a.985.985,0,0,1,.255-.238Z" transform="translate(-250.932 -172.817)" fill="#344154"/>
      <path id="Trazado_112644" data-name="Trazado 112644" d="M421.736,335.264l-.144.322-.424.925a21.211,21.211,0,0,1-2.079,3.394,22.113,22.113,0,0,1-4.506,4.438,30.14,30.14,0,0,1-7.476,3.98,58.549,58.549,0,0,1-10.047,2.631c-1.841.356-3.776.636-5.745,1.069s-4.005.849-6.118,1.23c-8.486,1.409-17.9,2.664-28,3.954h-.119v-.119c-1.57-5.77-3.208-11.786-4.9-17.972v-.144h.153c1.773-.339,3.666-.747,5.566-1.2,3.963-.933,7.815-2.02,11.608-3.055s7.586-1.875,10.938-3.555A22.169,22.169,0,0,0,385,328.051c1.375-1.2,2.647-2.469,3.937-3.691a36.325,36.325,0,0,1,4-3.394,14.6,14.6,0,0,1,4.54-2.223l-.093.11c2.113-14.926,3.878-27.417,5.091-36.182.636-4.362,1.12-7.824,1.468-10.183.17-1.163.3-2.062.39-2.681.051-.3.085-.543.11-.687a.541.541,0,0,0,0-.229,1.034,1.034,0,0,1,0,.229,6.471,6.471,0,0,1-.085.7c-.076.619-.2,1.519-.356,2.69-.322,2.359-.789,5.813-1.392,10.183-1.213,8.774-2.944,21.273-5.015,36.191v.085h-.085a14.425,14.425,0,0,0-4.455,2.181,35.637,35.637,0,0,0-3.963,3.394c-1.281,1.222-2.546,2.546-3.946,3.7a22.647,22.647,0,0,1-4.6,3.148c-3.394,1.7-7.213,2.546-11.031,3.581s-7.637,2.13-11.617,3.063c-1.909.458-3.819.849-5.583,1.2l.11-.178c1.7,6.177,3.309,12.194,4.9,17.972l-.153-.1c10.14-1.273,19.61-2.546,28-3.9,8.341-1.858,16-2.546,21.893-4.871a29.935,29.935,0,0,0,7.45-3.92,21.96,21.96,0,0,0,6.585-7.688c.2-.4.348-.7.441-.916a2.176,2.176,0,0,1,.2-.365Z" transform="translate(-244.948 -178.18)" fill="#344154"/>
      <g id="Grupo_60412" data-name="Grupo 60412" transform="translate(152.375 139.964)" opacity="0.3">
        <path id="Trazado_112645" data-name="Trazado 112645" d="M424.269,334.025a4.327,4.327,0,0,0-.849-1.986,12.943,12.943,0,0,0-8.952-4.871,25.769,25.769,0,0,0-8.867.373l-.221.153c5.838-.441,10.089,1.841,13.933,6.313a8.951,8.951,0,0,0,1.79,1.79,2.24,2.24,0,0,0,2.393.161,2.079,2.079,0,0,0,.772-1.935Z" transform="translate(-405.38 -326.934)" fill="#344154"/>
      </g>
      <path id="Trazado_112646" data-name="Trazado 112646" d="M421.795,331.733a17.384,17.384,0,0,0-1.841-1.867,12.728,12.728,0,0,0-5.685-2.6,19.407,19.407,0,0,0-6.3-.076c-.806.1-1.451.2-1.909.272a3.255,3.255,0,0,1-.7.076,3.728,3.728,0,0,1,.687-.187c.441-.1,1.086-.229,1.9-.365a18.364,18.364,0,0,1,6.39,0,12.228,12.228,0,0,1,5.753,2.724,9.1,9.1,0,0,1,1.324,1.417,3.046,3.046,0,0,1,.39.6Z" transform="translate(-253.001 -186.936)" fill="#344154"/>
      <path id="Trazado_112647" data-name="Trazado 112647" d="M433.81,248.882a23.186,23.186,0,0,0-3.657-.543,13.848,13.848,0,0,0-1.875.051,8.967,8.967,0,0,0-1.018.153,7.864,7.864,0,0,0-1.095.246,13.832,13.832,0,0,0-4.421,2.053,17.574,17.574,0,0,0-3.555,3.394c-.246.28-.441.6-.653.849a5.4,5.4,0,0,0-.594.849c-.331.577-.679,1.086-.933,1.629s-.475.976-.679,1.392-.322.789-.441,1.086l-.289.687c-.076.2-.11.238-.119.229a.852.852,0,0,1,.068-.246c.068-.2.144-.433.229-.7s.229-.679.407-1.095l.645-1.417c.246-.543.586-1.061.908-1.638.17-.3.39-.543.594-.849a6.316,6.316,0,0,1,.653-.908,16.862,16.862,0,0,1,3.606-3.394,13.577,13.577,0,0,1,4.514-2.07,6.893,6.893,0,0,1,1.086-.238c.356-.051.7-.11,1.044-.144a14.2,14.2,0,0,1,1.9,0l.849.059a3.364,3.364,0,0,1,.73.127,6.788,6.788,0,0,1,1.146.255l.713.212Z" transform="translate(-254.384 -175.05)" fill="#344154"/>
      <path id="Trazado_112648" data-name="Trazado 112648" d="M349.336,268.05a.458.458,0,0,1,0,.153v.45c0,.407-.076.976-.136,1.7-.11,1.485-.305,3.632-.543,6.279-.543,5.3-1.375,12.609-2.546,20.654s-2.486,15.274-3.513,20.51c-.509,2.614-.942,4.726-1.264,6.177-.153.713-.28,1.273-.373,1.7a4.411,4.411,0,0,1-.1.441.408.408,0,0,1,0,.144.46.46,0,0,1,0-.153,3.015,3.015,0,0,1,.076-.441c.076-.4.187-.967.314-1.7.289-1.485.687-3.6,1.18-6.2.976-5.227,2.24-12.474,3.394-20.51s2.07-15.333,2.647-20.628c.272-2.631.5-4.769.662-6.271.085-.721.144-1.3.187-1.7a2.641,2.641,0,0,1,.051-.441A.467.467,0,0,1,349.336,268.05Z" transform="translate(-243.233 -178.052)" fill="#344154"/>
      <g id="Grupo_60413" data-name="Grupo 60413" transform="translate(94.215 110.533)" opacity="0.3">
        <path id="Trazado_112649" data-name="Trazado 112649" d="M343.017,313.752c1.824-6.788,2.546-14.324,3.479-21.5-1.163,8.129-5.091,17.574-9.657,24.43C339.1,315.687,341.219,314.7,343.017,313.752Z" transform="translate(-336.84 -292.25)" fill="#344154"/>
      </g>
      <g id="Grupo_60414" data-name="Grupo 60414" transform="translate(141.021 61.461)" opacity="0.3">
        <path id="Trazado_112650" data-name="Trazado 112650" d="M392,240.513a101.671,101.671,0,0,0,3.267,12.27,2.546,2.546,0,0,0,.7,1.188,1.612,1.612,0,0,0,1.519.161,3.716,3.716,0,0,0,1.29-.908c1.977-1.969,3.055-4.633,4.3-7.136a74.723,74.723,0,0,1,7.739-11.668c-5.847,4.9-10.183,10.488-14.425,15.919Z" transform="translate(-392 -234.42)" fill="#344154"/>
      </g>
      <g id="Grupo_60415" data-name="Grupo 60415" transform="translate(126.282 64.6)" opacity="0.3">
        <path id="Trazado_112651" data-name="Trazado 112651" d="M374.63,238.12a107.986,107.986,0,0,0,5.405,16.021c.1.246.255.543.518.543a.849.849,0,0,0,.611-.4,53.782,53.782,0,0,0,6.627-13.246l-6.924,9.334Z" transform="translate(-374.63 -238.12)" fill="#344154"/>
      </g>
      <path id="Trazado_112652" data-name="Trazado 112652" d="M390.092,308.76a1.146,1.146,0,0,1-.289.144l-.849.356c-.755.314-1.85.738-3.208,1.239-2.724,1.018-6.534,2.325-10.785,3.572s-8.172,2.215-11.031,2.834c-1.417.314-2.546.543-3.394.7l-.925.17-.322.042a1.045,1.045,0,0,1,.314-.1l.908-.221,3.343-.781c2.826-.67,6.721-1.7,10.972-2.911s8.061-2.546,10.785-3.5l3.267-1.154.849-.305a1.813,1.813,0,0,1,.365-.076Z" transform="translate(-246.025 -184.218)" fill="#344154"/>
      <path id="Trazado_112653" data-name="Trazado 112653" d="M381.309,268.52l-.119.093-.382.238c-.339.2-.849.543-1.443.942-1.247.849-2.978,2.138-5.219,3.632a25.372,25.372,0,0,1-3.8,2.164,15.037,15.037,0,0,1-4.9,1.213A9.937,9.937,0,0,1,360,275.708a6.721,6.721,0,0,1-2.232-1.969,4.777,4.777,0,0,1-.933-2.928,3.266,3.266,0,0,1,.458-1.5,3.165,3.165,0,0,1,1.129-1.095,4.3,4.3,0,0,1,2.953-.441,3.7,3.7,0,0,1,2.376,1.6,4.744,4.744,0,0,1,.755,2.656,5.669,5.669,0,0,1-.628,2.546,5.737,5.737,0,0,1-1.6,1.892A7.994,7.994,0,0,1,358.169,278a10.632,10.632,0,0,1-3.623-.322,17.591,17.591,0,0,1-2.588-.891,14.813,14.813,0,0,1-1.561-.747l-.39-.212c-.093-.051-.136-.076-.136-.085a.433.433,0,0,1,.144.059l.407.187c.356.161.849.407,1.578.7a18.667,18.667,0,0,0,2.546.849,10.947,10.947,0,0,0,3.564.28,7.841,7.841,0,0,0,3.988-1.519,5.558,5.558,0,0,0,1.527-1.824,5.363,5.363,0,0,0,.585-2.427,4.455,4.455,0,0,0-.713-2.546,3.394,3.394,0,0,0-2.215-1.476,3.946,3.946,0,0,0-2.724.416,2.791,2.791,0,0,0-1.035.976,3.021,3.021,0,0,0-.416,1.375,4.472,4.472,0,0,0,.849,2.724,6.466,6.466,0,0,0,2.138,1.9,9.648,9.648,0,0,0,5.295,1.086,14.594,14.594,0,0,0,4.828-1.171,24.75,24.75,0,0,0,3.81-2.087c2.249-1.46,4-2.749,5.261-3.555.636-.4,1.137-.7,1.476-.9l.4-.212a.356.356,0,0,1,.144-.051Z" transform="translate(-244.599 -177.997)" fill="#ffbf9d"/>
      <path id="Trazado_112654" data-name="Trazado 112654" d="M406.694,285.415l-.119-.068-.331-.229a11.393,11.393,0,0,0-1.324-.764,10.912,10.912,0,0,0-5.448-1.086,10.641,10.641,0,0,0-7.264,3.632,8.485,8.485,0,0,0-2.13,4.319,4.591,4.591,0,0,0,.305,2.5,3.53,3.53,0,0,0,1.7,1.867,3.335,3.335,0,0,0,2.546,0,4.243,4.243,0,0,0,2-1.51,3.266,3.266,0,0,0,.543-1.086,4.125,4.125,0,0,0,.153-1.2,5.032,5.032,0,0,0-.594-2.266,5.881,5.881,0,0,0-1.409-1.757,6.789,6.789,0,0,0-1.858-1.035,8.579,8.579,0,0,0-3.819-.39,14.646,14.646,0,0,0-5.278,1.858c-.586.323-1.027.586-1.332.772l-.348.2-.119.068a.6.6,0,0,1,.1-.093l.339-.229c.289-.2.73-.475,1.307-.849a20,20,0,0,1,2.172-1.095,12.16,12.16,0,0,1,3.131-.849,8.731,8.731,0,0,1,3.912.365,6.865,6.865,0,0,1,1.943,1.095,6,6,0,0,1,1.476,1.816,5.244,5.244,0,0,1,.636,2.393,4.344,4.344,0,0,1-.153,1.281,3.613,3.613,0,0,1-.552,1.188,4.387,4.387,0,0,1-2.13,1.638,3.581,3.581,0,0,1-2.715-.076,3.767,3.767,0,0,1-1.867-2.011,4.99,4.99,0,0,1-.322-2.656,8.841,8.841,0,0,1,2.215-4.455A10.649,10.649,0,0,1,405,284.3,7.485,7.485,0,0,1,406.694,285.415Z" transform="translate(-249.551 -180.33)" fill="#ffbf9d"/>
      <path id="Trazado_112655" data-name="Trazado 112655" d="M442.663,268.744l-.119.051-.382.11a12.082,12.082,0,0,1-1.459.322,14.29,14.29,0,0,1-5.5-.263,13.737,13.737,0,0,1-3.555-1.426,8.7,8.7,0,0,1-1.7-1.264,5.193,5.193,0,0,1-1.281-1.9,3.641,3.641,0,0,1,0-2.4,2.724,2.724,0,0,1,1.7-1.79,2.775,2.775,0,0,1,2.546.577,3.581,3.581,0,0,1,1.324,2.308,5.227,5.227,0,0,1-.365,2.647,9.051,9.051,0,0,1-1.29,2.24,13.008,13.008,0,0,1-7.688,4.862,12.49,12.49,0,0,1-3.81.187,13,13,0,0,1-5.236-1.7,9.764,9.764,0,0,1-1.629-1.188l.11.068.314.221c.407.289.849.56,1.264.806a13.188,13.188,0,0,0,5.193,1.6,12.364,12.364,0,0,0,3.751-.212,12.907,12.907,0,0,0,7.518-4.8,8.917,8.917,0,0,0,1.247-2.172,5.091,5.091,0,0,0,.348-2.546,3.3,3.3,0,0,0-1.23-2.13,2.291,2.291,0,0,0-3.81,1.095,3.334,3.334,0,0,0,0,2.223,6.347,6.347,0,0,0,2.885,3.055,13.84,13.84,0,0,0,3.479,1.426,14.553,14.553,0,0,0,5.448.348c.645-.085,1.137-.187,1.468-.263l.382-.085Z" transform="translate(-254.344 -176.846)" fill="#ffbf9d"/>
      <path id="Trazado_112656" data-name="Trazado 112656" d="M345.76,284.8c-.238-.356-.492-.7-.764-1.035a6.381,6.381,0,0,0-2.894-1.9,6.16,6.16,0,0,0-4.973.645,4.056,4.056,0,0,0-1.909,2.232,1.621,1.621,0,0,0,.289,1.426,2.155,2.155,0,0,0,1.375.713,2.325,2.325,0,0,0,1.544-.272,3.122,3.122,0,0,0,1.095-1.086,5.727,5.727,0,0,0,.7-2.919,9.606,9.606,0,0,0-1.383-4.947,10.183,10.183,0,0,0-2.3-2.639c-.662-.509-1.086-.73-1.061-.755a1.263,1.263,0,0,1,.305.144,9.21,9.21,0,0,1,.849.543,9.775,9.775,0,0,1,3.878,7.679,5.991,5.991,0,0,1-.721,3.055,3.437,3.437,0,0,1-1.18,1.213,2.681,2.681,0,0,1-1.7.314,2.418,2.418,0,0,1-1.553-.849,1.884,1.884,0,0,1-.339-1.7,4.31,4.31,0,0,1,2.036-2.384,6.339,6.339,0,0,1,5.176-.611,6.263,6.263,0,0,1,2.919,2.02,6.6,6.6,0,0,1,.543.8A1.5,1.5,0,0,1,345.76,284.8Z" transform="translate(-242.338 -178.993)" fill="#ffbf9d"/>
      <path id="Trazado_112657" data-name="Trazado 112657" d="M382.593,238.239a9.937,9.937,0,0,0-5.643,2.97,5.762,5.762,0,0,1,2.435-2.181,5.838,5.838,0,0,1,3.208-.789Z" transform="translate(-248.7 -173.537)" fill="#ffbf9d"/>
      <path id="Trazado_112658" data-name="Trazado 112658" d="M403.7,242.173a3.08,3.08,0,0,1-1.171-.39,6.483,6.483,0,0,1-3.394-4.684,3.046,3.046,0,0,1,0-1.239c.051,0,.051.467.212,1.2a7.094,7.094,0,0,0,3.309,4.574q.508.3,1.044.543Z" transform="translate(-252.051 -173.177)" fill="#ffbf9d"/>
      <path id="Trazado_112659" data-name="Trazado 112659" d="M360.1,333.184a3.918,3.918,0,0,1-.73.255,6.342,6.342,0,0,1-.849.238c-.348.076-.738.187-1.171.246a20.246,20.246,0,0,1-10.624-1.095,19.125,19.125,0,0,1-2.817-1.358c-.39-.212-.713-.441-1.01-.636a7.5,7.5,0,0,1-.738-.543,4.13,4.13,0,0,1-.594-.5c0-.042.9.645,2.444,1.493a20.971,20.971,0,0,0,2.809,1.281,22.806,22.806,0,0,0,3.649,1.01,24.289,24.289,0,0,0,3.759.348,22.143,22.143,0,0,0,3.089-.212C359.008,333.481,360.1,333.15,360.1,333.184Z" transform="translate(-243.341 -187.402)" fill="#ffbf9d"/>
      <path id="Trazado_112660" data-name="Trazado 112660" d="M398.815,319.559a.374.374,0,0,1-.136-.051l-.382-.144-.611-.255c-.246-.093-.543-.178-.849-.288a17.614,17.614,0,0,0-5.668-.849,18.184,18.184,0,0,0-8.172,2.1,16.214,16.214,0,0,0-4.005,2.978,6.627,6.627,0,0,0-1.417,2.181,3.606,3.606,0,0,0,0,2.6,2.486,2.486,0,0,0,1.892,1.638,2.673,2.673,0,0,0,2.266-.916,3.174,3.174,0,0,0,.9-2.249,4.505,4.505,0,0,0-.73-2.266,7.221,7.221,0,0,0-3.479-2.749,9.224,9.224,0,0,0-3.861-.6,9.487,9.487,0,0,0-5.3,1.96,13.708,13.708,0,0,0-1.51,1.468l.076-.11.255-.331a3.52,3.52,0,0,1,.441-.5,5.73,5.73,0,0,1,.67-.611,9.6,9.6,0,0,1,9.334-1.493,7.365,7.365,0,0,1,3.615,2.834,4.718,4.718,0,0,1,.781,2.393,3.394,3.394,0,0,1-.967,2.444,2.978,2.978,0,0,1-2.546,1.01,2.724,2.724,0,0,1-2.113-1.8,3.861,3.861,0,0,1,0-2.792,6.652,6.652,0,0,1,1.477-2.283,16.285,16.285,0,0,1,4.073-3.046,18.125,18.125,0,0,1,8.3-2.07,17.258,17.258,0,0,1,5.719.925c.314.119.6.212.849.314l.611.28.365.178Z" transform="translate(-247.306 -185.581)" fill="#ffbf9d"/>
      <path id="Trazado_112661" data-name="Trazado 112661" d="M432.2,312.41a2.273,2.273,0,0,1-.221.144l-.653.373c-.289.161-.636.348-1.061.543s-.849.441-1.426.653-1.137.467-1.79.687-1.349.433-2.087.653a35.743,35.743,0,0,1-4.9.95,34.252,34.252,0,0,1-5.023.161c-.772-.051-1.5-.076-2.172-.17s-1.324-.178-1.9-.28-1.086-.221-1.536-.314a10.453,10.453,0,0,1-1.154-.305l-.721-.212a.13.13,0,1,1,.017-.093l.73.17c.322.076.7.17,1.154.255s.976.2,1.553.272,1.2.178,1.875.238,1.409.11,2.181.144a37.332,37.332,0,0,0,4.973-.178,38.424,38.424,0,0,0,4.9-.925c.738-.2,1.443-.39,2.079-.628s1.247-.433,1.79-.645,1.018-.424,1.443-.611.781-.356,1.086-.5l.679-.322Z" transform="translate(-253.298 -184.771)" fill="#ffbf9d"/>
      <path id="Trazado_112662" data-name="Trazado 112662" d="M305,315.083a.637.637,0,0,1,.076-.246l.272-.679c.127-.28.272-.636.424-1.061s.348-.891.552-1.426c.382-1.052.764-2.35,1.154-3.776q.586-2.359.942-4.752a39.767,39.767,0,0,0,.348-4.82,27.65,27.65,0,0,0-.289-3.929c-.042-.28-.076-.552-.119-.8s-.11-.484-.153-.7c-.076-.382-.161-.755-.272-1.12l-.2-.7a.788.788,0,0,1-.042-.246,2.06,2.06,0,0,1,.1.229l.246.687a9.945,9.945,0,0,1,.322,1.086c.051.229.11.458.17.7s.093.509.144.8a24.741,24.741,0,0,1,.356,3.963,35.84,35.84,0,0,1-.332,4.866,45.62,45.62,0,0,1-.967,4.765c-.407,1.443-.849,2.724-1.222,3.785-.2.552-.39,1.01-.569,1.417s-.339.772-.475,1.052l-.322.653A1.367,1.367,0,0,1,305,315.083Z" transform="translate(-237.803 -181.504)" fill="#ffbf9d"/>
      <path id="Trazado_112663" data-name="Trazado 112663" d="M389.437,240.94v.161a1.578,1.578,0,0,1-.059.484l-.229,1.85c-.2,1.638-.543,3.937-.942,6.788-.849,5.745-2.181,13.653-3.954,22.334s-3.589,16.487-4.939,22.13c-.679,2.8-1.23,5.091-1.629,6.67-.2.772-.348,1.383-.467,1.816l-.127.467a.51.51,0,0,1-.051.161v-.17l.1-.475.407-1.824c.365-1.6.9-3.878,1.544-6.7,1.3-5.651,3.08-13.467,4.845-22.139s3.131-16.572,4.039-22.325c.45-2.86.8-5.185,1.035-6.788l.28-1.85a2.646,2.646,0,0,1,.076-.475.642.642,0,0,1,.068-.119Z" transform="translate(-248.713 -173.947)" fill="#344154"/>
      <path id="Trazado_112664" data-name="Trazado 112664" d="M373.839,315.46a1.467,1.467,0,0,1-.212.221l-.653.611a13.706,13.706,0,0,0-1.018.967l-.611.636a7.8,7.8,0,0,0-.653.738,21.651,21.651,0,0,0-1.366,1.79c-.229.339-.467.67-.7,1.035l-.67,1.154a26.731,26.731,0,0,0-2.249,5.473,35.9,35.9,0,0,0-1.095,5.821c-.059.916-.153,1.782-.153,2.588v2.266a14.058,14.058,0,0,0,.076,1.867c.076.543.059,1.018.11,1.4l.068.9a1.83,1.83,0,0,1,0,.305.935.935,0,0,1-.059-.305c-.042-.229-.076-.543-.136-.849s-.1-.849-.144-1.409-.11-1.171-.119-1.867a9.512,9.512,0,0,0-.042-1.086,11.092,11.092,0,0,1,0-1.188c0-.849.076-1.7.136-2.6a33.789,33.789,0,0,1,1.086-5.889,26.56,26.56,0,0,1,2.291-5.516l.679-1.162c.238-.356.492-.7.721-1.044a22,22,0,0,1,1.409-1.782,7.86,7.86,0,0,1,.679-.73l.619-.619a10.186,10.186,0,0,1,1.061-.95l.687-.543a1.112,1.112,0,0,1,.255-.238Z" transform="translate(-246.768 -185.232)" fill="#344154"/>
      <path id="Trazado_112665" data-name="Trazado 112665" d="M403.964,182.958c.339-11.379-7.527-20.942-18.923-20.968l-1.052.059a20.365,20.365,0,0,0-19.22,19.839c-.229,9.877-.365,20.781,0,26.051.755,10.887,11.769,11.982,11.769,11.982l.059,1.7,10.666,6.9,17.5-11.88Z" transform="translate(-246.821 -161.99)" fill="#ffbe9d"/>
      <path id="Trazado_112666" data-name="Trazado 112666" d="M368,193.929a1.561,1.561,0,0,0,1.587,1.485,1.485,1.485,0,0,0,1.527-1.451h0a1.57,1.57,0,0,0-1.587-1.493A1.493,1.493,0,0,0,368,193.929Z" transform="translate(-247.344 -166.606)" fill="#344154"/>
      <path id="Trazado_112667" data-name="Trazado 112667" d="M367.7,190.594c.2.2,1.332-.747,3.012-.849s2.953.679,3.123.458c.085-.093-.136-.45-.687-.806a4.243,4.243,0,0,0-2.546-.619,4.09,4.09,0,0,0-2.384.916C367.756,190.127,367.6,190.5,367.7,190.594Z" transform="translate(-247.295 -166.045)" fill="#344154"/>
      <path id="Trazado_112668" data-name="Trazado 112668" d="M387.25,193.233a1.561,1.561,0,0,0,1.587,1.485,1.477,1.477,0,0,0,1.527-1.443v-.051a1.561,1.561,0,0,0-1.587-1.485,1.485,1.485,0,0,0-1.527,1.443Z" transform="translate(-250.26 -166.495)" fill="#344154"/>
      <path id="Trazado_112669" data-name="Trazado 112669" d="M387.366,189c.178.212,1.409-.6,3.08-.509s2.868,1,3.063.8-.085-.458-.6-.849a4.31,4.31,0,0,0-2.435-.849,4.107,4.107,0,0,0-2.469.653C387.468,188.573,387.273,188.9,387.366,189Z" transform="translate(-250.274 -165.866)" fill="#344154"/>
      <path id="Trazado_112670" data-name="Trazado 112670" d="M380.229,203.41a12,12,0,0,0-2.749-.331c-.433,0-.848-.085-.933-.373a2.147,2.147,0,0,1,.212-1.281c.365-1.061.73-2.172,1.086-3.335,1.5-4.743,2.546-8.63,2.367-8.689s-1.561,3.734-3.055,8.486l-1.027,3.343a2.443,2.443,0,0,0-.127,1.7,1.078,1.078,0,0,0,.73.585,2.418,2.418,0,0,0,.738.059A10.787,10.787,0,0,0,380.229,203.41Z" transform="translate(-248.542 -166.141)" fill="#344154"/>
      <path id="Trazado_112671" data-name="Trazado 112671" d="M386.032,207c-.272,0-.178,1.824-1.638,3.208S381,211.488,381,211.743c0,.119.45.339,1.273.305a4.5,4.5,0,0,0,2.868-1.188,3.963,3.963,0,0,0,1.281-2.673C386.388,207.381,386.159,206.948,386.032,207Z" transform="translate(-249.313 -168.806)" fill="#344154"/>
      <path id="Trazado_112672" data-name="Trazado 112672" d="M387.238,182.521c.153.458,1.841.289,3.818.577s3.538.849,3.81.475c.119-.2-.144-.628-.772-1.086a6.7,6.7,0,0,0-5.8-.806C387.544,181.953,387.162,182.3,387.238,182.521Z" transform="translate(-250.256 -164.922)" fill="#aed3f2"/>
      <path id="Trazado_112673" data-name="Trazado 112673" d="M368.331,185.479c.322.365,1.451-.093,2.834-.187s2.546.1,2.834-.305c.11-.2-.1-.552-.636-.908a3.954,3.954,0,0,0-2.342-.492,3.912,3.912,0,0,0-2.223.9C368.331,184.9,368.2,185.3,368.331,185.479Z" transform="translate(-247.387 -165.258)" fill="#aed3f2"/>
      <path id="Trazado_112674" data-name="Trazado 112674" d="M402.722,167.075c.543-.3,2.843,2.1,3.292,2.495,2.622,2.325,3.717,6.7,4.048,10.183a37.337,37.337,0,0,1-.076,10.013c-.059.424-.306,2.232-.306,2.232-.467.416-.942,4.311-1.561,4.353-.849.076-1.7-5.88-1.884-6.33a27.829,27.829,0,0,0-.73-4.014,36.492,36.492,0,0,1-1.256-6.457c-.153-3.038-1.3-7.535-1.46-10.565C402.765,168.408,402.222,167.355,402.722,167.075Z" transform="translate(-252.571 -162.756)" fill="#aed3f2"/>
      <path id="Trazado_112675" data-name="Trazado 112675" d="M403.1,171.82l6.33,4.565a25.017,25.017,0,0,1,.67,3.538l-6.3-3.81Z" transform="translate(-252.66 -163.479)" fill="#fafafa"/>
      <path id="Trazado_112676" data-name="Trazado 112676" d="M409,196.183c.178-.085,7.374-2.639,7.552,4.837s-7.357,6.118-7.374,5.9S409,196.183,409,196.183Z" transform="translate(-253.554 -167.094)" fill="#ffbe9d"/>
      <path id="Trazado_112677" data-name="Trazado 112677" d="M411.858,204.459a3.942,3.942,0,0,0,.348.187,1.383,1.383,0,0,0,.976,0,3.238,3.238,0,0,0,1.426-2.928,4.522,4.522,0,0,0-.407-1.858,1.544,1.544,0,0,0-1.01-.976.653.653,0,0,0-.755.373c-.1.212-.042.365-.085.382s-.161-.127-.11-.441a.849.849,0,0,1,.28-.467.993.993,0,0,1,.713-.212,1.841,1.841,0,0,1,1.392,1.129,4.387,4.387,0,0,1,.5,2.07c0,1.51-.747,2.936-1.824,3.267a1.375,1.375,0,0,1-1.188-.17C411.875,204.637,411.824,204.476,411.858,204.459Z" transform="translate(-253.985 -167.522)" fill="#eb996e"/>
      <path id="Trazado_112678" data-name="Trazado 112678" d="M378.5,229.355a26.237,26.237,0,0,0,14.468-5.015s-3.012,7.985-11.982,8.2c-.144,0-2.283-1.476-2.283-1.476Z" transform="translate(-248.935 -171.433)" fill="#eb996e"/>
      <path id="Trazado_112679" data-name="Trazado 112679" d="M374.139,196.5a3.739,3.739,0,0,1-2.724,1.061,3.808,3.808,0,0,1-2.826-.721,22.909,22.909,0,0,0,2.8.2C372.925,196.921,374.028,196.36,374.139,196.5Z" transform="translate(-247.433 -167.213)" fill="#eb996e"/>
      <path id="Trazado_112680" data-name="Trazado 112680" d="M374.344,189.47c-.059,0-.28-.2-.7-.45a4.3,4.3,0,0,0-1.824-.543,11.03,11.03,0,0,0-1.977.085c-.552.051-.849.059-.849,0s.288-.2.8-.356a6.424,6.424,0,0,1,2.087-.238,3.5,3.5,0,0,1,1.994.772C374.276,189.089,374.4,189.437,374.344,189.47Z" transform="translate(-247.494 -165.923)" fill="#eb996e"/>
      <path id="Trazado_112681" data-name="Trazado 112681" d="M399.506,189c.1.093-.543.849-1.638,1.146a2.756,2.756,0,0,1-1.969,0,18.537,18.537,0,0,1,1.824-.458C398.675,189.363,399.379,188.9,399.506,189Z" transform="translate(-251.57 -166.078)" fill="#eb996e"/>
      <path id="Trazado_112682" data-name="Trazado 112682" d="M400.2,191.665c.076.119-.653.619-1.7.543s-1.7-.67-1.587-.772.747.2,1.629.255S400.134,191.53,400.2,191.665Z" transform="translate(-251.722 -166.446)" fill="#eb996e"/>
      <path id="Trazado_112683" data-name="Trazado 112683" d="M393.887,188.179a9.192,9.192,0,0,0-3.072-.993c-1.8-.076-3.089.849-3.157.679s.212-.356.772-.662a4.625,4.625,0,0,1,4.752.246A1.865,1.865,0,0,1,393.887,188.179Z" transform="translate(-250.32 -165.727)" fill="#eb996e"/>
      <path id="Trazado_112684" data-name="Trazado 112684" d="M392.6,195.3c.093.1-.67.849-1.926,1.163a2.834,2.834,0,0,1-2.257-.187c.051-.127,1,0,2.13-.314A13.99,13.99,0,0,1,392.6,195.3Z" transform="translate(-250.437 -167.031)" fill="#eb996e"/>
      <path id="Trazado_112685" data-name="Trazado 112685" d="M388.163,206.9c-.127.085-.509-.3-1.12-.4s-1.095.068-1.2-.051.458-.628,1.3-.458S388.3,206.842,388.163,206.9Z" transform="translate(-250.044 -168.649)" fill="#eb996e"/>
      <path id="Trazado_112686" data-name="Trazado 112686" d="M389.806,206.264c-.127.068-.433-.272-.9-.543s-.908-.356-.916-.5.543-.305,1.171.051S389.942,206.213,389.806,206.264Z" transform="translate(-250.372 -168.512)" fill="#eb996e"/>
      <path id="Trazado_112687" data-name="Trazado 112687" d="M402.688,219.15a.475.475,0,0,1,.2.39,2.809,2.809,0,0,1-.255,1.12.848.848,0,0,0,.339,1.095l.093.042a2.758,2.758,0,0,1,.849.636,1.366,1.366,0,0,1,.153,1.239,11.125,11.125,0,0,1-1.086,1.748,1.451,1.451,0,0,0,.11,1.392c.467.755.959,1.146.891,1.2s-.585-.212-1.2-1.01a1.808,1.808,0,0,1-.246-1.773c.272-.653.849-1.095,1.01-1.7a.849.849,0,0,0-.068-.781,2.544,2.544,0,0,0-.7-.543,1.273,1.273,0,0,1-.653-.8,1.417,1.417,0,0,1,.127-.849,4.65,4.65,0,0,0,.4-1C402.722,219.3,402.654,219.167,402.688,219.15Z" transform="translate(-252.512 -170.647)" fill="#eb996e"/>
      <path id="Trazado_112688" data-name="Trazado 112688" d="M407.878,226.468a2.624,2.624,0,0,1-.849-1.027,2.308,2.308,0,0,1-.272-1.519c.093-.636.73-1.086.636-1.485s-.628-.7-1.095-1.061a1.578,1.578,0,0,1-.543-1.468,1.519,1.519,0,0,1,.484-.908c.2-.153.339-.187.348-.153a2.122,2.122,0,0,0-.467,1.086,1.222,1.222,0,0,0,.484,1.061c.187.144.441.272.7.458a1.485,1.485,0,0,1,.6.891,1.451,1.451,0,0,1-.348,1.01,1.756,1.756,0,0,0-.339.662,2.062,2.062,0,0,0,.136,1.256A7.4,7.4,0,0,1,407.878,226.468Z" transform="translate(-253.059 -170.599)" fill="#eb996e"/>
      <path id="Trazado_112689" data-name="Trazado 112689" d="M387.016,175.77a2.359,2.359,0,0,1-1.7.619,21.575,21.575,0,0,0-4.183.11,22.345,22.345,0,0,0-2.181.849,4.183,4.183,0,0,1-1.96.305,2.223,2.223,0,0,1-1.256-.509c-.238-.221-.305-.39-.28-.407a2.97,2.97,0,0,0,1.561.552,4.353,4.353,0,0,0,1.765-.39,16.788,16.788,0,0,1,2.223-.933,6.967,6.967,0,0,1,2.41-.1c.721.059,1.358.136,1.884.136a10.18,10.18,0,0,0,1.714-.229Z" transform="translate(-248.473 -164.077)" fill="#eb996e"/>
      <path id="Trazado_112690" data-name="Trazado 112690" d="M384.646,173.9a22.353,22.353,0,0,1-4.243.348,22.008,22.008,0,0,1-4.243.051,14.139,14.139,0,0,1,4.243-.543A16.088,16.088,0,0,1,384.646,173.9Z" transform="translate(-248.58 -163.766)" fill="#eb996e"/>
      <path id="Trazado_112691" data-name="Trazado 112691" d="M383.757,171.745c0,.144-.764,0-1.638,0s-1.629-.093-1.629-.238.721-.356,1.7-.28S383.8,171.617,383.757,171.745Z" transform="translate(-249.236 -163.386)" fill="#eb996e"/>
      <path id="Trazado_112692" data-name="Trazado 112692" d="M367.138,192.391c.068.127-.5.458-1.2.2s-.933-.849-.8-.916.458.255.976.433S367.087,192.255,367.138,192.391Z" transform="translate(-246.906 -166.485)" fill="#eb996e"/>
      <path id="Trazado_112693" data-name="Trazado 112693" d="M366.519,193.51c.051.136-.212.373-.441.7s-.373.653-.543.636-.238-.475.093-.933S366.477,193.383,366.519,193.51Z" transform="translate(-246.95 -166.755)" fill="#eb996e"/>
      <path id="Trazado_112694" data-name="Trazado 112694" d="M317.987,351.671l-13.331-3.394a2.215,2.215,0,0,0-2.715,1.578h0L298.157,364.6a2.223,2.223,0,0,0,1.57,2.715h0l28.1,7.213a2.223,2.223,0,0,0,2.715-1.578h0l3.8-14.739a2.215,2.215,0,0,0-1.578-2.715h0Z" transform="translate(-236.755 -190.191)" fill="#344154"/>
      <path id="Trazado_112695" data-name="Trazado 112695" d="M324.259,372.619c-.076,0,.967-3.852,2.334-8.553s2.546-8.486,2.605-8.486-.967,3.861-2.334,8.553S324.327,372.644,324.259,372.619Z" transform="translate(-240.719 -191.309)" fill="#5e6178"/>
      <path id="Trazado_112696" data-name="Trazado 112696" d="M346.823,353.93a28.665,28.665,0,0,1-5.312.068c-1.154-.306-8.536-2.826-10-3.055a6.627,6.627,0,0,0-1.086-.093,7.357,7.357,0,0,0-3.267.7l-3.106,1.468,6.788,1.7s0,.611-1.154,1.7-14.281,6.441-15.164,6.907-1.8,1.086-1.137,2.062a5.176,5.176,0,0,0,3.106,1.638,11.294,11.294,0,0,0,2.486-.543s-3.81,2.062-3.886,2.834.441,2.113,1.2,2,3.912-.764,3.912-.764,8.486-1.8,8.8-1.519-3.954,2.851-4.565,3.012-3.267.119-3.886.424a1.366,1.366,0,0,0-.051,2.444,14.366,14.366,0,0,0,3.615,1.51,1.578,1.578,0,0,0-.373,1.79,2.028,2.028,0,0,0,1.638,1.2,5.94,5.94,0,0,0,3.394-.806c.747-.492,13.339-5.236,14.154-5.779s3.437-3.462,4.548-4.311a30.932,30.932,0,0,1,2.97-1.9Z" transform="translate(-239.039 -190.592)" fill="#ffbe9d"/>
      <path id="Trazado_112697" data-name="Trazado 112697" d="M316.94,369.91a3.067,3.067,0,0,1,.543-.45,5.534,5.534,0,0,1,.7-.467l.45-.272.543-.272a38.188,38.188,0,0,1,5.991-2.24,61.036,61.036,0,0,0,6.042-2.062l.543-.229.467-.238a8.239,8.239,0,0,0,.738-.382,3.677,3.677,0,0,1,.619-.339,3.978,3.978,0,0,1-.577.416,6.062,6.062,0,0,1-.713.424l-.467.255-.543.246a47.271,47.271,0,0,1-6.042,2.138,43.207,43.207,0,0,0-5.991,2.181l-.543.246-.45.255a7.518,7.518,0,0,0-.713.424A4.294,4.294,0,0,1,316.94,369.91Z" transform="translate(-239.611 -192.426)" fill="#eb996e"/>
      <path id="Trazado_112698" data-name="Trazado 112698" d="M334.72,370.033a7.1,7.1,0,0,0,5.244-2.283,2.1,2.1,0,0,1-.543.7,5.813,5.813,0,0,1-1.757,1.213,5.542,5.542,0,0,1-2.087.467,2.1,2.1,0,0,1-.857-.1Z" transform="translate(-242.304 -193.152)" fill="#eb996e"/>
      <path id="Trazado_112699" data-name="Trazado 112699" d="M325.61,380.005a2.443,2.443,0,0,1,.552-.17l1.51-.407a44.217,44.217,0,0,0,9.512-3.946l1.366-.781a2.259,2.259,0,0,1,.509-.272,2.3,2.3,0,0,1-.467.348c-.305.212-.755.5-1.324.849a36.286,36.286,0,0,1-9.538,3.963c-.645.161-1.171.272-1.536.339A2.214,2.214,0,0,1,325.61,380.005Z" transform="translate(-240.924 -194.163)" fill="#eb996e"/>
      <path id="Trazado_112700" data-name="Trazado 112700" d="M308.156,345.07l-1.646,3.742,21.91,5.312Z" transform="translate(-238.032 -189.717)" fill="#5e6178"/>
      <path id="Trazado_112701" data-name="Trazado 112701" d="M326.858,354.79h-.229a3.643,3.643,0,0,1-.67-.051c-.577-.051-1.417-.153-2.444-.331a72.2,72.2,0,0,1-7.9-1.875c-3.046-.849-5.863-1.4-7.866-1.986-1-.28-1.8-.543-2.35-.738a5.094,5.094,0,0,1-.849-.339,6.337,6.337,0,0,1,.849.238c.543.161,1.366.39,2.367.645,2,.552,4.828,1.095,7.892,1.9s5.83,1.561,7.866,1.96c1.01.2,1.841.331,2.418.416a6.2,6.2,0,0,1,.916.161Z" transform="translate(-237.735 -190.383)" fill="#5e6178"/>
    </g>
    <g id="freepik--Counter--inject-14" transform="translate(0 283.646)">
      <path id="Trazado_112702" data-name="Trazado 112702" d="M404.522,400.246c0,.085-80.782.144-180.4.144S43.7,400.331,43.7,400.246s80.757-.136,180.419-.136S404.522,400.169,404.522,400.246Z" transform="translate(-43.7 -400.11)" fill="#344154"/>
    </g>
    <g id="freepik--speech-bubble--inject-14" transform="translate(102.208 87.902)">
      <path id="Trazado_112703" data-name="Trazado 112703" d="M164.15,220.674l5.7-10.03a27.026,27.026,0,1,1,6.474,7.2h0Z" transform="translate(-164.15 -169.43)" fill="#6595bf"/>
      <path id="Trazado_112704" data-name="Trazado 112704" d="M164.15,220.674l12.185-2.936v.1h0l-.331-.424.424.331a28.147,28.147,0,0,0,5.533,3.267,27.078,27.078,0,0,0,7.357,2.07,25.2,25.2,0,0,0,4.243.2c.721-.051,1.468-.068,2.215-.136l2.257-.348a26.967,26.967,0,0,0,16.683-10.751,26.662,26.662,0,0,0,4.5-10.31,27.332,27.332,0,0,0-.322-11.88,26.246,26.246,0,0,0-5.728-10.972l-1.086-1.2a14.2,14.2,0,0,0-1.171-1.095,14.583,14.583,0,0,0-1.213-1.052l-1.273-.95a10.652,10.652,0,0,0-1.332-.849l-1.349-.849-1.417-.687a11.355,11.355,0,0,0-1.434-.636,27.255,27.255,0,0,0-11.982-1.85,26.424,26.424,0,0,0-10.98,3.233A27.222,27.222,0,0,0,167.2,188.548a28.8,28.8,0,0,0-1.188,8.706,26.661,26.661,0,0,0,1.273,7.527,27.73,27.73,0,0,0,2.664,5.787v.076c-3.708,6.449-5.516,9.631-5.779,10.038l5.66-10.115v.076a27.646,27.646,0,0,1-2.724-5.8,27,27,0,0,1-1.315-7.569,28.926,28.926,0,0,1,1.179-8.774,27.366,27.366,0,0,1,12.813-15.732,26.738,26.738,0,0,1,11.1-3.267,27.722,27.722,0,0,1,12.083,1.858,14.652,14.652,0,0,1,1.443.645l1.434.7,1.366.849a12.4,12.4,0,0,1,1.332.849l1.29.967a13.569,13.569,0,0,1,1.222,1.095c.4.365.849.7,1.188,1.086l1.095,1.2a26.738,26.738,0,0,1,5.779,11.091,27.578,27.578,0,0,1,.314,11.982,26.721,26.721,0,0,1-4.557,10.412,27.154,27.154,0,0,1-16.844,10.819l-2.283.348c-.747.059-1.5.076-2.232.119a23.957,23.957,0,0,1-4.243-.212,27.027,27.027,0,0,1-7.391-2.079,27.568,27.568,0,0,1-5.55-3.343l.1-.093h0l.068.093h-.1Z" transform="translate(-164.15 -169.43)" fill="#344154"/>
      <path id="Trazado_112705" data-name="Trazado 112705" d="M187.36,200.335l2.732-2.724,5.261,4.676,10.327-9.937,2.529,2.724-13.246,12.474Z" transform="translate(-167.665 -172.901)" fill="#ffbf9d"/>
    </g>
    <rect id="Rectángulo_8729" data-name="Rectángulo 8729" width="215.923" height="13.45" transform="translate(146.503 270.476)" fill="#a66d58"/>
  </g>
</svg>
