<svg xmlns="http://www.w3.org/2000/svg" width="607.698" height="293.911" viewBox="0 0 607.698 293.911">
  <g id="Grupo_60539" data-name="Grupo 60539" transform="translate(-497 -6315)">
    <path id="Trazado_113200" data-name="Trazado 113200" d="M12,0H595.7a12,12,0,0,1,12,12V281.911a12,12,0,0,1-12,12H12a12,12,0,0,1-12-12V12A12,12,0,0,1,12,0Z" transform="translate(497 6315)" fill="#eff6fc"/>
    <path id="Trazado_113201" data-name="Trazado 113201" d="M6.079,11.313a3.315,3.315,0,0,1-1.014.813,2.752,2.752,0,0,1-1.293.308,2.841,2.841,0,0,1-1.608-.454A2.952,2.952,0,0,1,1.106,10.7a4.357,4.357,0,0,1-.374-1.82,4.439,4.439,0,0,1,.406-1.926A2.986,2.986,0,0,1,2.292,5.644a3.289,3.289,0,0,1,1.743-.454A2.978,2.978,0,0,1,6.53,6.372,5.159,5.159,0,0,1,7.441,9.6v.4a6.894,6.894,0,0,1-1.23,4.545A4.727,4.727,0,0,1,2.5,16.007H2.234v-1.15H2.52A3.73,3.73,0,0,0,5.1,13.984,3.748,3.748,0,0,0,6.079,11.313Zm-2.087,0A2.092,2.092,0,0,0,5.248,10.9a2.461,2.461,0,0,0,.839-1.033V9.32a3.729,3.729,0,0,0-.579-2.168A1.769,1.769,0,0,0,2.607,7a2.825,2.825,0,0,0-.542,1.805,2.94,2.94,0,0,0,.524,1.8A1.658,1.658,0,0,0,3.992,11.313ZM9.478,15.29a.849.849,0,0,1,.209-.586.8.8,0,0,1,.626-.234.819.819,0,0,1,.634.234.831.831,0,0,1,.216.586.786.786,0,0,1-.216.564.834.834,0,0,1-.634.227.753.753,0,0,1-.835-.791Zm10.466-3.838a6.2,6.2,0,0,1-.813,3.538,2.891,2.891,0,0,1-2.542,1.157,2.912,2.912,0,0,1-2.527-1.132,5.882,5.882,0,0,1-.85-3.38V9.826a6.059,6.059,0,0,1,.813-3.494,2.914,2.914,0,0,1,2.549-1.143,2.94,2.94,0,0,1,2.534,1.1,5.847,5.847,0,0,1,.835,3.4ZM18.589,9.6a4.965,4.965,0,0,0-.483-2.509A1.664,1.664,0,0,0,16.575,6.3a1.642,1.642,0,0,0-1.516.784,4.848,4.848,0,0,0-.491,2.41v2.168a5.045,5.045,0,0,0,.5,2.552,1.661,1.661,0,0,0,1.52.824,1.638,1.638,0,0,0,1.49-.776,4.862,4.862,0,0,0,.509-2.446Zm9.778,1.853a6.2,6.2,0,0,1-.813,3.538,2.891,2.891,0,0,1-2.542,1.157,2.912,2.912,0,0,1-2.527-1.132,5.882,5.882,0,0,1-.85-3.38V9.826a6.059,6.059,0,0,1,.813-3.494A2.914,2.914,0,0,1,25,5.189a2.94,2.94,0,0,1,2.534,1.1,5.847,5.847,0,0,1,.835,3.4ZM27.012,9.6a4.965,4.965,0,0,0-.483-2.509A1.664,1.664,0,0,0,25,6.3a1.642,1.642,0,0,0-1.516.784,4.848,4.848,0,0,0-.491,2.41v2.168a5.045,5.045,0,0,0,.5,2.552,1.661,1.661,0,0,0,1.52.824,1.638,1.638,0,0,0,1.49-.776,4.862,4.862,0,0,0,.509-2.446Zm9.778,1.853a6.2,6.2,0,0,1-.813,3.538,2.891,2.891,0,0,1-2.542,1.157,2.912,2.912,0,0,1-2.527-1.132,5.882,5.882,0,0,1-.85-3.38V9.826a6.059,6.059,0,0,1,.813-3.494A2.914,2.914,0,0,1,33.42,5.189a2.94,2.94,0,0,1,2.534,1.1,5.847,5.847,0,0,1,.835,3.4ZM35.435,9.6a4.965,4.965,0,0,0-.483-2.509A1.664,1.664,0,0,0,33.42,6.3a1.642,1.642,0,0,0-1.516.784,4.848,4.848,0,0,0-.491,2.41v2.168a5.045,5.045,0,0,0,.5,2.552,1.661,1.661,0,0,0,1.52.824,1.638,1.638,0,0,0,1.49-.776,4.862,4.862,0,0,0,.509-2.446Zm3.259,5.691A.849.849,0,0,1,38.9,14.7a.8.8,0,0,1,.626-.234.819.819,0,0,1,.634.234.831.831,0,0,1,.216.586.786.786,0,0,1-.216.564.834.834,0,0,1-.634.227.753.753,0,0,1-.835-.791ZM49.16,11.452a6.2,6.2,0,0,1-.813,3.538,3.378,3.378,0,0,1-5.068.026,5.882,5.882,0,0,1-.85-3.38V9.826a6.059,6.059,0,0,1,.813-3.494,2.914,2.914,0,0,1,2.549-1.143,2.94,2.94,0,0,1,2.534,1.1,5.847,5.847,0,0,1,.835,3.4ZM47.805,9.6a4.965,4.965,0,0,0-.483-2.509A1.664,1.664,0,0,0,45.791,6.3a1.642,1.642,0,0,0-1.516.784,4.848,4.848,0,0,0-.491,2.41v2.168a5.045,5.045,0,0,0,.5,2.552,1.661,1.661,0,0,0,1.52.824,1.638,1.638,0,0,0,1.49-.776,4.862,4.862,0,0,0,.509-2.446Zm9.778,1.853a6.2,6.2,0,0,1-.813,3.538,3.378,3.378,0,0,1-5.068.026,5.882,5.882,0,0,1-.85-3.38V9.826a6.059,6.059,0,0,1,.813-3.494,3.439,3.439,0,0,1,5.083-.04,5.847,5.847,0,0,1,.835,3.4ZM56.228,9.6a4.965,4.965,0,0,0-.483-2.509A1.664,1.664,0,0,0,54.214,6.3a1.642,1.642,0,0,0-1.516.784,4.848,4.848,0,0,0-.491,2.41v2.168a5.045,5.045,0,0,0,.5,2.552,1.661,1.661,0,0,0,1.52.824,1.638,1.638,0,0,0,1.49-.776,4.862,4.862,0,0,0,.509-2.446Zm9.778,1.853a6.2,6.2,0,0,1-.813,3.538,3.378,3.378,0,0,1-5.068.026,5.882,5.882,0,0,1-.85-3.38V9.826a6.059,6.059,0,0,1,.813-3.494,3.439,3.439,0,0,1,5.083-.04,5.847,5.847,0,0,1,.835,3.4ZM64.651,9.6a4.965,4.965,0,0,0-.483-2.509A1.664,1.664,0,0,0,62.637,6.3a1.642,1.642,0,0,0-1.516.784A4.848,4.848,0,0,0,60.63,9.5v2.168a5.045,5.045,0,0,0,.5,2.552,1.661,1.661,0,0,0,1.52.824,1.638,1.638,0,0,0,1.49-.776,4.862,4.862,0,0,0,.509-2.446ZM7.354,33.619a2.476,2.476,0,0,1-.421,1.421,2.865,2.865,0,0,1-1.139.974,3.056,3.056,0,0,1,1.322,1.047,2.636,2.636,0,0,1,.487,1.56,2.787,2.787,0,0,1-.934,2.2,3.588,3.588,0,0,1-2.457.82,3.572,3.572,0,0,1-2.465-.824,2.8,2.8,0,0,1-.927-2.2,2.714,2.714,0,0,1,.472-1.56A2.94,2.94,0,0,1,2.6,36.007a2.8,2.8,0,0,1-1.121-.974,2.512,2.512,0,0,1-.41-1.414,2.757,2.757,0,0,1,.864-2.139,3.242,3.242,0,0,1,2.278-.791,3.245,3.245,0,0,1,2.274.791A2.751,2.751,0,0,1,7.354,33.619ZM6.248,38.592a1.965,1.965,0,0,0-.568-1.458A2.013,2.013,0,0,0,4.2,36.571a1.978,1.978,0,0,0-1.469.557,1.988,1.988,0,0,0-.553,1.465,1.893,1.893,0,0,0,.538,1.428,2.066,2.066,0,0,0,1.5.52,2.06,2.06,0,0,0,1.494-.524A1.888,1.888,0,0,0,6.248,38.592ZM4.211,31.8a1.748,1.748,0,0,0-1.293.494,2.046,2.046,0,0,0-.007,2.659,1.729,1.729,0,0,0,1.3.5,1.729,1.729,0,0,0,1.3-.5,2,2,0,0,0-.018-2.64A1.724,1.724,0,0,0,4.211,31.8ZM9.478,40.79a.849.849,0,0,1,.209-.586.8.8,0,0,1,.626-.234.819.819,0,0,1,.634.234.831.831,0,0,1,.216.586.786.786,0,0,1-.216.564.834.834,0,0,1-.634.227.753.753,0,0,1-.835-.791Zm10.466-3.838a6.2,6.2,0,0,1-.813,3.538,2.891,2.891,0,0,1-2.542,1.157,2.912,2.912,0,0,1-2.527-1.132,5.882,5.882,0,0,1-.85-3.38V35.326a6.059,6.059,0,0,1,.813-3.494,2.914,2.914,0,0,1,2.549-1.143,2.94,2.94,0,0,1,2.534,1.1,5.847,5.847,0,0,1,.835,3.4ZM18.589,35.1a4.965,4.965,0,0,0-.483-2.509,1.664,1.664,0,0,0-1.531-.787,1.642,1.642,0,0,0-1.516.784A4.848,4.848,0,0,0,14.568,35v2.168a5.045,5.045,0,0,0,.5,2.552,1.661,1.661,0,0,0,1.52.824,1.638,1.638,0,0,0,1.49-.776,4.862,4.862,0,0,0,.509-2.446Zm9.778,1.853a6.2,6.2,0,0,1-.813,3.538,2.891,2.891,0,0,1-2.542,1.157,2.912,2.912,0,0,1-2.527-1.132,5.882,5.882,0,0,1-.85-3.38V35.326a6.059,6.059,0,0,1,.813-3.494A2.914,2.914,0,0,1,25,30.689a2.94,2.94,0,0,1,2.534,1.1,5.847,5.847,0,0,1,.835,3.4ZM27.012,35.1a4.965,4.965,0,0,0-.483-2.509A1.664,1.664,0,0,0,25,31.8a1.642,1.642,0,0,0-1.516.784A4.848,4.848,0,0,0,22.991,35v2.168a5.045,5.045,0,0,0,.5,2.552,1.661,1.661,0,0,0,1.52.824,1.638,1.638,0,0,0,1.49-.776,4.862,4.862,0,0,0,.509-2.446Zm9.778,1.853a6.2,6.2,0,0,1-.813,3.538,2.891,2.891,0,0,1-2.542,1.157,2.912,2.912,0,0,1-2.527-1.132,5.882,5.882,0,0,1-.85-3.38V35.326a6.059,6.059,0,0,1,.813-3.494,2.914,2.914,0,0,1,2.549-1.143,2.94,2.94,0,0,1,2.534,1.1,5.847,5.847,0,0,1,.835,3.4ZM35.435,35.1a4.965,4.965,0,0,0-.483-2.509A1.664,1.664,0,0,0,33.42,31.8a1.642,1.642,0,0,0-1.516.784A4.848,4.848,0,0,0,31.414,35v2.168a5.045,5.045,0,0,0,.5,2.552,1.661,1.661,0,0,0,1.52.824,1.638,1.638,0,0,0,1.49-.776,4.862,4.862,0,0,0,.509-2.446Zm3.259,5.691A.849.849,0,0,1,38.9,40.2a.8.8,0,0,1,.626-.234.819.819,0,0,1,.634.234.831.831,0,0,1,.216.586.786.786,0,0,1-.216.564.834.834,0,0,1-.634.227.753.753,0,0,1-.835-.791ZM49.16,36.952a6.2,6.2,0,0,1-.813,3.538,3.378,3.378,0,0,1-5.068.026,5.882,5.882,0,0,1-.85-3.38V35.326a6.059,6.059,0,0,1,.813-3.494,2.914,2.914,0,0,1,2.549-1.143,2.94,2.94,0,0,1,2.534,1.1,5.847,5.847,0,0,1,.835,3.4ZM47.805,35.1a4.965,4.965,0,0,0-.483-2.509,1.664,1.664,0,0,0-1.531-.787,1.642,1.642,0,0,0-1.516.784A4.848,4.848,0,0,0,43.784,35v2.168a5.045,5.045,0,0,0,.5,2.552,1.661,1.661,0,0,0,1.52.824,1.638,1.638,0,0,0,1.49-.776,4.862,4.862,0,0,0,.509-2.446Zm9.778,1.853a6.2,6.2,0,0,1-.813,3.538,3.378,3.378,0,0,1-5.068.026,5.882,5.882,0,0,1-.85-3.38V35.326a6.059,6.059,0,0,1,.813-3.494,3.439,3.439,0,0,1,5.083-.04,5.847,5.847,0,0,1,.835,3.4ZM56.228,35.1a4.965,4.965,0,0,0-.483-2.509,1.664,1.664,0,0,0-1.531-.787,1.642,1.642,0,0,0-1.516.784A4.848,4.848,0,0,0,52.207,35v2.168a5.045,5.045,0,0,0,.5,2.552,1.661,1.661,0,0,0,1.52.824,1.638,1.638,0,0,0,1.49-.776,4.862,4.862,0,0,0,.509-2.446Zm9.778,1.853a6.2,6.2,0,0,1-.813,3.538,3.378,3.378,0,0,1-5.068.026,5.882,5.882,0,0,1-.85-3.38V35.326a6.059,6.059,0,0,1,.813-3.494,3.439,3.439,0,0,1,5.083-.04,5.847,5.847,0,0,1,.835,3.4ZM64.651,35.1a4.965,4.965,0,0,0-.483-2.509,1.664,1.664,0,0,0-1.531-.787,1.642,1.642,0,0,0-1.516.784A4.848,4.848,0,0,0,60.63,35v2.168a5.045,5.045,0,0,0,.5,2.552,1.661,1.661,0,0,0,1.52.824,1.638,1.638,0,0,0,1.49-.776,4.862,4.862,0,0,0,.509-2.446Zm-56.88,22L3.354,67H1.934l4.4-9.551H.564V56.336H7.771ZM9.478,66.29a.849.849,0,0,1,.209-.586.8.8,0,0,1,.626-.234.819.819,0,0,1,.634.234.831.831,0,0,1,.216.586.786.786,0,0,1-.216.564.834.834,0,0,1-.634.227.753.753,0,0,1-.835-.791Zm10.466-3.838a6.2,6.2,0,0,1-.813,3.538,2.891,2.891,0,0,1-2.542,1.157,2.912,2.912,0,0,1-2.527-1.132,5.882,5.882,0,0,1-.85-3.38V60.826a6.059,6.059,0,0,1,.813-3.494,2.914,2.914,0,0,1,2.549-1.143,2.94,2.94,0,0,1,2.534,1.1,5.847,5.847,0,0,1,.835,3.4ZM18.589,60.6a4.965,4.965,0,0,0-.483-2.509,1.664,1.664,0,0,0-1.531-.787,1.642,1.642,0,0,0-1.516.784,4.848,4.848,0,0,0-.491,2.41v2.168a5.045,5.045,0,0,0,.5,2.552,1.661,1.661,0,0,0,1.52.824,1.638,1.638,0,0,0,1.49-.776,4.862,4.862,0,0,0,.509-2.446Zm9.778,1.853a6.2,6.2,0,0,1-.813,3.538,2.891,2.891,0,0,1-2.542,1.157,2.912,2.912,0,0,1-2.527-1.132,5.882,5.882,0,0,1-.85-3.38V60.826a6.059,6.059,0,0,1,.813-3.494A2.914,2.914,0,0,1,25,56.189a2.94,2.94,0,0,1,2.534,1.1,5.847,5.847,0,0,1,.835,3.4ZM27.012,60.6a4.965,4.965,0,0,0-.483-2.509A1.664,1.664,0,0,0,25,57.3a1.642,1.642,0,0,0-1.516.784,4.848,4.848,0,0,0-.491,2.41v2.168a5.045,5.045,0,0,0,.5,2.552,1.661,1.661,0,0,0,1.52.824,1.638,1.638,0,0,0,1.49-.776,4.862,4.862,0,0,0,.509-2.446Zm9.778,1.853a6.2,6.2,0,0,1-.813,3.538,2.891,2.891,0,0,1-2.542,1.157,2.912,2.912,0,0,1-2.527-1.132,5.882,5.882,0,0,1-.85-3.38V60.826a6.059,6.059,0,0,1,.813-3.494,2.914,2.914,0,0,1,2.549-1.143,2.94,2.94,0,0,1,2.534,1.1,5.847,5.847,0,0,1,.835,3.4ZM35.435,60.6a4.965,4.965,0,0,0-.483-2.509A1.664,1.664,0,0,0,33.42,57.3a1.642,1.642,0,0,0-1.516.784,4.848,4.848,0,0,0-.491,2.41v2.168a5.045,5.045,0,0,0,.5,2.552,1.661,1.661,0,0,0,1.52.824,1.638,1.638,0,0,0,1.49-.776,4.862,4.862,0,0,0,.509-2.446Zm3.259,5.691A.849.849,0,0,1,38.9,65.7a.8.8,0,0,1,.626-.234.819.819,0,0,1,.634.234.831.831,0,0,1,.216.586.786.786,0,0,1-.216.564.834.834,0,0,1-.634.227.753.753,0,0,1-.835-.791ZM49.16,62.452a6.2,6.2,0,0,1-.813,3.538,3.378,3.378,0,0,1-5.068.026,5.882,5.882,0,0,1-.85-3.38V60.826a6.059,6.059,0,0,1,.813-3.494,2.914,2.914,0,0,1,2.549-1.143,2.94,2.94,0,0,1,2.534,1.1,5.847,5.847,0,0,1,.835,3.4ZM47.805,60.6a4.965,4.965,0,0,0-.483-2.509,1.664,1.664,0,0,0-1.531-.787,1.642,1.642,0,0,0-1.516.784,4.848,4.848,0,0,0-.491,2.41v2.168a5.045,5.045,0,0,0,.5,2.552,1.661,1.661,0,0,0,1.52.824,1.638,1.638,0,0,0,1.49-.776,4.862,4.862,0,0,0,.509-2.446Zm9.778,1.853a6.2,6.2,0,0,1-.813,3.538,3.378,3.378,0,0,1-5.068.026,5.882,5.882,0,0,1-.85-3.38V60.826a6.059,6.059,0,0,1,.813-3.494,3.439,3.439,0,0,1,5.083-.04,5.847,5.847,0,0,1,.835,3.4ZM56.228,60.6a4.965,4.965,0,0,0-.483-2.509,1.664,1.664,0,0,0-1.531-.787,1.642,1.642,0,0,0-1.516.784,4.848,4.848,0,0,0-.491,2.41v2.168a5.045,5.045,0,0,0,.5,2.552,1.661,1.661,0,0,0,1.52.824,1.638,1.638,0,0,0,1.49-.776,4.862,4.862,0,0,0,.509-2.446Zm9.778,1.853a6.2,6.2,0,0,1-.813,3.538,3.378,3.378,0,0,1-5.068.026,5.882,5.882,0,0,1-.85-3.38V60.826a6.059,6.059,0,0,1,.813-3.494,3.439,3.439,0,0,1,5.083-.04,5.847,5.847,0,0,1,.835,3.4ZM64.651,60.6a4.965,4.965,0,0,0-.483-2.509,1.664,1.664,0,0,0-1.531-.787,1.642,1.642,0,0,0-1.516.784,4.848,4.848,0,0,0-.491,2.41v2.168a5.045,5.045,0,0,0,.5,2.552,1.661,1.661,0,0,0,1.52.824,1.638,1.638,0,0,0,1.49-.776,4.862,4.862,0,0,0,.509-2.446ZM6.2,81.829v1.15H5.955a3.568,3.568,0,0,0-2.52.938,3.9,3.9,0,0,0-1.084,2.556,2.892,2.892,0,0,1,2.3-.967,2.765,2.765,0,0,1,2.223.981,4.3,4.3,0,0,1-.066,5.171,3.089,3.089,0,0,1-2.406.989,3.044,3.044,0,0,1-2.483-1.176,4.659,4.659,0,0,1-.952-3.029v-.52a7.02,7.02,0,0,1,1.256-4.5,4.613,4.613,0,0,1,3.739-1.593Zm-1.78,4.8a2.162,2.162,0,0,0-1.282.417A2.175,2.175,0,0,0,2.329,88.1v.5a3.5,3.5,0,0,0,.593,2.124,1.778,1.778,0,0,0,1.479.806,1.723,1.723,0,0,0,1.439-.674,3.236,3.236,0,0,0-.007-3.541A1.7,1.7,0,0,0,4.424,86.633ZM9.478,91.79a.849.849,0,0,1,.209-.586.8.8,0,0,1,.626-.234.819.819,0,0,1,.634.234.831.831,0,0,1,.216.586.786.786,0,0,1-.216.564.834.834,0,0,1-.634.227.753.753,0,0,1-.835-.791Zm10.466-3.838a6.2,6.2,0,0,1-.813,3.538,2.891,2.891,0,0,1-2.542,1.157,2.912,2.912,0,0,1-2.527-1.132,5.882,5.882,0,0,1-.85-3.38V86.326a6.059,6.059,0,0,1,.813-3.494,2.914,2.914,0,0,1,2.549-1.143,2.94,2.94,0,0,1,2.534,1.1,5.847,5.847,0,0,1,.835,3.4ZM18.589,86.1a4.965,4.965,0,0,0-.483-2.509,1.664,1.664,0,0,0-1.531-.787,1.642,1.642,0,0,0-1.516.784A4.848,4.848,0,0,0,14.568,86v2.168a5.045,5.045,0,0,0,.5,2.552,1.661,1.661,0,0,0,1.52.824,1.638,1.638,0,0,0,1.49-.776,4.862,4.862,0,0,0,.509-2.446Zm9.778,1.853a6.2,6.2,0,0,1-.813,3.538,2.891,2.891,0,0,1-2.542,1.157,2.912,2.912,0,0,1-2.527-1.132,5.882,5.882,0,0,1-.85-3.38V86.326a6.059,6.059,0,0,1,.813-3.494A2.914,2.914,0,0,1,25,81.689a2.94,2.94,0,0,1,2.534,1.1,5.847,5.847,0,0,1,.835,3.4ZM27.012,86.1a4.965,4.965,0,0,0-.483-2.509A1.664,1.664,0,0,0,25,82.8a1.642,1.642,0,0,0-1.516.784A4.848,4.848,0,0,0,22.991,86v2.168a5.045,5.045,0,0,0,.5,2.552,1.661,1.661,0,0,0,1.52.824,1.638,1.638,0,0,0,1.49-.776,4.862,4.862,0,0,0,.509-2.446Zm9.778,1.853a6.2,6.2,0,0,1-.813,3.538,2.891,2.891,0,0,1-2.542,1.157,2.912,2.912,0,0,1-2.527-1.132,5.882,5.882,0,0,1-.85-3.38V86.326a6.059,6.059,0,0,1,.813-3.494,2.914,2.914,0,0,1,2.549-1.143,2.94,2.94,0,0,1,2.534,1.1,5.847,5.847,0,0,1,.835,3.4ZM35.435,86.1a4.965,4.965,0,0,0-.483-2.509A1.664,1.664,0,0,0,33.42,82.8a1.642,1.642,0,0,0-1.516.784A4.848,4.848,0,0,0,31.414,86v2.168a5.045,5.045,0,0,0,.5,2.552,1.661,1.661,0,0,0,1.52.824,1.638,1.638,0,0,0,1.49-.776,4.862,4.862,0,0,0,.509-2.446Zm3.259,5.691A.849.849,0,0,1,38.9,91.2a.8.8,0,0,1,.626-.234.819.819,0,0,1,.634.234.831.831,0,0,1,.216.586.786.786,0,0,1-.216.564.834.834,0,0,1-.634.227.753.753,0,0,1-.835-.791ZM49.16,87.952a6.2,6.2,0,0,1-.813,3.538,3.378,3.378,0,0,1-5.068.026,5.882,5.882,0,0,1-.85-3.38V86.326a6.059,6.059,0,0,1,.813-3.494,2.914,2.914,0,0,1,2.549-1.143,2.94,2.94,0,0,1,2.534,1.1,5.847,5.847,0,0,1,.835,3.4ZM47.805,86.1a4.965,4.965,0,0,0-.483-2.509,1.664,1.664,0,0,0-1.531-.787,1.642,1.642,0,0,0-1.516.784A4.848,4.848,0,0,0,43.784,86v2.168a5.045,5.045,0,0,0,.5,2.552,1.661,1.661,0,0,0,1.52.824,1.638,1.638,0,0,0,1.49-.776,4.862,4.862,0,0,0,.509-2.446Zm9.778,1.853a6.2,6.2,0,0,1-.813,3.538,3.378,3.378,0,0,1-5.068.026,5.882,5.882,0,0,1-.85-3.38V86.326a6.059,6.059,0,0,1,.813-3.494,3.439,3.439,0,0,1,5.083-.04,5.847,5.847,0,0,1,.835,3.4ZM56.228,86.1a4.965,4.965,0,0,0-.483-2.509,1.664,1.664,0,0,0-1.531-.787,1.642,1.642,0,0,0-1.516.784A4.848,4.848,0,0,0,52.207,86v2.168a5.045,5.045,0,0,0,.5,2.552,1.661,1.661,0,0,0,1.52.824,1.638,1.638,0,0,0,1.49-.776,4.862,4.862,0,0,0,.509-2.446Zm9.778,1.853a6.2,6.2,0,0,1-.813,3.538,3.378,3.378,0,0,1-5.068.026,5.882,5.882,0,0,1-.85-3.38V86.326a6.059,6.059,0,0,1,.813-3.494,3.439,3.439,0,0,1,5.083-.04,5.847,5.847,0,0,1,.835,3.4ZM64.651,86.1a4.965,4.965,0,0,0-.483-2.509,1.664,1.664,0,0,0-1.531-.787,1.642,1.642,0,0,0-1.516.784A4.848,4.848,0,0,0,60.63,86v2.168a5.045,5.045,0,0,0,.5,2.552,1.661,1.661,0,0,0,1.52.824,1.638,1.638,0,0,0,1.49-.776,4.862,4.862,0,0,0,.509-2.446ZM1.509,112.653l.542-5.317H7.515v1.252H3.2L2.878,111.5a3.441,3.441,0,0,1,1.78-.461A2.942,2.942,0,0,1,6.973,112a3.775,3.775,0,0,1,.857,2.6,3.643,3.643,0,0,1-.89,2.6,3.243,3.243,0,0,1-2.487.948,3.371,3.371,0,0,1-2.307-.784,3.128,3.128,0,0,1-1.018-2.168H2.41a2.152,2.152,0,0,0,.652,1.381,2.027,2.027,0,0,0,1.392.465,1.828,1.828,0,0,0,1.483-.645,2.694,2.694,0,0,0,.538-1.78,2.473,2.473,0,0,0-.582-1.718,1.981,1.981,0,0,0-1.549-.648,2.234,2.234,0,0,0-1.392.388l-.359.293Zm7.969,4.636a.849.849,0,0,1,.209-.586.8.8,0,0,1,.626-.234.819.819,0,0,1,.634.234.831.831,0,0,1,.216.586.786.786,0,0,1-.216.564.834.834,0,0,1-.634.227.753.753,0,0,1-.835-.791Zm10.466-3.838a6.2,6.2,0,0,1-.813,3.538,2.891,2.891,0,0,1-2.542,1.157,2.912,2.912,0,0,1-2.527-1.132,5.882,5.882,0,0,1-.85-3.38v-1.809a6.059,6.059,0,0,1,.813-3.494,2.914,2.914,0,0,1,2.549-1.143,2.94,2.94,0,0,1,2.534,1.1,5.847,5.847,0,0,1,.835,3.4ZM18.589,111.6a4.965,4.965,0,0,0-.483-2.509,1.664,1.664,0,0,0-1.531-.787,1.642,1.642,0,0,0-1.516.784,4.848,4.848,0,0,0-.491,2.41v2.168a5.045,5.045,0,0,0,.5,2.552,1.661,1.661,0,0,0,1.52.824,1.638,1.638,0,0,0,1.49-.776,4.862,4.862,0,0,0,.509-2.446Zm9.778,1.853a6.2,6.2,0,0,1-.813,3.538,2.891,2.891,0,0,1-2.542,1.157,2.912,2.912,0,0,1-2.527-1.132,5.882,5.882,0,0,1-.85-3.38v-1.809a6.059,6.059,0,0,1,.813-3.494A2.914,2.914,0,0,1,25,107.189a2.94,2.94,0,0,1,2.534,1.1,5.847,5.847,0,0,1,.835,3.4ZM27.012,111.6a4.965,4.965,0,0,0-.483-2.509A1.664,1.664,0,0,0,25,108.3a1.642,1.642,0,0,0-1.516.784,4.848,4.848,0,0,0-.491,2.41v2.168a5.045,5.045,0,0,0,.5,2.552,1.661,1.661,0,0,0,1.52.824,1.638,1.638,0,0,0,1.49-.776,4.862,4.862,0,0,0,.509-2.446Zm9.778,1.853a6.2,6.2,0,0,1-.813,3.538,2.891,2.891,0,0,1-2.542,1.157,2.912,2.912,0,0,1-2.527-1.132,5.882,5.882,0,0,1-.85-3.38v-1.809a6.059,6.059,0,0,1,.813-3.494,2.914,2.914,0,0,1,2.549-1.143,2.94,2.94,0,0,1,2.534,1.1,5.847,5.847,0,0,1,.835,3.4ZM35.435,111.6a4.965,4.965,0,0,0-.483-2.509,1.664,1.664,0,0,0-1.531-.787,1.642,1.642,0,0,0-1.516.784,4.848,4.848,0,0,0-.491,2.41v2.168a5.045,5.045,0,0,0,.5,2.552,1.661,1.661,0,0,0,1.52.824,1.638,1.638,0,0,0,1.49-.776,4.862,4.862,0,0,0,.509-2.446Zm3.259,5.691a.849.849,0,0,1,.209-.586.8.8,0,0,1,.626-.234.819.819,0,0,1,.634.234.831.831,0,0,1,.216.586.786.786,0,0,1-.216.564.834.834,0,0,1-.634.227.753.753,0,0,1-.835-.791Zm10.466-3.838a6.2,6.2,0,0,1-.813,3.538,3.378,3.378,0,0,1-5.068.026,5.882,5.882,0,0,1-.85-3.38v-1.809a6.059,6.059,0,0,1,.813-3.494,2.914,2.914,0,0,1,2.549-1.143,2.94,2.94,0,0,1,2.534,1.1,5.847,5.847,0,0,1,.835,3.4ZM47.805,111.6a4.965,4.965,0,0,0-.483-2.509,1.664,1.664,0,0,0-1.531-.787,1.642,1.642,0,0,0-1.516.784,4.848,4.848,0,0,0-.491,2.41v2.168a5.045,5.045,0,0,0,.5,2.552,1.661,1.661,0,0,0,1.52.824,1.638,1.638,0,0,0,1.49-.776,4.862,4.862,0,0,0,.509-2.446Zm9.778,1.853a6.2,6.2,0,0,1-.813,3.538,3.378,3.378,0,0,1-5.068.026,5.882,5.882,0,0,1-.85-3.38v-1.809a6.059,6.059,0,0,1,.813-3.494,3.439,3.439,0,0,1,5.083-.04,5.847,5.847,0,0,1,.835,3.4ZM56.228,111.6a4.965,4.965,0,0,0-.483-2.509,1.664,1.664,0,0,0-1.531-.787,1.642,1.642,0,0,0-1.516.784,4.848,4.848,0,0,0-.491,2.41v2.168a5.045,5.045,0,0,0,.5,2.552,1.661,1.661,0,0,0,1.52.824,1.638,1.638,0,0,0,1.49-.776,4.862,4.862,0,0,0,.509-2.446Zm9.778,1.853a6.2,6.2,0,0,1-.813,3.538,3.378,3.378,0,0,1-5.068.026,5.882,5.882,0,0,1-.85-3.38v-1.809a6.059,6.059,0,0,1,.813-3.494,3.439,3.439,0,0,1,5.083-.04,5.847,5.847,0,0,1,.835,3.4ZM64.651,111.6a4.965,4.965,0,0,0-.483-2.509,1.664,1.664,0,0,0-1.531-.787,1.642,1.642,0,0,0-1.516.784,4.848,4.848,0,0,0-.491,2.41v2.168a5.045,5.045,0,0,0,.5,2.552,1.661,1.661,0,0,0,1.52.824,1.638,1.638,0,0,0,1.49-.776,4.862,4.862,0,0,0,.509-2.446ZM6.606,139.918H8.086v1.106H6.606V143.5H5.244v-2.476H.388v-.8l4.775-7.39H6.606Zm-4.68,0H5.244v-5.229l-.161.293Zm7.551,2.871a.849.849,0,0,1,.209-.586.8.8,0,0,1,.626-.234.819.819,0,0,1,.634.234.831.831,0,0,1,.216.586.786.786,0,0,1-.216.564.834.834,0,0,1-.634.227.753.753,0,0,1-.835-.791Zm10.466-3.838a6.2,6.2,0,0,1-.813,3.538,2.891,2.891,0,0,1-2.542,1.157,2.912,2.912,0,0,1-2.527-1.132,5.882,5.882,0,0,1-.85-3.38v-1.809a6.059,6.059,0,0,1,.813-3.494,2.914,2.914,0,0,1,2.549-1.143,2.94,2.94,0,0,1,2.534,1.1,5.847,5.847,0,0,1,.835,3.4ZM18.589,137.1a4.965,4.965,0,0,0-.483-2.509,1.664,1.664,0,0,0-1.531-.787,1.642,1.642,0,0,0-1.516.784,4.848,4.848,0,0,0-.491,2.41v2.168a5.045,5.045,0,0,0,.5,2.552,1.661,1.661,0,0,0,1.52.824,1.638,1.638,0,0,0,1.49-.776,4.862,4.862,0,0,0,.509-2.446Zm9.778,1.853a6.2,6.2,0,0,1-.813,3.538,2.891,2.891,0,0,1-2.542,1.157,2.912,2.912,0,0,1-2.527-1.132,5.882,5.882,0,0,1-.85-3.38v-1.809a6.059,6.059,0,0,1,.813-3.494A2.914,2.914,0,0,1,25,132.689a2.94,2.94,0,0,1,2.534,1.1,5.847,5.847,0,0,1,.835,3.4ZM27.012,137.1a4.965,4.965,0,0,0-.483-2.509A1.664,1.664,0,0,0,25,133.8a1.642,1.642,0,0,0-1.516.784,4.848,4.848,0,0,0-.491,2.41v2.168a5.045,5.045,0,0,0,.5,2.552,1.661,1.661,0,0,0,1.52.824,1.638,1.638,0,0,0,1.49-.776,4.862,4.862,0,0,0,.509-2.446Zm9.778,1.853a6.2,6.2,0,0,1-.813,3.538,2.891,2.891,0,0,1-2.542,1.157,2.912,2.912,0,0,1-2.527-1.132,5.882,5.882,0,0,1-.85-3.38v-1.809a6.059,6.059,0,0,1,.813-3.494,2.914,2.914,0,0,1,2.549-1.143,2.94,2.94,0,0,1,2.534,1.1,5.847,5.847,0,0,1,.835,3.4ZM35.435,137.1a4.965,4.965,0,0,0-.483-2.509,1.664,1.664,0,0,0-1.531-.787,1.642,1.642,0,0,0-1.516.784,4.848,4.848,0,0,0-.491,2.41v2.168a5.045,5.045,0,0,0,.5,2.552,1.661,1.661,0,0,0,1.52.824,1.638,1.638,0,0,0,1.49-.776,4.862,4.862,0,0,0,.509-2.446Zm3.259,5.691a.849.849,0,0,1,.209-.586.8.8,0,0,1,.626-.234.819.819,0,0,1,.634.234.831.831,0,0,1,.216.586.786.786,0,0,1-.216.564.834.834,0,0,1-.634.227.753.753,0,0,1-.835-.791Zm10.466-3.838a6.2,6.2,0,0,1-.813,3.538,3.378,3.378,0,0,1-5.068.026,5.882,5.882,0,0,1-.85-3.38v-1.809a6.059,6.059,0,0,1,.813-3.494,2.914,2.914,0,0,1,2.549-1.143,2.94,2.94,0,0,1,2.534,1.1,5.847,5.847,0,0,1,.835,3.4ZM47.805,137.1a4.965,4.965,0,0,0-.483-2.509,1.664,1.664,0,0,0-1.531-.787,1.642,1.642,0,0,0-1.516.784,4.848,4.848,0,0,0-.491,2.41v2.168a5.045,5.045,0,0,0,.5,2.552,1.661,1.661,0,0,0,1.52.824,1.638,1.638,0,0,0,1.49-.776,4.862,4.862,0,0,0,.509-2.446Zm9.778,1.853a6.2,6.2,0,0,1-.813,3.538,3.378,3.378,0,0,1-5.068.026,5.882,5.882,0,0,1-.85-3.38v-1.809a6.059,6.059,0,0,1,.813-3.494,3.439,3.439,0,0,1,5.083-.04,5.847,5.847,0,0,1,.835,3.4ZM56.228,137.1a4.965,4.965,0,0,0-.483-2.509,1.664,1.664,0,0,0-1.531-.787,1.642,1.642,0,0,0-1.516.784,4.848,4.848,0,0,0-.491,2.41v2.168a5.045,5.045,0,0,0,.5,2.552,1.661,1.661,0,0,0,1.52.824,1.638,1.638,0,0,0,1.49-.776,4.862,4.862,0,0,0,.509-2.446Zm9.778,1.853a6.2,6.2,0,0,1-.813,3.538,3.378,3.378,0,0,1-5.068.026,5.882,5.882,0,0,1-.85-3.38v-1.809a6.059,6.059,0,0,1,.813-3.494,3.439,3.439,0,0,1,5.083-.04,5.847,5.847,0,0,1,.835,3.4ZM64.651,137.1a4.965,4.965,0,0,0-.483-2.509,1.664,1.664,0,0,0-1.531-.787,1.642,1.642,0,0,0-1.516.784A4.848,4.848,0,0,0,60.63,137v2.168a5.045,5.045,0,0,0,.5,2.552,1.661,1.661,0,0,0,1.52.824,1.638,1.638,0,0,0,1.49-.776,4.862,4.862,0,0,0,.509-2.446ZM2.856,163.009H3.875a2.238,2.238,0,0,0,1.509-.505,1.688,1.688,0,0,0,.549-1.326A1.654,1.654,0,0,0,4.065,159.3a1.943,1.943,0,0,0-1.4.5,1.756,1.756,0,0,0-.524,1.329H.784a2.72,2.72,0,0,1,.927-2.106,3.375,3.375,0,0,1,2.355-.839,3.335,3.335,0,0,1,2.366.8,2.884,2.884,0,0,1,.857,2.219,2.341,2.341,0,0,1-.45,1.348,2.72,2.72,0,0,1-1.227.974,2.621,2.621,0,0,1,1.359.923,2.563,2.563,0,0,1,.48,1.575,2.909,2.909,0,0,1-.937,2.278,3.511,3.511,0,0,1-2.439.842,3.6,3.6,0,0,1-2.443-.813,2.7,2.7,0,0,1-.941-2.146H2.051a1.743,1.743,0,0,0,.549,1.348,2.089,2.089,0,0,0,1.472.505,2.05,2.05,0,0,0,1.5-.513,1.976,1.976,0,0,0,.52-1.472,1.793,1.793,0,0,0-.571-1.428,2.489,2.489,0,0,0-1.648-.513H2.856Zm6.621,5.281a.849.849,0,0,1,.209-.586.8.8,0,0,1,.626-.234.819.819,0,0,1,.634.234.831.831,0,0,1,.216.586.786.786,0,0,1-.216.564.834.834,0,0,1-.634.227.753.753,0,0,1-.835-.791Zm10.466-3.838a6.2,6.2,0,0,1-.813,3.538,2.891,2.891,0,0,1-2.542,1.157,2.912,2.912,0,0,1-2.527-1.132,5.882,5.882,0,0,1-.85-3.38v-1.809a6.059,6.059,0,0,1,.813-3.494,2.914,2.914,0,0,1,2.549-1.143,2.94,2.94,0,0,1,2.534,1.1,5.847,5.847,0,0,1,.835,3.4ZM18.589,162.6a4.965,4.965,0,0,0-.483-2.509,1.664,1.664,0,0,0-1.531-.787,1.642,1.642,0,0,0-1.516.784,4.848,4.848,0,0,0-.491,2.41v2.168a5.045,5.045,0,0,0,.5,2.552,1.661,1.661,0,0,0,1.52.824,1.638,1.638,0,0,0,1.49-.776,4.862,4.862,0,0,0,.509-2.446Zm9.778,1.853a6.2,6.2,0,0,1-.813,3.538,2.891,2.891,0,0,1-2.542,1.157,2.912,2.912,0,0,1-2.527-1.132,5.882,5.882,0,0,1-.85-3.38v-1.809a6.059,6.059,0,0,1,.813-3.494A2.914,2.914,0,0,1,25,158.189a2.94,2.94,0,0,1,2.534,1.1,5.847,5.847,0,0,1,.835,3.4ZM27.012,162.6a4.965,4.965,0,0,0-.483-2.509A1.664,1.664,0,0,0,25,159.3a1.642,1.642,0,0,0-1.516.784,4.848,4.848,0,0,0-.491,2.41v2.168a5.045,5.045,0,0,0,.5,2.552,1.661,1.661,0,0,0,1.52.824,1.638,1.638,0,0,0,1.49-.776,4.862,4.862,0,0,0,.509-2.446Zm9.778,1.853a6.2,6.2,0,0,1-.813,3.538,2.891,2.891,0,0,1-2.542,1.157,2.912,2.912,0,0,1-2.527-1.132,5.882,5.882,0,0,1-.85-3.38v-1.809a6.059,6.059,0,0,1,.813-3.494,2.914,2.914,0,0,1,2.549-1.143,2.94,2.94,0,0,1,2.534,1.1,5.847,5.847,0,0,1,.835,3.4ZM35.435,162.6a4.965,4.965,0,0,0-.483-2.509,1.664,1.664,0,0,0-1.531-.787,1.642,1.642,0,0,0-1.516.784,4.848,4.848,0,0,0-.491,2.41v2.168a5.045,5.045,0,0,0,.5,2.552,1.661,1.661,0,0,0,1.52.824,1.638,1.638,0,0,0,1.49-.776,4.862,4.862,0,0,0,.509-2.446Zm3.259,5.691a.849.849,0,0,1,.209-.586.8.8,0,0,1,.626-.234.819.819,0,0,1,.634.234.831.831,0,0,1,.216.586.786.786,0,0,1-.216.564.834.834,0,0,1-.634.227.753.753,0,0,1-.835-.791Zm10.466-3.838a6.2,6.2,0,0,1-.813,3.538,3.378,3.378,0,0,1-5.068.026,5.882,5.882,0,0,1-.85-3.38v-1.809a6.059,6.059,0,0,1,.813-3.494,2.914,2.914,0,0,1,2.549-1.143,2.94,2.94,0,0,1,2.534,1.1,5.847,5.847,0,0,1,.835,3.4ZM47.805,162.6a4.965,4.965,0,0,0-.483-2.509,1.664,1.664,0,0,0-1.531-.787,1.642,1.642,0,0,0-1.516.784,4.848,4.848,0,0,0-.491,2.41v2.168a5.045,5.045,0,0,0,.5,2.552,1.661,1.661,0,0,0,1.52.824,1.638,1.638,0,0,0,1.49-.776,4.862,4.862,0,0,0,.509-2.446Zm9.778,1.853a6.2,6.2,0,0,1-.813,3.538,3.378,3.378,0,0,1-5.068.026,5.882,5.882,0,0,1-.85-3.38v-1.809a6.059,6.059,0,0,1,.813-3.494,3.439,3.439,0,0,1,5.083-.04,5.847,5.847,0,0,1,.835,3.4ZM56.228,162.6a4.965,4.965,0,0,0-.483-2.509,1.664,1.664,0,0,0-1.531-.787,1.642,1.642,0,0,0-1.516.784,4.848,4.848,0,0,0-.491,2.41v2.168a5.045,5.045,0,0,0,.5,2.552,1.661,1.661,0,0,0,1.52.824,1.638,1.638,0,0,0,1.49-.776,4.862,4.862,0,0,0,.509-2.446Zm9.778,1.853a6.2,6.2,0,0,1-.813,3.538,3.378,3.378,0,0,1-5.068.026,5.882,5.882,0,0,1-.85-3.38v-1.809a6.059,6.059,0,0,1,.813-3.494,3.439,3.439,0,0,1,5.083-.04,5.847,5.847,0,0,1,.835,3.4ZM64.651,162.6a4.965,4.965,0,0,0-.483-2.509,1.664,1.664,0,0,0-1.531-.787,1.642,1.642,0,0,0-1.516.784,4.848,4.848,0,0,0-.491,2.41v2.168a5.045,5.045,0,0,0,.5,2.552,1.661,1.661,0,0,0,1.52.824,1.638,1.638,0,0,0,1.49-.776,4.862,4.862,0,0,0,.509-2.446ZM7.874,194.5H.886v-.974l3.691-4.1a8.77,8.77,0,0,0,1.132-1.512,2.524,2.524,0,0,0,.311-1.2,1.913,1.913,0,0,0-.505-1.37,1.767,1.767,0,0,0-1.348-.535,2.093,2.093,0,0,0-1.571.575,2.2,2.2,0,0,0-.56,1.6H.681a3.145,3.145,0,0,1,.948-2.38,3.516,3.516,0,0,1,2.538-.908,3.379,3.379,0,0,1,2.351.78,2.661,2.661,0,0,1,.864,2.076q0,1.575-2.007,3.75l-2.856,3.1H7.874Zm1.6-.71a.849.849,0,0,1,.209-.586.8.8,0,0,1,.626-.234.819.819,0,0,1,.634.234.831.831,0,0,1,.216.586.786.786,0,0,1-.216.564.834.834,0,0,1-.634.227.753.753,0,0,1-.835-.791Zm10.466-3.838a6.2,6.2,0,0,1-.813,3.538,2.891,2.891,0,0,1-2.542,1.157,2.912,2.912,0,0,1-2.527-1.132,5.882,5.882,0,0,1-.85-3.38v-1.809a6.059,6.059,0,0,1,.813-3.494,2.914,2.914,0,0,1,2.549-1.143,2.94,2.94,0,0,1,2.534,1.1,5.847,5.847,0,0,1,.835,3.4ZM18.589,188.1a4.965,4.965,0,0,0-.483-2.509,1.664,1.664,0,0,0-1.531-.787,1.642,1.642,0,0,0-1.516.784,4.848,4.848,0,0,0-.491,2.41v2.168a5.045,5.045,0,0,0,.5,2.552,1.661,1.661,0,0,0,1.52.824,1.638,1.638,0,0,0,1.49-.776,4.862,4.862,0,0,0,.509-2.446Zm9.778,1.853a6.2,6.2,0,0,1-.813,3.538,2.891,2.891,0,0,1-2.542,1.157,2.912,2.912,0,0,1-2.527-1.132,5.882,5.882,0,0,1-.85-3.38v-1.809a6.059,6.059,0,0,1,.813-3.494A2.914,2.914,0,0,1,25,183.689a2.94,2.94,0,0,1,2.534,1.1,5.847,5.847,0,0,1,.835,3.4ZM27.012,188.1a4.965,4.965,0,0,0-.483-2.509A1.664,1.664,0,0,0,25,184.8a1.642,1.642,0,0,0-1.516.784,4.848,4.848,0,0,0-.491,2.41v2.168a5.045,5.045,0,0,0,.5,2.552,1.661,1.661,0,0,0,1.52.824,1.638,1.638,0,0,0,1.49-.776,4.862,4.862,0,0,0,.509-2.446Zm9.778,1.853a6.2,6.2,0,0,1-.813,3.538,2.891,2.891,0,0,1-2.542,1.157,2.912,2.912,0,0,1-2.527-1.132,5.882,5.882,0,0,1-.85-3.38v-1.809a6.059,6.059,0,0,1,.813-3.494,2.914,2.914,0,0,1,2.549-1.143,2.94,2.94,0,0,1,2.534,1.1,5.847,5.847,0,0,1,.835,3.4ZM35.435,188.1a4.965,4.965,0,0,0-.483-2.509,1.664,1.664,0,0,0-1.531-.787,1.642,1.642,0,0,0-1.516.784,4.848,4.848,0,0,0-.491,2.41v2.168a5.045,5.045,0,0,0,.5,2.552,1.661,1.661,0,0,0,1.52.824,1.638,1.638,0,0,0,1.49-.776,4.862,4.862,0,0,0,.509-2.446Zm3.259,5.691a.849.849,0,0,1,.209-.586.8.8,0,0,1,.626-.234.819.819,0,0,1,.634.234.831.831,0,0,1,.216.586.786.786,0,0,1-.216.564.834.834,0,0,1-.634.227.753.753,0,0,1-.835-.791Zm10.466-3.838a6.2,6.2,0,0,1-.813,3.538,3.378,3.378,0,0,1-5.068.026,5.882,5.882,0,0,1-.85-3.38v-1.809a6.059,6.059,0,0,1,.813-3.494,2.914,2.914,0,0,1,2.549-1.143,2.94,2.94,0,0,1,2.534,1.1,5.847,5.847,0,0,1,.835,3.4ZM47.805,188.1a4.965,4.965,0,0,0-.483-2.509,1.664,1.664,0,0,0-1.531-.787,1.642,1.642,0,0,0-1.516.784,4.848,4.848,0,0,0-.491,2.41v2.168a5.045,5.045,0,0,0,.5,2.552,1.661,1.661,0,0,0,1.52.824,1.638,1.638,0,0,0,1.49-.776,4.862,4.862,0,0,0,.509-2.446Zm9.778,1.853a6.2,6.2,0,0,1-.813,3.538,3.378,3.378,0,0,1-5.068.026,5.882,5.882,0,0,1-.85-3.38v-1.809a6.059,6.059,0,0,1,.813-3.494,3.439,3.439,0,0,1,5.083-.04,5.847,5.847,0,0,1,.835,3.4ZM56.228,188.1a4.965,4.965,0,0,0-.483-2.509,1.664,1.664,0,0,0-1.531-.787,1.642,1.642,0,0,0-1.516.784,4.848,4.848,0,0,0-.491,2.41v2.168a5.045,5.045,0,0,0,.5,2.552,1.661,1.661,0,0,0,1.52.824,1.638,1.638,0,0,0,1.49-.776,4.862,4.862,0,0,0,.509-2.446Zm9.778,1.853a6.2,6.2,0,0,1-.813,3.538,3.378,3.378,0,0,1-5.068.026,5.882,5.882,0,0,1-.85-3.38v-1.809a6.059,6.059,0,0,1,.813-3.494,3.439,3.439,0,0,1,5.083-.04,5.847,5.847,0,0,1,.835,3.4ZM64.651,188.1a4.965,4.965,0,0,0-.483-2.509,1.664,1.664,0,0,0-1.531-.787,1.642,1.642,0,0,0-1.516.784A4.848,4.848,0,0,0,60.63,188v2.168a5.045,5.045,0,0,0,.5,2.552,1.661,1.661,0,0,0,1.52.824,1.638,1.638,0,0,0,1.49-.776,4.862,4.862,0,0,0,.509-2.446ZM5.339,220H3.977v-9.031l-2.732,1v-1.23l3.882-1.458h.212Zm4.138-.71a.849.849,0,0,1,.209-.586.8.8,0,0,1,.626-.234.819.819,0,0,1,.634.234.831.831,0,0,1,.216.586.786.786,0,0,1-.216.564.834.834,0,0,1-.634.227.753.753,0,0,1-.835-.791Zm10.466-3.838a6.2,6.2,0,0,1-.813,3.538,2.891,2.891,0,0,1-2.542,1.157,2.912,2.912,0,0,1-2.527-1.132,5.882,5.882,0,0,1-.85-3.38v-1.809a6.059,6.059,0,0,1,.813-3.494,2.914,2.914,0,0,1,2.549-1.143,2.94,2.94,0,0,1,2.534,1.1,5.847,5.847,0,0,1,.835,3.4ZM18.589,213.6a4.965,4.965,0,0,0-.483-2.509,1.664,1.664,0,0,0-1.531-.787,1.642,1.642,0,0,0-1.516.784,4.848,4.848,0,0,0-.491,2.41v2.168a5.045,5.045,0,0,0,.5,2.552,1.661,1.661,0,0,0,1.52.824,1.638,1.638,0,0,0,1.49-.776,4.862,4.862,0,0,0,.509-2.446Zm9.778,1.853a6.2,6.2,0,0,1-.813,3.538,2.891,2.891,0,0,1-2.542,1.157,2.912,2.912,0,0,1-2.527-1.132,5.882,5.882,0,0,1-.85-3.38v-1.809a6.059,6.059,0,0,1,.813-3.494A2.914,2.914,0,0,1,25,209.189a2.94,2.94,0,0,1,2.534,1.1,5.847,5.847,0,0,1,.835,3.4ZM27.012,213.6a4.965,4.965,0,0,0-.483-2.509A1.664,1.664,0,0,0,25,210.3a1.642,1.642,0,0,0-1.516.784,4.848,4.848,0,0,0-.491,2.41v2.168a5.045,5.045,0,0,0,.5,2.552,1.661,1.661,0,0,0,1.52.824,1.638,1.638,0,0,0,1.49-.776,4.862,4.862,0,0,0,.509-2.446Zm9.778,1.853a6.2,6.2,0,0,1-.813,3.538,2.891,2.891,0,0,1-2.542,1.157,2.912,2.912,0,0,1-2.527-1.132,5.882,5.882,0,0,1-.85-3.38v-1.809a6.059,6.059,0,0,1,.813-3.494,2.914,2.914,0,0,1,2.549-1.143,2.94,2.94,0,0,1,2.534,1.1,5.847,5.847,0,0,1,.835,3.4ZM35.435,213.6a4.965,4.965,0,0,0-.483-2.509,1.664,1.664,0,0,0-1.531-.787,1.642,1.642,0,0,0-1.516.784,4.848,4.848,0,0,0-.491,2.41v2.168a5.045,5.045,0,0,0,.5,2.552,1.661,1.661,0,0,0,1.52.824,1.638,1.638,0,0,0,1.49-.776,4.862,4.862,0,0,0,.509-2.446Zm3.259,5.691a.849.849,0,0,1,.209-.586.8.8,0,0,1,.626-.234.819.819,0,0,1,.634.234.831.831,0,0,1,.216.586.786.786,0,0,1-.216.564.834.834,0,0,1-.634.227.753.753,0,0,1-.835-.791Zm10.466-3.838a6.2,6.2,0,0,1-.813,3.538,3.378,3.378,0,0,1-5.068.026,5.882,5.882,0,0,1-.85-3.38v-1.809a6.059,6.059,0,0,1,.813-3.494,2.914,2.914,0,0,1,2.549-1.143,2.94,2.94,0,0,1,2.534,1.1,5.847,5.847,0,0,1,.835,3.4ZM47.805,213.6a4.965,4.965,0,0,0-.483-2.509,1.664,1.664,0,0,0-1.531-.787,1.642,1.642,0,0,0-1.516.784,4.848,4.848,0,0,0-.491,2.41v2.168a5.045,5.045,0,0,0,.5,2.552,1.661,1.661,0,0,0,1.52.824,1.638,1.638,0,0,0,1.49-.776,4.862,4.862,0,0,0,.509-2.446Zm9.778,1.853a6.2,6.2,0,0,1-.813,3.538,3.378,3.378,0,0,1-5.068.026,5.882,5.882,0,0,1-.85-3.38v-1.809a6.059,6.059,0,0,1,.813-3.494,3.439,3.439,0,0,1,5.083-.04,5.847,5.847,0,0,1,.835,3.4ZM56.228,213.6a4.965,4.965,0,0,0-.483-2.509,1.664,1.664,0,0,0-1.531-.787,1.642,1.642,0,0,0-1.516.784,4.848,4.848,0,0,0-.491,2.41v2.168a5.045,5.045,0,0,0,.5,2.552,1.661,1.661,0,0,0,1.52.824,1.638,1.638,0,0,0,1.49-.776,4.862,4.862,0,0,0,.509-2.446Zm9.778,1.853a6.2,6.2,0,0,1-.813,3.538,3.378,3.378,0,0,1-5.068.026,5.882,5.882,0,0,1-.85-3.38v-1.809a6.059,6.059,0,0,1,.813-3.494,3.439,3.439,0,0,1,5.083-.04,5.847,5.847,0,0,1,.835,3.4ZM64.651,213.6a4.965,4.965,0,0,0-.483-2.509,1.664,1.664,0,0,0-1.531-.787,1.642,1.642,0,0,0-1.516.784,4.848,4.848,0,0,0-.491,2.41v2.168a5.045,5.045,0,0,0,.5,2.552,1.661,1.661,0,0,0,1.52.824,1.638,1.638,0,0,0,1.49-.776,4.862,4.862,0,0,0,.509-2.446Z" transform="translate(507.566 6326.614)" fill="#344154"/>
    <path id="Trazado_113202" data-name="Trazado 113202" d="M8.078,12.148a6.61,6.61,0,0,1-.867,3.773A3.084,3.084,0,0,1,4.5,17.156a3.107,3.107,0,0,1-2.7-1.207A6.274,6.274,0,0,1,.9,12.344v-1.93a6.463,6.463,0,0,1,.867-3.727A3.108,3.108,0,0,1,4.484,5.469a3.136,3.136,0,0,1,2.7,1.176,6.237,6.237,0,0,1,.891,3.629ZM6.633,10.172A5.3,5.3,0,0,0,6.117,7.5a1.775,1.775,0,0,0-1.633-.84,1.751,1.751,0,0,0-1.617.836,5.171,5.171,0,0,0-.523,2.57v2.313A5.381,5.381,0,0,0,2.879,15.1a1.771,1.771,0,0,0,1.621.879,1.747,1.747,0,0,0,1.59-.828,5.186,5.186,0,0,0,.543-2.609ZM72.657,17H71.2V7.367l-2.914,1.07V7.125L72.43,5.57h.227Zm69.664,0h-7.453V15.961l3.938-4.375a9.355,9.355,0,0,0,1.207-1.613,2.692,2.692,0,0,0,.332-1.285,2.041,2.041,0,0,0-.539-1.461,1.885,1.885,0,0,0-1.437-.57,2.232,2.232,0,0,0-1.676.613,2.343,2.343,0,0,0-.6,1.707h-1.445a3.355,3.355,0,0,1,1.012-2.539,3.751,3.751,0,0,1,2.707-.969,3.6,3.6,0,0,1,2.508.832,2.838,2.838,0,0,1,.922,2.215q0,1.68-2.141,4l-3.047,3.3h5.711Zm61.61-6.391h1.086a2.387,2.387,0,0,0,1.609-.539,1.8,1.8,0,0,0,.586-1.414,1.764,1.764,0,0,0-1.992-2,2.072,2.072,0,0,0-1.5.535,1.873,1.873,0,0,0-.559,1.418H201.72a2.9,2.9,0,0,1,.988-2.246,3.6,3.6,0,0,1,2.512-.895,3.558,3.558,0,0,1,2.523.852,3.076,3.076,0,0,1,.914,2.367,2.5,2.5,0,0,1-.48,1.438,2.9,2.9,0,0,1-1.309,1.039,2.8,2.8,0,0,1,1.449.984,2.734,2.734,0,0,1,.512,1.68,3.1,3.1,0,0,1-1,2.43,3.745,3.745,0,0,1-2.6.9,3.844,3.844,0,0,1-2.605-.867,2.877,2.877,0,0,1-1-2.289h1.453a1.859,1.859,0,0,0,.586,1.438,2.229,2.229,0,0,0,1.57.539,2.187,2.187,0,0,0,1.6-.547,2.108,2.108,0,0,0,.555-1.57,1.912,1.912,0,0,0-.609-1.523,2.655,2.655,0,0,0-1.758-.547h-1.086Zm70.961,2.57h1.578v1.18h-1.578V17h-1.453V14.359h-5.18v-.852l5.094-7.883h1.539Zm-4.992,0h3.539V7.6l-.172.313ZM336.416,11.3l.578-5.672h5.828V6.961h-4.6l-.344,3.1a3.671,3.671,0,0,1,1.9-.492,3.138,3.138,0,0,1,2.469,1.027,4.026,4.026,0,0,1,.914,2.777,3.886,3.886,0,0,1-.949,2.77,3.46,3.46,0,0,1-2.652,1.012,3.6,3.6,0,0,1-2.461-.836,3.337,3.337,0,0,1-1.086-2.312h1.367a2.3,2.3,0,0,0,.7,1.473,2.162,2.162,0,0,0,1.484.5,1.95,1.95,0,0,0,1.582-.687,2.874,2.874,0,0,0,.574-1.9,2.638,2.638,0,0,0-.621-1.832,2.113,2.113,0,0,0-1.652-.691,2.383,2.383,0,0,0-1.484.414l-.383.313Zm71.969-5.68V6.844h-.266a3.805,3.805,0,0,0-2.687,1,4.161,4.161,0,0,0-1.156,2.727,3.085,3.085,0,0,1,2.453-1.031,2.95,2.95,0,0,1,2.371,1.047,4.038,4.038,0,0,1,.887,2.7,4.025,4.025,0,0,1-.957,2.813,3.3,3.3,0,0,1-2.566,1.055,3.247,3.247,0,0,1-2.648-1.254,4.97,4.97,0,0,1-1.016-3.23v-.555a7.488,7.488,0,0,1,1.34-4.8,4.921,4.921,0,0,1,3.988-1.7Zm-1.9,5.125a2.429,2.429,0,0,0-2.234,1.563v.531a3.731,3.731,0,0,0,.633,2.266,1.9,1.9,0,0,0,1.578.859A1.838,1.838,0,0,0,408,15.242a2.982,2.982,0,0,0,.559-1.883,2.983,2.983,0,0,0-.566-1.895A1.816,1.816,0,0,0,406.487,10.742Z" transform="translate(589.084 6571.758)" fill="#344154"/>
    <path id="Trazado_113203" data-name="Trazado 113203" d="M0,0V237.283" transform="translate(591.491 6333.288)" fill="none" stroke="#9ea0ae" stroke-width="1"/>
    <path id="Trazado_113204" data-name="Trazado 113204" d="M473.358,0H0" transform="translate(586.358 6564.835)" fill="none" stroke="#9ea0ae" stroke-width="1"/>
    <path id="Trazado_113205" data-name="Trazado 113205" d="M0,0H6.943" transform="translate(584.547 6333.288)" fill="none" stroke="#9ea0ae" stroke-width="1"/>
    <path id="Trazado_113206" data-name="Trazado 113206" d="M0,0H6.943" transform="translate(584.547 6359.058)" fill="none" stroke="#9ea0ae" stroke-width="1"/>
    <path id="Trazado_113207" data-name="Trazado 113207" d="M0,0H6.943" transform="translate(584.547 6384.826)" fill="none" stroke="#9ea0ae" stroke-width="1"/>
    <path id="Trazado_113208" data-name="Trazado 113208" d="M0,0H6.943" transform="translate(584.547 6410.596)" fill="none" stroke="#9ea0ae" stroke-width="1"/>
    <path id="Trazado_113209" data-name="Trazado 113209" d="M0,0H6.943" transform="translate(584.547 6436.365)" fill="none" stroke="#9ea0ae" stroke-width="1"/>
    <path id="Trazado_113210" data-name="Trazado 113210" d="M0,0H6.943" transform="translate(584.547 6462.134)" fill="none" stroke="#9ea0ae" stroke-width="1"/>
    <path id="Trazado_113211" data-name="Trazado 113211" d="M0,0H6.943" transform="translate(584.547 6487.903)" fill="none" stroke="#9ea0ae" stroke-width="1"/>
    <path id="Trazado_113212" data-name="Trazado 113212" d="M0,0H6.943" transform="translate(584.547 6513.672)" fill="none" stroke="#9ea0ae" stroke-width="1"/>
    <path id="Trazado_113213" data-name="Trazado 113213" d="M0,0H6.943" transform="translate(584.547 6539.441)" fill="none" stroke="#9ea0ae" stroke-width="1"/>
    <path id="Trazado_113214" data-name="Trazado 113214" d="M0,5.736V0" transform="translate(658.661 6564.835)" fill="none" stroke="#9ea0ae" stroke-width="1"/>
    <path id="Trazado_113215" data-name="Trazado 113215" d="M0,5.736V0" transform="translate(725.587 6564.835)" fill="none" stroke="#9ea0ae" stroke-width="1"/>
    <path id="Trazado_113216" data-name="Trazado 113216" d="M0,5.736V0" transform="translate(792.515 6564.835)" fill="none" stroke="#9ea0ae" stroke-width="1"/>
    <path id="Trazado_113217" data-name="Trazado 113217" d="M0,5.736V0" transform="translate(859.441 6564.835)" fill="none" stroke="#9ea0ae" stroke-width="1"/>
    <path id="Trazado_113218" data-name="Trazado 113218" d="M0,5.736V0" transform="translate(926.368 6564.835)" fill="none" stroke="#9ea0ae" stroke-width="1"/>
    <path id="Trazado_113219" data-name="Trazado 113219" d="M0,5.736V0" transform="translate(993.295 6564.835)" fill="none" stroke="#9ea0ae" stroke-width="1"/>
    <path id="Trazado_113220" data-name="Trazado 113220" d="M0,5.736V0" transform="translate(1060.222 6564.835)" fill="none" stroke="#9ea0ae" stroke-width="1"/>
    <path id="Trazado_113221" data-name="Trazado 113221" d="M0,77.283,334.635,0" transform="translate(658.661 6366.496)" fill="none" stroke="#5e6178" stroke-width="2"/>
    <path id="Trazado_113222" data-name="Trazado 113222" d="M0,0H9.962V9.962H0Z" transform="translate(652.522 6436.365) rotate(-45)" fill="#6595bf"/>
    <path id="Trazado_113223" data-name="Trazado 113223" d="M0,0H9.962V9.962H0Z" transform="translate(987.616 6349.421) rotate(-45)" fill="#6595bf"/>
    <path id="Trazado_113224" data-name="Trazado 113224" d="M0,0H9.962V9.962H0Z" transform="translate(919.324 6395.006) rotate(-45)" fill="#6595bf"/>
    <path id="Trazado_113225" data-name="Trazado 113225" d="M0,0H9.962V9.962H0Z" transform="translate(852.397 6408.289) rotate(-45)" fill="#6595bf"/>
    <path id="Trazado_113226" data-name="Trazado 113226" d="M0,0H9.962V9.962H0Z" transform="translate(785.47 6419.358) rotate(-45)" fill="#6595bf"/>
    <path id="Trazado_113227" data-name="Trazado 113227" d="M0,0H9.962V9.962H0Z" transform="translate(718.543 6426.402) rotate(-45)" fill="#6595bf"/>
    <path id="Trazado_113228" data-name="Trazado 113228" d="M3.859,14.883,5.828,8.547H7.375L3.977,18.3q-.789,2.109-2.508,2.109L1.2,20.391l-.539-.1V19.117l.391.031a1.923,1.923,0,0,0,1.145-.3,2.148,2.148,0,0,0,.676-1.086l.32-.859L.172,8.547H1.75Zm15.375-4.242H12.719V9.383h6.516Zm0,3.242H12.719v-1.25h6.516ZM30.758,12a3.536,3.536,0,0,1-1.082.867A2.936,2.936,0,0,1,28.3,13.2a3.031,3.031,0,0,1-1.715-.484,3.149,3.149,0,0,1-1.129-1.363,4.648,4.648,0,0,1-.4-1.941,4.735,4.735,0,0,1,.434-2.055,3.185,3.185,0,0,1,1.23-1.4,3.509,3.509,0,0,1,1.859-.484,3.177,3.177,0,0,1,2.66,1.262,5.5,5.5,0,0,1,.973,3.441v.422q0,3.32-1.312,4.848a5.043,5.043,0,0,1-3.961,1.566h-.281V15.781h.3a3.979,3.979,0,0,0,2.75-.932A4,4,0,0,0,30.758,12Zm-2.227,0a2.232,2.232,0,0,0,1.34-.445,2.625,2.625,0,0,0,.895-1.1V9.875a3.977,3.977,0,0,0-.617-2.312,1.887,1.887,0,0,0-3.094-.16,3.013,3.013,0,0,0-.578,1.926,3.136,3.136,0,0,0,.559,1.918A1.769,1.769,0,0,0,28.531,12Zm10.422,5H37.5V7.367l-2.914,1.07V7.125L38.727,5.57h.227Zm9.773-5a3.536,3.536,0,0,1-1.082.867,2.936,2.936,0,0,1-1.379.328,3.031,3.031,0,0,1-1.715-.484,3.149,3.149,0,0,1-1.129-1.363,4.648,4.648,0,0,1-.4-1.941,4.735,4.735,0,0,1,.434-2.055,3.185,3.185,0,0,1,1.23-1.4,3.509,3.509,0,0,1,1.859-.484,3.177,3.177,0,0,1,2.66,1.262,5.5,5.5,0,0,1,.973,3.441v.422q0,3.32-1.312,4.848a5.043,5.043,0,0,1-3.961,1.566h-.281V15.781h.3a3.979,3.979,0,0,0,2.75-.932A4,4,0,0,0,48.727,12ZM46.5,12a2.232,2.232,0,0,0,1.34-.445,2.625,2.625,0,0,0,.895-1.1V9.875a3.977,3.977,0,0,0-.617-2.312,1.887,1.887,0,0,0-3.094-.16,3.013,3.013,0,0,0-.578,1.926A3.136,3.136,0,0,0,45,11.246,1.769,1.769,0,0,0,46.5,12Zm7.773-1.391h1.086a2.387,2.387,0,0,0,1.609-.539,1.8,1.8,0,0,0,.586-1.414,1.764,1.764,0,0,0-1.992-2,2.072,2.072,0,0,0-1.5.535,1.873,1.873,0,0,0-.559,1.418H52.063a2.9,2.9,0,0,1,.988-2.246,3.6,3.6,0,0,1,2.512-.895,3.558,3.558,0,0,1,2.523.852A3.076,3.076,0,0,1,59,8.688a2.5,2.5,0,0,1-.48,1.438,2.9,2.9,0,0,1-1.309,1.039,2.8,2.8,0,0,1,1.449.984,2.734,2.734,0,0,1,.512,1.68,3.1,3.1,0,0,1-1,2.43,3.745,3.745,0,0,1-2.6.9,3.844,3.844,0,0,1-2.605-.867,2.877,2.877,0,0,1-1-2.289h1.453A1.859,1.859,0,0,0,54,15.438a2.229,2.229,0,0,0,1.57.539,2.187,2.187,0,0,0,1.6-.547,2.108,2.108,0,0,0,.555-1.57,1.912,1.912,0,0,0-.609-1.523,2.655,2.655,0,0,0-1.758-.547H54.273Zm6.984,8.656-.82-.562a3.77,3.77,0,0,0,.766-2.109v-1.3h1.414v1.133A3.559,3.559,0,0,1,62.23,18,3.7,3.7,0,0,1,61.258,19.266ZM69.047,17H67.594V7.367L64.68,8.438V7.125L68.82,5.57h.227Zm7.219-5.367,1.875-3.086h1.688l-2.766,4.18L79.914,17H78.242l-1.953-3.164L74.336,17h-1.68l2.852-4.273-2.766-4.18h1.672Zm13.2-.734h3.172v1.367H89.461v3.594H88.008V12.266H84.836V10.9h3.172V7.578h1.453Zm14.414-5.281V6.844h-.266a3.805,3.805,0,0,0-2.687,1,4.161,4.161,0,0,0-1.156,2.727,3.085,3.085,0,0,1,2.453-1.031,2.95,2.95,0,0,1,2.371,1.047,4.038,4.038,0,0,1,.887,2.7,4.025,4.025,0,0,1-.957,2.813,3.3,3.3,0,0,1-2.566,1.055A3.247,3.247,0,0,1,99.3,15.9a4.97,4.97,0,0,1-1.016-3.23v-.555a7.488,7.488,0,0,1,1.34-4.8,4.921,4.921,0,0,1,3.988-1.7Zm-1.9,5.125A2.429,2.429,0,0,0,99.742,12.3v.531a3.731,3.731,0,0,0,.633,2.266,1.9,1.9,0,0,0,1.578.859,1.838,1.838,0,0,0,1.535-.719,2.982,2.982,0,0,0,.559-1.883,2.983,2.983,0,0,0-.566-1.895A1.816,1.816,0,0,0,101.977,10.742Zm12.344,1.406a6.61,6.61,0,0,1-.867,3.773,3.6,3.6,0,0,1-5.406.027,6.274,6.274,0,0,1-.906-3.605v-1.93a6.463,6.463,0,0,1,.867-3.727,3.668,3.668,0,0,1,5.422-.043,6.237,6.237,0,0,1,.891,3.629Zm-1.445-1.977a5.3,5.3,0,0,0-.516-2.676,1.775,1.775,0,0,0-1.633-.84,1.751,1.751,0,0,0-1.617.836,5.171,5.171,0,0,0-.523,2.57v2.313a5.381,5.381,0,0,0,.535,2.723,1.771,1.771,0,0,0,1.621.879,1.747,1.747,0,0,0,1.59-.828,5.186,5.186,0,0,0,.543-2.609Zm8.969-4.555V6.844h-.266a3.805,3.805,0,0,0-2.687,1,4.161,4.161,0,0,0-1.156,2.727,3.085,3.085,0,0,1,2.453-1.031,2.95,2.95,0,0,1,2.371,1.047,4.038,4.038,0,0,1,.887,2.7,4.025,4.025,0,0,1-.957,2.813,3.3,3.3,0,0,1-2.566,1.055,3.247,3.247,0,0,1-2.648-1.254,4.97,4.97,0,0,1-1.016-3.23v-.555a7.488,7.488,0,0,1,1.34-4.8,4.921,4.921,0,0,1,3.988-1.7Zm-1.9,5.125a2.429,2.429,0,0,0-2.234,1.563v.531a3.731,3.731,0,0,0,.633,2.266,1.9,1.9,0,0,0,1.578.859,1.838,1.838,0,0,0,1.535-.719,2.982,2.982,0,0,0,.559-1.883,2.983,2.983,0,0,0-.566-1.895A1.816,1.816,0,0,0,119.945,10.742Zm11.313,2.438h1.578v1.18h-1.578V17H129.8V14.359h-5.18v-.852l5.094-7.883h1.539Zm-4.992,0H129.8V7.6l-.172.313ZM139.68,12a3.536,3.536,0,0,1-1.082.867,2.936,2.936,0,0,1-1.379.328,3.031,3.031,0,0,1-1.715-.484,3.149,3.149,0,0,1-1.129-1.363,4.648,4.648,0,0,1-.4-1.941,4.735,4.735,0,0,1,.434-2.055,3.185,3.185,0,0,1,1.23-1.4,3.509,3.509,0,0,1,1.859-.484,3.177,3.177,0,0,1,2.66,1.262,5.5,5.5,0,0,1,.973,3.441v.422q0,3.32-1.312,4.848a5.043,5.043,0,0,1-3.961,1.566h-.281V15.781h.3a3.979,3.979,0,0,0,2.75-.932A4,4,0,0,0,139.68,12Zm-2.227,0a2.232,2.232,0,0,0,1.34-.445,2.625,2.625,0,0,0,.895-1.1V9.875a3.977,3.977,0,0,0-.617-2.312,1.887,1.887,0,0,0-3.094-.16,3.013,3.013,0,0,0-.578,1.926,3.136,3.136,0,0,0,.559,1.918A1.769,1.769,0,0,0,137.453,12Z" transform="translate(747.319 6349.223)" fill="#344154"/>
  </g>
</svg>
