<svg xmlns="http://www.w3.org/2000/svg" xmlns:xlink="http://www.w3.org/1999/xlink" width="180" height="199.806" viewBox="0 0 180 199.806">
  <defs>
    <clipPath id="clip-path">
      <path id="Trazado_111942" data-name="Trazado 111942" d="M230.748,174.211c.97,3.3,3.736,2.8,7.04,1.82a6.234,6.234,0,1,0-3.536-11.955C230.948,165.047,229.769,170.908,230.748,174.211Z" transform="translate(-230.415 -163.819)" fill="#ffb685"/>
    </clipPath>
    <clipPath id="clip-path-2">
      <path id="Trazado_111948" data-name="Trazado 111948" d="M243.476,207.25h-17.64l-1.179-21.465c-.176-1.748,1.515-3.255,3.664-3.255h13.871c2.149,0,3.841,1.507,3.664,3.255Z" transform="translate(-224.644 -182.53)" fill="none"/>
    </clipPath>
  </defs>
  <g id="Capa_2" data-name="Capa 2" transform="translate(0)">
    <g id="Grupo_60404" data-name="Grupo 60404" transform="translate(0 0)">
      <rect id="Rectángulo_8580" data-name="Rectángulo 8580" width="47.957" height="101.198" transform="translate(60.169 78.563)" fill="#d9a171"/>
      <rect id="Rectángulo_8581" data-name="Rectángulo 8581" width="47.957" height="20.711" transform="translate(5.982 159.042)" fill="#6595bf"/>
      <rect id="Rectángulo_8582" data-name="Rectángulo 8582" width="47.957" height="49.593" transform="translate(114.347 130.168)" fill="#344154"/>
      <g id="Grupo_60399" data-name="Grupo 60399">
        <path id="Trazado_111912" data-name="Trazado 111912" d="M46.382,157.068l-.882-.754,40.524-47.572L121.352,148.7l40.059-75.467,24.568,23.4L218.116,67.36l.786.866-32.939,30L161.724,75.138l-40.123,75.6L86.04,110.514Z" transform="translate(-41.266 -40.891)" fill="#aed3f2"/>
        <path id="Trazado_111913" data-name="Trazado 111913" d="M140.376,170.074a64.53,64.53,0,1,1,40.789-90.117l7.93-4.394A73.591,73.591,0,1,0,142.212,179Z" transform="translate(-42.041 -34.349)" fill="#344154"/>
        <path id="Trazado_111914" data-name="Trazado 111914" d="M228.095,115.607,225.04,71.78l-28.93,13.7Z" transform="translate(-71.114 -41.767)" fill="#344154"/>
        <path id="Trazado_111915" data-name="Trazado 111915" d="M135.381,127.893,105.85,110.846l2.734-4.739,26.8,15.467,38.7-22.234,2.726,4.755Z" transform="translate(-53.227 -47.229)" fill="#344154"/>
        <path id="Trazado_111916" data-name="Trazado 111916" d="M149.636,127.018A7.978,7.978,0,1,1,141.618,119,7.978,7.978,0,0,1,149.636,127.018Z" transform="translate(-58.742 -51.125)" fill="#aed3f2"/>
        <g id="Grupo_60398" data-name="Grupo 60398" transform="translate(23.213 14.986)">
          <path id="Trazado_111917" data-name="Trazado 111917" d="M144.678,56.921a2.277,2.277,0,1,1,0-3.207A2.277,2.277,0,0,1,144.678,56.921Z" transform="translate(-83.362 -53.04)" fill="#aed3f2"/>
          <path id="Trazado_111918" data-name="Trazado 111918" d="M109.447,65.5a2.269,2.269,0,1,1-.225-1.724A2.269,2.269,0,0,1,109.447,65.5Z" transform="translate(-76.268 -54.943)" fill="#aed3f2"/>
          <path id="Trazado_111919" data-name="Trazado 111919" d="M83.227,90.584a2.269,2.269,0,1,1-1.059-1.379,2.269,2.269,0,0,1,1.059,1.379Z" transform="translate(-71.072 -60.147)" fill="#aed3f2"/>
          <path id="Trazado_111920" data-name="Trazado 111920" d="M73.043,125.355a2.261,2.261,0,1,1-1.6-.667A2.269,2.269,0,0,1,73.043,125.355Z" transform="translate(-69.17 -67.239)" fill="#aed3f2"/>
          <path id="Trazado_111921" data-name="Trazado 111921" d="M81.614,160.581a2.27,2.27,0,1,1-2.778,1.608A2.27,2.27,0,0,1,81.614,160.581Z" transform="translate(-71.07 -74.337)" fill="#aed3f2"/>
          <path id="Trazado_111922" data-name="Trazado 111922" d="M106.664,186.811a2.269,2.269,0,1,1-1.379,1.059A2.269,2.269,0,0,1,106.664,186.811Z" transform="translate(-76.267 -79.535)" fill="#aed3f2"/>
          <path id="Trazado_111923" data-name="Trazado 111923" d="M141.466,197a2.269,2.269,0,1,1,0,3.207A2.269,2.269,0,0,1,141.466,197Z" transform="translate(-83.366 -81.437)" fill="#aed3f2"/>
          <path id="Trazado_111924" data-name="Trazado 111924" d="M176.7,188.415a2.269,2.269,0,1,1,.225,1.724A2.269,2.269,0,0,1,176.7,188.415Z" transform="translate(-90.465 -79.536)" fill="#aed3f2"/>
          <path id="Trazado_111925" data-name="Trazado 111925" d="M202.921,163.364a2.269,2.269,0,1,1,2.782,1.6,2.269,2.269,0,0,1-2.782-1.6Z" transform="translate(-95.661 -74.338)" fill="#aed3f2"/>
          <path id="Trazado_111926" data-name="Trazado 111926" d="M213.105,128.562a2.269,2.269,0,1,1,3.207,0A2.269,2.269,0,0,1,213.105,128.562Z" transform="translate(-97.563 -67.239)" fill="#aed3f2"/>
          <path id="Trazado_111927" data-name="Trazado 111927" d="M179.484,67.107a2.269,2.269,0,1,1,1.379-1.059A2.269,2.269,0,0,1,179.484,67.107Z" transform="translate(-90.466 -54.944)" fill="#aed3f2"/>
        </g>
        <path id="Trazado_111928" data-name="Trazado 111928" d="M48.062,180.521a3.921,3.921,0,1,1-3.921-3.921A3.921,3.921,0,0,1,48.062,180.521Z" transform="translate(-40.22 -62.541)" fill="#aed3f2"/>
        <path id="Trazado_111929" data-name="Trazado 111929" d="M98.642,120.191a3.921,3.921,0,1,1-3.921-3.921A3.921,3.921,0,0,1,98.642,120.191Z" transform="translate(-50.244 -50.584)" fill="#aed3f2"/>
        <path id="Trazado_111930" data-name="Trazado 111930" d="M142.842,170.191a3.921,3.921,0,1,1-3.921-3.921A3.921,3.921,0,0,1,142.842,170.191Z" transform="translate(-59.004 -60.493)" fill="#aed3f2"/>
        <path id="Trazado_111931" data-name="Trazado 111931" d="M192.122,76.711A3.921,3.921,0,1,1,188.2,72.79a3.921,3.921,0,0,1,3.921,3.921Z" transform="translate(-68.77 -41.968)" fill="#aed3f2"/>
        <path id="Trazado_111932" data-name="Trazado 111932" d="M262.772,67.651a3.921,3.921,0,1,1-3.921-3.921A3.921,3.921,0,0,1,262.772,67.651Z" transform="translate(-82.771 -40.172)" fill="#aed3f2"/>
      </g>
      <g id="Grupo_60403" data-name="Grupo 60403" transform="translate(138.466 98.093)">
        <path id="Trazado_111933" data-name="Trazado 111933" d="M244.179,229.46H225.32l.505,40.292h3.6s2.726-20.27,3.753-31.471h2.5l.746,31.471h3.608s4.25-31.6,4.129-37.686A23.687,23.687,0,0,0,244.179,229.46Z" transform="translate(-215.369 -171.109)" fill="#f9a369"/>
        <path id="Trazado_111934" data-name="Trazado 111934" d="M243.476,207.25h-17.64l-1.179-21.465c-.176-1.748,1.515-3.255,3.664-3.255h13.871c2.149,0,3.841,1.507,3.664,3.255Z" transform="translate(-215.236 -161.809)" fill="#6595bf"/>
        <path id="Trazado_111935" data-name="Trazado 111935" d="M235.662,182.858h2.405a1.467,1.467,0,0,0,1.371-1.539v-3a1.467,1.467,0,0,0-1.371-1.539h-2.405a1.459,1.459,0,0,0-1.363,1.539v3A1.459,1.459,0,0,0,235.662,182.858Z" transform="translate(-217.148 -160.669)" fill="#f9a369"/>
        <path id="Trazado_111936" data-name="Trazado 111936" d="M230.748,174.211c.97,3.3,3.736,2.8,7.04,1.82a6.234,6.234,0,1,0-3.536-11.955C230.948,165.047,229.769,170.908,230.748,174.211Z" transform="translate(-216.379 -158.1)" fill="#ff8860"/>
        <path id="Trazado_111937" data-name="Trazado 111937" d="M224.07,279.64h4.073v3.127h-8.275c-.553,0-.738-1.227-.257-1.491Z" transform="translate(-214.183 -181.054)" fill="#d9a171"/>
        <path id="Trazado_111938" data-name="Trazado 111938" d="M237.533,279.64h4.073v3.127H233.34c-.545,0-.73-1.227-.257-1.491Z" transform="translate(-216.854 -181.054)" fill="#d9a171"/>
        <path id="Trazado_111939" data-name="Trazado 111939" d="M224.924,213.06h17.64s3.889,1.828,4.346,7.738c.8,10.785-5.909,29.748-5.909,29.748H224.354s-5.517-22.635-4.3-29.748C221.035,215.089,224.924,213.06,224.924,213.06Z" transform="translate(-214.291 -167.859)" fill="#aed3f2"/>
        <g id="Grupo_60401" data-name="Grupo 60401" transform="translate(14.035 5.718)">
          <path id="Trazado_111940" data-name="Trazado 111940" d="M230.748,174.211c.97,3.3,3.736,2.8,7.04,1.82a6.234,6.234,0,1,0-3.536-11.955C230.948,165.047,229.769,170.908,230.748,174.211Z" transform="translate(-230.415 -163.819)" fill="#ffb685"/>
          <g id="Grupo_60400" data-name="Grupo 60400" clip-path="url(#clip-path)">
            <path id="Trazado_111941" data-name="Trazado 111941" d="M229.266,168.668l9.453.641s.706-2.245,2.061-.962c1.171,1.115-.625,2.9-.513,3.344.9,3.672,4.434,4.418,4.586-.313s-3.5-10.817-4.121-10.817-6.7-.762-7.16-.762-3.5,5.613-4.113,5.613S229.266,168.668,229.266,168.668Z" transform="translate(-230.159 -163.022)" fill="#d9a171"/>
          </g>
        </g>
        <path id="Trazado_111943" data-name="Trazado 111943" d="M239.684,164.82c-1.556-2.221.914-8.82,5.188-8.074s5.613,6.094,2.285,7.922S241.825,167.867,239.684,164.82Z" transform="translate(-218.123 -156.687)" fill="#d9a171"/>
        <rect id="Rectángulo_8583" data-name="Rectángulo 8583" width="12.091" height="19.605" transform="translate(12.981 28.451)" fill="#fff"/>
        <path id="Trazado_111944" data-name="Trazado 111944" d="M224.7,183c-5.725,0-11.787,17.752-11.787,19.059s1.307,2.173,2.518,2.349,20.446,0,20.446,0v-4.089L220.7,198.6l3.777-5.1.593-4.859Z" transform="translate(-212.91 -161.902)" fill="#6595bf"/>
        <path id="Trazado_111945" data-name="Trazado 111945" d="M245.866,183.06c5.4,2.061,11.418,17.688,11.418,19s-1.307,2.173-2.518,2.349-20.446,0-20.446,0l.69-3.568,13.719-1.932-6.647-10.335Z" transform="translate(-217.153 -161.914)" fill="#6595bf"/>
        <path id="Trazado_111946" data-name="Trazado 111946" d="M246.972,205.439v1.836a1.259,1.259,0,0,1-1.259,1.259h-4.081l-.072-4.346,3.761-.369a1.6,1.6,0,0,1,1.652,1.62Z" transform="translate(-218.588 -166.028)" fill="#f9a369"/>
        <g id="Grupo_60402" data-name="Grupo 60402" transform="translate(9.409 20.721)" clip-path="url(#clip-path-2)">
          <path id="Trazado_111947" data-name="Trazado 111947" d="M242.419,180.195A6.415,6.415,0,1,1,236,173.78,6.415,6.415,0,0,1,242.419,180.195Z" transform="translate(-225.624 -180.796)" fill="#f9a369"/>
        </g>
      </g>
    </g>
  </g>
</svg>
